<svg viewBox="0 0 69.01 202.07" xmlns="http://www.w3.org/2000/svg"><path d="m13.46 200.63h39s14-1 15-16-9-55-9-55-19-29-26-26-15 8-21 23-11 29-10 56c0 0 4 21 12 18z" fill="#fff"/><path d="m13.43 200.46c3.22-.21 6.46-.33 9.7-.48s6.49-.26 9.74-.36q9.77-.3 19.59-.43h-.1a14.6 14.6 0 0 0 2.18-.45 17.92 17.92 0 0 0 2.17-.75 14.8 14.8 0 0 0 3.89-2.32 14.12 14.12 0 0 0 4.69-7.48 32.15 32.15 0 0 0 .68-9.43c0-1.63-.17-3.28-.28-4.92s-.28-3.29-.48-4.93c-.76-6.58-1.7-13.16-2.95-19.69s-2.71-13-4.38-19.45l.12.23c-3-4.37-6.24-8.56-9.61-12.62-1.7-2-3.46-4-5.29-5.84a44.16 44.16 0 0 0 -5.8-5.06 9.17 9.17 0 0 0 -3-1.5 2.11 2.11 0 0 0 -.64 0 1.37 1.37 0 0 0 -.48.09c-.19.06-.55.25-.83.37s-.58.27-.86.42a34 34 0 0 0 -6.49 3.97 36.22 36.22 0 0 0 -9.29 11.91 77.1 77.1 0 0 0 -3.11 7.11c-1 2.46-1.91 4.92-2.79 7.39a119 119 0 0 0 -4.38 15c-2.28 10.24-2.87 20.76-2.87 31.35v-.17c.32 1.89.76 3.83 1.26 5.71a51.52 51.52 0 0 0 1.84 5.55 18.11 18.11 0 0 0 2.83 5 6.16 6.16 0 0 0 2.19 1.68 3.87 3.87 0 0 0 2.75.1zm.06.34a4.36 4.36 0 0 1 -3.05.19 6.82 6.82 0 0 1 -2.64-1.68 19.63 19.63 0 0 1 -3.46-5.05 41.91 41.91 0 0 1 -2.29-5.6c-.64-1.92-1.2-3.83-1.67-5.83v-.16a124.9 124.9 0 0 1 1.62-32.1 107 107 0 0 1 4.27-15.57c.9-2.53 1.86-5 2.85-7.51a67.38 67.38 0 0 1 3.4-7.41 39.65 39.65 0 0 1 10.48-12.8 33.72 33.72 0 0 1 7.1-4.28c.31-.15.63-.28.94-.42s.57-.25 1-.4a4.37 4.37 0 0 1 1.47-.25 5.17 5.17 0 0 1 1.34.17 11.75 11.75 0 0 1 4 2.08 40.51 40.51 0 0 1 5.93 5.68c1.78 2 3.45 4.13 5.06 6.26 3.24 4.25 6.21 8.67 9.13 13.14l.06.09v.09q2.23 9.75 4.38 19.5c1.42 6.51 2.92 13 4 19.61.3 1.65.52 3.31.78 5s.44 3.34.58 5l.16 2.54v2.59a18.2 18.2 0 0 1 -.19 2.63c-.06.44-.1.88-.18 1.32l-.26 1.37c-.12.44-.2.88-.35 1.31l-.51 1.27a16 16 0 0 1 -1.24 2.42 8.77 8.77 0 0 1 -.8 1.12 13 13 0 0 1 -.86 1.07 16.87 16.87 0 0 1 -2 1.87 17.63 17.63 0 0 1 -4.69 2.71 18.94 18.94 0 0 1 -5.27 1.3h-.11q-9.68-.13-19.41-.43c-3.24-.1-6.49-.21-9.75-.37s-6.53-.27-9.82-.47z"/><path d="m58.46 129.63 2-37.31a8.8 8.8 0 0 0 -.1-1.36c-.65-4.3-4.14-28.18-3.21-39a28.8 28.8 0 0 0 -.15-5.85c-.6-4.88-1.53-13.59-1.13-18a12.64 12.64 0 0 0 -1.13-6.38c-3.37-7.42-11-22.57-16.28-21-7 2-13 6-14 18-.72 8.63-1.44 21.42-1.78 27.9a24.53 24.53 0 0 1 -1.68 7.69c-3.39 8.43-11.27 28.8-10.49 34.31 1 7 0 38 0 38s11-22 23-24c0 0 17 10 25 28" fill="#eace88"/><path d="m58.29 129.62q.16-17 .78-33.84l.07-2.11a10.85 10.85 0 0 0 0-2c0-.53-.19-1.32-.28-2l-.33-2.1q-.65-4.2-1.21-8.41c-.74-5.61-1.32-11.25-1.69-16.94-.15-2.85-.23-5.7-.12-8.61l.14-2.15c0-.66.08-1.32.08-2a33.61 33.61 0 0 0 -.27-4.06c-.32-2.82-.52-5.66-.68-8.5a63.85 63.85 0 0 1 0-8.64 11.78 11.78 0 0 0 -.14-3.89 17.9 17.9 0 0 0 -1.35-3.78c-1.13-2.57-2.33-5.11-3.62-7.6a60.7 60.7 0 0 0 -4.37-7.13 21.27 21.27 0 0 0 -2.72-3.1 5.46 5.46 0 0 0 -3.33-1.72 7.69 7.69 0 0 0 -1.88.45c-.65.24-1.31.46-1.93.75a17.69 17.69 0 0 0 -3.58 2 14.57 14.57 0 0 0 -4.9 6.38 24.59 24.59 0 0 0 -1.72 8l-.37 8.45-.75 16.93c-.07 1.4-.09 2.8-.25 4.31a26.1 26.1 0 0 1 -.87 4.42q-.32 1.08-.72 2.13l-.75 2-1.48 4c-1.94 5.27-3.86 10.56-5.47 15.9a77 77 0 0 0 -2.05 8c-.08.65-.25 1.34-.27 1.94 0 .31-.06.63-.06.92s0 .52 0 .78c.18 1.48.29 3 .36 4.38.4 11.42 0 22.67-.36 34l-3.36-.86a78.83 78.83 0 0 1 4.48-7.49 74 74 0 0 1 5.25-7 42.11 42.11 0 0 1 6.43-6.21 18.8 18.8 0 0 1 8.27-3.86l.5-.08.37.24a67.33 67.33 0 0 1 7.68 5.94 72.83 72.83 0 0 1 6.76 6.85 58.76 58.76 0 0 1 5.7 7.73 53 53 0 0 1 4.36 8.52l-.32.14-1.12-2.09-.56-1-.63-1-1.24-2-1.36-1.93-.68-1-.73-.93c-.5-.61-1-1.23-1.48-1.83-1-1.18-2.06-2.37-3.16-3.48a71.62 71.62 0 0 0 -6.91-6.36 63.7 63.7 0 0 0 -7.62-5.33l.86.16a16.44 16.44 0 0 0 -6.91 3.58 42.06 42.06 0 0 0 -5.72 5.9 71 71 0 0 0 -4.85 6.8c-1.48 2.35-2.9 4.81-4.14 7.24l-3.56 7 .2-7.83c.14-5.62.21-11.26.28-16.89s.12-11.27 0-16.83c0-1.39-.13-2.73-.26-4.06v-1.33c0-.41.07-.79.1-1.19 0-.8.24-1.49.35-2.24a77.19 77.19 0 0 1 2.28-8.36c1.75-5.43 3.73-10.74 5.83-16l1.61-3.93.82-2c.25-.61.48-1.24.69-1.87a23.32 23.32 0 0 0 .78-3.9c.18-1.29.23-2.72.37-4.13l1.44-16.87.7-8.44a27.85 27.85 0 0 1 2.08-8.39 16.36 16.36 0 0 1 5.4-6.78 18.08 18.08 0 0 1 3.82-2.1c.66-.3 1.34-.52 2-.76a8.43 8.43 0 0 1 2.22-.53 4.69 4.69 0 0 1 2.27.65 10 10 0 0 1 1.81 1.35 25.11 25.11 0 0 1 2.9 3.22 64.14 64.14 0 0 1 4.67 7.16c1.44 2.46 2.77 5 4 7.51a19.46 19.46 0 0 1 1.67 4.09 13.89 13.89 0 0 1 .46 4.48 62.52 62.52 0 0 0 .39 8.27c.28 2.79.65 5.57 1 8.35a38.13 38.13 0 0 1 .4 4.37v2.24l-.12 2.07c-.1 2.74 0 5.53.14 8.31.29 5.58.84 11.18 1.45 16.76q.45 4.2 1 8.38l.27 2.1a21.16 21.16 0 0 1 .24 2.2 12.41 12.41 0 0 1 0 2.23l-.16 2.12q-1.18 16.9-2.84 33.78z"/></svg>