<svg viewBox="0 0 53.23 134.4" xmlns="http://www.w3.org/2000/svg"><path d="m50 129.63 2-37.31a10.24 10.24 0 0 0 -.1-1.36c-.65-4.3-4.15-28.18-3.22-39a28.1 28.1 0 0 0 -.14-5.87c-.6-4.88-1.53-13.59-1.13-18a12.64 12.64 0 0 0 -1.13-6.38c-3.4-7.45-11.01-22.6-16.28-21.08-7 2-13 6-14 18-.72 8.63-1.44 21.42-1.79 27.9a24.25 24.25 0 0 1 -1.72 7.79c-3.42 8.43-11.31 28.8-10.49 34.31 1 7 0 38 0 38s11-22 23-24c0 0 17 10 25 28" fill="#eace88"/><path d="m49.79 129.62q.16-17 .78-33.84l.08-2.11a11.82 11.82 0 0 0 0-2c0-.53-.19-1.32-.29-2l-.36-2.08q-.65-4.2-1.2-8.41c-.74-5.61-1.33-11.25-1.7-16.94-.15-2.85-.23-5.7-.11-8.61l.14-2.15c0-.66.08-1.32.08-2a33.66 33.66 0 0 0 -.28-4.06c-.31-2.82-.52-5.66-.68-8.5a65.53 65.53 0 0 1 0-8.64 11.52 11.52 0 0 0 -.13-3.89 17.41 17.41 0 0 0 -1.36-3.78c-1.13-2.57-2.32-5.11-3.62-7.6a59.39 59.39 0 0 0 -4.37-7.13 21.2 21.2 0 0 0 -2.71-3.1 5.49 5.49 0 0 0 -3.33-1.72 7.75 7.75 0 0 0 -1.89.45c-.65.24-1.3.46-1.93.75a17.62 17.62 0 0 0 -3.57 2 14.66 14.66 0 0 0 -4.91 6.38 24.84 24.84 0 0 0 -1.71 8l-.38 8.45-.71 16.91c-.07 1.4-.1 2.8-.25 4.31a25.16 25.16 0 0 1 -.87 4.38c-.2.72-.44 1.43-.71 2.13l-.75 2-1.48 4c-1.94 5.23-3.86 10.52-5.47 15.86a77 77 0 0 0 -2 8c-.1.65-.3 1.32-.32 1.94 0 .31-.06.63-.07.92s0 .52 0 .78c.18 1.48.29 3 .35 4.38.41 11.42 0 22.67-.36 34l-3.36-.86a81.06 81.06 0 0 1 4.49-7.49 72.31 72.31 0 0 1 5.25-7 41.57 41.57 0 0 1 6.36-6.14 18.84 18.84 0 0 1 8.28-3.86l.5-.08.36.24a66.58 66.58 0 0 1 7.69 5.94 74.07 74.07 0 0 1 6.76 6.85 59.68 59.68 0 0 1 5.7 7.73 53.87 53.87 0 0 1 4.36 8.52l-.32.14-1.13-2.09-.56-1-.62-1-1.24-2-1.36-1.93-.68-1-.74-.93c-.49-.61-1-1.23-1.47-1.83-1-1.18-2.07-2.37-3.16-3.48a71.62 71.62 0 0 0 -6.91-6.36 63.7 63.7 0 0 0 -7.62-5.33l.86.16a16.48 16.48 0 0 0 -6.92 3.58 42.63 42.63 0 0 0 -5.72 5.9 72.71 72.71 0 0 0 -4.84 6.8c-1.49 2.35-2.91 4.81-4.14 7.24l-3.52 6.98.2-7.83c.14-5.62.2-11.26.28-16.89s.11-11.27 0-16.83c0-1.39-.12-2.73-.26-4.06v-1.33c0-.41.07-.79.1-1.19.06-.8.24-1.49.36-2.24a79.52 79.52 0 0 1 2.27-8.36c1.76-5.43 3.74-10.74 5.84-16l1.6-3.93.82-2c.26-.61.49-1.24.69-1.87a22.36 22.36 0 0 0 .79-3.87c.18-1.29.24-2.72.38-4.13l1.45-16.87.7-8.44a27.55 27.55 0 0 1 2.08-8.39 16.26 16.26 0 0 1 5.39-6.78 18.34 18.34 0 0 1 3.8-2.1c.66-.3 1.35-.52 2-.76a8.63 8.63 0 0 1 2.23-.53 4.73 4.73 0 0 1 2.28.65 9.89 9.89 0 0 1 1.8 1.35 24.39 24.39 0 0 1 2.9 3.22 62.84 62.84 0 0 1 4.68 7.16c1.43 2.46 2.76 5 4 7.51a19.48 19.48 0 0 1 1.68 4.09 13.61 13.61 0 0 1 .38 4.52 62.55 62.55 0 0 0 .4 8.27c.27 2.79.65 5.57 1 8.35a34.11 34.11 0 0 1 .4 4.37v2.24l-.12 2.07c-.1 2.74 0 5.53.14 8.31.28 5.58.84 11.18 1.45 16.76q.45 4.2 1 8.38l.27 2.1c.08.72.21 1.32.24 2.2a12.35 12.35 0 0 1 -.06 2.23l-.16 2.08q-1.2 16.9-2.85 33.78z"/></svg>