<svg viewBox="0 0 69.01 100.1" xmlns="http://www.w3.org/2000/svg"><path d="m13.46 98.66h39s14-1 15-16-9-55-9-55-19-29-26-26-15 8-21 23-11 29-10 56c0 0 4 21 12 18z" fill="#fff"/><path d="m13.43 98.49c3.22-.21 6.46-.33 9.7-.48s6.49-.26 9.74-.36q9.77-.3 19.59-.43h-.1a14.6 14.6 0 0 0 2.18-.45 17.92 17.92 0 0 0 2.17-.77 14.8 14.8 0 0 0 3.89-2.3 14.12 14.12 0 0 0 4.69-7.48 32.15 32.15 0 0 0 .71-9.43c0-1.63-.17-3.28-.28-4.92s-.28-3.29-.48-4.93c-.76-6.58-1.7-13.16-2.95-19.69s-2.71-13-4.38-19.44l.09.19c-3-4.37-6.24-8.56-9.61-12.61-1.7-2-3.46-4-5.29-5.85a44.16 44.16 0 0 0 -5.8-5.06 8.94 8.94 0 0 0 -3-1.49 1.86 1.86 0 0 0 -.64-.06 1.37 1.37 0 0 0 -.48.09c-.19.06-.55.25-.83.37s-.58.27-.86.42a34 34 0 0 0 -6.49 4.05 36.22 36.22 0 0 0 -9.29 11.91 77.1 77.1 0 0 0 -3.11 7.11c-1 2.46-1.91 4.92-2.79 7.39a119 119 0 0 0 -4.38 15c-2.28 10.24-2.87 20.79-2.87 31.35v-.17c.32 1.89.76 3.83 1.26 5.71a51.52 51.52 0 0 0 1.84 5.55 18.11 18.11 0 0 0 2.83 5 6.16 6.16 0 0 0 2.19 1.68 3.82 3.82 0 0 0 2.75.1zm.06.34a4.36 4.36 0 0 1 -3.05.19 6.71 6.71 0 0 1 -2.64-1.68 19.63 19.63 0 0 1 -3.46-5 41.91 41.91 0 0 1 -2.29-5.6c-.64-1.97-1.2-3.88-1.67-5.88v-.16a124.9 124.9 0 0 1 1.62-32.1 107 107 0 0 1 4.27-15.6c.9-2.53 1.86-5 2.85-7.5a66.68 66.68 0 0 1 3.4-7.42 39.65 39.65 0 0 1 10.48-12.77 33.72 33.72 0 0 1 7.1-4.24c.31-.15.63-.28.94-.41s.57-.26 1-.41a4.11 4.11 0 0 1 1.47-.25 4.78 4.78 0 0 1 1.34.16 11.75 11.75 0 0 1 4 2.08 40.51 40.51 0 0 1 5.93 5.68c1.78 2 3.45 4.13 5.06 6.26 3.24 4.25 6.21 8.67 9.13 13.14l.06.09v.09q2.23 9.75 4.38 19.5c1.42 6.51 2.92 13 4 19.61.3 1.65.52 3.31.78 5s.44 3.34.58 5l.23 2.55v2.59a18.1 18.1 0 0 1 -.19 2.63c-.06.44-.1.88-.18 1.32l-.33 1.3c-.12.44-.2.88-.35 1.31l-.51 1.27a16 16 0 0 1 -1.24 2.42 8.77 8.77 0 0 1 -.8 1.12 13 13 0 0 1 -.86 1.07 16.87 16.87 0 0 1 -2 1.87 17.63 17.63 0 0 1 -4.69 2.71 18.94 18.94 0 0 1 -5.27 1.3h-.11q-9.68-.13-19.41-.43c-3.24-.1-6.49-.21-9.75-.36s-6.53-.28-9.82-.45z"/></svg>