<svg viewBox="0 0 55.08 174.81" xmlns="http://www.w3.org/2000/svg"><path d="m25.79 101.17 16 2s12 24 12 40 2 23-3 26-42 4-42 4l-6-12-1-24s5-31 24-36z" fill="#fff"/><path d="m25.78 101c5.32.25 10.72.66 16.14 1.13h.53l.29.53a134.85 134.85 0 0 1 5.92 12.74 110.4 110.4 0 0 1 4.51 13.36 52.5 52.5 0 0 1 1.9 14.12c-.18 4.63-.17 9.24-.19 13.91a49.38 49.38 0 0 1 -.38 7.06 10.12 10.12 0 0 1 -1.16 3.49 6.67 6.67 0 0 1 -2.8 2.51 17.24 17.24 0 0 1 -3.46 1c-1.15.23-2.3.44-3.46.62-2.31.34-4.62.66-6.94.94-9.26 1.09-18.53 2-27.84 2.35h-1l-.47-.92-6.16-11.84-.21-.35v-.4c-.23-4-.44-8-.59-12s-.3-8-.42-12v-.25-.15a72.19 72.19 0 0 1 3.15-11.2 62 62 0 0 1 5-10.49 37.27 37.27 0 0 1 7.36-9 22.41 22.41 0 0 1 10.28-5.16zm0 .35a24.72 24.72 0 0 0 -5 2.46 24.39 24.39 0 0 0 -4.2 3.58 30.36 30.36 0 0 0 -3.46 4.29 41.37 41.37 0 0 0 -2.82 4.76 64.7 64.7 0 0 0 -4.17 10.28 80.77 80.77 0 0 0 -2.62 10.74v-.36c.2 4 .44 8 .58 12s.3 8 .4 12l-.18-.72 5.84 12.08-1.47-.88 13.9-.24c4.63-.08 9.27-.2 13.89-.48 2.31-.14 4.62-.3 6.91-.58 1.15-.15 2.29-.28 3.42-.51a15.89 15.89 0 0 0 3.24-.86 5.15 5.15 0 0 0 2.3-2.08 9.21 9.21 0 0 0 1-3.1 39.16 39.16 0 0 0 0-6.85c-.33-4.62-.71-9.29-.91-13.94a68.33 68.33 0 0 0 -2.35-13.35c-1.08-4.42-2.53-8.79-4.08-13.12s-3.28-8.63-5.13-12.82l.81.57c-5.26-.87-10.53-1.79-15.88-2.87z"/><path d="m15.79.17s12-1 18 29l9.89 33.26a26.76 26.76 0 0 1 1.11 7.65v36.09s-15-15-34 4c0 0-1-15 2-23 2.36-6.29 1.63-25.56 1.21-33.51a37.58 37.58 0 0 1 .3-7.19l2.15-15.76a14.72 14.72 0 0 0 -.18-5l-4.48-21.54s0-3 4-4z" fill="#eace88"/><path d="m15.76 0a8.73 8.73 0 0 1 4.39 1.36 14.3 14.3 0 0 1 1.85 1.33 16.51 16.51 0 0 1 1.68 1.56 35.62 35.62 0 0 1 5.2 7.48c.64 1.38 1.37 2.73 1.92 4.15l.85 2.12.42 1.06.36 1.09c.45 1.45 1 2.89 1.37 4.36l1.2 4.43v-.11q3.16 9.3 5.93 18.72l1.38 4.71 1.29 4.74c.45 1.57.86 3.15 1.28 4.74a28.33 28.33 0 0 1 .92 5 38.68 38.68 0 0 1 .05 5l-.15 4.91c-.09 3.27-.22 6.54-.26 9.82-.14 6.54-.13 13.09-.08 19.63v1.28l-1-.87a20.6 20.6 0 0 0 -8.06-4.38 19.85 19.85 0 0 0 -9.06-.41 24.11 24.11 0 0 0 -4.35 1.35 27.41 27.41 0 0 0 -4 2.16 39.35 39.35 0 0 0 -7.07 5.9l-2.23 2.33-.24-3.26a89.48 89.48 0 0 1 0-13.6 49.35 49.35 0 0 1 .94-6.86c.14-.57.26-1.15.43-1.72l.53-1.69a19.38 19.38 0 0 0 .65-3 59.21 59.21 0 0 0 .5-6.33c.12-2.19.16-4.4.17-6.6q0-6.63-.22-13.29l-.12-3.32c-.06-1.16-.06-2.33 0-3.5s.18-2.32.34-3.47l.52-3.33c.71-4.4 1.48-8.82 2.27-13.17a13.39 13.39 0 0 0 .16-3.1 12.44 12.44 0 0 0 -.19-1.57l-.28-1.65-1.11-6.6c-.72-4.4-1.52-8.8-2.37-13.18a3.82 3.82 0 0 1 .43-1.59 4.52 4.52 0 0 1 1-1.25 5.39 5.39 0 0 1 1.29-.86 7.32 7.32 0 0 1 1.47-.52zm.06.35a7.09 7.09 0 0 0 -1.37.51 5.17 5.17 0 0 0 -1.2.81 4.38 4.38 0 0 0 -.86 1.15 3.5 3.5 0 0 0 -.39 1.35q1.44 6.53 3.08 13l1.62 6.49.41 1.63a15.12 15.12 0 0 1 .37 1.71 15.77 15.77 0 0 1 .13 3.57c-.4 4.49-.85 8.9-1.34 13.34l-.38 3.3c-.1 1.06-.16 2.13-.18 3.19s0 2.13.06 3.19l.23 3.41c.24 4.47.4 9 .35 13.46a86.31 86.31 0 0 1 -.97 13.54 22.42 22.42 0 0 1 -.88 3.55l-.5 1.52c-.16.49-.28 1-.42 1.51a47.24 47.24 0 0 0 -1 6.37c-.21 2.16-.33 4.36-.37 6.55s-.05 4.41 0 6.58l-2.47-.93a38.53 38.53 0 0 1 7.83-6 28.93 28.93 0 0 1 4.51-2.1 25.19 25.19 0 0 1 4.92-1.19 21.62 21.62 0 0 1 9.82.92 23.6 23.6 0 0 1 8.43 5l-1 .4c.05-6.54.07-13.09-.07-19.63 0-3.28-.17-6.55-.27-9.82l-.15-4.91a34.9 34.9 0 0 0 -.32-4.76 26.75 26.75 0 0 0 -1.12-4.55c-.51-1.56-1-3.11-1.51-4.67l-1.51-4.7-1.41-4.7q-2.82-9.44-5.26-18.92v-.1l-.84-4.42c-.26-1.47-.67-2.9-1-4.36l-.27-1.09-.33-1.06-.66-2.14c-.43-1.43-1-2.78-1.56-4.19a29.53 29.53 0 0 0 -4.66-7.58 12.94 12.94 0 0 0 -1.58-1.58 12.7 12.7 0 0 0 -1.79-1.32 8.47 8.47 0 0 0 -4.12-1.33z"/></svg>