<svg viewBox="0 0 36.85 113.53" xmlns="http://www.w3.org/2000/svg"><path d="m6.73.17s12-1 18 29l9.89 33.26a27.12 27.12 0 0 1 1.11 7.65v36.09s-15-15-34 4c0 0-1-15 2-23 2.36-6.29 1.63-25.56 1.21-33.51a38.4 38.4 0 0 1 .29-7.19l2.15-15.76a15 15 0 0 0 -.17-5l-4.48-21.54s0-3 4-4z" fill="#eace88"/><path d="m6.7 0a8.73 8.73 0 0 1 4.39 1.36 14.3 14.3 0 0 1 1.91 1.33 16.4 16.4 0 0 1 1.67 1.56 35.29 35.29 0 0 1 5.21 7.48c.64 1.38 1.37 2.73 1.92 4.15l.79 2.12.41 1.07.35 1.09c.46 1.45 1 2.89 1.38 4.36l1.18 4.42v-.11c2.09 6.17 4.09 12.44 5.92 18.72l1.38 4.71 1.32 4.74c.45 1.57.87 3.15 1.29 4.74a28.33 28.33 0 0 1 .92 5 38.68 38.68 0 0 1 0 5l-.15 4.91c-.09 3.27-.22 6.54-.27 9.82-.14 6.54-.12 13.09-.07 19.63v1.28l-1-.87a20.6 20.6 0 0 0 -8.06-4.38 19.89 19.89 0 0 0 -9.07-.41 24.61 24.61 0 0 0 -4.35 1.35 26.81 26.81 0 0 0 -4 2.16 39.76 39.76 0 0 0 -7.08 5.9l-2.17 2.4-.24-3.26a90.79 90.79 0 0 1 -.05-13.6 52.55 52.55 0 0 1 .94-6.86c.15-.57.27-1.15.43-1.72l.53-1.69a19.36 19.36 0 0 0 .66-3 59.21 59.21 0 0 0 .55-6.4c.12-2.19.15-4.4.17-6.6q0-6.63-.22-13.29l-.13-3.32c-.05-1.16-.05-2.33 0-3.5s.18-2.32.34-3.47l.5-3.34c.72-4.4 1.49-8.82 2.28-13.17a14 14 0 0 0 .16-3.1c0-.53-.1-1-.19-1.57l-.25-1.64-1.11-6.6q-1.1-6.61-2.38-13.18a3.67 3.67 0 0 1 .49-1.59 4.68 4.68 0 0 1 1-1.25 5.59 5.59 0 0 1 1.22-.86 7.64 7.64 0 0 1 1.48-.52zm.06.35a6.86 6.86 0 0 0 -1.37.51 5 5 0 0 0 -1.2.81 4.17 4.17 0 0 0 -.86 1.15 3.5 3.5 0 0 0 -.33 1.35c1 4.35 2 8.69 3.09 13l1.62 6.49.4 1.63a13.23 13.23 0 0 1 .31 1.71 15.21 15.21 0 0 1 .12 3.57c-.4 4.49-.84 8.9-1.33 13.34l-.38 3.3c-.11 1.06-.17 2.13-.18 3.19s0 2.13.06 3.19l.19 3.41c.23 4.47.39 9 .34 13.46a85.12 85.12 0 0 1 -.92 13.54 22.42 22.42 0 0 1 -.88 3.55l-.51 1.49c-.15.49-.27 1-.41 1.51a48.89 48.89 0 0 0 -1 6.37c-.21 2.16-.32 4.36-.36 6.55s-.06 4.41 0 6.58l-2.46-.9a39.08 39.08 0 0 1 7.83-6 29.8 29.8 0 0 1 4.51-2.1 25.29 25.29 0 0 1 4.85-1.2 21.62 21.62 0 0 1 9.82.92 23.47 23.47 0 0 1 8.42 5l-1 .4c.05-6.54.07-13.09-.07-19.63-.05-3.28-.18-6.55-.27-9.82l-.15-4.91a36.55 36.55 0 0 0 -.33-4.76 25.81 25.81 0 0 0 -1.11-4.55c-.52-1.56-1-3.11-1.52-4.67l-1.47-4.69-1.42-4.7c-1.79-6.27-3.61-12.57-5.22-18.92v-.1l-.84-4.42c-.26-1.47-.68-2.9-1-4.36l-.26-1.09-.33-1.06-.66-2.14c-.44-1.43-1-2.78-1.56-4.19a29.53 29.53 0 0 0 -4.66-7.58 12.94 12.94 0 0 0 -1.59-1.58 12.7 12.7 0 0 0 -1.79-1.32 8.51 8.51 0 0 0 -4.12-1.33z"/></svg>