<svg viewBox="0 0 55.08 73.81" xmlns="http://www.w3.org/2000/svg"><path d="m25.79.17 16 2s12 24 12 40 2 23-3 26-42 4-42 4l-6-12-1-24s5-31 24-36z" fill="#fff"/><path d="m25.78 0c5.32.25 10.72.66 16.14 1.13h.53l.29.53a136 136 0 0 1 5.92 12.74 110.4 110.4 0 0 1 4.51 13.4 52.5 52.5 0 0 1 1.9 14.12c-.18 4.63-.17 9.24-.19 13.92a49.53 49.53 0 0 1 -.38 7.06 10.14 10.14 0 0 1 -1.16 3.48 6.67 6.67 0 0 1 -2.8 2.51 17.24 17.24 0 0 1 -3.46 1c-1.15.24-2.3.44-3.46.62q-3.46.51-6.94 1c-9.26 1.08-18.53 1.95-27.84 2.34h-1l-.47-.92-6.16-11.93-.21-.35v-.4c-.23-4-.44-8-.59-12s-.3-8-.42-12v-.25-.15a72.19 72.19 0 0 1 3.15-11.2 62 62 0 0 1 5-10.49 37.27 37.27 0 0 1 7.36-9 22.41 22.41 0 0 1 10.28-5.16zm0 .35a24.72 24.72 0 0 0 -5 2.46 24.39 24.39 0 0 0 -4.2 3.58 29.89 29.89 0 0 0 -3.46 4.3 40.4 40.4 0 0 0 -2.82 4.75 65.09 65.09 0 0 0 -4.12 10.28 80.77 80.77 0 0 0 -2.62 10.74v-.36c.2 4 .44 8 .58 12s.3 8 .4 12l-.18-.72 5.84 12.08-1.47-.88 13.9-.24c4.63-.08 9.27-.2 13.89-.48 2.31-.14 4.62-.3 6.91-.58 1.15-.15 2.29-.28 3.42-.5a16.57 16.57 0 0 0 3.24-.87 5.15 5.15 0 0 0 2.3-2.08 9.21 9.21 0 0 0 1-3.1 39.16 39.16 0 0 0 0-6.85c-.33-4.62-.71-9.29-.91-13.94a68.6 68.6 0 0 0 -2.35-13.35c-1.13-4.42-2.58-8.79-4.13-13.12s-3.3-8.63-5.15-12.82l.81.57c-5.24-.87-10.51-1.79-15.86-2.87z"/></svg>