<svg viewBox="0 0 62.74 202.95" xmlns="http://www.w3.org/2000/svg"><path d="m.17 165.38s19 36 28 36 17-6 17-6l17-17s1-18-8-44c0 0-14-25-23-20 0 0-16 1-18 7s-13 44-13 44z" fill="#fff"/><path d="m.35 165.36 4.33 6.77c1.47 2.26 2.94 4.51 4.44 6.75 3 4.45 6.09 8.86 9.45 13a47.54 47.54 0 0 0 5.37 5.67 12.15 12.15 0 0 0 3 2c.25.1.47.14.71.23l.63.07c.63 0 1.25 0 1.87-.1a33.66 33.66 0 0 0 14.31-5.33l-.14.12 8.81-8.2q4.41-4.08 8.69-8.3l-.16.36a74.22 74.22 0 0 0 -.53-11.13 111.05 111.05 0 0 0 -1.89-11c-.83-3.63-1.74-7.24-2.86-10.79-.5-1.79-1.15-3.53-1.71-5.31s-1.25-3.49-1.85-5.25l.11.24c-1.35-2.26-2.86-4.51-4.4-6.69a70.21 70.21 0 0 0 -5-6.23 30 30 0 0 0 -5.71-5.11 9.72 9.72 0 0 0 -3.09-1.37 3.71 3.71 0 0 0 -2.65.31l-.36.2h-.43a58 58 0 0 0 -7.84 1.18 20.73 20.73 0 0 0 -7 2.65 5.28 5.28 0 0 0 -1.14 1 2.87 2.87 0 0 0 -.36.55l-.13.28-.15.48-1.22 3.87-2.45 7.72q-2.51 7.76-5.15 15.57t-5.5 15.79zm-.35 0q1.85-7.87 3.88-15.89t4.19-16.07l2.2-8.06 1.11-4 .14-.5.27-.68a6.85 6.85 0 0 1 .73-1.2 8.55 8.55 0 0 1 1.85-1.77 23.83 23.83 0 0 1 8.23-3.4 54.66 54.66 0 0 1 8.46-1.27l-.79.23a7.41 7.41 0 0 1 5.25-.67 13 13 0 0 1 4.29 2 32.63 32.63 0 0 1 6.28 5.87 72.52 72.52 0 0 1 5 6.65c1.56 2.3 3 4.63 4.34 7.08l.08.14v.1c.55 1.8 1.11 3.61 1.62 5.43s1 3.64 1.4 5.48c.89 3.67 1.58 7.38 2.22 11.09s1.06 7.46 1.41 11.21a101.08 101.08 0 0 1 .51 11.3v.2l-.15.16c-2.82 2.85-5.58 5.75-8.31 8.69l-8.19 8.81-.09.07a34.76 34.76 0 0 1 -3.53 2.34 32.23 32.23 0 0 1 -3.76 1.89 27.39 27.39 0 0 1 -8.22 2.2c-.71.1-1.45.09-2.17.13a9.32 9.32 0 0 1 -1.37-.17 12.34 12.34 0 0 1 -1.21-.42 14.78 14.78 0 0 1 -3.67-2.51 41.86 41.86 0 0 1 -5.6-6.21 123.3 123.3 0 0 1 -8.92-13.68q-2-3.54-3.88-7.15c-.62-1.2-1.22-2.42-1.81-3.64-.3-.6-.59-1.21-.88-1.83l-.42-.92-.21-.47-.11-.23c-.07-.06-.12-.15-.17-.29z"/><path d="m28.17.38s16-6 19 59c0 0 7 63 5 68 0 0-14-17-21-14 0 0-20 4-20 8s0-45 3-52c0 0 6-31 5-45 0 0 2-25 9-24z" fill="#eace88"/><path d="m28.16.2a5.65 5.65 0 0 1 4.22.56 12.25 12.25 0 0 1 3.36 2.74 21.93 21.93 0 0 1 2.52 3.5c.36.62.72 1.24 1 1.88s.64 1.27.92 1.92a79.65 79.65 0 0 1 4.92 16.2c1.11 5.53 1.91 11.1 2.49 16.69l.4 4.2.33 4.2c.12 1.4.19 2.78.26 4.18l.11 2.08c0 .33 0 .74.06 1l.11 1c1.14 11.19 1.9 22.36 2.64 33.52l1 16.75c.18 2.79.31 5.59.44 8.39.06 1.4.1 2.8.1 4.21v2.12a8.11 8.11 0 0 1 -.08 1.09 5.36 5.36 0 0 1 -.23 1.17l-.27 1-.73-.85a70.75 70.75 0 0 0 -9.34-9.06 30.85 30.85 0 0 0 -5.34-3.5c-1.84-.89-3.95-1.47-5.42-.78h-.08-.15c-3 .69-6 1.52-8.92 2.41a40.92 40.92 0 0 0 -8.33 3.33 4.76 4.76 0 0 0 -1.35 1.09l-.07.09s0 0 0 0a0 0 0 0 0 0 0v.2s0 .13 0-.1c1.5-.88-3.13-1.92-3.08.11v-5.68l.06-9.37c.08-6.24.2-12.48.48-18.74.16-3.12.35-6.25.63-9.39.15-1.58.3-3.15.53-4.74.12-.79.25-1.59.42-2.41a14.69 14.69 0 0 1 .76-2.6l-.12.37c.73-3.67 1.39-7.39 2-11.1s1.24-7.43 1.78-11.15 1-7.45 1.38-11.18a87 87 0 0 0 .52-11.14v-.17c.26-2.29.61-4.53 1-6.78s.91-4.46 1.51-6.64a36.85 36.85 0 0 1 2.4-6.46 11.79 11.79 0 0 1 2-2.9c.21-.21.45-.4.68-.59a4.33 4.33 0 0 1 .79-.44 3 3 0 0 1 1.69-.23zm0 .35a3.22 3.22 0 0 0 -2.75 1.36 11.31 11.31 0 0 0 -1.62 2.83 36.17 36.17 0 0 0 -1.79 6.41c-.43 2.2-.8 4.41-1.08 6.63s-.5 4.47-.63 6.69v-.17a77.61 77.61 0 0 1 0 11.51c-.22 3.81-.54 7.6-1 11.38-.85 7.56-2 15-3.35 22.54v.17l-.08.2a11.55 11.55 0 0 0 -.5 1.89c-.13.71-.25 1.45-.35 2.2-.19 1.5-.37 3-.5 4.55-.28 3.07-.48 6.16-.64 9.25q-.54 9.3-.8 18.62l-.24 9.33-.09 4.67v1c0 2-4.58 1-3.09.12v-.27a3.42 3.42 0 0 1 .22-1.12c.08-.17.15-.34.24-.5l.27-.37a7.47 7.47 0 0 1 2.28-1.82 43.63 43.63 0 0 1 9.09-3.33c3.05-.82 6.12-1.47 9.22-2l-.22.07a6.52 6.52 0 0 1 3.89-.18 13.71 13.71 0 0 1 3.3 1.32 32.09 32.09 0 0 1 5.5 3.94c1.69 1.46 3.27 3 4.8 4.61s3 3.24 4.41 5l-1 .16a8.47 8.47 0 0 0 .28-1.88c.05-.68.05-1.38.07-2.07 0-1.38 0-2.77-.07-4.16-.08-2.79-.28-5.57-.48-8.36-.4-5.56-1-11.12-1.64-16.67-1.27-11.1-2.8-22.17-4-33.27l-.12-1c0-.44 0-.72-.07-1.09l-.12-2.1c-.09-1.4-.14-2.81-.24-4.19l-.26-4.29-.4-4.16c-.49-5.53-1.09-11-2-16.52-.44-2.73-1-5.45-1.62-8.13a64.82 64.82 0 0 0 -2.35-7.91 28.6 28.6 0 0 0 -3.73-7.24 11.22 11.22 0 0 0 -2.9-2.77 5.13 5.13 0 0 0 -3.81-.88z"/></svg>