<svg viewBox="0 0 43.75 128.6" xmlns="http://www.w3.org/2000/svg"><path d="m18.84.38s16-6 19 59c0 0 7 63 5 68 0 0-14-17-21-14 0 0-20 4-20 8s0-45 3-52c0 0 6-31 5-45 0 0 2-25 9-24z" fill="#eace88"/><path d="m18.82.2a5.67 5.67 0 0 1 4.23.56 12.4 12.4 0 0 1 3.36 2.74 22.51 22.51 0 0 1 2.51 3.5c.37.62.73 1.24 1 1.88a21.07 21.07 0 0 1 .92 1.92 79.68 79.68 0 0 1 4.93 16.2c1.11 5.53 1.91 11.1 2.49 16.69l.4 4.2.32 4.2c.12 1.4.2 2.78.27 4.18l.1 2.08c0 .33 0 .74.06 1l.11 1c1.18 11.12 1.91 22.29 2.64 33.45l1.05 16.75c.17 2.79.31 5.59.44 8.39.05 1.4.09 2.8.1 4.21v2.12c0 .36 0 .72-.08 1.09a6.88 6.88 0 0 1 -.23 1.17l-.27 1-.74-.85a70.14 70.14 0 0 0 -9.43-8.99 30.78 30.78 0 0 0 -5.33-3.5c-1.84-.89-4-1.47-5.43-.78h-.08-.14c-3 .69-6 1.52-8.93 2.41a40.83 40.83 0 0 0 -8.32 3.33 4.62 4.62 0 0 0 -1.35 1.09l-.08.09s0 0 0 0v.2s0 .13 0-.1c1.5-.88-3.13-1.92-3.09.11v-5.68l.06-9.37c.11-6.19.22-12.43.5-18.69.16-3.12.36-6.25.63-9.39.15-1.58.3-3.15.54-4.74.12-.79.25-1.59.42-2.41a14.59 14.59 0 0 1 .75-2.6l-.15.34c.73-3.67 1.39-7.39 2-11.1s1.31-7.4 1.84-11.12 1-7.45 1.39-11.18a87 87 0 0 0 .51-11.14v-.17c.27-2.29.61-4.53 1-6.78s.87-4.49 1.5-6.69a36.89 36.89 0 0 1 2.39-6.46 11.52 11.52 0 0 1 2-2.9c.21-.21.44-.4.67-.59a4.69 4.69 0 0 1 .79-.44 3 3 0 0 1 1.73-.23zm0 .35a3.22 3.22 0 0 0 -2.72 1.36 11.63 11.63 0 0 0 -1.62 2.83 36.17 36.17 0 0 0 -1.84 6.41q-.64 3.3-1.07 6.63c-.28 2.23-.5 4.47-.64 6.69v-.17a76.28 76.28 0 0 1 0 11.51q-.33 5.71-1 11.38c-.86 7.56-2 15-3.35 22.54v.17l-.09.2a10.69 10.69 0 0 0 -.49 1.9c-.14.71-.25 1.45-.35 2.2-.2 1.5-.37 3-.51 4.55-.25 3.06-.44 6.15-.61 9.25-.36 6.2-.61 12.41-.8 18.62l-.23 9.33-.09 4.67v.58.42c.05 2-4.58 1-3.08.12v-.27a3 3 0 0 1 .22-1.12c.07-.17.15-.34.23-.5l.28-.37a7.56 7.56 0 0 1 2.27-1.82 43.84 43.84 0 0 1 9.09-3.33c3.06-.82 6.12-1.47 9.23-2l-.22.07a6.51 6.51 0 0 1 3.89-.18 13.48 13.48 0 0 1 3.29 1.32 31.71 31.71 0 0 1 5.5 3.94c1.69 1.46 3.28 3 4.8 4.61s3 3.24 4.41 5l-1 .16a8.44 8.44 0 0 0 .29-1.88c.05-.68.05-1.38.06-2.07 0-1.38 0-2.77-.06-4.16-.08-2.79-.29-5.57-.48-8.36-.41-5.56-1-11.12-1.64-16.67-1.27-11.1-2.8-22.17-4-33.27l-.12-1c0-.44 0-.72-.07-1.09l-.12-2.1c-.09-1.4-.13-2.81-.23-4.19l-.27-4.17-.41-4.29c-.5-5.53-1.1-11-2-16.52-.44-2.73-1-5.45-1.61-8.13a64.86 64.86 0 0 0 -2.36-7.91 28 28 0 0 0 -3.74-7.24 11 11 0 0 0 -2.89-2.77 5.14 5.14 0 0 0 -3.81-.88z"/></svg>