<svg viewBox="0 0 62.74 91.08" xmlns="http://www.w3.org/2000/svg"><path d="m.17 53.51s19 36 28 36 17-6 17-6l17-17s1-18-8-44c0 0-14-25-23-20 0 0-16 1-18 7s-13 44-13 44z" fill="#fff"/><path d="m.35 53.49 4.33 6.77c1.47 2.26 2.94 4.51 4.44 6.74 3 4.45 6.09 8.86 9.45 13a47.54 47.54 0 0 0 5.37 5.67 12.15 12.15 0 0 0 3 2c.25.1.47.14.71.23l.63.07c.63 0 1.25 0 1.87-.1a33.66 33.66 0 0 0 14.27-5.37l-.14.12 8.81-8.2q4.41-4.08 8.69-8.31l-.16.37a74.22 74.22 0 0 0 -.53-11.13 111.05 111.05 0 0 0 -1.89-11c-.83-3.63-1.74-7.24-2.86-10.79-.5-1.79-1.15-3.54-1.71-5.31s-1.25-3.5-1.85-5.25l.11.24c-1.35-2.24-2.89-4.52-4.4-6.7a70.21 70.21 0 0 0 -5-6.23 30 30 0 0 0 -5.67-5.11 9.72 9.72 0 0 0 -3.09-1.37 3.71 3.71 0 0 0 -2.65.31l-.36.2h-.43a58 58 0 0 0 -7.84 1.18 20.73 20.73 0 0 0 -7 2.65 5.28 5.28 0 0 0 -1.14 1 2.87 2.87 0 0 0 -.36.55l-.13.27-.15.49-1.22 3.87-2.45 7.82q-2.53 7.75-5.18 15.57t-5.47 15.75zm-.35 0c1.23-5.21 2.52-10.49 3.88-15.85s2.75-10.64 4.19-16.07l2.2-8.06 1.11-4 .14-.51.27-.67a6.5 6.5 0 0 1 .73-1.2 8.32 8.32 0 0 1 1.85-1.77 23.83 23.83 0 0 1 8.23-3.4 54.66 54.66 0 0 1 8.46-1.31l-.79.23a7.35 7.35 0 0 1 5.25-.67 13 13 0 0 1 4.29 2 32.63 32.63 0 0 1 6.28 5.87 72.52 72.52 0 0 1 5 6.65c1.56 2.29 3 4.62 4.34 7.08l.08.13v.1c.55 1.81 1.11 3.62 1.62 5.43s1 3.65 1.4 5.49c.89 3.67 1.58 7.38 2.22 11.09s1.06 7.46 1.41 11.21a101.08 101.08 0 0 1 .51 11.3v.2l-.15.16c-2.82 2.85-5.58 5.75-8.31 8.69l-8.14 8.79-.09.08a34.76 34.76 0 0 1 -3.53 2.34 32.23 32.23 0 0 1 -3.76 1.89 27.69 27.69 0 0 1 -8.27 2.29c-.71.1-1.45.09-2.17.13a9.32 9.32 0 0 1 -1.37-.17c-.4-.13-.83-.26-1.21-.42a14.78 14.78 0 0 1 -3.67-2.54 42.37 42.37 0 0 1 -5.6-6.21 123.3 123.3 0 0 1 -8.97-13.73q-2-3.54-3.88-7.15c-.62-1.2-1.22-2.42-1.81-3.64-.3-.61-.59-1.22-.88-1.83l-.42-.92-.21-.47-.11-.23c-.02-.07-.07-.15-.12-.29z"/></svg>