<svg viewBox="0 0 56.26 178.62" xmlns="http://www.w3.org/2000/svg"><path d="m30.42 96.44s-13-5-23 27-5 23-5 23a15.14 15.14 0 0 0 3 13c5 6 23 20 25 18 0 0 6 3 23-20 0 0 4-49-4-52 0 0-14-12-19-9z" fill="#fff"/><path d="m30.43 96.61a7.86 7.86 0 0 0 -3.93.24 11.3 11.3 0 0 0 -1.81.7c-.58.29-1.12.65-1.68 1a22.88 22.88 0 0 0 -5.38 5.63 34.8 34.8 0 0 0 -2.09 3.35 35.56 35.56 0 0 0 -1.81 3.47c-1.18 2.38-2.09 4.89-3.05 7.38-1.72 5-3.23 10.26-4.8 15.42-.79 2.58-1.56 5.17-2.31 7.74-.36 1.29-.71 2.59-1 3.85-.07.32-.13.63-.17.93a5.48 5.48 0 0 0 -.08.72s0 .07-.08-.16l-.09-.12a.91.91 0 0 0 -.3-.24 1 1 0 0 0 -.69-.06.6.6 0 0 0 -.21.09s0 0 0 0 0 0 .07-.07a4.44 4.44 0 0 0 .48-.64l3.94-6.17-2 7a14.46 14.46 0 0 0 -.42 5.2 12.91 12.91 0 0 0 1.54 5.13 18.63 18.63 0 0 0 3.38 4.3c1.32 1.32 2.69 2.6 4.11 3.81a99.84 99.84 0 0 0 8.95 6.89c1.55 1 3.13 2 4.74 2.95a24.13 24.13 0 0 0 2.44 1.22 7.93 7.93 0 0 0 1.19.4 1.8 1.8 0 0 0 .46.06c.13 0 .07-.07-.09.09l1.19-.19c-.1-.05 0 0 0 0h.07a1.25 1.25 0 0 0 .33 0 5.5 5.5 0 0 0 .76-.13l.8-.28.8-.37a20 20 0 0 0 3.07-2c1-.76 1.92-1.63 2.86-2.48s1.82-1.77 2.67-2.74 1.74-1.88 2.56-2.88 1.68-2 2.47-3c1.63-2 3.14-4.1 4.69-6.18l-.33.88c.29-4.38.42-8.81.61-13.21.09-2.21.15-4.41.19-6.62s.1-4.4.11-6.6c0-4.4-.06-8.8-.42-13.14a52.51 52.51 0 0 0 -.89-6.37 16.07 16.07 0 0 0 -.91-2.92 3.64 3.64 0 0 0 -1.4-1.86l-.23-.09-.13-.13c-1.3-1.18-2.7-2.33-4.11-3.45s-2.85-2.18-4.34-3.16a28.41 28.41 0 0 0 -4.65-2.62 11.28 11.28 0 0 0 -2.5-.77 3.61 3.61 0 0 0 -.65-.08 3.42 3.42 0 0 0 -.64 0 3.85 3.85 0 0 0 -1.29.28zm0-.35a3.14 3.14 0 0 1 1.27-.51 5.28 5.28 0 0 1 1.43-.1 11.82 11.82 0 0 1 2.77.54 29.71 29.71 0 0 1 5.1 2.2c1.63.88 3.2 1.85 4.74 2.87s3 2.1 4.49 3.26l-.37-.22a4.33 4.33 0 0 1 1.86 1.34 8.13 8.13 0 0 1 1.08 1.64 18.19 18.19 0 0 1 1.2 3.37 46.84 46.84 0 0 1 1.3 6.74 124.09 124.09 0 0 1 .88 13.44v6.7s-.12 4.46-.21 6.69c-.16 4.46-.51 8.89-.9 13.36v.52l-.29.36c-1.64 2.08-3.24 4.18-5 6.19-.83 1-1.72 2-2.62 3s-1.82 1.94-2.76 2.89a44.33 44.33 0 0 1 -6.15 5.23 22.42 22.42 0 0 1 -3.62 2l-1 .38c-.35.11-.72.19-1.08.29a7.37 7.37 0 0 1 -1.18.12 2.82 2.82 0 0 1 -.64 0 2.33 2.33 0 0 1 -.35-.06 1.83 1.83 0 0 1 -.47-.16l1.18-.19a1.92 1.92 0 0 1 -1.41.46 3.85 3.85 0 0 1 -.92-.18 9.14 9.14 0 0 1 -1.45-.59 26.21 26.21 0 0 1 -2.54-1.46c-1.61-1-3.15-2.15-4.66-3.3q-4.53-3.43-8.81-7.15c-1.42-1.25-2.85-2.49-4.2-3.83a22.66 22.66 0 0 1 -3.75-4.42 15.75 15.75 0 0 1 -2.07-5.53 15.55 15.55 0 0 1 -.26-3 14.85 14.85 0 0 1 .32-3.05l2 .82a7.75 7.75 0 0 1 -.66 1 2.5 2.5 0 0 1 -.28.3 2 2 0 0 1 -.23.18 1.64 1.64 0 0 1 -.44.21 1.31 1.31 0 0 1 -.93-.1 1.43 1.43 0 0 1 -.41-.31 2.22 2.22 0 0 1 -.15-.23 1.86 1.86 0 0 1 -.24-.57 6.31 6.31 0 0 1 0-1.3c0-.37.06-.74.11-1.09.19-1.4.48-2.75.76-4.09.57-2.69 1.28-5.32 2-7.95 1.49-5.24 3.13-10.39 5-15.58a57.06 57.06 0 0 1 8-14.5 23 23 0 0 1 6.33-5.53c.65-.29 1.28-.62 1.94-.87a11.55 11.55 0 0 1 2.16-.49 8.8 8.8 0 0 1 2.11-.12 7.56 7.56 0 0 1 1.05.14 4.7 4.7 0 0 1 .51.12 1.44 1.44 0 0 1 .43.12z"/><path d="m22.42 60.44s2.09-10.44 4.12-22.51c2.62-15.57 5.13-33.8 2.88-35.49-4-3 16 1 16 17s2 39 2 39l.18 45.18s-25.2-18.16-33.19 3.83c0 0-3-33 1-47s-4-56-4-56 6-5 10 3 6 26 6 26" fill="#eace88"/><path d="m22.25 60.4c.69-5.19 1.5-10.36 2.25-15.53l1.19-7.75 1.07-7.76c.68-5.17 1.32-10.35 1.76-15.51a68.19 68.19 0 0 0 .27-7.65 13.91 13.91 0 0 0 -.15-1.77 3.53 3.53 0 0 0 -.17-.71c-.06-.21-.12-.2 0-.11a3.61 3.61 0 0 1 -.61-.56 2.21 2.21 0 0 1 -.4-.71 1.46 1.46 0 0 1 -.07-.34 1.68 1.68 0 0 1 .52-1.4 1.92 1.92 0 0 1 .91-.48 2.9 2.9 0 0 1 .51-.12 4.22 4.22 0 0 1 .72 0 11.83 11.83 0 0 1 2.23.5 23.09 23.09 0 0 1 7.37 4 20.19 20.19 0 0 1 5.35 6.5 18.21 18.21 0 0 1 1.89 8.26v7.82c.1 10.42.5 20.88 1.18 31.3-.07 3.82-.07 7.62-.07 11.35s0 7.53.05 11.29c0 7.53.21 15.06.39 22.59v1.61l-1.39-.92a45.91 45.91 0 0 0 -8.62-4.44 27.86 27.86 0 0 0 -9.28-2 15.42 15.42 0 0 0 -4.51.56 11.6 11.6 0 0 0 -3.91 2 14.51 14.51 0 0 0 -1.56 1.58 16.06 16.06 0 0 0 -1.32 1.83 20.74 20.74 0 0 0 -2 4.17l-2.4 6.25-.61-6.64c-.8-8.67-1.25-17.32-1.29-26 0-4.36.12-8.73.57-13.12.12-1.1.21-2.19.41-3.3s.32-2.2.62-3.31l.39-1.66c.13-.55.21-1 .31-1.49l.31-1.46.16-1.53a83.06 83.06 0 0 0 .21-12.64c-.19-4.26-.55-8.54-1-12.81-.84-8.54-2-17.09-3.43-25.56l-.1-.85.58-.43a8.88 8.88 0 0 1 2.54-1.34 7.35 7.35 0 0 1 2.88-.36 6.23 6.23 0 0 1 2.8 1 8.18 8.18 0 0 1 2 1.93 16.49 16.49 0 0 1 2.35 4.61 48.31 48.31 0 0 1 1.51 4.71c.8 3.2 1.35 6.43 1.83 9.67s.86 6.48 1.1 9.74h-.35c-.51-3.21-1.11-6.41-1.78-9.59s-1.46-6.29-2.39-9.37a44.73 44.73 0 0 0 -1.6-4.52 14.69 14.69 0 0 0 -2.24-4 4.58 4.58 0 0 0 -3.36-1.87 4.92 4.92 0 0 0 -1.9.33 6.89 6.89 0 0 0 -1.73 1l.44-1.23c1.71 8.52 3.12 17.06 4.23 25.67.29 2.16.51 4.32.74 6.48s.4 4.34.49 6.52a81.38 81.38 0 0 1 -.08 13.24l-.18 1.68-.35 1.71-.37 1.68-.35 1.49c-.27 1-.39 2-.57 3s-.28 2.08-.4 3.13c-.44 4.2-.66 8.47-.73 12.74-.1 8.56.23 17.18.85 25.73l-3-.4a24.43 24.43 0 0 1 2.41-4.72 18.87 18.87 0 0 1 1.63-2.11 16.87 16.87 0 0 1 2-1.83 14.51 14.51 0 0 1 5-2.35 16.63 16.63 0 0 1 5.33-.48 29.78 29.78 0 0 1 10 2.59 49 49 0 0 1 8.83 5l-1.35.69c.06-7.53.19-15.06.19-22.62 0-3.77 0-7.53 0-11.3s-.08-7.53-.15-11.29v.05c-1-10.42-2-20.85-2.56-31.34-.15-2.61-.24-5.26-.28-7.87a15.64 15.64 0 0 0 -1.7-6.87 17 17 0 0 0 -4.55-5.48 20.07 20.07 0 0 0 -6.32-3.51 8.62 8.62 0 0 0 -1.6-.37 1.43 1.43 0 0 0 -.26 0 .94.94 0 0 0 .42-.27 1.29 1.29 0 0 0 .38-.75 1.16 1.16 0 0 0 0-.36 1.7 1.7 0 0 0 0-.26c-.09-.24-.14-.28-.16-.3s0 0 .12.1a3.2 3.2 0 0 1 1 1.54 7 7 0 0 1 .25 1.28 16.19 16.19 0 0 1 .17 2.14 67.86 67.86 0 0 1 -.47 8c-.55 5.25-1.38 10.43-2.27 15.6s-1.91 10.26-3.02 15.39-2.19 10.24-3.39 15.34z"/></svg>