<svg viewBox="0 0 38.46 114.23" xmlns="http://www.w3.org/2000/svg"><path d="m12.4 60.44s2.09-10.44 4.11-22.51c2.63-15.57 5.14-33.8 2.89-35.49-4-3 16 1 16 17s2 39 2 39l.18 45.18s-25.21-18.16-33.2 3.83c0 0-3-33 1-47s-4-56-4-56 6-5 10 3 6 26 6 26" fill="#eace88"/><path d="m12.22 60.4c.69-5.19 1.51-10.36 2.26-15.53l1.19-7.75 1.07-7.76c.68-5.17 1.31-10.35 1.75-15.51a68.22 68.22 0 0 0 .28-7.65 13.85 13.85 0 0 0 -.16-1.77 4.47 4.47 0 0 0 -.16-.71c-.07-.21-.12-.2 0-.11a3.61 3.61 0 0 1 -.61-.56 2 2 0 0 1 -.41-.71 2.18 2.18 0 0 1 -.06-.34 1.39 1.39 0 0 1 0-.49 1.63 1.63 0 0 1 .5-.91 1.88 1.88 0 0 1 .93-.52 2.68 2.68 0 0 1 .51-.08 4.22 4.22 0 0 1 .69 0 11.55 11.55 0 0 1 2.25.5 23.24 23.24 0 0 1 7.38 4 20.16 20.16 0 0 1 5.37 6.5 18 18 0 0 1 1.89 8.26v7.82c.11 10.42.48 20.92 1.16 31.3-.05 3.82-.05 7.62-.05 11.35s0 7.53 0 11.27c.05 7.53.2 15.06.39 22.59v1.61l-1.38-.92a46 46 0 0 0 -8.63-4.44 27.81 27.81 0 0 0 -9.27-2 15.33 15.33 0 0 0 -4.51.56 11.51 11.51 0 0 0 -3.91 2 13.69 13.69 0 0 0 -1.54 1.6 16.13 16.13 0 0 0 -1.33 1.83 21.27 21.27 0 0 0 -2 4.17l-2.4 6.25-.61-6.64c-.8-8.67-1.25-17.32-1.29-26a131.22 131.22 0 0 1 .56-13.12c.13-1.1.22-2.19.42-3.3s.32-2.2.62-3.31l.39-1.66c.13-.55.2-1 .31-1.49l.31-1.46.15-1.53a81.78 81.78 0 0 0 .22-12.64c-.19-4.26-.55-8.54-1-12.81-.78-8.59-1.96-17.14-3.37-25.61l-.13-.8.57-.43a9.06 9.06 0 0 1 2.55-1.34 7.35 7.35 0 0 1 2.88-.36 6.23 6.23 0 0 1 2.8 1 8.18 8.18 0 0 1 2 1.93 16.49 16.49 0 0 1 2.4 4.56 45.69 45.69 0 0 1 1.43 4.76c.8 3.2 1.36 6.43 1.84 9.67s.85 6.48 1.1 9.74h-.35c-.52-3.21-1.12-6.41-1.78-9.59s-1.44-6.29-2.44-9.37a44.69 44.69 0 0 0 -1.59-4.52 14.69 14.69 0 0 0 -2.2-3.93 4.6 4.6 0 0 0 -3.36-1.91 5 5 0 0 0 -1.91.33 7 7 0 0 0 -1.72 1l.44-1.23c1.71 8.52 3.11 17.06 4.22 25.67.3 2.16.51 4.32.75 6.48s.4 4.34.49 6.52a82.52 82.52 0 0 1 -.12 13.24l-.18 1.68-.32 1.71-.36 1.68-.35 1.49a30.4 30.4 0 0 0 -.57 3c-.2 1-.28 2.08-.4 3.13-.45 4.2-.66 8.47-.73 12.74-.11 8.56.23 17.18.84 25.73l-3-.4a23.93 23.93 0 0 1 2.42-4.72 17.79 17.79 0 0 1 1.65-2.14 16.15 16.15 0 0 1 2-1.83 14.51 14.51 0 0 1 5-2.35 16.63 16.63 0 0 1 5.33-.48 29.72 29.72 0 0 1 10 2.59 48.68 48.68 0 0 1 8.83 5l-1.34.69c.12-7.53.22-15.06.21-22.59 0-3.77 0-7.53 0-11.3s-.07-7.53-.15-11.29v.05c-1-10.42-2-20.85-2.56-31.34-.14-2.61-.23-5.26-.27-7.87a15.92 15.92 0 0 0 -1.7-6.87 17 17 0 0 0 -4.56-5.48 20 20 0 0 0 -6.32-3.51 8.36 8.36 0 0 0 -1.59-.37 1.49 1.49 0 0 0 -.26 0 .9.9 0 0 0 .38-.3 1.3 1.3 0 0 0 .36-.75 1.58 1.58 0 0 0 0-.36 1.46 1.46 0 0 0 -.06-.26.79.79 0 0 0 -.15-.3l.12.1a3.28 3.28 0 0 1 1 1.54 8 8 0 0 1 .3 1.28 18.09 18.09 0 0 1 .17 2.14 70.07 70.07 0 0 1 -.47 8c-.56 5.25-1.38 10.43-2.27 15.6s-1.91 10.26-3 15.39-2.2 10.24-3.39 15.34z"/></svg>