<svg viewBox="0 0 56.26 82.98" xmlns="http://www.w3.org/2000/svg"><path d="m30.42.79s-13-5-23 27-5 23-5 23a15.14 15.14 0 0 0 3 13c5 6 23 20 25 18 0 0 6 3 23-20 0 0 4-49-4-52 0 0-14-12-19-9z" fill="#fff"/><path d="m30.43 1a7.86 7.86 0 0 0 -3.93.24 11.3 11.3 0 0 0 -1.81.7c-.58.29-1.12.65-1.68 1a23.1 23.1 0 0 0 -5.38 5.64 34.8 34.8 0 0 0 -2.09 3.35 35.56 35.56 0 0 0 -1.81 3.53c-1.18 2.38-2.09 4.89-3.05 7.38-1.68 4.97-3.23 10.16-4.8 15.36-.79 2.58-1.56 5.17-2.31 7.74-.36 1.29-.71 2.59-1 3.85-.07.32-.13.63-.17.93a5.48 5.48 0 0 0 -.08.72s0 .07-.08-.16a.94.94 0 0 0 -.09-.12.91.91 0 0 0 -.3-.24 1 1 0 0 0 -.69-.06.6.6 0 0 0 -.16.14s0 0 .07-.07a4.44 4.44 0 0 0 .48-.64l3.87-6.19-2 7a14.46 14.46 0 0 0 -.42 5.19 12.91 12.91 0 0 0 1.53 5.09 18.37 18.37 0 0 0 3.38 4.29q2 2 4.11 3.82a99.84 99.84 0 0 0 8.98 6.86c1.55 1 3.13 2.05 4.74 3a24.13 24.13 0 0 0 2.44 1.22 7.93 7.93 0 0 0 1.19.4 1.8 1.8 0 0 0 .46.06c.13 0 .07-.07-.09.09l1.19-.19c-.1 0 0 0 0 0a.64.64 0 0 0 .14 0 1.25 1.25 0 0 0 .33 0 5.5 5.5 0 0 0 .76-.13l.8-.28.8-.37a20 20 0 0 0 3.07-2c1-.76 1.92-1.63 2.86-2.48s1.82-1.77 2.67-2.74 1.74-1.88 2.56-2.88 1.68-2 2.47-3c1.61-2.05 3.09-4.21 4.61-6.28l-.33.88c.29-4.38.42-8.81.61-13.21.09-2.21.15-4.41.19-6.62s.1-4.4.11-6.6c0-4.4-.06-8.8-.42-13.14a52.51 52.51 0 0 0 -.89-6.37 15.83 15.83 0 0 0 -.91-2.92 3.6 3.6 0 0 0 -1.36-1.86l-.23-.09-.13-.13c-1.3-1.18-2.7-2.33-4.11-3.45s-2.85-2.18-4.34-3.17a28.35 28.35 0 0 0 -4.65-2.61 11.28 11.28 0 0 0 -2.54-.77 3.61 3.61 0 0 0 -.65-.08 3.42 3.42 0 0 0 -.64 0 3.85 3.85 0 0 0 -1.28.37zm0-.35a3.46 3.46 0 0 1 .57-.34 3.49 3.49 0 0 1 .7-.2 5.28 5.28 0 0 1 1.4-.11 11.82 11.82 0 0 1 2.77.54 29.71 29.71 0 0 1 5.13 2.21c1.63.88 3.2 1.85 4.74 2.87s3 2.1 4.49 3.25l-.37-.21a4.33 4.33 0 0 1 1.84 1.34 8.13 8.13 0 0 1 1.08 1.64 18.19 18.19 0 0 1 1.22 3.36 46.84 46.84 0 0 1 1.3 6.74 124.09 124.09 0 0 1 .88 13.44v6.7s-.12 4.46-.21 6.69c-.16 4.46-.51 8.89-.9 13.36v.52l-.29.36c-1.64 2.08-3.24 4.18-5 6.19-.83 1-1.72 2-2.62 3s-1.76 2-2.7 2.9a44.33 44.33 0 0 1 -6.15 5.23 22.42 22.42 0 0 1 -3.62 2.05l-1 .38c-.35.11-.72.19-1.08.29a8.72 8.72 0 0 1 -1.18.12 3.55 3.55 0 0 1 -.64 0 2.33 2.33 0 0 1 -.35-.06 1.83 1.83 0 0 1 -.47-.16l1.18-.19a1.92 1.92 0 0 1 -1.41.46 3.85 3.85 0 0 1 -.92-.18 9.14 9.14 0 0 1 -1.45-.59 26.21 26.21 0 0 1 -2.54-1.46c-1.61-1-3.15-2.15-4.66-3.3q-4.54-3.49-8.82-7.19c-1.42-1.25-2.85-2.49-4.2-3.83a22.66 22.66 0 0 1 -3.75-4.42 15.75 15.75 0 0 1 -2.07-5.53 15.55 15.55 0 0 1 -.26-3 14.85 14.85 0 0 1 .32-3l2 .82a7.75 7.75 0 0 1 -.66 1 2.5 2.5 0 0 1 -.28.3 2 2 0 0 1 -.23.18 2 2 0 0 1 -.44.21 1.31 1.31 0 0 1 -.96-.03 1.43 1.43 0 0 1 -.41-.31 2.22 2.22 0 0 1 -.15-.23 1.86 1.86 0 0 1 -.26-.7 6.31 6.31 0 0 1 0-1.3c0-.37.06-.74.11-1.09.19-1.4.48-2.75.76-4.09.57-2.69 1.28-5.32 2-8 1.49-5.24 3.13-10.39 5-15.58a57.06 57.06 0 0 1 8-14.5 23 23 0 0 1 6.43-5.48c.65-.29 1.28-.62 1.94-.87a11.55 11.55 0 0 1 2.06-.53 8.8 8.8 0 0 1 2.11-.12 7.56 7.56 0 0 1 1.05.14 4.7 4.7 0 0 1 .54.12 1.44 1.44 0 0 1 .4.16z"/></svg>