<svg viewBox="0 0 64.09 204.68" xmlns="http://www.w3.org/2000/svg"><path d="m32.87 120.78s17-4 23 23c3.71 16.68 5.51 22.68 6.34 24.82a9.7 9.7 0 0 1 .66 3.49v7a6.52 6.52 0 0 1 -1.9 4.61c-5.52 5.52-21.53 20.89-28.1 20.06-8-1-31-15-31-22v-19s2-45.98 31-41.98z" fill="#fff"/><path d="m32.87 120.61a14.93 14.93 0 0 1 7.27.13 18.4 18.4 0 0 1 6.63 3.39 29.29 29.29 0 0 1 8.3 12.19 60.16 60.16 0 0 1 2.22 7l1.65 7c1.13 4.63 2.2 9.29 3.38 13.87.31 1.13.6 2.28 1 3.37.15.49.41 1.16.55 1.82a9.81 9.81 0 0 1 .27 2v1.88l-.14 1.79-.13 3.59a9.36 9.36 0 0 1 -.22 2 7.48 7.48 0 0 1 -.73 1.89 7.35 7.35 0 0 1 -1.22 1.61c-.46.45-.88.83-1.33 1.24q-2.64 2.46-5.32 4.85c-3.57 3.21-7.2 6.35-11.07 9.23-1 .72-2 1.42-3 2.07a29.1 29.1 0 0 1 -3.16 1.86 12.5 12.5 0 0 1 -3.62 1.25 6.39 6.39 0 0 1 -2.05 0 13.8 13.8 0 0 1 -1.85-.4 44.66 44.66 0 0 1 -6.89-2.55 72.07 72.07 0 0 1 -6.49-3.32 64.9 64.9 0 0 1 -11.92-8.61 25.9 25.9 0 0 1 -2.6-2.76 10.7 10.7 0 0 1 -2-3.72 5.92 5.92 0 0 1 -.26-1.28c0-.25 0-.34 0-.51v-.49-1.79-3.6c0-2.4 0-4.79 0-7.19v-5.42a18.42 18.42 0 0 1 .12-1.9 84.72 84.72 0 0 1 2.6-14.41 70.2 70.2 0 0 1 2.31-7 50.9 50.9 0 0 1 3.24-6.64 32.08 32.08 0 0 1 4.43-6 23 23 0 0 1 5.87-4.61 20.51 20.51 0 0 1 7.06-2.24 24 24 0 0 1 7.1.41zm0 .35a26.31 26.31 0 0 0 -7.06.45 20.77 20.77 0 0 0 -6.33 2.67 26.9 26.9 0 0 0 -8.81 10.38 58.06 58.06 0 0 0 -4.67 13.12 89.17 89.17 0 0 0 -2.16 13.86c0 .57-.1 1.19-.09 1.68v5.37 7.16l-.05 3.58v1.79.44a2.45 2.45 0 0 0 0 .39 2.05 2.05 0 0 0 .08.5 7.69 7.69 0 0 0 1.37 2.54 22.24 22.24 0 0 0 2.21 2.5 70.67 70.67 0 0 0 11.08 8.52 64.1 64.1 0 0 0 12.47 6.44 8.43 8.43 0 0 0 3.15.57 11.07 11.07 0 0 0 3.19-.92 35.81 35.81 0 0 0 6.09-3.53 101.46 101.46 0 0 0 11-9.1c1.74-1.64 3.42-3.33 5.08-5l1.2-1.29a5.61 5.61 0 0 0 .85-1.32 5.91 5.91 0 0 0 .46-1.48 7.54 7.54 0 0 0 0-1.6l-.13-3.59-.07-1.79c0-.59 0-1.23-.08-1.71a9.52 9.52 0 0 0 -.31-1.52c-.15-.51-.35-.94-.6-1.58-.44-1.17-.84-2.31-1.19-3.47-1.41-4.63-2.56-9.29-3.6-14l-1.53-7a61.22 61.22 0 0 0 -1.86-6.72l-.56-1.68-.7-1.58-.7-1.59c-.24-.52-.57-1-.85-1.49l-.87-1.49-1-1.37a19.62 19.62 0 0 0 -2.26-2.56 18.07 18.07 0 0 0 -5.77-3.63 16.18 16.18 0 0 0 -3.37-.86 13 13 0 0 0 -3.6-.05z"/><path d="m24.87.78s20 12 23 61 1 63 1 63-8.16-4.48-17-5c-6.37-.37-13.23 2.49-17 5l-1-37s5-40 4-55a200.77 200.77 0 0 0 -3.41-25.21 6 6 0 0 1 5.61-7.18 22 22 0 0 1 4.8.39z" fill="#eace88"/><path d="m24.94.62a26.67 26.67 0 0 1 6.2 5.43l.69.76.64.81 1.28 1.61c.79 1.13 1.58 2.25 2.33 3.4a73.31 73.31 0 0 1 7 14.9 124.2 124.2 0 0 1 6.2 32.18c.27 2.73.3 5.43.44 8.14s.18 5.43.25 8.14c.13 5.42.18 10.85.2 16.28l-.07 16.28c-.1 5.44-.12 10.83-.63 16.32l-.07.83-.79-.4a44.22 44.22 0 0 0 -8.22-3.17 37.5 37.5 0 0 0 -8.62-1.42 24.45 24.45 0 0 0 -8.44 1.41 32.76 32.76 0 0 0 -7.69 3.79l-2 1.35-.1-2.44c-.26-6.16-.57-12.33-.77-18.49l-.68-18.5v-.11-.16l1.29-11.88 1.21-11.88q.6-5.94 1.06-11.89c.35-3.91.61-7.91.74-11.91a95 95 0 0 0 -.24-11.8c-.29-3.95-.67-7.91-1.17-11.85q-.37-3-.84-5.9l-.47-3a6.71 6.71 0 0 1 .38-3.3 6.54 6.54 0 0 1 4.77-4.01 10.1 10.1 0 0 1 3.1 0 24.78 24.78 0 0 1 3.02.48zm-.13.38a25.39 25.39 0 0 0 -2.93-.27 10.23 10.23 0 0 0 -2.88.27 5.45 5.45 0 0 0 -3.7 3.64 5.38 5.38 0 0 0 -.1 2.61l.64 2.91q.63 2.94 1.18 5.9c.71 3.94 1.36 7.94 1.82 11.94a94 94 0 0 1 .71 12.12c0 4-.2 8-.4 12s-.54 8-.89 12-.74 8-1.17 12-.89 7.88-1.43 11.88v-.27l.33 18.5c.13 6.17.15 12.34.23 18.51l-2.11-1.09a32.18 32.18 0 0 1 8.51-3.73 26.52 26.52 0 0 1 9.22-1.07 39.06 39.06 0 0 1 8.94 1.87 53.44 53.44 0 0 1 8.37 3.54l-.87.43c.34-2.62.44-5.35.56-8s.11-5.41.11-8.11c0-5.42-.22-10.83-.52-16.23-.61-10.81-1.51-21.62-2.29-32.38a143.59 143.59 0 0 0 -5.51-31.61 79.32 79.32 0 0 0 -6-14.83l-2-3.46-1.17-1.7-.56-.83-.61-.8a30.46 30.46 0 0 0 -5.48-5.74z"/></svg>