<svg viewBox="0 0 38.08 127.26" xmlns="http://www.w3.org/2000/svg"><path d="m12.8.78s20 12 23 61 1 63 1 63-8.16-4.48-17-5c-6.37-.37-13.23 2.49-17 5l-1-37s5-40 4-55a200.77 200.77 0 0 0 -3.41-25.21 6 6 0 0 1 5.61-7.18 21.94 21.94 0 0 1 4.8.39z" fill="#eace88"/><path d="m12.87.62a26.67 26.67 0 0 1 6.2 5.43l.69.76.64.81 1.28 1.61c.79 1.13 1.58 2.25 2.33 3.4a73.31 73.31 0 0 1 7 14.9 124.2 124.2 0 0 1 6.2 32.18c.27 2.73.3 5.43.44 8.14s.18 5.43.25 8.14c.13 5.42.18 10.85.2 16.28l-.1 16.28c-.1 5.44-.12 10.83-.63 16.32l-.07.83-.79-.4a44.22 44.22 0 0 0 -8.22-3.17 37.5 37.5 0 0 0 -8.62-1.42 24.45 24.45 0 0 0 -8.44 1.41 32.76 32.76 0 0 0 -7.69 3.79l-2 1.35-.1-2.44c-.26-6.16-.57-12.33-.77-18.49l-.67-18.5v-.11-.16l1.31-11.88 1.21-11.88q.6-5.94 1.06-11.89c.31-3.91.61-7.91.74-11.91a95 95 0 0 0 -.24-11.8c-.29-3.95-.67-7.91-1.17-11.85q-.37-3-.84-5.9l-.47-3a6.71 6.71 0 0 1 .4-3.24 6.54 6.54 0 0 1 4.75-4.07 10.1 10.1 0 0 1 3.1 0 24.78 24.78 0 0 1 3.02.48zm-.13.38a25.21 25.21 0 0 0 -2.92-.27 10.27 10.27 0 0 0 -2.82.27 5.45 5.45 0 0 0 -3.77 3.64 5.38 5.38 0 0 0 -.1 2.61l.64 2.91q.63 2.94 1.23 5.9c.66 3.94 1.31 7.94 1.77 11.94a94 94 0 0 1 .71 12.1c0 4-.2 8-.4 12s-.54 8-.89 12-.74 8-1.17 12-.89 7.9-1.43 11.9v-.27l.33 18.5c.13 6.17.15 12.34.23 18.51l-2.11-1.09a32.18 32.18 0 0 1 8.51-3.73 26.52 26.52 0 0 1 9.22-1.07 39.06 39.06 0 0 1 8.94 1.87 53.44 53.44 0 0 1 8.37 3.54l-.87.43c.34-2.62.44-5.35.56-8s.11-5.41.11-8.11c0-5.42-.22-10.83-.52-16.23-.61-10.81-1.51-21.62-2.29-32.38a143.59 143.59 0 0 0 -5.51-31.61 79.32 79.32 0 0 0 -6.04-14.86l-2-3.46-1.13-1.67-.56-.83-.61-.8a30.46 30.46 0 0 0 -5.48-5.74z"/></svg>