<svg viewBox="0 0 64.09 84.54" xmlns="http://www.w3.org/2000/svg"><path d="m32.87.64s17-4 23 23c3.71 16.67 5.51 22.67 6.34 24.82a9.64 9.64 0 0 1 .66 3.48v7a6.53 6.53 0 0 1 -1.87 4.64c-5.52 5.52-21.53 20.88-28.1 20.06-8-1-31-15-31-22v-19s1.97-46 30.97-42z" fill="#fff"/><path d="m32.87.46a15.05 15.05 0 0 1 7.27.14 18.54 18.54 0 0 1 6.63 3.4 29.36 29.36 0 0 1 8.3 12.19 60.16 60.16 0 0 1 2.22 7l1.65 7c1.13 4.64 2.2 9.29 3.38 13.87.31 1.14.6 2.28 1 3.37.15.49.41 1.17.55 1.83a9.72 9.72 0 0 1 .27 2v1.87l-.14 1.78-.13 3.58a9.29 9.29 0 0 1 -.22 2 7.48 7.48 0 0 1 -.73 1.89 7.12 7.12 0 0 1 -1.24 1.62c-.46.45-.88.83-1.33 1.25q-2.64 2.41-5.35 4.81c-3.57 3.2-7.2 6.34-11.07 9.23-1 .72-2 1.41-3 2.07a32.76 32.76 0 0 1 -3.16 1.86 12.81 12.81 0 0 1 -3.62 1.25 6.39 6.39 0 0 1 -2.05 0 17.81 17.81 0 0 1 -1.8-.47 44.69 44.69 0 0 1 -6.89-2.56 72.07 72.07 0 0 1 -6.49-3.32 64 64 0 0 1 -11.92-8.51 24.89 24.89 0 0 1 -2.6-2.8 10.89 10.89 0 0 1 -2-3.72 6 6 0 0 1 -.21-1.26c0-.26 0-.35 0-.51v-.45-1.8-3.59c0-2.4 0-4.8 0-7.19v-5.4a18.6 18.6 0 0 1 -.07-1.89 84.42 84.42 0 0 1 2.6-14.4 69.53 69.53 0 0 1 2.31-7 50.78 50.78 0 0 1 3.24-6.6 31.82 31.82 0 0 1 4.43-6 23.2 23.2 0 0 1 5.87-4.6 20.75 20.75 0 0 1 7.06-2.25 24.31 24.31 0 0 1 7.24.31zm0 .35a26.72 26.72 0 0 0 -7.06.46 20.29 20.29 0 0 0 -6.33 2.67 26.94 26.94 0 0 0 -8.81 10.37 58.24 58.24 0 0 0 -4.67 13.12 89.11 89.11 0 0 0 -2.16 13.87c0 .56-.1 1.19-.09 1.67v5.37 7.16l-.05 3.58v1.79.45a2.33 2.33 0 0 0 0 .38 2.05 2.05 0 0 0 .08.51 7.79 7.79 0 0 0 1.37 2.54 22.24 22.24 0 0 0 2.21 2.5 70 70 0 0 0 11.08 8.51 63.56 63.56 0 0 0 12.4 6.44 8.23 8.23 0 0 0 3.15.57 11.07 11.07 0 0 0 3.19-.92 35.16 35.16 0 0 0 6.09-3.53 99.18 99.18 0 0 0 11-9.1c1.74-1.63 3.42-3.32 5.08-5l1.2-1.29a5.55 5.55 0 0 0 .85-1.31 6 6 0 0 0 .46-1.48 7.66 7.66 0 0 0 0-1.61l-.13-3.58-.07-1.8c0-.59 0-1.22-.08-1.71a10 10 0 0 0 -.31-1.52c-.15-.5-.35-.94-.6-1.57-.44-1.17-.84-2.32-1.19-3.48-1.41-4.63-2.56-9.28-3.6-14l-1.53-7a61.22 61.22 0 0 0 -1.86-6.72l-.49-1.68-.7-1.58-.7-1.58c-.24-.53-.57-1-.85-1.5l-.87-1.49-1.07-1.32a19.71 19.71 0 0 0 -2.26-2.57 18 18 0 0 0 -5.77-3.62 15.58 15.58 0 0 0 -3.37-.9 13 13 0 0 0 -3.53-.1z"/></svg>