<svg viewBox="0 0 83.11 70.85" xmlns="http://www.w3.org/2000/svg"><path d="m70.71 2.81 8.58 22.31a25 25 0 0 1 1.63 7.63l.67 12.82a6.46 6.46 0 0 1 -1.23 4.14c-3.91 5.34-15.46 20.1-23.65 20.1a37.64 37.64 0 0 1 -18-5l-.9-8.12a.24.24 0 0 0 -.46-.07l-3.64 8.19s-10 6-13 5-18-12-19-27 12-41 12-41z" fill="#fff"/><path d="m70.81 2.67c3.28 7.38 6.72 15.07 9.94 23a26 26 0 0 1 1.45 6.36l.44 6.25.4 6.21c0 .52.09 1 .07 1.7a7.68 7.68 0 0 1 -.3 1.9 7.81 7.81 0 0 1 -.74 1.77 7.71 7.71 0 0 1 -.52.79l-.46.64a94.6 94.6 0 0 1 -8.09 9.71 43.47 43.47 0 0 1 -10 8 12.9 12.9 0 0 1 -6.49 1.8 33 33 0 0 1 -6.35-.8 41.64 41.64 0 0 1 -11.75-4.69l-.23-.14v-.28l-.47-4.42-.23-2.2-.12-1.11v-.27a.8.8 0 0 0 0-.11.4.4 0 0 0 .08.16.27.27 0 0 0 .3.07c.12 0 .23-.25.15-.08-1.2 2.71-2.39 5.42-3.54 8.15l-.08.17-.17.1c-1.65 1-3.32 1.93-5 2.83a31.05 31.05 0 0 1 -5.41 2.29 8.24 8.24 0 0 1 -1.54.33 6.16 6.16 0 0 1 -.87 0 4.21 4.21 0 0 1 -.94-.2 16.19 16.19 0 0 1 -2.72-1.45 43.93 43.93 0 0 1 -4.68-3.55 43.07 43.07 0 0 1 -7.76-8.83 30.46 30.46 0 0 1 -4.62-11 34 34 0 0 1 .19-12 90.23 90.23 0 0 1 2.63-11.33 152.06 152.06 0 0 1 8.73-21.44l.51-1h1.12c4.84.1 9.66.31 14.48.47l14.38.61 14.22.72c4.7.32 9.39.56 13.99.87zm-.2.28-14.51.33-14.28.22-14.12.12c-4.68 0-9.35 0-14 0l1.63-1c-1.64 3.38-3.12 6.86-4.53 10.38s-2.73 7-3.88 10.6a88.49 88.49 0 0 0 -2.86 10.79 30.52 30.52 0 0 0 -.43 10.79 28.94 28.94 0 0 0 3.86 10.08 46.05 46.05 0 0 0 6.92 8.64 42.56 42.56 0 0 0 4.23 3.6 13.37 13.37 0 0 0 2.24 1.37 3.94 3.94 0 0 0 2.27-.07 30.45 30.45 0 0 0 5.21-1.93c1.72-.77 3.41-1.65 5-2.58l-.25.27c1.25-2.68 2.46-5.38 3.68-8.08a.84.84 0 0 1 .48-.5.81.81 0 0 1 .82.2.73.73 0 0 1 .2.4v.17.28l.12 1.1.26 2.21.51 4.41-.18-.42a35.72 35.72 0 0 0 11.48 4 31.34 31.34 0 0 0 6 .44 10.83 10.83 0 0 0 5.26-1.84 32.79 32.79 0 0 0 4.7-3.68c1.48-1.37 2.92-2.81 4.29-4.32 2.77-3 5.35-6.19 7.83-9.45a5.58 5.58 0 0 0 1.44-4.8l-.25-6.22-.23-6.2a24 24 0 0 0 -1-5.81c-2.67-7.57-5.24-15.37-7.91-23.45z"/></svg>