<svg viewBox="0 0 93.79 201.28" xmlns="http://www.w3.org/2000/svg"><path d="m82.64 131.32s18 43 5 55-36 14-36 14l-13-14s-7 16-16 14-19-11-20-23-4-25 10-46z" fill="#fff"/><path d="m82.74 131.18a3.32 3.32 0 0 1 .23.42l.16.34.31.69.63 1.38c.41.93.79 1.87 1.18 2.8q1.14 2.81 2.19 5.66c1.41 3.8 2.6 7.68 3.66 11.61a89.67 89.67 0 0 1 2.32 12 41.27 41.27 0 0 1 -.21 12.49 19.43 19.43 0 0 1 -2.29 6.13c-.32.47-.63.94-1 1.4l-1.17 1.27c-.8.71-1.61 1.36-2.42 2a47.17 47.17 0 0 1 -10.81 6.15 74.47 74.47 0 0 1 -11.74 3.65 84.82 84.82 0 0 1 -12.1 1.88h-.41l-.24-.28c-2.09-2.41-4.23-4.77-6.35-7.14s-4.3-4.7-6.45-7l.86-.15a43.85 43.85 0 0 1 -3.09 5.8 31.25 31.25 0 0 1 -4.11 5.16 13.39 13.39 0 0 1 -5.77 3.56 8 8 0 0 1 -3.55.13c-.56-.12-1.1-.26-1.65-.39s-1.06-.35-1.6-.52a28.69 28.69 0 0 1 -11.07-7.4 25.93 25.93 0 0 1 -4-5.47 28.07 28.07 0 0 1 -1.47-3.08 25.88 25.88 0 0 1 -1-3.27 27.19 27.19 0 0 1 -.62-3.38l-.35-3.21c-.24-2.13-.46-4.31-.63-6.5a56.63 56.63 0 0 1 .53-13.31 52.5 52.5 0 0 1 3.93-12.77 82.46 82.46 0 0 1 6.46-11.53l.56-.83h1c5.92.05 11.84.07 17.74.19s11.79.22 17.65.36l17.48.51c2.91.07 5.78.2 8.66.3zm-.19.29-17.78.64-17.52.51c-5.8.14-11.58.27-17.35.36s-11.51.14-17.26.19l1.54-.82a91 91 0 0 0 -6.16 11 49 49 0 0 0 -4.58 24.35c.12 2.12.3 4.24.49 6.4l.26 3.24a21.56 21.56 0 0 0 .44 3 23.13 23.13 0 0 0 .81 2.93 26.26 26.26 0 0 0 4.63 7.93 26.27 26.27 0 0 0 9.93 7.37c.49.17 1 .39 1.46.54s1 .3 1.48.43a6.46 6.46 0 0 0 2.87 0 11.28 11.28 0 0 0 5.23-3 34.74 34.74 0 0 0 7.16-10.43l.34-.71.46.6c2.18 2.31 4.35 4.65 6.55 6.95s4.4 4.6 6.65 6.86l-.66-.25a83.59 83.59 0 0 0 11.7-2.56 75.34 75.34 0 0 0 11.14-4.11 52.12 52.12 0 0 0 10.05-6l2.2-1.86.89-.94.76-1.08a16.17 16.17 0 0 0 2-5.11 41.13 41.13 0 0 0 .47-11.6 99 99 0 0 0 -1.78-11.79c-.81-3.92-1.8-7.8-2.87-11.68q-.81-2.9-1.71-5.78z"/><path d="m54.64 23.32-2-2c-6.72-13.59-20-20-20-20-19-1-14 27-14 27v2l11.75 82 35 4z" fill="#eace88"/><path d="m54.48 23.4-2.07-1.84v-.07a43.74 43.74 0 0 0 -4-5.86 47.08 47.08 0 0 0 -4.84-5.14 53.67 53.67 0 0 0 -5.57-4.43 44.1 44.1 0 0 0 -6-3.57l.49.13a15.22 15.22 0 0 0 -4 .4 10.37 10.37 0 0 0 -3.49 1.64 13.05 13.05 0 0 0 -4.23 6.56 32.21 32.21 0 0 0 -1.21 8.31 53.84 53.84 0 0 0 .49 8.53v.18.08 2-.21c.84 6.86 1.6 13.72 2.38 20.58s1.59 13.72 2.57 20.56 2 13.66 3.14 20.47l3.45 20.42-1.11-1.08 17.54 1.69 17.52 1.82-2 2c-1-7.69-1.89-15.39-2.76-23.09s-1.56-15.48-2.31-23.21-1.47-15.51-2.13-23.27-1.34-15.69-1.86-23.6zm.32-.15q1.88 11.37 3.52 22.94t3.24 23.19c1 7.75 2 15.54 3 23.33s1.81 15.6 2.61 23.41l.23 2.23-2.18-.27-17.51-2.18-17.47-2.32-1-.13-.11-1-2.41-20.52c-.81-6.86-1.72-13.7-2.72-20.53s-2.13-13.64-3.33-20.4-2.37-13.6-3.49-20.42v-.21-2 .27a46.18 46.18 0 0 1 -.66-9.14 32.48 32.48 0 0 1 1.44-9.16 15.33 15.33 0 0 1 5.44-7.95 12.84 12.84 0 0 1 4.54-2 16.88 16.88 0 0 1 4.77-.39h.29l.22.11a48.89 48.89 0 0 1 11.6 9c.86.86 1.64 1.8 2.43 2.73s1.51 1.91 2.16 2.94a41.12 41.12 0 0 1 3.54 6.35l-.06-.09z"/><path d="m54.64 21.32s26 0 28 46-1 62-1 62l-70 1s14-54-1-96c0 0 3-9 13-1s20 50 20 50 16-14 11-62z" fill="#eace88"/><path d="m54.51 21.21c.28-.12.28 0 .38-.06h.24.48c.32 0 .63.06 1 .11a17.27 17.27 0 0 1 1.88.35 22.13 22.13 0 0 1 3.64 1.19 26.57 26.57 0 0 1 6.54 4 35.27 35.27 0 0 1 9.19 12.28 60.25 60.25 0 0 1 4.63 14.62 105.26 105.26 0 0 1 1.7 15.18c.27 5 .44 10.07.58 15.12s.22 10.09.16 15.14-.19 10.1-.48 15.15a141.29 141.29 0 0 1 -1.59 15.19l-.17 1h-1l-17.51-.08c-5.83-.05-11.67 0-17.5 0s-11.67.09-17.5.2-11.67.22-17.5.36h-.82l.19-.83c.9-3.91 1.64-7.89 2.26-11.88s1.16-8 1.58-12c.84-8 1.22-16.07 1.28-24.12l-.09-6c-.05-2-.22-4-.33-6l-.17-3-.32-3c-.24-2-.38-4-.69-6a126.07 126.07 0 0 0 -5.6-23.23l-.21-.63.2-.55a8.37 8.37 0 0 1 .59-1.3 10.28 10.28 0 0 1 .72-1.13 8.35 8.35 0 0 1 2-1.94 7.51 7.51 0 0 1 5.53-1.09l1.3.33a11.28 11.28 0 0 1 1.19.46 15.67 15.67 0 0 1 2.19 1.15c.71.4 1.3.91 1.95 1.36a7.5 7.5 0 0 1 .95.79 9.4 9.4 0 0 1 .9.88 35.22 35.22 0 0 1 5.08 7.77c1.36 2.68 2.52 5.42 3.61 8.17 2.16 5.52 4 11.11 5.67 16.75s3.14 11.31 4.47 17l-2.46-.78a14.17 14.17 0 0 0 1.18-1.29c.39-.5.78-1 1.15-1.52s.71-1.07 1.05-1.62l1-1.69a50.6 50.6 0 0 0 3.11-7.2 76.22 76.22 0 0 0 3.65-15.45l.29-2c.09-.66.13-1.33.2-2l.36-4c.15-2.67.25-5.34.35-8s0-5.34-.08-8.07-.27-5.45-.4-8.09zm.26.23.95 7.92c.22 2.65.34 5.38.52 8.07s.1 5.41 0 8.11l-.21 4.06c0 .68 0 1.36-.12 2l-.21 2a78.46 78.46 0 0 1 -3.15 16 52.15 52.15 0 0 1 -3.1 7.67l-1 1.85c-.35.6-.74 1.19-1.11 1.79s-.81 1.16-1.24 1.74a17.12 17.12 0 0 1 -1.51 1.7l-1.82 1.73-.65-2.52c-1.44-5.61-3.07-11.22-4.82-16.75s-3.61-11-5.78-16.39c-1.08-2.67-2.26-5.29-3.55-7.82a31.75 31.75 0 0 0 -4.47-6.9 6 6 0 0 0 -.67-.66 5.71 5.71 0 0 0 -.73-.6c-.55-.38-1.07-.84-1.63-1.15a11.47 11.47 0 0 0 -1.69-.89 7.53 7.53 0 0 0 -.85-.34l-.78-.06a3.84 3.84 0 0 0 -2.86.48 4.77 4.77 0 0 0 -1.14 1.07 5.64 5.64 0 0 0 -.46.7 5.09 5.09 0 0 0 -.33.68v-1.17a129.25 129.25 0 0 1 5.46 24 168.51 168.51 0 0 1 1.18 24.44 215 215 0 0 1 -2.05 24.33 225.06 225.06 0 0 1 -4.63 24l-.64-.81c5.84 0 11.67-.06 17.5-.14s11.67-.19 17.5-.31 11.67-.3 17.5-.51l17.5-.58-1.16 1a148.45 148.45 0 0 0 1-14.88c.18-5 .24-10 .26-15s0-10-.09-15.06-.24-10-.39-15.06a109.54 109.54 0 0 0 -1.3-14.97 61.23 61.23 0 0 0 -4-14.21 38.59 38.59 0 0 0 -3.47-6.5 31.88 31.88 0 0 0 -4.73-5.63 25.47 25.47 0 0 0 -6-4.22 27.74 27.74 0 0 0 -3.44-1.38c-.6-.19-1.2-.34-1.8-.47-.31-.07-.61-.12-.92-.17l-.46-.06h-.23c-.14-.08-.3-.01-.18-.13z"/></svg>