<svg viewBox="0 0 76.17 130.99" xmlns="http://www.w3.org/2000/svg"><path d="m45.92 23.32-2-2c-6.73-13.59-20-20-20-20-19-1-14 27-14 27v2l11.74 82 35 4z" fill="#eace88"/><path d="m45.76 23.4-2.08-1.84v-.07a42.89 42.89 0 0 0 -4-5.86 47.08 47.08 0 0 0 -4.84-5.14 51.58 51.58 0 0 0 -5.48-4.41 44.1 44.1 0 0 0 -6-3.57l.5.13a15.25 15.25 0 0 0 -4 .4 10.23 10.23 0 0 0 -3.48 1.64 12.92 12.92 0 0 0 -4.23 6.56 31.79 31.79 0 0 0 -1.21 8.31 51.57 51.57 0 0 0 .49 8.53v.18.08 2-.21c.79 6.87 1.57 13.7 2.33 20.56s1.59 13.72 2.56 20.56 2 13.66 3.14 20.47l3.46 20.42-1.12-1.08 17.54 1.69 17.52 1.82-2 2q-1.43-11.57-2.72-23.13c-.82-7.71-1.65-15.42-2.39-23.17s-1.48-15.51-2.14-23.27-1.31-15.69-1.85-23.6zm.31-.15q1.88 11.37 3.52 22.94t3.24 23.19c1.05 7.75 2 15.54 3 23.33s1.81 15.6 2.61 23.41l.23 2.23-2.18-.27-17.49-2.18-17.46-2.32-1-.13-.11-1-2.43-20.52c-.81-6.86-1.74-13.7-2.73-20.53s-2.13-13.64-3.27-20.4-2.43-13.65-3.54-20.47v-.08-.13-2 .27a47.73 47.73 0 0 1 -.66-9.14 32.48 32.48 0 0 1 1.44-9.16 15.45 15.45 0 0 1 5.44-7.95 12.84 12.84 0 0 1 4.54-2 16.93 16.93 0 0 1 4.78-.34h.28l.22.11a46.92 46.92 0 0 1 6.18 4.09 48.61 48.61 0 0 1 5.42 4.92c.86.86 1.64 1.8 2.43 2.73s1.47 1.95 2.14 2.98a40.3 40.3 0 0 1 3.54 6.35l-.06-.09z"/><path d="m45.92 21.32s26 0 28 46-1 62-1 62l-70 1s14-54-1-96c0 0 3-9 13-1s20 50 20 50 16-14 11-62z" fill="#eace88"/><path d="m45.79 21.21c.28-.12.27 0 .37-.06h.24.48c.32 0 .64.06.95.11a17.27 17.27 0 0 1 1.88.35 22.24 22.24 0 0 1 3.65 1.19 26.57 26.57 0 0 1 6.54 4 35.27 35.27 0 0 1 9.19 12.28 60.69 60.69 0 0 1 4.63 14.62 105.24 105.24 0 0 1 1.69 15.18c.28 5 .44 10.07.58 15.12s.22 10.09.16 15.14-.19 10.1-.47 15.15a141.33 141.33 0 0 1 -1.6 15.19l-.16 1h-1l-17.5-.08c-5.84-.05-11.67 0-17.51 0s-11.66.09-17.5.2-11.66.22-17.49.36h-.83l.19-.83c.9-3.91 1.64-7.89 2.26-11.88s1.16-8 1.58-12c.84-8 1.23-16.07 1.28-24.12l-.09-6c0-2-.22-4-.32-6l-.18-3-.32-3c-.23-2-.37-4-.68-6a126.1 126.1 0 0 0 -5.6-23.2l-.21-.63.2-.55a9.43 9.43 0 0 1 .59-1.3 10.36 10.36 0 0 1 .73-1.13 8.3 8.3 0 0 1 2-1.94 7.53 7.53 0 0 1 5.54-1.09l1.29.33a11.28 11.28 0 0 1 1.19.46 14.62 14.62 0 0 1 2.19 1.15c.71.4 1.3.91 1.95 1.36a8.34 8.34 0 0 1 1 .79 9.26 9.26 0 0 1 .89.88 35.22 35.22 0 0 1 5.06 7.74c1.37 2.68 2.53 5.42 3.62 8.17 2.15 5.52 4 11.11 5.66 16.75s3.14 11.31 4.47 17l-2.46-.78a15.76 15.76 0 0 0 1.19-1.29c.38-.5.77-1 1.14-1.52s.71-1.07 1-1.62l1-1.69a50.6 50.6 0 0 0 3.11-7.2 74.91 74.91 0 0 0 3.64-15.4l.3-2c.09-.66.12-1.33.19-2l.36-4c.15-2.67.26-5.34.35-8s0-5.34-.08-8.07-.21-5.5-.33-8.14zm.26.23 1 7.92c.21 2.65.34 5.38.51 8.07s.11 5.41 0 8.11l-.2 4.06c0 .68-.06 1.36-.12 2l-.22 2a77.77 77.77 0 0 1 -3.14 16 53.33 53.33 0 0 1 -3.11 7.67l-1 1.85c-.35.6-.73 1.19-1.1 1.79s-.82 1.16-1.24 1.74a17.3 17.3 0 0 1 -1.52 1.7l-1.82 1.73-.64-2.52c-1.45-5.5-3.07-11.11-4.83-16.64s-3.6-11-5.78-16.39c-1.08-2.67-2.25-5.29-3.55-7.82a31.75 31.75 0 0 0 -4.47-6.9 6.85 6.85 0 0 0 -.66-.66 6.5 6.5 0 0 0 -.73-.6c-.55-.38-1.08-.84-1.64-1.15a11 11 0 0 0 -1.69-.89 7.39 7.39 0 0 0 -.84-.34l-.83-.17a3.88 3.88 0 0 0 -2.87.48 4.73 4.73 0 0 0 -1.13 1.07 5.64 5.64 0 0 0 -.46.7 5.33 5.33 0 0 0 -.34.68v-1.21a129.22 129.22 0 0 1 5.45 24 169.94 169.94 0 0 1 1.15 24.48 217.32 217.32 0 0 1 -2.06 24.33 222.59 222.59 0 0 1 -4.63 24l-.63-.81c5.83 0 11.66-.06 17.5-.14s11.66-.19 17.5-.31 11.66-.3 17.49-.51l17.5-.58-1.15 1c.65-4.82.84-9.9 1-14.88s.23-10 .25-15 0-10-.09-15.06-.24-10-.38-15.06a109.54 109.54 0 0 0 -1.32-14.85 60.75 60.75 0 0 0 -4-14.24 37.2 37.2 0 0 0 -3.47-6.5 31 31 0 0 0 -4.74-5.75 25.47 25.47 0 0 0 -6-4.22 27.74 27.74 0 0 0 -3.44-1.38 18.29 18.29 0 0 0 -1.8-.47c-.3-.07-.61-.12-.92-.17l-.46-.06h-.23s-.23.02-.1-.1z"/></svg>