<svg viewBox="0 0 93.79 71.81" xmlns="http://www.w3.org/2000/svg"><path d="m82.64 1.86s18 43 5 55-36 14-36 14l-13-14s-7 16-16 14-19-11-20-23-4-25 10-46z" fill="#fff"/><path d="m82.74 1.71a3.32 3.32 0 0 1 .23.42l.16.35.31.69.63 1.38c.41.92.79 1.86 1.18 2.79.75 1.88 1.49 3.76 2.19 5.66 1.41 3.79 2.6 7.68 3.66 11.6a90 90 0 0 1 2.32 12 41.26 41.26 0 0 1 -.21 12.49 19.43 19.43 0 0 1 -2.29 6.13c-.32.47-.63 1-1 1.4l-1.17 1.28c-.8.71-1.61 1.35-2.42 2a46.8 46.8 0 0 1 -10.81 6.15 73.44 73.44 0 0 1 -11.74 3.65 84.82 84.82 0 0 1 -12.1 1.88h-.41l-.24-.28c-2.03-2.3-4.2-4.67-6.32-7.04s-4.3-4.7-6.45-7.05l.86-.14a43.85 43.85 0 0 1 -3.12 5.75 31.6 31.6 0 0 1 -4.14 5.18 13.29 13.29 0 0 1 -5.74 3.57 8 8 0 0 1 -3.55.13c-.56-.12-1.1-.26-1.65-.39s-1.06-.35-1.6-.52a28.69 28.69 0 0 1 -11.07-7.4 25.67 25.67 0 0 1 -4-5.47 27.92 27.92 0 0 1 -1.47-3.07 27 27 0 0 1 -1-3.27 27.69 27.69 0 0 1 -.62-3.39l-.37-3.19c-.24-2.18-.46-4.36-.63-6.55a56.65 56.65 0 0 1 .53-13.31 52.29 52.29 0 0 1 3.93-12.76 82 82 0 0 1 6.48-11.55l.56-.83h1c5.92 0 11.84.08 17.74.19s11.77.23 17.6.37l17.48.51c2.91.07 5.78.2 8.66.31zm-.19.29-17.78.64-17.52.51c-5.8.14-11.58.27-17.35.36s-11.51.14-17.26.19l1.54-.82a91.75 91.75 0 0 0 -6.18 11.02 53.81 53.81 0 0 0 -3.83 11.87 53.61 53.61 0 0 0 -.73 12.49c.12 2.11.3 4.23.49 6.39l.26 3.24a21.92 21.92 0 0 0 .44 3 23.6 23.6 0 0 0 .81 2.93 26.64 26.64 0 0 0 1.22 2.8 25.93 25.93 0 0 0 3.41 5.12 26.27 26.27 0 0 0 9.93 7.36c.49.18 1 .39 1.46.54s1 .31 1.48.43a6.46 6.46 0 0 0 2.87 0 11.39 11.39 0 0 0 5.23-3 34.69 34.69 0 0 0 7.16-10.42l.34-.71.53.56c2.18 2.32 4.35 4.65 6.55 7s4.4 4.6 6.65 6.86l-.66-.25a83.59 83.59 0 0 0 11.67-2.49 75.34 75.34 0 0 0 11.14-4.11 51.12 51.12 0 0 0 10.05-6l2.2-1.86.89-.94.76-1.08a16.08 16.08 0 0 0 2-5.11 41.12 41.12 0 0 0 .47-11.6 99.31 99.31 0 0 0 -1.78-11.79c-.81-3.91-1.8-7.8-2.87-11.67q-.81-2.91-1.71-5.79z"/></svg>