<svg viewBox="0 0 86.8 176.6" xmlns="http://www.w3.org/2000/svg"><path d="m16.42 111-14 31s-5.42 11.74 8.69 27.53a7.3 7.3 0 0 0 5.42 2.47h6.61a7.25 7.25 0 0 0 4.15-1.31l2.81-2a7.28 7.28 0 0 1 9 .6c3.46 3.08 9.59 6.68 19.3 6.68 14.36 0 23.72-22.11 26.29-29a7.16 7.16 0 0 0 .29-4c-1.23-5.77-5-22.55-9.19-31.74a7.24 7.24 0 0 0 -6.6-4.25h-46.3a7.22 7.22 0 0 0 -6.47 4z" fill="#fff"/><path d="m16.58 111c-4.45 9.72-8.34 19.7-12.36 29.61l-.74 1.84a12.86 12.86 0 0 0 -.43 1.73 20.79 20.79 0 0 0 -.26 3.71c0 .62.08 1.25.13 1.87s.18 1.24.3 1.86l.41 1.84.57 1.81a42.68 42.68 0 0 0 7.9 13.13 6.08 6.08 0 0 0 2.62 1.89 5.79 5.79 0 0 0 1.59.34c.58 0 1.31.05 2 .07l4 .12h1a6.19 6.19 0 0 0 .86 0 6.36 6.36 0 0 0 1.66-.44 9.21 9.21 0 0 0 1.59-.92l1.68-1.1a11.43 11.43 0 0 1 1.87-1.06 8 8 0 0 1 2.14-.56 8.11 8.11 0 0 1 6.11 1.79c.56.48 1 .89 1.52 1.3a26.36 26.36 0 0 0 14.53 5.37 32.13 32.13 0 0 0 3.92.05 13.13 13.13 0 0 0 3.71-.83 19.6 19.6 0 0 0 6.42-4.14c3.78-3.55 6.58-8.06 9-12.67 1.23-2.33 2.32-4.72 3.32-7.15.49-1.22 1-2.44 1.43-3.67a8.55 8.55 0 0 0 .27-.82 5.1 5.1 0 0 0 .15-.76 5.36 5.36 0 0 0 0-1.55c0-.13 0-.25-.07-.38l-.11-.48-.22-1-.46-2-.97-3.8q-1-3.87-2-7.7a139.05 139.05 0 0 0 -4.92-15l-.37-.89-.19-.45-.16-.34a5.77 5.77 0 0 0 -.87-1.22 5.42 5.42 0 0 0 -2.55-1.52 6.07 6.07 0 0 0 -1.54-.19h-2l-4-.07c-5.35-.08-10.69-.29-16-.53l-16-.67c-2.67-.13-5.34-.15-8-.23a7 7 0 0 0 -6.48 3.81zm-.32-.15a7.5 7.5 0 0 1 6.64-4.18c2.68-.08 5.35-.1 8-.23l16-.67c5.35-.24 10.69-.45 16-.53l4-.07h2a9.87 9.87 0 0 1 2.43.26 9.08 9.08 0 0 1 4.3 2.46 9.79 9.79 0 0 1 1.49 2l.28.56.21.47.42 1c1.07 2.54 1.94 5.12 2.77 7.7s1.57 5.18 2.23 7.79 1.3 5.22 1.89 7.84l.87 3.94.42 2 .2 1 .1.5c0 .2.07.4.1.6a8.81 8.81 0 0 1 0 2.46 9.71 9.71 0 0 1 -.26 1.19 10.47 10.47 0 0 1 -.39 1.07c-.49 1.27-1 2.53-1.59 3.76-1.13 2.48-2.35 4.9-3.71 7.26a56.1 56.1 0 0 1 -4.54 6.82 38.54 38.54 0 0 1 -5.68 6 21 21 0 0 1 -7.2 4.12 14.48 14.48 0 0 1 -4.12.71 31 31 0 0 1 -4.1-.17 29.72 29.72 0 0 1 -15.02-5.76c-.53-.4-1.09-.89-1.56-1.26a7.68 7.68 0 0 0 -1.6-.91 6.61 6.61 0 0 0 -3.57-.39 6.22 6.22 0 0 0 -1.69.56 10.94 10.94 0 0 0 -1.55 1l-1.62 1.25a10.13 10.13 0 0 1 -1.81 1.19 8.1 8.1 0 0 1 -2.16.73 8.46 8.46 0 0 1 -1.14.13h-1l-4 .12c-.69 0-1.29.05-2.05.05a8.52 8.52 0 0 1 -6.3-2.87c-.89-1.05-1.81-2.06-2.67-3.14l-1.28-1.65-.61-.85-.54-.88a33.4 33.4 0 0 1 -3.61-7.55 24.11 24.11 0 0 1 -1.24-8.36 19.77 19.77 0 0 1 .58-4.25 13.51 13.51 0 0 1 .72-2.11l.91-1.82c4.79-9.57 9.7-19.08 14.05-28.85z"/><path d="m54.51 20.65-2.59-3.18s-9-18-13-16-8 15-8 15l-.54 1.88 1.26 73.12 26-2z" fill="#eace88"/><path d="m54.34 20.71c-.94-1-1.89-2-2.78-2.95v-.07c-1.72-2.9-3.53-5.76-5.45-8.5-1-1.35-2-2.69-3.05-3.91a16.45 16.45 0 0 0 -1.67-1.67 4 4 0 0 0 -1.6-.94h-.12a0 0 0 0 1 -.06 0s0 0 0 0l-.08.06c-.11.09-.23.17-.35.25a3.65 3.65 0 0 0 -.35.34 6.64 6.64 0 0 0 -.7.83 9.83 9.83 0 0 0 -.64 1 35.69 35.69 0 0 0 -2.2 4.32 73.39 73.39 0 0 0 -3.32 9.37l.06-.46c.12 6.09 0 12.19-.14 18.29s-.3 12.19-.24 18.29.22 12.18.51 18.27l.84 18.21-1.46-1.32c8.65-.92 17.31-1.64 26-2.44l-1.66 1.87c-.35-5.69-.6-11.37-.82-17.06l-.33-8.49-.21-8.57c-.25-11.49-.35-23-.18-34.72zm.33-.13c1.22 11.22 2.16 22.66 2.95 34.15l.57 8.64.5 8.66c.3 5.78.57 11.57.74 17.35v1.77l-1.71.1c-8.67.54-17.34 1.15-26 1.56l-1.48.07v-1.39l.29-18.29q.13-9.15-.12-18.28c-.14-6.1-.53-12.18-.87-18.27s-.67-12.18-.77-18.27v-.25l.06-.22c.25-.83.44-1.61.73-2.49s.57-1.63.87-2.44c.61-1.62 1.26-3.22 2-4.8a32.22 32.22 0 0 1 2.57-4.65c.27-.37.51-.75.83-1.11a9 9 0 0 1 1-1.08 4.85 4.85 0 0 1 .59-.5l.71-.46.18-.11.29-.11a2.45 2.45 0 0 1 .6-.16 5.62 5.62 0 0 1 .58 0 2.86 2.86 0 0 1 .51.09 4 4 0 0 1 .87.31c.24.14.49.27.7.42a9.66 9.66 0 0 1 1.14.93 19.84 19.84 0 0 1 1.8 2 41.38 41.38 0 0 1 2.9 4.33 82.68 82.68 0 0 1 4.64 9.15v-.08c.77 1.17 1.55 2.32 2.33 3.43z"/><path d="m58.92 8.47s20 31 16 53v40.87a3.13 3.13 0 0 1 -3.13 3.13h-50.71a3.37 3.37 0 0 1 -3.37-3.16c-.45-7.35-1.37-25 .21-25.84 2-1 2-59 2-59s2-8 6-8c3.85 0 15.08 45.29 13.28 52.34a5.29 5.29 0 0 0 -.1 2.06c.42 2.93 1.72 9.37 4.82 8.6 4-1 9-11 9-20s2-38 2-38 0-10 4-6z" fill="#eace88"/><path d="m59.06 8.36c2.55 4 4.75 8.14 6.9 12.34q1.59 3.15 3 6.39c1 2.14 1.89 4.33 2.73 6.53s1.61 4.45 2.28 6.73a64.82 64.82 0 0 1 1.69 6.93 43.53 43.53 0 0 1 .54 14.42v-.23l.2 11.67.07 11.67v11.67l-.06 5.83a4.56 4.56 0 0 1 -1.88 3.69 4.47 4.47 0 0 1 -1.93.82 4.75 4.75 0 0 1 -.53 0h-.45-.73l-23.34-.47c-7.78-.17-15.56-.31-23.34-.34h-2.92a4 4 0 0 1 -3-1.2 3.93 3.93 0 0 1 -.88-1.43 5.5 5.5 0 0 1 -.25-1.58l-.16-2.91c-.22-3.89-.41-7.78-.53-11.68-.06-1.95-.07-3.91 0-5.87 0-1 .05-2 .16-3a8.09 8.09 0 0 1 .3-1.58 1.9 1.9 0 0 1 .21-.48.88.88 0 0 1 .23-.3c.09-.09.39-.29.17-.16s-.08.1-.09.08a.24.24 0 0 0 0-.08c0-.07 0-.17.08-.27a44.19 44.19 0 0 0 .47-5.64c.09-1.93.16-3.87.2-5.81.27-15.53.12-31.09.06-46.63v-.22l.05-.18a22.82 22.82 0 0 1 1.79-4.72 12.35 12.35 0 0 1 1.45-2.24 6.77 6.77 0 0 1 2.45-1.91c.28-.11.55-.22.83-.3s.6-.1.91-.13h.26a2.8 2.8 0 0 1 .58.09 2.18 2.18 0 0 1 .42.14 1.91 1.91 0 0 1 .33.2 3.79 3.79 0 0 1 .76.69 12 12 0 0 1 1.46 2.33 46.69 46.69 0 0 1 1.88 4.46 172 172 0 0 1 5.38 18c1.49 6.07 2.84 12.16 3.74 18.4.22 1.56.42 3.13.55 4.74.06.8.11 1.61.12 2.44a12.24 12.24 0 0 1 -.22 2.74l-.11.49v.38a3.14 3.14 0 0 0 0 .8c.1.73.23 1.46.38 2.17a15.71 15.71 0 0 0 1.23 3.96 2.64 2.64 0 0 0 .8 1h.05s0 0 .09 0 .12 0 .23-.06a1.77 1.77 0 0 0 .31-.12 9.31 9.31 0 0 0 2.75-2.62 22.33 22.33 0 0 0 2.17-3.79 33.64 33.64 0 0 0 2.6-8.51 40.38 40.38 0 0 0 .36-4.51c.14-3.13.37-6.22.6-9.32.45-6.2 1-12.38 1.52-18.57.23-3.09.54-6.19.72-9.27a18.42 18.42 0 0 1 .69-4.65 5.14 5.14 0 0 1 .49-1.1 1.79 1.79 0 0 1 .95-.84 1.61 1.61 0 0 1 1.26.19 4.51 4.51 0 0 1 .97.73zm-.27.22c-.5-.48-1.21-1-1.84-.82s-1 1-1.17 1.71a17.63 17.63 0 0 0 -.62 4.53l-.46 9.3c-.28 6.2-.45 12.4-.61 18.6-.09 3.1-.09 6.21-.09 9.28a40.63 40.63 0 0 1 -.09 4.82 35.26 35.26 0 0 1 -.83 4.77 30.54 30.54 0 0 1 -1.51 4.6 25.6 25.6 0 0 1 -2.26 4.38 11.64 11.64 0 0 1 -3.76 3.85 5.82 5.82 0 0 1 -.75.33 3.7 3.7 0 0 1 -2 .23 4.52 4.52 0 0 1 -.53-.11 5 5 0 0 1 -.48-.21 5.58 5.58 0 0 1 -2.3-2.35 13.11 13.11 0 0 1 -1.01-2.49 21.5 21.5 0 0 1 -.67-2.4c-.18-.8-.33-1.6-.45-2.41a6.88 6.88 0 0 1 -.08-1.52 5.18 5.18 0 0 1 .09-.78c0-.23.12-.59.13-.64a10 10 0 0 0 .1-1.91c0-.71-.07-1.45-.14-2.19-.14-1.49-.34-3-.58-4.51-1-6-2.26-12.07-3.72-18s-3.06-12-5.08-17.69a43 43 0 0 0 -1.67-4.14 8.9 8.9 0 0 0 -.95-1.63c-.07-.08-.13-.13-.09-.1s.05 0 .09.05l.15.05a.92.92 0 0 0 .29 0s0 0 0 0a1.1 1.1 0 0 1 -.25 0l-.27.1a5.84 5.84 0 0 0 -2.28 2.61 19.36 19.36 0 0 0 -1.56 3.94v-.39c-.14 15.56-.46 31.17-1.37 46.74-.12 1.95-.25 3.9-.41 5.85a44.91 44.91 0 0 1 -.76 5.97 3.53 3.53 0 0 1 -.14.43 1.19 1.19 0 0 1 -.11.25 1 1 0 0 1 -.3.38c-.3.21-.09.1-.09.08s0 0 0 0-.05.1-.08.18a7 7 0 0 0 -.28 1.22c-.13.92-.2 1.89-.25 2.84-.09 1.93-.09 3.87-.08 5.8 0 3.88.18 7.77.38 11.65l.16 2.91a4.51 4.51 0 0 0 .18 1.29 2.69 2.69 0 0 0 .65 1 2.87 2.87 0 0 0 2.25.85h2.92c7.78 0 15.56-.16 23.34-.34l23.34-.47h.73.28a1.2 1.2 0 0 0 .2 0 1.53 1.53 0 0 0 .71-.35 1.7 1.7 0 0 0 .65-1.38l-.07-5.83v-11.67l.07-11.67.2-11.67v-.14-.1a41.41 41.41 0 0 0 .21-13.66 61.91 61.91 0 0 0 -1.29-6.84c-.54-2.27-1.18-4.52-1.9-6.74s-1.51-4.43-2.37-6.61-1.83-4.32-2.82-6.45a124.4 124.4 0 0 0 -6.7-12.38z"/></svg>