<svg viewBox="0 0 60.19 106.85" xmlns="http://www.w3.org/2000/svg"><path d="m38.11 20.65-2.58-3.18s-9-18-13-16-8 15-8 15l-.53 1.88 1.25 73.12 26-2z" fill="#eace88"/><path d="m38 20.71c-1-1-1.89-2-2.78-2.95v-.07c-1.72-2.9-3.53-5.76-5.45-8.5-1-1.35-2-2.69-3.05-3.91a16.52 16.52 0 0 0 -1.68-1.67 3.83 3.83 0 0 0 -1.6-.94h-.11a0 0 0 0 1 -.06 0s0 0 0 0l-.27.05-.3.28a2.77 2.77 0 0 0 -.35.34 5.88 5.88 0 0 0 -.7.83c-.23.27-.43.63-.65 1a37.2 37.2 0 0 0 -2.2 4.32 74.92 74.92 0 0 0 -3.31 9.37l.06-.46c.12 6.09 0 12.19-.14 18.29s-.31 12.11-.24 18.21.21 12.18.51 18.27l.92 18.27-1.46-1.32c8.65-.92 17.31-1.64 26-2.44l-1.65 1.87c-.35-5.69-.61-11.37-.83-17.06l-.32-8.49-.21-8.57c-.25-11.49-.36-23-.13-34.72zm.33-.13c1.22 11.22 2.16 22.66 2.95 34.15l.57 8.64.45 8.63c.3 5.78.56 11.57.73 17.35v1.77l-1.7.1c-8.68.54-17.35 1.15-26 1.56l-1.48.07v-1.39l.29-18.29q.12-9.15-.12-18.28c-.15-6.1-.53-12.18-.87-18.27s-.68-12.18-.77-18.27v-.25l.06-.22c.25-.83.44-1.61.73-2.49s.57-1.63.87-2.44c.61-1.62 1.26-3.22 2-4.8a32.22 32.22 0 0 1 2.57-4.65 11.86 11.86 0 0 1 .83-1.11 8.21 8.21 0 0 1 1-1.08 4.1 4.1 0 0 1 .56-.47l.72-.46.18-.11.29-.11a2.45 2.45 0 0 1 .62-.16 5.52 5.52 0 0 1 .58 0 2.86 2.86 0 0 1 .51.09 4.24 4.24 0 0 1 .87.31c.24.14.48.27.7.42a10.56 10.56 0 0 1 1.13.93 19.84 19.84 0 0 1 1.8 2 41.38 41.38 0 0 1 2.9 4.33 84.45 84.45 0 0 1 4.64 9.15v-.08c.78 1.17 1.56 2.32 2.34 3.43z"/><path d="m42.53 8.47s20 31 16 53v40.87a3.13 3.13 0 0 1 -3.13 3.13h-50.71a3.37 3.37 0 0 1 -3.37-3.16c-.45-7.31-1.32-25.05.21-25.84 2-1 2-59 2-59s2-8 6-8c3.84 0 15.09 45.29 13.28 52.34a5.29 5.29 0 0 0 -.11 2.06c.43 2.93 1.73 9.37 4.83 8.6 4-1 9-11 9-20s2-38 2-38 0-10 4-6z" fill="#eace88"/><path d="m42.66 8.36c2.56 4 4.76 8.14 6.91 12.34 1.06 2.1 2.06 4.23 3 6.39s1.88 4.33 2.73 6.53 1.61 4.45 2.28 6.73a67.28 67.28 0 0 1 1.68 6.93 43.26 43.26 0 0 1 .54 14.42v-.23l.2 11.67.07 11.67v11.67l-.07 5.83a4.52 4.52 0 0 1 -1.86 3.69 4.46 4.46 0 0 1 -1.94.82 4.36 4.36 0 0 1 -.52 0h-.45-.73l-23.34-.47c-7.78-.17-15.56-.31-23.34-.34h-2.92a4 4 0 0 1 -3-1.2 3.91 3.91 0 0 1 -.9-1.43 5.5 5.5 0 0 1 -.25-1.58l-.17-2.91c-.21-3.89-.41-7.78-.52-11.68-.06-1.95-.06-3.91-.06-5.87 0-1 .06-2 .17-3a8.09 8.09 0 0 1 .3-1.58 1.9 1.9 0 0 1 .21-.48.88.88 0 0 1 .24-.28c.08-.09.39-.29.17-.16s-.09.1-.09.08a.24.24 0 0 0 0-.08c0-.07.05-.17.07-.27a44.17 44.17 0 0 0 .54-5.66c.09-1.93.16-3.87.2-5.81.29-15.53.19-31.1.09-46.63v-.22-.18a22.82 22.82 0 0 1 1.79-4.72 13 13 0 0 1 1.46-2.24 6.77 6.77 0 0 1 2.44-1.91 8.22 8.22 0 0 1 .83-.3c.3-.05.6-.1.9-.13h.26a2.91 2.91 0 0 1 .58.09 2.34 2.34 0 0 1 .41.16 2 2 0 0 1 .34.2 4.09 4.09 0 0 1 .76.69 12 12 0 0 1 1.46 2.33c.74 1.5 1.32 3 1.88 4.46a174.43 174.43 0 0 1 5.38 18c1.48 6.07 2.84 12.16 3.73 18.4.23 1.56.42 3.13.55 4.74.07.8.12 1.61.13 2.44a13.56 13.56 0 0 1 -.21 2.72l-.11.49a2.65 2.65 0 0 0 -.05.38 3.64 3.64 0 0 0 0 .8c.11.73.23 1.46.38 2.17a16.12 16.12 0 0 0 1.27 3.94 2.64 2.64 0 0 0 .8 1h.05s.05 0 .09 0 .12 0 .22-.06.2 0 .31-.12a9.33 9.33 0 0 0 2.79-2.6 21.64 21.64 0 0 0 2.16-3.79 32.13 32.13 0 0 0 1.59-4.21 32.32 32.32 0 0 0 1-4.35 38.17 38.17 0 0 0 .35-4.51c.14-3.13.38-6.22.61-9.32.45-6.2 1-12.38 1.52-18.57.23-3.09.54-6.19.72-9.27a18 18 0 0 1 .71-4.64 4.69 4.69 0 0 1 .49-1.1 1.79 1.79 0 0 1 .95-.84 1.61 1.61 0 0 1 1.26.19 4.45 4.45 0 0 1 .96.77zm-.27.22c-.49-.48-1.2-1-1.83-.82s-1 1-1.18 1.71a18.07 18.07 0 0 0 -.61 4.53l-.46 9.3c-.29 6.2-.46 12.4-.61 18.6-.06 3.09-.11 6.2-.08 9.27a42.86 42.86 0 0 1 -.1 4.78 35.26 35.26 0 0 1 -.83 4.77 33 33 0 0 1 -1.51 4.6 25 25 0 0 1 -2.27 4.38 11.61 11.61 0 0 1 -3.75 3.85 6 6 0 0 1 -.76.33 2.87 2.87 0 0 1 -.89.24 2.91 2.91 0 0 1 -1.06 0 4.69 4.69 0 0 1 -.54-.11 4 4 0 0 1 -.47-.21 5.52 5.52 0 0 1 -2.3-2.35 13.17 13.17 0 0 1 -1.06-2.45 21.44 21.44 0 0 1 -.66-2.4c-.18-.8-.33-1.6-.45-2.41a6.87 6.87 0 0 1 -.09-1.52q0-.39.09-.78c0-.23.13-.59.13-.64a9.2 9.2 0 0 0 .1-1.91c0-.71-.06-1.45-.13-2.19-.14-1.49-.34-3-.58-4.51-1-6-2.26-12.07-3.72-18s-3.06-12-5.08-17.69a43 43 0 0 0 -1.69-4.18 8.88 8.88 0 0 0 -1-1.63c0-.08-.06-.14 0-.14s0 0 .08.05l.15.05a1 1 0 0 0 .29 0 1 1 0 0 1 -.25 0l-.26.1a5.84 5.84 0 0 0 -2.28 2.61 20 20 0 0 0 -1.57 3.94v-.39c-.16 15.64-.48 31.25-1.39 46.82q-.16 2.92-.4 5.82a43.34 43.34 0 0 1 -.78 6 3.35 3.35 0 0 1 -.13.43 1.19 1.19 0 0 1 -.11.25 1.15 1.15 0 0 1 -.3.38c-.3.21-.09.1-.1.08s0 0 0 0-.06.1-.09.18a7.07 7.07 0 0 0 -.27 1.27c-.13.92-.2 1.89-.25 2.84-.1 1.93-.1 3.87-.08 5.8 0 3.88.18 7.77.38 11.65l.16 2.91a4.51 4.51 0 0 0 .2 1.21 2.69 2.69 0 0 0 .65 1 2.87 2.87 0 0 0 2.25.85h2.92c7.78 0 15.56-.16 23.34-.34l23.34-.47h.73.28a1.38 1.38 0 0 0 .2 0 1.58 1.58 0 0 0 .71-.35 1.66 1.66 0 0 0 .64-1.38l-.06-5.83v-11.67-11.67l.2-11.67v-.14-.1a41.14 41.14 0 0 0 .22-13.66 61.91 61.91 0 0 0 -1.29-6.84q-.81-3.4-1.91-6.74c-.72-2.22-1.5-4.43-2.37-6.61s-1.82-4.32-2.81-6.45a122.45 122.45 0 0 0 -6.65-12.35z"/></svg>