<svg viewBox="0 0 86.8 71.41" xmlns="http://www.w3.org/2000/svg"><path d="m16.42 5.78-14 31s-5.42 11.77 8.69 27.56a7.3 7.3 0 0 0 5.42 2.44h6.61a7.25 7.25 0 0 0 4.15-1.31l2.81-2a7.28 7.28 0 0 1 9 .61c3.46 3.07 9.59 6.67 19.3 6.67 14.36 0 23.72-22.11 26.29-29a7.2 7.2 0 0 0 .29-4c-1.21-5.75-4.98-22.52-9.17-31.75a7.24 7.24 0 0 0 -6.6-4.25h-46.32a7.24 7.24 0 0 0 -6.47 4z" fill="#fff"/><path d="m16.58 5.85c-4.45 9.72-8.34 19.7-12.36 29.62l-.74 1.84a12.34 12.34 0 0 0 -.43 1.69 20.85 20.85 0 0 0 -.26 3.71c0 .62.08 1.25.13 1.87s.18 1.24.3 1.86l.41 1.84.57 1.81a42.68 42.68 0 0 0 7.9 13.13 6.08 6.08 0 0 0 2.62 1.89 6.2 6.2 0 0 0 1.59.35c.58 0 1.31 0 2 .06l4 .13h1a5 5 0 0 0 .86 0 6.36 6.36 0 0 0 1.66-.44 9.21 9.21 0 0 0 1.59-.92l1.68-1.1a11.43 11.43 0 0 1 1.87-1.06 8 8 0 0 1 2.14-.56 8.11 8.11 0 0 1 6.11 1.79c.56.48 1 .89 1.52 1.3a26.36 26.36 0 0 0 14.48 5.34 30.24 30.24 0 0 0 3.92 0 13.13 13.13 0 0 0 3.71-.83 19.44 19.44 0 0 0 6.42-4.14c3.78-3.55 6.58-8.06 9-12.67 1.23-2.33 2.32-4.72 3.32-7.15.49-1.22 1-2.44 1.43-3.67a8.55 8.55 0 0 0 .27-.82 5.1 5.1 0 0 0 .15-.76 5.36 5.36 0 0 0 0-1.55c0-.12 0-.25-.07-.38l-.11-.48-.22-1-.46-1.94-.94-3.88q-1-3.87-2-7.7a139.05 139.05 0 0 0 -4.92-15l-.37-.89-.19-.45-.16-.21a5.77 5.77 0 0 0 -.87-1.22 5.51 5.51 0 0 0 -2.55-1.52 6.07 6.07 0 0 0 -1.58-.19h-2l-4-.07c-5.35-.08-10.69-.29-16-.53l-16-.67c-2.67-.12-5.34-.15-8-.22a7 7 0 0 0 -6.42 3.79zm-.32-.15a7.5 7.5 0 0 1 6.64-4.18c2.68-.08 5.35-.1 8-.23l16.1-.67c5.31-.23 10.65-.45 16-.53l4-.09h2a9.43 9.43 0 0 1 2.43.27 9 9 0 0 1 4.3 2.45 9.79 9.79 0 0 1 1.49 2l.28.56.21.47.42 1c1.07 2.54 1.94 5.12 2.77 7.7s1.57 5.18 2.23 7.79 1.3 5.22 1.89 7.85l.88 3.91.42 2 .2 1 .1.5c0 .2.07.4.1.6a8.81 8.81 0 0 1 0 2.46 10.29 10.29 0 0 1 -.26 1.2c-.12.4-.27.77-.39 1.07-.49 1.26-1 2.52-1.59 3.75-1.13 2.48-2.35 4.91-3.71 7.27a56.77 56.77 0 0 1 -4.54 6.81 38.1 38.1 0 0 1 -5.68 6 20.82 20.82 0 0 1 -7.2 4.12 14.48 14.48 0 0 1 -4.12.71 31 31 0 0 1 -4.1-.17 29.72 29.72 0 0 1 -15.13-5.76c-.53-.39-1.09-.89-1.56-1.25a7.3 7.3 0 0 0 -1.6-.92 6.44 6.44 0 0 0 -5.26.17 10.94 10.94 0 0 0 -1.55 1l-1.61 1.2a10.13 10.13 0 0 1 -1.82 1.24 8.1 8.1 0 0 1 -2.16.73 7.1 7.1 0 0 1 -1.14.13h-1l-4 .12c-.69 0-1.29 0-2.05 0a8.52 8.52 0 0 1 -6.3-2.87c-.95-.97-1.84-1.99-2.7-3.11l-1.25-1.63-.61-.84-.54-.89a33.2 33.2 0 0 1 -3.61-7.55 24.11 24.11 0 0 1 -1.24-8.36 19.77 19.77 0 0 1 .58-4.25 13.51 13.51 0 0 1 .72-2.11l.91-1.82c4.79-9.55 9.7-19.08 14.05-28.85z"/></svg>