<svg viewBox="0 0 69.01 202.07" xmlns="http://www.w3.org/2000/svg"><path d="m55.54 200.63h-39s-14-1-15-16 9-55 9-55 19-29 26-26 15 8 21 23 11 29 10 56c0 0-4 21-12 18z" fill="#fff"/><path d="m55.51 200.8c-3.28.21-6.54.33-9.8.47s-6.51.27-9.76.37q-9.74.3-19.41.43h-.1a19 19 0 0 1 -5.28-1.3 17.58 17.58 0 0 1 -4.68-2.71 16.14 16.14 0 0 1 -2-1.87 11.28 11.28 0 0 1 -.87-1.07 8.7 8.7 0 0 1 -.8-1.12 16.06 16.06 0 0 1 -1.25-2.44l-.5-1.27c-.16-.43-.24-.87-.36-1.29l-.33-1.31c-.08-.44-.11-.88-.17-1.32a16.88 16.88 0 0 1 -.2-2.65c0-.86 0-1.74 0-2.59l.16-2.54c.14-1.69.38-3.36.58-5s.48-3.32.78-5c1.12-6.6 2.62-13.1 4-19.61s2.89-13 4.39-19.5v-.09l.06-.09c2.92-4.47 5.89-8.89 9.13-13.14 1.61-2.13 3.28-4.23 5.06-6.26a40.51 40.51 0 0 1 5.93-5.68 11.66 11.66 0 0 1 4-2.08 5 5 0 0 1 1.33-.17 4.29 4.29 0 0 1 1.47.25c.43.15.66.27 1 .4s.63.27.94.42a33.54 33.54 0 0 1 7.17 4.24 39.65 39.65 0 0 1 10.45 12.79 67.29 67.29 0 0 1 3.39 7.41c1 2.48 1.95 5 2.86 7.51a106.93 106.93 0 0 1 4.31 15.58 124.46 124.46 0 0 1 1.59 32.1v.16a59.93 59.93 0 0 1 -1.6 5.83 40.62 40.62 0 0 1 -2.29 5.6 19.35 19.35 0 0 1 -3.45 5.05 6.94 6.94 0 0 1 -2.7 1.69 4.36 4.36 0 0 1 -3.05-.2zm.06-.34a3.87 3.87 0 0 0 2.77-.1 6.19 6.19 0 0 0 2.2-1.68 18.37 18.37 0 0 0 2.83-5 51.47 51.47 0 0 0 1.83-5.55c.51-1.88.94-3.82 1.26-5.71v.17c0-10.56-.59-21.11-2.85-31.31a117.43 117.43 0 0 0 -4.39-15q-1.32-3.7-2.79-7.39a74.43 74.43 0 0 0 -3.1-7.11 36.22 36.22 0 0 0 -9.33-11.95 34.32 34.32 0 0 0 -6.42-4.06c-.28-.15-.58-.28-.87-.42s-.63-.31-.83-.37a1.27 1.27 0 0 0 -.47-.09 2.09 2.09 0 0 0 -.64 0 9.21 9.21 0 0 0 -3.06 1.5 44.08 44.08 0 0 0 -5.71 5.11c-1.84 1.87-3.59 3.83-5.3 5.84-3.36 4.06-6.63 8.25-9.6 12.62l.08-.19c-1.73 6.43-3.18 12.93-4.43 19.45s-2.2 13.11-3 19.69c-.2 1.64-.31 3.29-.48 4.93s-.23 3.29-.27 4.92a31.81 31.81 0 0 0 .68 9.43 14.12 14.12 0 0 0 4.69 7.48 14.91 14.91 0 0 0 3.92 2.33 18.69 18.69 0 0 0 2.18.75 14.6 14.6 0 0 0 2.18.45h-.11q9.83.13 19.59.43c3.26.1 6.51.2 9.75.36s6.48.26 9.69.47z"/><path d="m10.54 129.63-2-37.31a10.24 10.24 0 0 1 .1-1.32c.65-4.3 4.15-28.18 3.22-39a28.1 28.1 0 0 1 .14-5.89c.6-4.88 1.53-13.59 1.13-18a12.64 12.64 0 0 1 1.13-6.38c3.37-7.42 11-22.57 16.28-21 7 2 13 6 14 18 .72 8.63 1.44 21.42 1.79 27.9a24.25 24.25 0 0 0 1.72 7.79c3.4 8.43 11.28 28.8 10.49 34.31-1 7 0 38 0 38s-11-22-23-24c0 0-17 10-25 28" fill="#eace88"/><path d="m10.37 129.64q-1.65-16.87-2.85-33.78l-.15-2.12a13.34 13.34 0 0 1 -.06-2.23c0-.88.16-1.48.24-2.2l.28-2.1q.53-4.18 1-8.38c.62-5.58 1.17-11.18 1.45-16.76.14-2.78.25-5.57.14-8.31l-.12-2.07c0-.75 0-1.49 0-2.24a34.11 34.11 0 0 1 .4-4.37c.35-2.78.73-5.56 1-8.35a60.89 60.89 0 0 0 .4-8.27 13.88 13.88 0 0 1 .38-4.52 19.48 19.48 0 0 1 1.68-4.09c1.26-2.54 2.59-5.05 4-7.51a64.22 64.22 0 0 1 4.68-7.16 24.39 24.39 0 0 1 2.87-3.18 9.89 9.89 0 0 1 1.8-1.35 4.73 4.73 0 0 1 2.28-.65 8.53 8.53 0 0 1 2.21.53c.68.24 1.36.46 2 .76a18.34 18.34 0 0 1 3.8 2.1 16.26 16.26 0 0 1 5.39 6.78 27.55 27.55 0 0 1 2.08 8.39l.73 8.44 1.44 16.89c.14 1.41.2 2.84.38 4.13a22.36 22.36 0 0 0 .88 3.89c.2.63.43 1.26.69 1.87l.82 2 1.6 3.93c2.1 5.26 4.08 10.57 5.84 16a82.06 82.06 0 0 1 2.28 8.29c.11.75.29 1.44.35 2.24 0 .4.08.78.1 1.19l-.05 1.33c-.14 1.33-.22 2.67-.26 4.06-.15 5.56-.12 11.21 0 16.83s.15 11.27.29 16.89l.19 7.83-3.55-7c-1.24-2.43-2.66-4.89-4.14-7.24a74.7 74.7 0 0 0 -4.85-6.8 42.06 42.06 0 0 0 -5.72-5.9 16.48 16.48 0 0 0 -6.92-3.58l.87-.16a64.62 64.62 0 0 0 -7.63 5.33 70.35 70.35 0 0 0 -6.9 6.36c-1.1 1.11-2.13 2.3-3.17 3.48-.5.6-1 1.22-1.47 1.83l-.74.93-.68 1-1.35 1.93-1.25 2-.62 1-.56 1-1.17 2.15-.32-.14a54.73 54.73 0 0 1 4.36-8.56 60.62 60.62 0 0 1 5.7-7.73 74.18 74.18 0 0 1 6.77-6.85 65.62 65.62 0 0 1 7.68-5.94l.36-.24.5.08a18.79 18.79 0 0 1 8.25 3.9 41.57 41.57 0 0 1 6.36 6.14 72.31 72.31 0 0 1 5.25 7 78.91 78.91 0 0 1 4.49 7.49l-3.36.86c-.4-11.32-.77-22.57-.36-34 .06-1.42.17-2.9.35-4.38 0-.26 0-.52 0-.78s0-.61-.07-.92c0-.6-.18-1.29-.27-1.94a74.58 74.58 0 0 0 -2.05-8c-1.54-5.35-3.46-10.64-5.34-15.91l-1.48-4-.76-2c-.27-.7-.51-1.41-.71-2.13a25.16 25.16 0 0 1 -.87-4.38c-.18-1.43-.18-2.83-.29-4.27l-.72-16.9-.38-8.45a24.33 24.33 0 0 0 -1.71-8 14.59 14.59 0 0 0 -4.91-6.38 17.35 17.35 0 0 0 -3.57-2c-.6-.27-1.28-.51-1.93-.75a7.65 7.65 0 0 0 -1.89-.45 5.51 5.51 0 0 0 -3.33 1.72 21.82 21.82 0 0 0 -2.71 3.1 59.39 59.39 0 0 0 -4.37 7.11c-1.3 2.49-2.49 5-3.62 7.6a17.36 17.36 0 0 0 -1.35 3.8 11.52 11.52 0 0 0 -.14 3.89 65.53 65.53 0 0 1 0 8.64c-.16 2.84-.37 5.68-.68 8.5a33.66 33.66 0 0 0 -.28 4.06c0 .67 0 1.33.09 2l.13 2.15c.12 2.91 0 5.76-.11 8.61-.37 5.69-1 11.33-1.69 16.94q-.57 4.21-1.21 8.41l-.33 2.1c-.1.67-.26 1.46-.29 2a10.92 10.92 0 0 0 0 2l.07 2.11q.62 16.91.78 33.84z"/></svg>