<svg viewBox="0 0 69.01 100.1" xmlns="http://www.w3.org/2000/svg"><path d="m55.54 98.66h-39s-14-1-15-16 9-55 9-55 19-29 26-26 15 8 21 23 11 29 10 56c0 0-4 21-12 18z" fill="#fff"/><path d="m55.51 98.83c-3.28.21-6.54.33-9.8.48s-6.51.26-9.76.36q-9.74.3-19.41.43h-.1a19 19 0 0 1 -5.28-1.3 17.58 17.58 0 0 1 -4.68-2.71 16.14 16.14 0 0 1 -2-1.87 11.28 11.28 0 0 1 -.87-1.07 8.7 8.7 0 0 1 -.8-1.15 16.06 16.06 0 0 1 -1.25-2.44l-.5-1.27c-.16-.4-.24-.84-.36-1.29l-.33-1.3c-.08-.44-.11-.88-.17-1.32a16.8 16.8 0 0 1 -.2-2.63c0-.86 0-1.74 0-2.59l.16-2.54c.14-1.69.38-3.36.58-5s.48-3.32.78-5c1.14-6.62 2.64-13.1 4.05-19.62s2.89-13 4.43-19.49v-.09l.06-.09c2.92-4.47 5.89-8.89 9.13-13.14 1.61-2.13 3.28-4.23 5.06-6.26a40.51 40.51 0 0 1 5.93-5.68 11.66 11.66 0 0 1 4-2.08 4.67 4.67 0 0 1 1.31-.17 4 4 0 0 1 1.51.25c.43.15.66.27 1 .41s.63.26.94.41a33.54 33.54 0 0 1 7.06 4.24 39.65 39.65 0 0 1 10.49 12.79 66.6 66.6 0 0 1 3.39 7.42c1 2.47 1.95 5 2.86 7.5a106.93 106.93 0 0 1 4.31 15.58 124.46 124.46 0 0 1 1.59 32.1v.16a59.93 59.93 0 0 1 -1.64 5.83 40.62 40.62 0 0 1 -2.29 5.6 19.35 19.35 0 0 1 -3.45 5 6.82 6.82 0 0 1 -2.7 1.71 4.36 4.36 0 0 1 -3.05-.17zm.06-.34a3.82 3.82 0 0 0 2.77-.1 6.19 6.19 0 0 0 2.2-1.68 18.37 18.37 0 0 0 2.83-5 51.47 51.47 0 0 0 1.83-5.55c.51-1.88.94-3.82 1.26-5.71v.17c0-10.56-.59-21.11-2.85-31.31a117.43 117.43 0 0 0 -4.39-15q-1.32-3.71-2.79-7.39a74.43 74.43 0 0 0 -3.1-7.11 36.22 36.22 0 0 0 -9.33-11.95 34.32 34.32 0 0 0 -6.39-4.06c-.28-.15-.58-.28-.87-.42s-.63-.31-.83-.37a1.27 1.27 0 0 0 -.47-.09 1.84 1.84 0 0 0 -.64.08 9 9 0 0 0 -3.06 1.49 44.08 44.08 0 0 0 -5.74 5.04c-1.84 1.87-3.59 3.83-5.3 5.85-3.36 4-6.63 8.24-9.6 12.61l.08-.18c-1.73 6.42-3.18 12.92-4.43 19.44s-2.2 13.11-3 19.69c-.2 1.64-.31 3.29-.48 4.93s-.19 3.29-.27 4.92a31.81 31.81 0 0 0 .68 9.43 14.12 14.12 0 0 0 4.73 7.48 14.91 14.91 0 0 0 3.88 2.3 18.69 18.69 0 0 0 2.18.75 14.6 14.6 0 0 0 2.18.45h-.11q9.83.14 19.59.43c3.26.1 6.51.21 9.75.36s6.48.29 9.69.5z"/></svg>