<svg viewBox="0 0 55.08 174.81" xmlns="http://www.w3.org/2000/svg"><path d="m29.31 101.17-16 2s-12 24-12 40-2 23 3 26 42 4 42 4l6-12 1-24s-5-30.99-24-36z" fill="#fff"/><path d="m29.3 101.34c-5.35 1.08-10.62 2-15.86 2.86l.81-.57c-1.85 4.19-3.56 8.5-5.14 12.82s-3 8.7-4.16 13.12a68.41 68.41 0 0 0 -2.37 13.34c-.2 4.66-.58 9.33-.91 13.94a40.17 40.17 0 0 0 0 6.85 9.37 9.37 0 0 0 1 3.1 5.11 5.11 0 0 0 2.33 2.09 16.56 16.56 0 0 0 3.24.86c1.12.23 2.27.36 3.41.51 2.29.28 4.6.45 6.92.58 4.62.29 9.25.41 13.89.5l13.9.25-1.47.87 5.85-12.07-.19.72q.15-6 .41-12c.14-4 .38-8 .59-12v.36a80.86 80.86 0 0 0 -2.61-10.75 66.05 66.05 0 0 0 -4.17-10.28 40.33 40.33 0 0 0 -2.81-4.75 30.58 30.58 0 0 0 -3.46-4.3 24 24 0 0 0 -4.2-3.58 24.5 24.5 0 0 0 -5-2.47zm0-.35a22.43 22.43 0 0 1 10.3 5.21 37.08 37.08 0 0 1 7.35 9 62 62 0 0 1 5 10.49 71.08 71.08 0 0 1 3.14 11.2v.15.21c-.13 4-.22 8-.42 12s-.37 8-.61 12v.4l-.16.32-6.17 11.91-.48.92h-1c-9.32-.39-18.59-1.27-27.85-2.36q-3.47-.43-6.93-.95c-1.16-.18-2.31-.39-3.46-.62a17.32 17.32 0 0 1 -3.47-1 6.77 6.77 0 0 1 -2.79-2.51 10.49 10.49 0 0 1 -1.16-3.49 51 51 0 0 1 -.37-7.06c0-4.67 0-9.28-.18-13.92a52.17 52.17 0 0 1 1.91-14.12 110.25 110.25 0 0 1 4.51-13.35 135 135 0 0 1 5.94-12.74l.28-.53h.53c5.39-.5 10.79-.91 16.11-1.15z"/><path d="m39.38.17s-12-1-18 29l-9.93 33.24a26.77 26.77 0 0 0 -1.12 7.65v36.09s15-15 34 4c0 0 1-15-2-23-2.35-6.3-1.61-25.57-1.18-33.52a37.58 37.58 0 0 0 -.3-7.19l-2.15-15.73a15.23 15.23 0 0 1 .18-5l4.5-21.49s0-3.04-4-4.05z" fill="#eace88"/><path d="m39.35.35a8.56 8.56 0 0 0 -4.12 1.35 13.53 13.53 0 0 0 -1.79 1.3 13.09 13.09 0 0 0 -1.59 1.57 29.36 29.36 0 0 0 -4.66 7.58c-.52 1.4-1.13 2.76-1.56 4.18l-.63 2.16-.33 1.06-.26 1.09c-.33 1.46-.75 2.89-1 4.36l-.81 4.4v.1q-2.51 9.5-5.35 18.93l-1.42 4.7-1.47 4.68c-.49 1.56-1 3.12-1.52 4.67a25.84 25.84 0 0 0 -1.12 4.52 36.67 36.67 0 0 0 -.33 4.76l-.15 4.91c-.1 3.33-.24 6.58-.24 9.85-.14 6.54-.13 13.09-.08 19.63l-1-.4a23.43 23.43 0 0 1 8.43-5 21.65 21.65 0 0 1 9.83-.92 27 27 0 0 1 4.84 1.2 29.85 29.85 0 0 1 4.51 2.11 39.11 39.11 0 0 1 7.82 6l-2.47.93c.08-2.16.09-4.39 0-6.58s-.15-4.38-.36-6.55a47.5 47.5 0 0 0 -1-6.37c-.14-.5-.26-1-.41-1.51l-.51-1.49a22.42 22.42 0 0 1 -.87-3.57 86.27 86.27 0 0 1 -.91-13.62c0-4.5.11-9 .35-13.46l.19-3.36c.07-1.06.09-2.12.07-3.19s-.08-2.13-.19-3.19l-.37-3.3c-.49-4.44-.93-8.85-1.33-13.34a15.75 15.75 0 0 1 .13-3.54 13.23 13.23 0 0 1 .33-1.73l.41-1.63 1.62-6.49c1.1-4.33 2.12-8.67 3.09-13a3.45 3.45 0 0 0 -.37-1.35 4.22 4.22 0 0 0 -.86-1.15 5.2 5.2 0 0 0 -1.2-.82 7.09 7.09 0 0 0 -1.34-.48zm.06-.35a7.32 7.32 0 0 1 1.47.52 5.39 5.39 0 0 1 1.31.86 4.72 4.72 0 0 1 1 1.25 3.86 3.86 0 0 1 .44 1.55q-1.29 6.57-2.38 13.17l-1.15 6.65-.27 1.65a14.59 14.59 0 0 0 -.19 1.57 14 14 0 0 0 .16 3.1c.79 4.35 1.55 8.78 2.26 13.17l.52 3.33c.16 1.15.27 2.31.33 3.47s.05 2.34 0 3.5l-.13 3.33q-.22 6.64-.23 13.28c0 2.21.05 4.41.17 6.6a59.22 59.22 0 0 0 .54 6.46 19.1 19.1 0 0 0 .66 3l.53 1.69c.16.57.28 1.15.42 1.72a49.35 49.35 0 0 1 .94 6.86 90.78 90.78 0 0 1 -.06 13.6l-.24 3.26-2.23-2.33a39.35 39.35 0 0 0 -7.07-5.9 28.34 28.34 0 0 0 -4-2.17 24.58 24.58 0 0 0 -4.35-1.34 19.75 19.75 0 0 0 -9.07.4 20.58 20.58 0 0 0 -8.06 4.37l-1 .87v-1.28c0-6.54.07-13.09-.06-19.63 0-3.28-.17-6.55-.26-9.82l-.15-4.91a37 37 0 0 1 .06-5 28.33 28.33 0 0 1 .92-5c.42-1.58.84-3.17 1.29-4.74l1.32-4.73 1.39-4.71q2.76-9.54 5.96-18.86v.11l1.18-4.41c.38-1.48.93-2.91 1.38-4.36l.36-1.09.39-1.06.84-2.13c.55-1.42 1.28-2.77 1.92-4.15a35.92 35.92 0 0 1 5.21-7.48 16.41 16.41 0 0 1 1.68-1.55 15.4 15.4 0 0 1 1.84-1.34 8.81 8.81 0 0 1 4.41-1.35z"/></svg>