<svg viewBox="0 0 55.08 73.82" xmlns="http://www.w3.org/2000/svg"><path d="m29.31.17-16 2s-12 24-12 40-2 23 3 26 42 4 42 4l6-12 1-24s-5-30.98-24-36z" fill="#fff"/><path d="m29.3.35c-5.3 1.08-10.62 1.99-15.86 2.86l.81-.57c-1.85 4.19-3.56 8.5-5.14 12.82s-3 8.7-4.16 13.11a68.64 68.64 0 0 0 -2.37 13.35c-.2 4.65-.58 9.33-.91 13.94a40.17 40.17 0 0 0 0 6.85 9.37 9.37 0 0 0 1 3.1 5.17 5.17 0 0 0 2.33 2.09 17.3 17.3 0 0 0 3.24.86c1.12.23 2.27.36 3.41.51 2.29.28 4.6.44 6.92.58 4.62.28 9.25.41 13.89.49l13.9.25-1.47.88 5.8-12.07-.19.71q.15-6 .41-12c.14-4 .38-8 .59-12v.36a81.1 81.1 0 0 0 -2.61-10.74 66.05 66.05 0 0 0 -4.17-10.28 41.29 41.29 0 0 0 -2.81-4.76 31.78 31.78 0 0 0 -3.46-4.3 24.34 24.34 0 0 0 -4.2-3.57 24.5 24.5 0 0 0 -4.95-2.47zm0-.35a22.43 22.43 0 0 1 10.3 5.21 37.22 37.22 0 0 1 7.35 9 62.41 62.41 0 0 1 5 10.49 71.5 71.5 0 0 1 3.14 11.21v.15.21c-.13 4-.22 8-.42 12s-.37 8-.61 12v.41l-.16.31-6.21 11.91-.48.92h-1c-9.32-.39-18.59-1.27-27.85-2.36q-3.47-.44-6.93-1c-1.16-.18-2.31-.39-3.46-.62a17.36 17.36 0 0 1 -3.47-1 6.64 6.64 0 0 1 -2.79-2.51 10.36 10.36 0 0 1 -1.15-3.45 51 51 0 0 1 -.37-7.06c0-4.67 0-9.28-.18-13.92a52.12 52.12 0 0 1 1.91-14.12 109.67 109.67 0 0 1 4.51-13.35 135 135 0 0 1 5.94-12.74l.28-.53h.53c5.42-.5 10.82-.91 16.14-1.16z"/></svg>