<svg viewBox="0 0 62.74 202.95" xmlns="http://www.w3.org/2000/svg"><path d="m62.57 165.38s-19 36-28 36-17-6-17-6l-17-17s-1-18 8-44c0 0 14-25 23-20 0 0 16 1 18 7s13 44 13 44z" fill="#fff"/><path d="m62.74 165.4c-.05.14-.1.23-.12.29l-.11.23-.21.47-.42.92c-.28.62-.58 1.23-.87 1.83-.6 1.22-1.19 2.44-1.82 3.64q-1.86 3.61-3.88 7.15a123.3 123.3 0 0 1 -8.92 13.68 41.86 41.86 0 0 1 -5.6 6.21 14.78 14.78 0 0 1 -3.72 2.54 11.49 11.49 0 0 1 -1.21.42 9.32 9.32 0 0 1 -1.37.17c-.72 0-1.45 0-2.17-.13a27.39 27.39 0 0 1 -8.22-2.2 32.23 32.23 0 0 1 -3.76-1.89 34.76 34.76 0 0 1 -3.53-2.34l-.09-.07-8.2-8.81q-4.12-4.46-8.35-8.74l-.17-.16v-.2a101.08 101.08 0 0 1 .51-11.3c.35-3.75.83-7.48 1.41-11.21s1.33-7.42 2.22-11.09c.4-1.84.92-3.66 1.4-5.48s1.07-3.63 1.62-5.43v-.1l.08-.14c1.35-2.45 2.78-4.78 4.34-7.08a72.52 72.52 0 0 1 5-6.65 32.63 32.63 0 0 1 6.28-5.87 13 13 0 0 1 4.29-2 7.41 7.41 0 0 1 5.25.67l-.79-.23a54.66 54.66 0 0 1 8.46 1.27 23.83 23.83 0 0 1 8.23 3.4 8.55 8.55 0 0 1 1.92 1.83 6.85 6.85 0 0 1 .73 1.2l.27.68.14.5 1.11 4 2.2 8.06q2.16 8.07 4.2 16.07t3.87 15.89zm-.35 0q-2.82-8-5.47-15.75t-5.15-15.65l-2.48-7.75-1.22-3.87-.15-.48-.13-.28a2.87 2.87 0 0 0 -.36-.55 5.28 5.28 0 0 0 -1.14-1 20.73 20.73 0 0 0 -7-2.65 58 58 0 0 0 -7.84-1.18h-.43l-.36-.2a3.71 3.71 0 0 0 -2.66-.34 9.72 9.72 0 0 0 -3.09 1.37 30 30 0 0 0 -5.71 5.11 70.21 70.21 0 0 0 -5 6.23c-1.54 2.18-3.05 4.43-4.4 6.69l.11-.24c-.6 1.76-1.26 3.49-1.85 5.25s-1.21 3.52-1.71 5.31c-1.11 3.55-2 7.16-2.86 10.79a111.05 111.05 0 0 0 -1.89 11 74.22 74.22 0 0 0 -.53 11.13l-.07-.34q4.28 4.22 8.69 8.3l8.81 8.2-.14-.12a33.66 33.66 0 0 0 14.31 5.33c.62.09 1.25.06 1.87.1l.63-.07c.24-.09.47-.13.71-.23a12.15 12.15 0 0 0 3-2 47.54 47.54 0 0 0 5.37-5.67c3.36-4.11 6.45-8.52 9.45-13 1.5-2.24 3-4.49 4.44-6.75z"/><path d="m34.57.38s-16-6-19 59c0 0-7 63-5 68 0 0 14-17 21-14 0 0 20 4 20 8s0-45-3-52c0 0-6-31-5-45 0 0-2-25-9-24z" fill="#eace88"/><path d="m34.55.55a5.14 5.14 0 0 0 -3.81.88 11.22 11.22 0 0 0 -2.9 2.77 28.6 28.6 0 0 0 -3.73 7.25 64.82 64.82 0 0 0 -2.35 7.91c-.64 2.68-1.18 5.4-1.61 8.13-.92 5.47-1.52 11-2 16.52l-.34 4.15-.27 4.17c-.1 1.38-.14 2.79-.24 4.19l-.11 2.1c0 .37 0 .65-.08 1.09l-.12 1c-1.24 11.14-2.77 22.21-3.99 33.29-.65 5.55-1.23 11.11-1.64 16.67-.2 2.79-.4 5.57-.48 8.36 0 1.39-.07 2.78-.07 4.16 0 .69 0 1.39.07 2.07a9.09 9.09 0 0 0 .28 1.88l-1-.16c1.41-1.72 2.89-3.34 4.42-5s3.1-3.15 4.79-4.61a32.09 32.09 0 0 1 5.5-3.94 13.71 13.71 0 0 1 3.3-1.32 6.52 6.52 0 0 1 3.89.18l-.22-.07c3.11.57 6.17 1.22 9.22 2a43.63 43.63 0 0 1 9.09 3.33 7.47 7.47 0 0 1 2.28 1.82l.27.37a4.59 4.59 0 0 1 .24.5 3.42 3.42 0 0 1 .22 1.12v.27c1.5.89-3.13 1.93-3.09-.12v-1l-.09-4.67-.24-9.33q-.34-9.21-.87-18.51c-.16-3.09-.36-6.18-.64-9.25-.13-1.53-.31-3-.5-4.55-.1-.75-.21-1.49-.35-2.2a11.55 11.55 0 0 0 -.5-1.89l-.08-.2v-.17c-1.37-7.5-2.49-15-3.35-22.54q-.66-5.67-1-11.38a79 79 0 0 1 0-11.51v.17c-.13-2.22-.35-4.46-.63-6.69s-.65-4.43-1.08-6.63a36.17 36.17 0 0 0 -1.84-6.41 11.31 11.31 0 0 0 -1.6-2.84 3.22 3.22 0 0 0 -2.75-1.36zm0-.35a3 3 0 0 1 1.73.23 4.33 4.33 0 0 1 .79.44c.23.19.47.38.68.59a11.79 11.79 0 0 1 2 2.9 36.85 36.85 0 0 1 2.38 6.46c.63 2.2 1.1 4.44 1.51 6.69s.75 4.49 1 6.78v.17a87 87 0 0 0 .52 11.14c.35 3.73.85 7.46 1.38 11.18s1.13 7.44 1.78 11.15 1.3 7.43 2 11.1l-.12-.37a14.69 14.69 0 0 1 .76 2.6c.17.82.3 1.62.42 2.41.23 1.59.39 3.16.53 4.74.28 3.14.47 6.27.63 9.39.28 6.26.4 12.5.48 18.74l.06 9.37v5.68c0-2-4.58-1-3.08-.11v.1-.2a0 0 0 0 0 0 0s0 0 0 0l-.07-.09a4.76 4.76 0 0 0 -1.35-1.09 40.69 40.69 0 0 0 -8.33-3.33c-2.93-.89-5.93-1.72-8.92-2.41h-.15-.07c-1.48-.69-3.59-.11-5.43.78a30.85 30.85 0 0 0 -5.34 3.5 71.36 71.36 0 0 0 -9.34 9.01l-.73.85-.27-1a6 6 0 0 1 -.23-1.17 8.11 8.11 0 0 1 -.08-1.09c-.05-.71-.05-1.42-.05-2.12 0-1.41 0-2.81.1-4.21.13-2.8.26-5.6.44-8.39l1-16.75c.74-11.16 1.47-22.33 2.64-33.45l.12-1c0-.26 0-.67.05-1l.11-2.08c.07-1.4.14-2.78.26-4.18l.33-4.2.4-4.2c.58-5.59 1.38-11.16 2.49-16.69a79.65 79.65 0 0 1 4.88-16.24c.28-.65.59-1.29.92-1.92s.68-1.26 1-1.88a21.93 21.93 0 0 1 2.62-3.53 12.4 12.4 0 0 1 3.36-2.74 5.66 5.66 0 0 1 4.23-.56z"/></svg>