<svg viewBox="0 0 43.75 128.6" xmlns="http://www.w3.org/2000/svg"><path d="m24.91.38s-16-6-19 59c0 0-7 63-5 68 0 0 14-17 21-14 0 0 20 4 20 8s0-45-3-52c0 0-6-31-5-45 0 0-2-25-9-24z" fill="#eace88"/><path d="m24.89.55a5.14 5.14 0 0 0 -3.81.88 11 11 0 0 0 -2.89 2.77 28 28 0 0 0 -3.73 7.25 64.86 64.86 0 0 0 -2.36 7.91c-.64 2.68-1.18 5.4-1.61 8.13-.92 5.51-1.49 10.99-2.01 16.51l-.34 4.15-.27 4.17c-.1 1.38-.14 2.79-.23 4.19l-.12 2.1c0 .37 0 .65-.08 1.09l-.11 1c-1.24 11.15-2.77 22.22-4.04 33.3-.65 5.55-1.23 11.11-1.64 16.67-.19 2.79-.4 5.57-.48 8.36 0 1.39-.07 2.78-.06 4.16 0 .69 0 1.39.06 2.07a8.44 8.44 0 0 0 .29 1.88l-1-.16c1.4-1.72 2.89-3.34 4.41-5s3.1-3.15 4.79-4.61a32.09 32.09 0 0 1 5.5-3.94 13.71 13.71 0 0 1 3.3-1.32 6.52 6.52 0 0 1 3.89.18l-.22-.07c3.11.57 6.17 1.22 9.22 2a43.71 43.71 0 0 1 9.1 3.33 7.56 7.56 0 0 1 2.27 1.82l.27.37a4.59 4.59 0 0 1 .24.5 3.42 3.42 0 0 1 .22 1.12v.27c1.5.89-3.13 1.93-3.09-.12v-1l-.09-4.67-.27-9.23q-.29-9.31-.8-18.62c-.17-3.09-.36-6.18-.64-9.25-.14-1.53-.31-3-.51-4.55-.1-.75-.21-1.49-.35-2.2a10.62 10.62 0 0 0 -.5-1.89l-.08-.2v-.17c-1.36-7.5-2.49-15-3.35-22.54q-.66-5.67-1-11.38a79 79 0 0 1 0-11.51v.17c-.13-2.22-.35-4.46-.63-6.69s-.64-4.43-1.07-6.63a37 37 0 0 0 -1.84-6.41 11.63 11.63 0 0 0 -1.62-2.83 3.24 3.24 0 0 0 -2.72-1.36zm0-.35a3.05 3.05 0 0 1 1.74.23 5.11 5.11 0 0 1 .79.44c.23.19.46.38.67.59a11.52 11.52 0 0 1 2 2.9 37.71 37.71 0 0 1 2.39 6.46c.62 2.2 1.09 4.44 1.5 6.69s.75 4.49 1 6.78v.17a87 87 0 0 0 .51 11.14c.35 3.73.85 7.46 1.39 11.18s1.12 7.44 1.81 11.15 1.29 7.43 2 11.1l-.12-.37a13.89 13.89 0 0 1 .76 2.6c.17.82.3 1.62.42 2.41.24 1.59.39 3.16.53 4.74.28 3.14.47 6.27.63 9.39.28 6.26.4 12.5.48 18.74l.06 9.37v5.68c0-2-4.58-1-3.08-.11v.1-.2s0 0 0 0l-.07-.09a4.62 4.62 0 0 0 -1.35-1.09 40.69 40.69 0 0 0 -8.33-3.33c-2.93-.89-5.93-1.72-8.92-2.41h-.15-.07c-1.47-.69-3.59-.11-5.43.78a30.78 30.78 0 0 0 -5.33 3.5 70.82 70.82 0 0 0 -9.35 9.06l-.73.85-.27-1a6.88 6.88 0 0 1 -.23-1.17 10.17 10.17 0 0 1 -.08-1.09c0-.71 0-1.42 0-2.12 0-1.41.05-2.81.1-4.21.13-2.8.27-5.6.44-8.39l1-16.75c.74-11.16 1.47-22.33 2.65-33.45l.11-1c0-.26 0-.67.06-1l.1-2.08c.07-1.4.15-2.78.26-4.18l.33-4.2.4-4.2c.56-5.68 1.36-11.25 2.49-16.81a80.28 80.28 0 0 1 4.88-16.24q.42-1 .93-1.92c.31-.64.67-1.26 1-1.88a22.51 22.51 0 0 1 2.53-3.46 12.4 12.4 0 0 1 3.36-2.74 5.66 5.66 0 0 1 4.23-.56z"/></svg>