<svg viewBox="0 0 62.74 91.08" xmlns="http://www.w3.org/2000/svg"><path d="m62.57 53.51s-19 36-28 36-17-6-17-6l-17-17s-1-18 8-44c0 0 14-25 23-20 0 0 16 1 18 7s13 44 13 44z" fill="#fff"/><path d="m62.74 53.53c-.05.14-.1.22-.12.29l-.11.23-.21.47-.42.92c-.28.61-.58 1.22-.87 1.83-.6 1.22-1.19 2.44-1.82 3.64q-1.86 3.62-3.88 7.15a123.3 123.3 0 0 1 -8.92 13.68 42.37 42.37 0 0 1 -5.6 6.26 14.78 14.78 0 0 1 -3.72 2.54c-.38.16-.8.29-1.21.42a9.32 9.32 0 0 1 -1.37.17c-.72 0-1.45 0-2.17-.13a27.69 27.69 0 0 1 -8.22-2.2 32.23 32.23 0 0 1 -3.76-1.89 34.76 34.76 0 0 1 -3.53-2.34l-.09-.08-8.2-8.81q-4.12-4.5-8.35-8.78l-.17-.16v-.2a101.08 101.08 0 0 1 .51-11.3c.35-3.75.83-7.48 1.41-11.21s1.33-7.42 2.22-11.09c.4-1.84.92-3.66 1.4-5.49s1.08-3.62 1.63-5.45v-.1l.08-.13c1.35-2.46 2.78-4.79 4.34-7.08a72.52 72.52 0 0 1 5-6.65 32.63 32.63 0 0 1 6.28-5.87 13 13 0 0 1 4.29-2 7.35 7.35 0 0 1 5.25.67l-.73-.19a54.66 54.66 0 0 1 8.46 1.27 23.83 23.83 0 0 1 8.23 3.4 8.32 8.32 0 0 1 1.85 1.77 6.5 6.5 0 0 1 .78 1.2l.27.67.14.51 1.11 4 2.2 8.06q2.16 8.07 4.2 16.07c1.3 5.4 2.59 10.68 3.82 15.93zm-.35 0q-2.82-8-5.47-15.75t-5.15-15.61l-2.48-7.75-1.22-3.87-.15-.49-.13-.27a2.87 2.87 0 0 0 -.36-.55 5.28 5.28 0 0 0 -1.14-1 20.73 20.73 0 0 0 -7-2.65 58 58 0 0 0 -7.84-1.18h-.43l-.36-.2a3.71 3.71 0 0 0 -2.66-.38 9.72 9.72 0 0 0 -3.08 1.37 30 30 0 0 0 -5.71 5.11 70.21 70.21 0 0 0 -5 6.23c-1.54 2.18-3.05 4.43-4.4 6.69l.19-.23c-.6 1.75-1.26 3.49-1.85 5.25s-1.25 3.51-1.75 5.3c-1.11 3.55-2 7.16-2.86 10.79a111.05 111.05 0 0 0 -1.89 11 74.22 74.22 0 0 0 -.53 11.13l-.12-.36q4.28 4.23 8.69 8.31l8.81 8.2-.14-.12a33.66 33.66 0 0 0 14.31 5.33c.62.09 1.25.06 1.87.1l.63-.07c.24-.09.47-.13.71-.23a12.15 12.15 0 0 0 3-2 47.54 47.54 0 0 0 5.29-5.63c3.36-4.11 6.45-8.52 9.45-13 1.5-2.24 3-4.49 4.44-6.75z"/></svg>