<svg viewBox="0 0 36.83 113.53" xmlns="http://www.w3.org/2000/svg"><path d="m30.16.17s-12-1-18 29l-9.92 33.24a26.77 26.77 0 0 0 -1.12 7.65v36.09s15-15 34 4c0 0 1-15-2-23-2.36-6.3-1.61-25.57-1.19-33.52a38.4 38.4 0 0 0 -.29-7.19l-2.15-15.73a14.72 14.72 0 0 1 .18-5l4.49-21.53s0-3-4-4.01z" fill="#eace88"/><path d="m30.14.35a8.6 8.6 0 0 0 -4.14 1.35 13.44 13.44 0 0 0 -1.77 1.3 11.8 11.8 0 0 0 -1.59 1.57 29.36 29.36 0 0 0 -4.64 7.6c-.52 1.4-1.13 2.76-1.57 4.18l-.66 2.14-.33 1.06-.26 1.09c-.33 1.46-.75 2.89-1 4.36l-.81 4.4v.1q-2.49 9.5-5.37 18.93l-1.42 4.7-1.44 4.68c-.48 1.56-1 3.12-1.51 4.67a25 25 0 0 0 -1.12 4.52 33.45 33.45 0 0 0 -.33 4.76l-.18 4.94c-.09 3.27-.22 6.55-.27 9.82-.14 6.54-.13 13.09-.08 19.63l-1-.4a23.43 23.43 0 0 1 8.43-5 21.62 21.62 0 0 1 9.82-.92 26.76 26.76 0 0 1 4.84 1.2 29 29 0 0 1 4.51 2.11 38.89 38.89 0 0 1 7.83 6l-2.47.93c.08-2.16.08-4.39 0-6.58s-.15-4.38-.36-6.55a49.16 49.16 0 0 0 -1-6.37c-.14-.5-.25-1-.41-1.51l-.5-1.49a22.42 22.42 0 0 1 -.82-3.57 86.29 86.29 0 0 1 -.92-13.62c0-4.5.12-9 .36-13.46l.19-3.36c.07-1.06.08-2.12.06-3.19s-.07-2.13-.18-3.19l-.38-3.3c-.48-4.44-.92-8.85-1.32-13.34a15.75 15.75 0 0 1 .13-3.54 15.12 15.12 0 0 1 .35-1.73l.41-1.63 1.62-6.49q1.65-6.49 3.1-13a3.29 3.29 0 0 0 -.37-1.35 4.19 4.19 0 0 0 -.85-1.15 5.26 5.26 0 0 0 -1.22-.79 7 7 0 0 0 -1.36-.51zm.05-.35a7.64 7.64 0 0 1 1.48.52 5.59 5.59 0 0 1 1.33.86 4.72 4.72 0 0 1 1 1.25 3.86 3.86 0 0 1 .44 1.55q-1.34 6.61-2.44 13.21l-1.11 6.61-.27 1.65a12.44 12.44 0 0 0 -.19 1.57 14 14 0 0 0 .15 3.1c.79 4.35 1.56 8.78 2.27 13.17l.51 3.33c.17 1.15.28 2.31.34 3.47s0 2.34 0 3.5l-.14 3.33q-.21 6.64-.22 13.28c0 2.21 0 4.41.16 6.6a59.21 59.21 0 0 0 .55 6.46 19.12 19.12 0 0 0 .65 3l.53 1.69c.17.57.29 1.15.43 1.72a50.9 50.9 0 0 1 .94 6.86 90.78 90.78 0 0 1 -.06 13.6l-.24 3.26-2.23-2.33a39.35 39.35 0 0 0 -7.07-5.96 28.45 28.45 0 0 0 -4-2.17 24.08 24.08 0 0 0 -4.35-1.34 19.71 19.71 0 0 0 -9.06.4 20.58 20.58 0 0 0 -8.06 4.37l-1 .87v-1.28c.05-6.54.07-13.09-.07-19.63-.04-3.28-.16-6.52-.25-9.82l-.15-4.91a38.68 38.68 0 0 1 .05-5 28.34 28.34 0 0 1 .93-5c.42-1.58.83-3.17 1.28-4.74l1.33-4.73 1.35-4.79q2.82-9.4 6-18.72v.11l1.18-4.41c.38-1.48.92-2.91 1.38-4.36l.35-1.09.38-1.06.84-2.13c.56-1.42 1.29-2.77 1.93-4.15a35.55 35.55 0 0 1 5.21-7.48 16.41 16.41 0 0 1 1.73-1.55 14 14 0 0 1 1.86-1.34 8.78 8.78 0 0 1 4.33-1.35z"/></svg>