<svg viewBox="0 0 64.09 84.54" xmlns="http://www.w3.org/2000/svg"><path d="m31.22.64s-17-4-23 23c-3.71 16.67-5.5 22.67-6.34 24.82a9.64 9.64 0 0 0 -.66 3.48v7a6.5 6.5 0 0 0 1.91 4.61c5.51 5.55 21.52 20.91 28.09 20.09 8-1 31-15 31-22v-19s-2-46-31-42z" fill="#fff"/><path d="m31.21.81a13 13 0 0 0 -3.53.1 15.35 15.35 0 0 0 -3.36.86 18 18 0 0 0 -5.77 3.62 20.56 20.56 0 0 0 -2.27 2.61l-1 1.36-.87 1.49c-.28.5-.6 1-.84 1.5l-.71 1.58-.7 1.58-.56 1.65a61.26 61.26 0 0 0 -1.9 6.68l-1.53 7c-1 4.69-2.19 9.34-3.6 14-.35 1.16-.74 2.31-1.19 3.48a16.31 16.31 0 0 0 -.59 1.57 8.91 8.91 0 0 0 -.31 1.52c-.06.49-.06 1.12-.09 1.71l-.07 1.8-.13 3.58a7 7 0 0 0 .06 1.61 5.62 5.62 0 0 0 .45 1.48 5.88 5.88 0 0 0 .85 1.31l1.2 1.29c1.66 1.72 3.35 3.41 5.08 5a99.18 99.18 0 0 0 11 9.1 35.16 35.16 0 0 0 6.09 3.53 11.16 11.16 0 0 0 3.19.92 8.2 8.2 0 0 0 3.15-.57 63.28 63.28 0 0 0 12.47-6.44 69.56 69.56 0 0 0 11.07-8.48 22.34 22.34 0 0 0 2.2-2.5 8 8 0 0 0 1.37-2.54 2 2 0 0 0 .07-.51 2.09 2.09 0 0 0 0-.38v-.45-1.79-3.58c0-2.38 0-4.77 0-7.16v-5.34c0-.48-.06-1.11-.09-1.67a90.33 90.33 0 0 0 -2.17-13.87 58.21 58.21 0 0 0 -4.67-13.12 27.11 27.11 0 0 0 -8.9-10.4 20.45 20.45 0 0 0 -6.34-2.67 26.69 26.69 0 0 0 -7.06-.46zm0-.35a24.24 24.24 0 0 1 7.25-.31 20.68 20.68 0 0 1 7.06 2.25 23 23 0 0 1 5.87 4.6 31.88 31.88 0 0 1 4.44 6 53.45 53.45 0 0 1 3.24 6.63c.89 2.29 1.65 4.62 2.31 7a84.42 84.42 0 0 1 2.62 14.37 18.71 18.71 0 0 1 .11 1.9v5.4 7.19 3.59 1.8.45a3.26 3.26 0 0 1 0 .51 5 5 0 0 1 -.21 1.26 11 11 0 0 1 -2 3.72 25 25 0 0 1 -2.61 2.8 64 64 0 0 1 -11.92 8.55 70.76 70.76 0 0 1 -6.49 3.32 44.69 44.69 0 0 1 -7.09 2.51 17.81 17.81 0 0 1 -1.85.4 6.38 6.38 0 0 1 -2.05 0 12.63 12.63 0 0 1 -3.61-1.25 34.19 34.19 0 0 1 -3.17-1.86c-1-.66-2-1.35-3-2.07-3.87-2.89-7.5-6-11.07-9.23q-2.69-2.4-5.31-4.85c-.45-.42-.87-.8-1.34-1.25a7.08 7.08 0 0 1 -1.19-1.54 7.5 7.5 0 0 1 -.74-1.89 9.25 9.25 0 0 1 -.21-2l-.13-3.55-.07-1.8c-.05-.6-.05-1.11-.05-1.87a11.3 11.3 0 0 1 .27-2 17.67 17.67 0 0 1 .56-1.84c.34-1.09.63-2.23.94-3.37 1.23-4.58 2.23-9.23 3.38-13.87l1.65-7a58.37 58.37 0 0 1 2.23-7 29.27 29.27 0 0 1 8.3-12.16 18.49 18.49 0 0 1 6.67-3.4 15.09 15.09 0 0 1 7.23-.14z"/></svg>