<svg viewBox="0 0 64.09 204.68" xmlns="http://www.w3.org/2000/svg"><path d="m31.22 120.78s-17-4-23 23c-3.71 16.68-5.5 22.68-6.34 24.82a9.7 9.7 0 0 0 -.66 3.49v7a6.48 6.48 0 0 0 1.91 4.61c5.51 5.52 21.52 20.89 28.09 20.06 8-1 31-15 31-22v-19s-2-45.98-31-41.98z" fill="#fff"/><path d="m31.21 121a13 13 0 0 0 -3.53.09 15.94 15.94 0 0 0 -3.36.86 18.07 18.07 0 0 0 -5.77 3.63 20.47 20.47 0 0 0 -2.27 2.56l-1 1.37-.9 1.49c-.28.5-.6 1-.84 1.49l-.71 1.51-.7 1.58-.56 1.65a61.26 61.26 0 0 0 -1.87 6.77l-1.53 7c-1 4.68-2.19 9.34-3.6 14-.35 1.16-.74 2.3-1.19 3.47a16.4 16.4 0 0 0 -.59 1.53 8.53 8.53 0 0 0 -.31 1.52c-.06.48-.06 1.12-.09 1.71l-.07 1.79-.13 3.59a6.9 6.9 0 0 0 .06 1.6 5.51 5.51 0 0 0 .45 1.48 6 6 0 0 0 .85 1.31l1.2 1.29c1.66 1.71 3.35 3.4 5.08 5a101.46 101.46 0 0 0 11 9.1 35.81 35.81 0 0 0 6.08 3.61 11.16 11.16 0 0 0 3.19.92 8.39 8.39 0 0 0 3.15-.57 63.82 63.82 0 0 0 12.47-6.44 70.21 70.21 0 0 0 11.08-8.52 22.34 22.34 0 0 0 2.22-2.5 7.88 7.88 0 0 0 1.37-2.54 2 2 0 0 0 .07-.5 2.17 2.17 0 0 0 0-.39v-.46-1.79-3.58c0-2.39 0-4.78 0-7.16v-5.37c0-.49-.06-1.11-.09-1.68a90.4 90.4 0 0 0 -2.17-13.86 58 58 0 0 0 -4.67-13.12 27.07 27.07 0 0 0 -8.81-10.38 20.93 20.93 0 0 0 -6.34-2.67 26.28 26.28 0 0 0 -7.17-.39zm0-.35a23.92 23.92 0 0 1 7.23-.31 20.45 20.45 0 0 1 7.06 2.24 22.85 22.85 0 0 1 5.87 4.61 32.13 32.13 0 0 1 4.44 6 53.58 53.58 0 0 1 3.24 6.64c.89 2.29 1.65 4.62 2.31 7a84.72 84.72 0 0 1 2.64 14.31 18.54 18.54 0 0 1 .11 1.9v5.39 7.19 3.6l-.11 1.78v.45a3.19 3.19 0 0 1 0 .51 4.88 4.88 0 0 1 -.21 1.26 10.85 10.85 0 0 1 -2 3.72 26 26 0 0 1 -2.61 2.81 64.9 64.9 0 0 1 -11.92 8.55 70.76 70.76 0 0 1 -6.49 3.32 44.66 44.66 0 0 1 -6.89 2.55 13.8 13.8 0 0 1 -1.85.4 6.38 6.38 0 0 1 -2.05 0 12.34 12.34 0 0 1 -3.61-1.25 30.24 30.24 0 0 1 -3.17-1.86c-1-.65-2-1.35-3-2.07-3.87-2.88-7.5-6-11.07-9.23q-2.69-2.38-5.31-4.85c-.45-.41-.87-.79-1.34-1.24a7.3 7.3 0 0 1 -1.28-1.57 7.5 7.5 0 0 1 -.74-1.89 9.31 9.31 0 0 1 -.21-2l-.13-3.59-.07-1.79c0-.6-.07-1.17 0-1.88a11.42 11.42 0 0 1 .27-2 17.44 17.44 0 0 1 .56-1.82c.34-1.09.63-2.24.94-3.37 1.18-4.56 2.18-9.22 3.33-13.85l1.65-7a58.37 58.37 0 0 1 2.23-7 29.2 29.2 0 0 1 8.3-12.19 18.36 18.36 0 0 1 6.67-3.38 15 15 0 0 1 7.23-.13z"/><path d="m39.22.78s-20 12-23 61-1 63-1 63 8.16-4.48 17-5c6.37-.37 13.23 2.49 17 5l1-37s-5-40-4-55a202.69 202.69 0 0 1 3.41-25.21 6 6 0 0 0 -5.63-7.18 22.06 22.06 0 0 0 -4.78.39z" fill="#eace88"/><path d="m39.28 1a30.46 30.46 0 0 0 -5.48 5.74l-.61.8-.56.83-1.12 1.63-2 3.46a79.28 79.28 0 0 0 -6 14.83 144.19 144.19 0 0 0 -5.52 31.61c-.78 10.76-1.67 21.57-2.28 32.38-.3 5.4-.52 10.81-.53 16.23 0 2.7 0 5.41.12 8.11s.21 5.42.55 8l-.86-.43a53.33 53.33 0 0 1 8.36-3.54 39 39 0 0 1 9-1.87 26.46 26.46 0 0 1 9.21 1.07 32.18 32.18 0 0 1 8.44 3.81l-2.1 1.09c.07-6.17.1-12.34.23-18.51l.32-18.5v.26q-.8-6-1.43-11.93c-.42-4-.85-8-1.17-12s-.63-8-.88-12-.38-8-.41-12a92.25 92.25 0 0 1 .7-12.07c.45-4 1.1-8 1.82-11.92q.54-3 1.17-5.9l.64-2.91a5.38 5.38 0 0 0 -.1-2.61 5.45 5.45 0 0 0 -3.72-3.66 10.3 10.3 0 0 0 -2.86-.27 25.56 25.56 0 0 0 -2.93.27zm-.12-.38a25 25 0 0 1 3-.52 10.09 10.09 0 0 1 3.1 0 6.55 6.55 0 0 1 4.78 4.07 6.83 6.83 0 0 1 .38 3.3l-.48 3c-.31 2-.58 3.93-.83 5.9-.51 3.94-.88 7.9-1.17 11.85a97 97 0 0 0 -.24 11.78c.14 3.95.43 7.92.74 11.88s.66 7.93 1.06 11.89l1.21 11.88 1.29 11.91v.27l-.68 18.5c-.2 6.16-.51 12.33-.77 18.49l-.1 2.44-2-1.35a32.38 32.38 0 0 0 -7.69-3.79 24.39 24.39 0 0 0 -8.43-1.41 37.58 37.58 0 0 0 -8.63 1.42 44.22 44.22 0 0 0 -8.22 3.17l-.78.4-.08-.83c-.51-5.49-.53-10.88-.62-16.32l-.08-16.28c0-5.43.08-10.86.21-16.28.07-2.71.1-5.43.24-8.14s.17-5.41.44-8.14a124.2 124.2 0 0 1 6.19-32.18 73.35 73.35 0 0 1 7-14.9c.74-1.15 1.54-2.27 2.33-3.4l1.28-1.61.64-.81.75-.76a26.27 26.27 0 0 1 6.16-5.43z"/></svg>