<svg viewBox="0 0 38.08 127.26" xmlns="http://www.w3.org/2000/svg"><path d="m25.28.78s-20 12-23 61-1 63-1 63 8.16-4.48 17-5c6.37-.37 13.23 2.49 17 5l1-37s-5-40-4-55a202.69 202.69 0 0 1 3.41-25.21 6 6 0 0 0 -5.6-7.18 22.06 22.06 0 0 0 -4.81.39z" fill="#eace88"/><path d="m25.34 1a30.46 30.46 0 0 0 -5.48 5.79l-.61.8-.56.83-1.11 1.58-2 3.46a80 80 0 0 0 -6 14.83 143.59 143.59 0 0 0 -5.58 31.65c-.78 10.76-1.67 21.57-2.28 32.38-.3 5.4-.52 10.81-.53 16.23 0 2.7 0 5.41.12 8.11s.21 5.42.55 8l-.86-.39a53.33 53.33 0 0 1 8.36-3.54 39 39 0 0 1 9-1.87 26.46 26.46 0 0 1 9.21 1.07 32.18 32.18 0 0 1 8.43 3.73l-2.1 1.09c.07-6.17.1-12.34.23-18.51l.32-18.5v.26q-.8-6-1.43-11.93c-.42-4-.85-8-1.17-12s-.62-8-.88-12-.38-8-.41-12a94 94 0 0 1 .76-12.07c.46-4 1.1-8 1.82-11.92q.54-3 1.17-5.9l.69-2.93a5.38 5.38 0 0 0 -.1-2.61 5.45 5.45 0 0 0 -3.77-3.64 10.3 10.3 0 0 0 -2.86-.27 25.56 25.56 0 0 0 -2.93.27zm-.12-.38a25 25 0 0 1 3-.52 10.09 10.09 0 0 1 3.1 0 6.55 6.55 0 0 1 4.78 4.07 6.83 6.83 0 0 1 .38 3.3l-.48 3q-.45 2.94-.83 5.9c-.51 3.94-.88 7.9-1.17 11.85a97 97 0 0 0 -.24 11.78c.14 3.95.43 7.92.74 11.88s.66 7.93 1.07 11.89l1.2 11.88 1.3 11.88v.27l-.68 18.5c-.2 6.16-.51 12.33-.77 18.49l-.1 2.44-2-1.35a32.38 32.38 0 0 0 -7.69-3.79 24.39 24.39 0 0 0 -8.43-1.41 37.58 37.58 0 0 0 -8.63 1.42 44.76 44.76 0 0 0 -8.22 3.17l-.78.4-.08-.83c-.5-5.46-.52-10.84-.61-16.29l-.08-16.28c0-5.43.08-10.86.21-16.27.07-2.71.1-5.43.24-8.14s.17-5.41.44-8.14a124.62 124.62 0 0 1 6.2-32.18 73.35 73.35 0 0 1 7-14.9c.74-1.15 1.54-2.27 2.33-3.4l1.28-1.61.64-.81.66-.77a26.27 26.27 0 0 1 6.22-5.43z"/></svg>