<svg viewBox="0 0 83.11 201.98" xmlns="http://www.w3.org/2000/svg"><path d="m12.4 133.94-8.58 22.32a24.9 24.9 0 0 0 -1.63 7.63l-.67 12.81a6.46 6.46 0 0 0 1.23 4.14c3.91 5.34 15.46 20.1 23.65 20.1a37.64 37.64 0 0 0 18-5l.9-8.12a.24.24 0 0 1 .46-.07l3.64 8.19s10 6 13 5 18-12 19-27-12-41-12-41z" fill="#fff"/><path d="m12.5 134.09c-2.67 8.12-5.24 15.92-7.91 23.5a24 24 0 0 0 -1 5.81l-.23 6.19-.25 6.23a5.58 5.58 0 0 0 1.44 4.79c2.48 3.26 5.06 6.45 7.83 9.45 1.37 1.51 2.81 2.94 4.29 4.31a32.1 32.1 0 0 0 4.7 3.68 10.85 10.85 0 0 0 5.26 1.85 32.16 32.16 0 0 0 6-.44 35.5 35.5 0 0 0 11.48-4l-.26.42.52-4.41.25-2.2.12-1.11v-.27-.17a.73.73 0 0 1 .2-.4.77.77 0 0 1 .82-.2c.3.06.5.5.48.49 1.22 2.7 2.43 5.4 3.68 8.09l-.25-.28c1.64.93 3.33 1.81 5 2.59a29.58 29.58 0 0 0 5.33 1.92 4 4 0 0 0 2.27.08 14.16 14.16 0 0 0 2.24-1.38 42.47 42.47 0 0 0 4.24-3.6 45.76 45.76 0 0 0 6.91-8.64 28.7 28.7 0 0 0 3.86-10.07 30.58 30.58 0 0 0 -.43-10.8 86.11 86.11 0 0 0 -2.86-10.81c-1.14-3.58-2.46-7.11-3.88-10.61s-2.89-7-4.5-10.36l1.62 1c-4.66.05-9.34 0-14 0l-14.12-.11-14.35-.21zm-.2-.29c4.6-.31 9.29-.55 14-.83l14.22-.72 14.39-.62c4.81-.16 9.64-.36 14.47-.47h1.12l.51 1a151.63 151.63 0 0 1 8.74 21.43 90.2 90.2 0 0 1 2.73 11.35 34 34 0 0 1 .19 12 30.41 30.41 0 0 1 -4.62 11 43.13 43.13 0 0 1 -7.76 8.84 43.85 43.85 0 0 1 -4.68 3.54 16.21 16.21 0 0 1 -2.72 1.46 3.73 3.73 0 0 1 -.94.19 6.16 6.16 0 0 1 -.87 0 9.12 9.12 0 0 1 -1.54-.32 31.84 31.84 0 0 1 -5.41-2.29c-1.71-.9-3.38-1.83-5-2.83l-.17-.11-.08-.17c-1.15-2.73-2.34-5.43-3.53-8.14-.09-.18 0 .07.14.08a.29.29 0 0 0 .3-.08.28.28 0 0 0 .08-.15.58.58 0 0 0 0 .1v.28l-.13 1.1-.23 2.21-.51 4.35v.28l-.24.14a41.82 41.82 0 0 1 -11.76 4.7 33.7 33.7 0 0 1 -6.35.86 12.94 12.94 0 0 1 -6.49-1.81 43.21 43.21 0 0 1 -10-8 93.43 93.43 0 0 1 -8.16-9.71l-.46-.64a7.71 7.71 0 0 1 -.54-.82 8.16 8.16 0 0 1 -.74-1.78 7.68 7.68 0 0 1 -.3-1.9c0-.69.05-1.17.07-1.69l.41-6.22.43-6.24a26.18 26.18 0 0 1 1.45-6.37c3.26-7.93 6.68-15.62 9.98-23z"/><path d="m56.48 43.3-.08 76.64-37-5 11.48-52.94" fill="#eace88" stroke="#000" stroke-miterlimit="10"/><path d="m57 42.89 2.51-7.56c1.49-12.59-5.33-26.82-8.91-33.33a2.85 2.85 0 0 0 -4.72-.42c-11.09 14.07-15.11 31-15.79 46.85.21 6.58.51 14.08.89 21.17" fill="#eace88"/><path d="m56.8 42.84c.49-2.64 1.09-5.24 1.75-7.81v.19c0-.93 0-1.84 0-2.75s-.07-1.83-.2-2.74l-.14-1.36-.21-1.37c-.13-.91-.34-1.8-.51-2.7a104.5 104.5 0 0 0 -3-10.66 84.47 84.47 0 0 0 -4-10.5 8.49 8.49 0 0 0 -.66-1.14 2.13 2.13 0 0 0 -.83-.71 2.23 2.23 0 0 0 -2.18.18 3.52 3.52 0 0 0 -.82.93l-.83 1.14a26.26 26.26 0 0 0 -1.56 2.33 58 58 0 0 0 -4.93 10.07 102 102 0 0 0 -3.42 10.59 109.41 109.41 0 0 0 -2.26 10.9c-.56 3.67-1 7.37-1.3 11.09v-.13q0 5.3-.09 10.6c-.09 3.53-.22 7.07-.5 10.62h-.35c-.57-3.51-1-7-1.38-10.55s-.71-7-1-10.58v-.12a79.22 79.22 0 0 1 .88-11.51 77.82 77.82 0 0 1 2.74-11.25 63.54 63.54 0 0 1 4.38-10.71 82.7 82.7 0 0 1 6.18-9.71l.8-1.18.88-1.13.87-1.14c.15-.19.26-.37.45-.58a3.76 3.76 0 0 1 .63-.55 3.48 3.48 0 0 1 3.22-.36 3.56 3.56 0 0 1 1.39 1 9.74 9.74 0 0 1 .83 1.28 89.69 89.69 0 0 1 5.47 10.11 49.88 49.88 0 0 1 2 5.44 52.57 52.57 0 0 1 1.28 5.69 34.19 34.19 0 0 1 0 11.68v.16c-1 2.47-2.08 4.91-3.25 7.32z"/><path d="m37.55 100.07c1 .33 2.43-2.76 4-7.3 2.11-6.32 4.36-15.45 5.75-22" fill="#eace88"/><path d="m37.61 99.9c.22-.13.24-.37.34-.63s.15-.57.22-.86c.13-.6.28-1.21.44-1.81a16.23 16.23 0 0 1 1.26-3.6 31.16 31.16 0 0 0 2-3.42 10.6 10.6 0 0 0 .7-3.85 23.28 23.28 0 0 1 .43-3.92 29.1 29.1 0 0 1 .69-3.81 26.68 26.68 0 0 1 1.37-3.67 20.14 20.14 0 0 1 2-3.55l.35.07a18 18 0 0 1 .32 4.1 23.4 23.4 0 0 1 -.43 3.94 25.27 25.27 0 0 1 -1.17 3.77 19.15 19.15 0 0 1 -1.69 3.62 12.44 12.44 0 0 0 -1.44 3.65c-.28 1.28-.14 2.7-.36 4a10.79 10.79 0 0 1 -1.54 3.77 8.67 8.67 0 0 1 -1.34 1.68 5.16 5.16 0 0 1 -.91.72 2.18 2.18 0 0 1 -.63.25.87.87 0 0 1 -.72-.11z"/><path d="m73.58 51a55.26 55.26 0 0 0 -2.28 15l-.84 62.67a3.38 3.38 0 0 1 -3.39 3.35h-52.89a3.69 3.69 0 0 1 -3.69-3.51l-2.56-52.02a26 26 0 0 1 1.42-9.81 161.76 161.76 0 0 0 6.29-24.38c3-16.93 11-15.94 11-15.94 3-2 3 3 3 3s.15 8.31.51 19.1c.21 6.58.51 14.08.89 21.17.56 11.37 1.4 21.7 2.53 25.46 3 10 7 3 7 3 .25-1.67.57-3.46 1-5.31 1.37-6.79 3.52-14.6 5.75-22 4.44-14.59 9.23-27.5 9.23-27.5s13.94-16.94 17.93-10c2.34 4.27.73 12.14-.9 17.72z" fill="#eace88"/><path d="m73.75 51a53.45 53.45 0 0 0 -2.19 15.33v7.81l.08 7.8.36 31.23v7.8 3.91 4a4.94 4.94 0 0 1 -3.16 4.32 4.76 4.76 0 0 1 -1.38.31h-.36-.73-2-7.8c-5.2 0-10.41-.07-15.61-.12l-15.6-.28-7.8-.15h-1.95-1-.49c-.2 0-.41 0-.61-.06a4.56 4.56 0 0 1 -3.6-2.9 3.92 3.92 0 0 1 -.27-1.16c0-.44 0-.68 0-1l-.06-1.95-.12-3.9-.28-7.8q-.6-15.59-1.51-31.17c-.13-2.61-.34-5.15-.41-7.82a26.82 26.82 0 0 1 1.12-7.91c1.63-5 3-9.92 4.15-15q.84-3.8 1.52-7.6c.22-1.28.4-2.53.67-3.86.13-.65.23-1.31.39-2l.51-1.95a24.19 24.19 0 0 1 3.38-7.51 12 12 0 0 1 3.11-3.07 9.2 9.2 0 0 1 2.08-1 8.7 8.7 0 0 1 1.21-.3 4.19 4.19 0 0 1 .6-.1h.33a3.57 3.57 0 0 1 .42 0l-1 .24a7.76 7.76 0 0 1 .81-.45 3.35 3.35 0 0 1 1.14-.27 2.6 2.6 0 0 1 1.39.3 3 3 0 0 1 1 .87 5 5 0 0 1 .75 1.7 9.55 9.55 0 0 1 .25 1.53l.2 5.24.34 10.29c.09 3.44.27 6.87.44 10.3l.5 10.28c.15 3.44.34 6.86.59 10.28s.49 6.79.84 10.22c.17 1.7.36 3.39.6 5a25.16 25.16 0 0 0 1 4.7 15.72 15.72 0 0 0 .83 2.11 8.66 8.66 0 0 0 .51.8 3.76 3.76 0 0 1 .25.31.74.74 0 0 1 .19.15c.07.07.07 0 .09 0s0 0 0 0 0 0 .11 0 .12 0 .22-.13a4.49 4.49 0 0 0 1.2-1.19l-.21.63c.46-2.37.83-4.79 1.37-7.12s1.08-4.69 1.72-7c1.25-4.63 2.6-9.22 4.09-13.76s3-9.06 4.7-13.53 3.33-8.94 5.04-13.4l.06-.15.07-.08a67.53 67.53 0 0 1 7.41-7.24 29.88 29.88 0 0 1 4.27-3 12.85 12.85 0 0 1 2.44-1 4.72 4.72 0 0 1 2.74-.07 3.61 3.61 0 0 1 2 1.83 9.5 9.5 0 0 1 .86 2.5 19.1 19.1 0 0 1 .23 5.21 49.2 49.2 0 0 1 -2.04 10zm-.34-.1a48.84 48.84 0 0 0 1.92-10 17.18 17.18 0 0 0 -.29-5c-.39-1.56-1.06-3.34-2.55-3.77a4 4 0 0 0 -2.3.15 11.88 11.88 0 0 0 -2.19 1.07 28.45 28.45 0 0 0 -4 3.07 66.06 66.06 0 0 0 -6.89 7.4l.14-.24c-3 9-5.79 18.12-8.41 27.23-1.28 4.57-2.56 9.14-3.67 13.73-.55 2.3-1.1 4.59-1.58 6.89s-.83 4.61-1.25 6.92l-.07.38-.15.25a8.92 8.92 0 0 1 -1 1.34 6.49 6.49 0 0 1 -1.3 1.17 5.21 5.21 0 0 1 -.91.49 5.06 5.06 0 0 1 -1.13.29 4.39 4.39 0 0 1 -1.26-.11 4.7 4.7 0 0 1 -1.09-.46c-.28-.2-.58-.41-.83-.63l-.59-.68a10.1 10.1 0 0 1 -.87-1.39 17.6 17.6 0 0 1 -1.14-2.63 18 18 0 0 1 -.73-2.72c-.17-.89-.31-1.77-.43-2.65-.25-1.74-.44-3.47-.6-5.2q-1-10.36-1.27-20.69l-.37-10.33c-.12-3.44-.25-6.89-.3-10.33l-.21-10.34-.09-5.11a4.17 4.17 0 0 0 -.37-1.68s0 0 0 0 .17 0 .16 0-.06 0-.11 0a2.4 2.4 0 0 1 -.32.17l-1 .24h-.22a2.09 2.09 0 0 0 -.34 0 4.65 4.65 0 0 0 -.72.16 6.33 6.33 0 0 0 -1.42.67 9.15 9.15 0 0 0 -2.4 2.44 22.08 22.08 0 0 0 -3.18 6.56l-.54 1.81c-.17.61-.29 1.23-.43 1.85-.3 1.22-.54 2.53-.81 3.8-.54 2.57-1.15 5.12-1.81 7.65-1.32 5-2.88 10.09-4.65 15a25.17 25.17 0 0 0 -1.28 7.43c0 2.53.18 5.18.27 7.76.44 10.4.94 20.79 1.57 31.17l.48 7.79.26 3.89.14 2a4.42 4.42 0 0 0 .27 1.64 2.79 2.79 0 0 0 2.25 1.65h.37.48 1 1.95l7.8-.14 15.6-.36c5.2 0 10.41-.12 15.61-.12h10.59a1.81 1.81 0 0 0 1.73-1.72l.2-7.72.23-7.8 1.17-31.2.28-7.79.21-7.8a58.35 58.35 0 0 1 2.39-15.43z"/></svg>