<svg viewBox="0 0 68.62 133.52" xmlns="http://www.w3.org/2000/svg"><path d="m49.23 43.3-.08 76.64-37-5 11.48-52.94" fill="#eace88" stroke="#000" stroke-miterlimit="10"/><path d="m49.71 42.89 2.51-7.56c1.48-12.59-5.29-26.82-8.87-33.33a2.85 2.85 0 0 0 -4.72-.42c-11.08 14.07-15.11 31-15.79 46.85.21 6.58.51 14.08.89 21.17" fill="#eace88"/><path d="m49.55 42.84c.45-2.64 1.09-5.24 1.75-7.84v.19c0-.93 0-1.84 0-2.75s-.06-1.83-.2-2.74l-.14-1.36-.26-1.34c-.12-.91-.34-1.8-.51-2.7a107.07 107.07 0 0 0 -3-10.66 86.14 86.14 0 0 0 -4-10.5 8.49 8.49 0 0 0 -.61-1.14 2.1 2.1 0 0 0 -.85-.71 2.25 2.25 0 0 0 -2.19.18 3.34 3.34 0 0 0 -.83.93l-.84 1.14a26.26 26.26 0 0 0 -1.56 2.33 57.21 57.21 0 0 0 -4.92 10.07 102.08 102.08 0 0 0 -3.39 10.59 109.41 109.41 0 0 0 -2.17 10.9c-.56 3.67-1 7.37-1.3 11.09v-.13c0 3.53 0 7.06-.09 10.6s-.22 7.07-.5 10.62h-.34c-.58-3.51-1-7-1.39-10.55s-.71-7-1-10.58v-.12a77.84 77.84 0 0 1 .88-11.51 75.28 75.28 0 0 1 2.64-11.25 63.5 63.5 0 0 1 4.37-10.71 82.7 82.7 0 0 1 6.18-9.71l.83-1.18.89-1.12.87-1.14c.15-.19.26-.37.45-.58a4.2 4.2 0 0 1 .62-.56 3.51 3.51 0 0 1 4.61.62 11.09 11.09 0 0 1 .84 1.28 89.62 89.62 0 0 1 5.46 10.13 47.88 47.88 0 0 1 2 5.44 52.57 52.57 0 0 1 1.28 5.69 34.44 34.44 0 0 1 0 11.68v.16c-1 2.47-2.08 4.91-3.25 7.32z"/><path d="m30.3 100.07c1 .33 2.43-2.76 3.95-7.3 2.11-6.32 4.36-15.45 5.76-22" fill="#eace88"/><path d="m30.36 99.9c.22-.13.24-.37.34-.63s.15-.57.22-.86c.13-.6.28-1.21.44-1.81a16.23 16.23 0 0 1 1.26-3.6 31.16 31.16 0 0 0 2-3.42 10.6 10.6 0 0 0 .7-3.85 23.28 23.28 0 0 1 .34-3.94 29.1 29.1 0 0 1 .78-3.79 28 28 0 0 1 1.37-3.67 20.14 20.14 0 0 1 2-3.55l.35.07a17.48 17.48 0 0 1 .32 4.1 23.4 23.4 0 0 1 -.43 3.94 24.16 24.16 0 0 1 -1.17 3.77 19.15 19.15 0 0 1 -1.69 3.62 12.44 12.44 0 0 0 -1.47 3.67c-.28 1.28-.14 2.7-.36 4a10.79 10.79 0 0 1 -1.53 3.73 9 9 0 0 1 -1.33 1.68 5.24 5.24 0 0 1 -.92.72 2.08 2.08 0 0 1 -.63.25.87.87 0 0 1 -.72-.11z"/><path d="m66.33 51a55.66 55.66 0 0 0 -2.28 15l-.84 62.67a3.38 3.38 0 0 1 -3.39 3.35h-52.89a3.69 3.69 0 0 1 -3.69-3.51l-2.56-52.02a26 26 0 0 1 1.42-9.81 161.76 161.76 0 0 0 6.29-24.38c3-16.93 11-15.94 11-15.94 3-2 3 3 3 3s.15 8.31.5 19.1c.21 6.58.51 14.08.89 21.17.62 11.39 1.46 21.71 2.59 25.47 3 10 7 3 7 3 .25-1.67.57-3.46 1-5.31 1.37-6.79 3.52-14.6 5.76-22 4.43-14.59 9.22-27.5 9.22-27.5s13.94-16.94 17.93-10c2.29 4.26.72 12.13-.95 17.71z" fill="#eace88"/><path d="m66.5 51a53.45 53.45 0 0 0 -2.19 15.33v7.81l.07 7.8.34 31.21v7.8 3.91 4a4.94 4.94 0 0 1 -3.16 4.32 4.68 4.68 0 0 1 -1.38.31h-.36-.73-2-7.8c-5.2 0-10.4-.07-15.61-.12l-15.6-.28-7.8-.15h-1.95-1-.42c-.2 0-.41 0-.61-.06a4.56 4.56 0 0 1 -3.6-2.9 3.92 3.92 0 0 1 -.27-1.16c0-.44 0-.68-.05-1l-.06-1.95-.11-3.9-.29-7.8q-.6-15.66-1.51-31.25c-.13-2.61-.34-5.15-.41-7.82a26.82 26.82 0 0 1 1.12-7.91c1.63-5 3-9.92 4.15-15q.84-3.8 1.52-7.6c.23-1.28.41-2.53.67-3.86.13-.65.24-1.31.39-2l.51-1.95a24.19 24.19 0 0 1 3.43-7.48 11.84 11.84 0 0 1 3.12-3.07 9.34 9.34 0 0 1 2.07-1 8.7 8.7 0 0 1 1.17-.23 4.19 4.19 0 0 1 .63-.07h.33a3.57 3.57 0 0 1 .42 0l-1 .24a8.93 8.93 0 0 1 .81-.45 3.35 3.35 0 0 1 1.14-.27 2.6 2.6 0 0 1 1.39.3 3 3 0 0 1 1 .87 4.85 4.85 0 0 1 .75 1.7 8.55 8.55 0 0 1 .25 1.53l.2 5.24.34 10.29c.09 3.44.27 6.87.44 10.3l.5 10.28c.15 3.44.34 6.86.59 10.28s.48 6.83.81 10.22c.17 1.7.36 3.39.6 5a25.16 25.16 0 0 0 1 4.7 14.49 14.49 0 0 0 .84 2.11 7 7 0 0 0 .5.8 3.76 3.76 0 0 1 .25.31.74.74 0 0 1 .19.15c.07.07.07 0 .09 0s0 0 0 0 0 0 .11 0 .13 0 .22-.13a4.67 4.67 0 0 0 1.17-1.27l-.22.63c.46-2.37.83-4.79 1.37-7.12s1.09-4.69 1.72-7c1.25-4.63 2.6-9.22 4.09-13.76s3-9.06 4.7-13.53 3.33-8.89 5.08-13.35l.06-.15.07-.08a67.53 67.53 0 0 1 7.41-7.23 29.88 29.88 0 0 1 4.27-3 12.85 12.85 0 0 1 2.44-1 4.72 4.72 0 0 1 2.74-.07 3.61 3.61 0 0 1 2 1.83 9.5 9.5 0 0 1 .86 2.5 19.1 19.1 0 0 1 .23 5.2 49.2 49.2 0 0 1 -2.04 10zm-.34-.1a48.84 48.84 0 0 0 1.92-10 17.18 17.18 0 0 0 -.29-5c-.39-1.56-1.06-3.34-2.55-3.77a4 4 0 0 0 -2.3.15 11.88 11.88 0 0 0 -2.22 1.06 28.45 28.45 0 0 0 -4 3.07 66.06 66.06 0 0 0 -6.89 7.4l.14-.24c-3 9-5.79 18.12-8.41 27.23-1.25 4.58-2.56 9.2-3.64 13.74-.55 2.3-1.1 4.59-1.58 6.89s-.83 4.61-1.25 6.92l-.07.38-.15.25a8.89 8.89 0 0 1 -1 1.34 6.85 6.85 0 0 1 -1.31 1.17 4.42 4.42 0 0 1 -2 .78 4.39 4.39 0 0 1 -1.26-.11 4.7 4.7 0 0 1 -1.09-.46c-.28-.2-.58-.41-.83-.63l-.59-.68a10.1 10.1 0 0 1 -.9-1.39 18.69 18.69 0 0 1 -1.11-2.67 18 18 0 0 1 -.73-2.72c-.16-.89-.31-1.77-.43-2.65-.24-1.74-.44-3.47-.6-5.2-.66-6.87-1.02-13.76-1.27-20.65l-.37-10.33c-.12-3.44-.25-6.89-.3-10.33l-.21-10.34-.09-5.11a4.17 4.17 0 0 0 -.37-1.68s0 0 0 0 .17 0 .16 0-.06 0-.11 0a2.4 2.4 0 0 1 -.32.17l-1 .24h-.22a2.09 2.09 0 0 0 -.34 0 4.92 4.92 0 0 0 -.72.16 6.54 6.54 0 0 0 -1.42.67 9.15 9.15 0 0 0 -2.44 2.44 22.08 22.08 0 0 0 -3.18 6.56l-.54 1.81c-.17.61-.29 1.23-.43 1.85-.3 1.22-.53 2.53-.81 3.8q-.81 3.86-1.81 7.65c-1.32 5-2.88 10.09-4.65 15a25.49 25.49 0 0 0 -1.27 7.43c0 2.53.19 5.18.27 7.76q.66 15.6 1.57 31.14l.48 7.79.27 3.89.13 2a4.42 4.42 0 0 0 .27 1.64 2.79 2.79 0 0 0 2.26 1.68h.36.48 1 1.95l7.8-.14 15.6-.29c5.21 0 10.41-.12 15.61-.12h10.64a1.78 1.78 0 0 0 .52-.1 1.86 1.86 0 0 0 1.21-1.62l.2-7.72.23-7.8 1.17-31.2.28-7.79.22-7.8a57.94 57.94 0 0 1 2.33-15.5z"/></svg>