<svg viewBox="0 0 83.11 70.85" xmlns="http://www.w3.org/2000/svg"><path d="m12.4 2.81-8.58 22.31a25 25 0 0 0 -1.63 7.63l-.67 12.82a6.46 6.46 0 0 0 1.23 4.14c3.91 5.34 15.46 20.1 23.65 20.1a37.64 37.64 0 0 0 18-5l.9-8.12a.24.24 0 0 1 .46-.07l3.64 8.19s10 6 13 5 18-12 19-27-12-41-12-41z" fill="#fff"/><path d="m12.5 3c-2.67 8.13-5.24 15.93-7.91 23.5a24 24 0 0 0 -1 5.81l-.23 6.2-.25 6.22a5.58 5.58 0 0 0 1.44 4.79c2.48 3.26 5.06 6.46 7.83 9.45 1.37 1.51 2.81 2.95 4.29 4.32a32.79 32.79 0 0 0 4.7 3.68 10.83 10.83 0 0 0 5.26 1.84 31.34 31.34 0 0 0 6-.44 35.72 35.72 0 0 0 11.48-4l-.26.42.52-4.41.25-2.21.12-1.1v-.28-.17a.73.73 0 0 1 .2-.4.81.81 0 0 1 .82-.2.84.84 0 0 1 .48.5c1.22 2.7 2.43 5.4 3.68 8.08l-.25-.27c1.64.93 3.33 1.81 5 2.58a30.45 30.45 0 0 0 5.33 1.89 3.94 3.94 0 0 0 2.27.07 13.37 13.37 0 0 0 2.24-1.37 43.84 43.84 0 0 0 4.24-3.6 46.4 46.4 0 0 0 6.91-8.64 28.75 28.75 0 0 0 3.86-10.08 30.52 30.52 0 0 0 -.43-10.79 86.72 86.72 0 0 0 -2.86-10.82c-1.18-3.57-2.5-7.11-3.92-10.57s-2.89-7-4.5-10.36l1.62 1c-4.66.06-9.34 0-14 0l-14.14-.14-14.29-.22zm-.2-.28c4.6-.31 9.29-.55 14-.84l14.22-.72 14.38-.66c4.81-.16 9.64-.37 14.47-.5h1.12l.51 1a152.11 152.11 0 0 1 8.74 21.43 90.2 90.2 0 0 1 2.73 11.35 34 34 0 0 1 .19 12 30.46 30.46 0 0 1 -4.62 11 43.07 43.07 0 0 1 -7.76 8.83 43.93 43.93 0 0 1 -4.68 3.55 16.19 16.19 0 0 1 -2.72 1.45 4.21 4.21 0 0 1 -.94.2 6.16 6.16 0 0 1 -.87 0 8.24 8.24 0 0 1 -1.54-.33 31.05 31.05 0 0 1 -5.41-2.29c-1.71-.9-3.38-1.83-5-2.83l-.17-.1-.08-.17c-1.15-2.73-2.34-5.44-3.53-8.15-.09-.17 0 .07.14.08a.27.27 0 0 0 .3-.07.3.3 0 0 0 .08-.16.8.8 0 0 0 0 .11v.27l-.13 1.11-.23 2.2-.5 4.39v.28l-.24.14a41.52 41.52 0 0 1 -11.76 4.71 32.9 32.9 0 0 1 -6.35.86 12.93 12.93 0 0 1 -6.54-1.86 43.47 43.47 0 0 1 -10-8 94.6 94.6 0 0 1 -8.11-9.68l-.46-.64a7.71 7.71 0 0 1 -.54-.79 8.29 8.29 0 0 1 -.7-1.77 7.68 7.68 0 0 1 -.3-1.9c0-.69.05-1.18.07-1.7l.41-6.21.43-6.25a26 26 0 0 1 1.45-6.36c3.22-7.96 6.64-15.65 9.94-23.03z"/></svg>