<svg viewBox="0 0 93.79 201.33" xmlns="http://www.w3.org/2000/svg"><path d="m11.15 131.37s-18 43-5 55 36 14 36 14l13-14s7 16 16 14 19-11 20-23 4-25-10-46z" fill="#fff"/><path d="m11.25 131.52-1.82 5.66q-.9 2.88-1.7 5.79c-1.07 3.87-2.07 7.75-2.88 11.67a103.26 103.26 0 0 0 -1.78 11.79 41.13 41.13 0 0 0 .47 11.57 16.41 16.41 0 0 0 2 5.11l.76 1.08.89.94 2.17 1.87a51.91 51.91 0 0 0 10.05 6 75.34 75.34 0 0 0 11.14 4.11 83.59 83.59 0 0 0 11.67 2.49l-.65.25c2.24-2.26 4.44-4.57 6.65-6.86s4.36-4.64 6.55-6.95l.53-.57.33.71a34.8 34.8 0 0 0 7.16 10.43 11.28 11.28 0 0 0 5.23 3 6.46 6.46 0 0 0 2.87 0c.49-.13 1-.29 1.49-.43s1-.37 1.45-.54a26.88 26.88 0 0 0 13.3-12.49 27 27 0 0 0 1.23-2.8 24.54 24.54 0 0 0 1.25-5.92l.25-3.24c.2-2.16.37-4.28.49-6.4a53.65 53.65 0 0 0 -.73-12.49 53.37 53.37 0 0 0 -3.85-11.86 91 91 0 0 0 -6.16-11l1.54.82c-5.75-.05-11.49-.08-17.26-.19s-11.54-.22-17.35-.36l-17.54-.55zm-.2-.29 8.58-.34c2.87-.1 5.74-.23 8.65-.3l17.48-.51c5.86-.14 11.75-.27 17.65-.36s11.82-.14 17.74-.19h1l.56.83a82.46 82.46 0 0 1 6.48 11.54 52.06 52.06 0 0 1 3.93 12.77 56.63 56.63 0 0 1 .51 13.33c-.16 2.19-.39 4.37-.62 6.5l-.36 3.21a25.91 25.91 0 0 1 -.62 3.39 28 28 0 0 1 -1 3.26 30.09 30.09 0 0 1 -1.48 3.08 25.88 25.88 0 0 1 -4 5.47 28.73 28.73 0 0 1 -11.08 7.4c-.53.17-1.06.38-1.6.52s-1.08.27-1.64.39a8 8 0 0 1 -3.55-.13 13.33 13.33 0 0 1 -5.75-3.57 31.19 31.19 0 0 1 -4.1-5.16 43.27 43.27 0 0 1 -3.16-5.75l.87.15c-2.15 2.35-4.32 4.68-6.45 7.05s-4.27 4.73-6.36 7.14l-.24.28h-.41a84.69 84.69 0 0 1 -12.08-1.94 74.14 74.14 0 0 1 -11.74-3.65 47 47 0 0 1 -10.82-6.15c-.8-.68-1.62-1.33-2.42-2l-1.17-1.27c-.33-.46-.64-.93-1-1.4a19.19 19.19 0 0 1 -2.29-6.13 41 41 0 0 1 -.22-12.49 90 90 0 0 1 2.32-12c1.06-3.93 2.25-7.81 3.66-11.61q1.05-2.85 2.2-5.66c.38-.93.76-1.87 1.17-2.79l.63-1.39.32-.69.16-.34a2.16 2.16 0 0 1 .25-.49z"/><path d="m39.15 23.37 2-2c6.72-13.59 20-20 20-20 19-1 14 27 14 27v2l-15 75-33-7z" fill="#eace88"/><path d="m39 23.29 1.9-2.16-.06.09a42.44 42.44 0 0 1 3.52-6.36c.65-1 1.42-2 2.16-2.95s1.57-1.91 2.48-2.74a46.19 46.19 0 0 1 5.43-4.93 42.92 42.92 0 0 1 6.13-4.08l.24-.16h.28a17.42 17.42 0 0 1 4.81.33 12.63 12.63 0 0 1 4.55 2 15.69 15.69 0 0 1 5.45 8 32.58 32.58 0 0 1 1.39 9.17 46.59 46.59 0 0 1 -.78 9.11v-.24l-.06 2v.17.09l-4.35 18.63c-1.39 6.22-2.71 12.46-3.9 18.74s-2.3 12.54-3.38 18.83-2.1 12.58-3.26 18.84l-.26 1.33-1.44-.27c-5.52-1-11-2.14-16.55-3.25l-16.53-3.33-1.77-.3.27-1.77c1-6.3 2-12.6 3.09-18.88s2.18-12.55 3.31-18.8l1.73-9.35 1.8-9.3c1.22-6.21 2.49-12.36 3.8-18.46zm.31.16c-.7 6.4-1.43 12.75-2.25 19.05l-1.2 9.5-1.26 9.4c-.88 6.24-1.74 12.48-2.7 18.7s-1.9 12.37-2.9 18.57l-1.45-2.12 16.45 3.68q8.24 1.83 16.45 3.75l-1.7 1.11c1.34-6.23 2.83-12.43 4.24-18.65s2.84-12.44 4.12-18.67 2.49-12.51 3.6-18.77l3.16-18.87v.25l-.06-2v-.2a52.91 52.91 0 0 0 .38-8.55 31.68 31.68 0 0 0 -1.27-8.3 12.51 12.51 0 0 0 -4.22-6.52 10.25 10.25 0 0 0 -3.47-1.63 14.66 14.66 0 0 0 -4-.41l.52-.13a47.47 47.47 0 0 0 -6 3.56 55.06 55.06 0 0 0 -5.48 4.41 48.83 48.83 0 0 0 -4.84 5.12 43.83 43.83 0 0 0 -4 5.85v.07z"/><path d="m39.15 21.37s-26 0-28 46 1 62 1 62l70 1s-14-54 1-96c0 0-3-9-13-1s-20 50-20 50-16-14-11-62z" fill="#eace88"/><path d="m39 21.49c.12.12 0 .05-.1.08h-.23l-.46.06-.91.17a18.34 18.34 0 0 0 -1.8.48 24.07 24.07 0 0 0 -9.5 5.61 31.4 31.4 0 0 0 -4.72 5.63 37.93 37.93 0 0 0 -3.46 6.48 60.86 60.86 0 0 0 -4 14.24 109.54 109.54 0 0 0 -1.32 14.85c-.15 5-.3 10-.38 15.06s-.11 10-.1 15.06.08 10 .26 15 .37 10.06 1 14.88l-1.15-1 17.49.58c5.83.21 11.67.37 17.5.52s11.66.24 17.5.3 11.67.11 17.5.14l-.63.81a220.46 220.46 0 0 1 -4.63-23.95 213.06 213.06 0 0 1 -2.06-24.34 169.73 169.73 0 0 1 1.2-24.37 130 130 0 0 1 5.46-24v1.22a5.37 5.37 0 0 0 -.34-.69 5.64 5.64 0 0 0 -.46-.7 4.77 4.77 0 0 0 -1.14-1.07 3.84 3.84 0 0 0 -2.88-.54l-.83.21a8.36 8.36 0 0 0 -.85.34 10.9 10.9 0 0 0 -1.68.89 19.45 19.45 0 0 0 -1.64 1.15 5.71 5.71 0 0 0 -.73.6 5.87 5.87 0 0 0 -.66.66 31.78 31.78 0 0 0 -4.48 6.9c-1.29 2.53-2.46 5.15-3.55 7.82-2.17 5.35-4 10.85-5.78 16.39s-3.38 11.14-4.82 16.75l-.62 2.53-1.81-1.73a16.1 16.1 0 0 1 -1.52-1.7c-.43-.58-.85-1.15-1.24-1.74s-.75-1.19-1.11-1.79l-1-1.85a53.28 53.28 0 0 1 -3.1-7.67 77.77 77.77 0 0 1 -3.14-16.05l-.22-2c-.07-.68-.08-1.36-.12-2l-.21-4.06c-.06-2.7 0-5.41.05-8.11s.29-5.42.51-8.07zm.26-.23c-.13 2.64-.2 5.38-.36 8.16s-.05 5.38-.08 8.07.21 5.35.35 8l.37 4c.06.66.1 1.33.19 2l.29 2a76.22 76.22 0 0 0 3.65 15.45 50.6 50.6 0 0 0 3.11 7.2l1 1.69c.35.55.71 1.08 1.06 1.62s.75 1 1.14 1.52a15.78 15.78 0 0 0 1.18 1.29l-2.48.74c1.34-5.74 2.83-11.4 4.47-17s3.51-11.23 5.67-16.75c1.09-2.75 2.25-5.49 3.62-8.17a34.87 34.87 0 0 1 5.08-7.74 14.46 14.46 0 0 1 1.84-1.67c.66-.45 1.25-1 2-1.36a15 15 0 0 1 2.18-1.15 11.46 11.46 0 0 1 1.2-.46l1.26-.35a7.48 7.48 0 0 1 5.54 1.08 8.49 8.49 0 0 1 2 1.94 11.42 11.42 0 0 1 .73 1.13 8.39 8.39 0 0 1 .58 1.3l.21.55-.22.63a126.07 126.07 0 0 0 -5.6 23.23c-.31 2-.45 4-.68 6l-.32 3-.18 3c-.1 2-.28 4-.32 6l-.1 6c.06 8 .45 16.09 1.28 24.12q.63 6 1.59 12c.62 4 1.36 8 2.26 11.88l.23.79h-.83c-5.83-.14-11.66-.27-17.5-.36s-11.66-.14-17.5-.2-11.67 0-17.5 0l-17.51.08h-1l-.17-1a143.88 143.88 0 0 1 -1.6-15.12c-.29-5.05-.46-10.1-.47-15.15s0-10.1.15-15.14.31-10.11.58-15.11a105.26 105.26 0 0 1 1.7-15.18 60.39 60.39 0 0 1 4.65-14.63 35.27 35.27 0 0 1 9.19-12.28 26.57 26.57 0 0 1 6.54-4 22.44 22.44 0 0 1 3.64-1.19 17.27 17.27 0 0 1 1.88-.35c.32-.05.64-.08 1-.1h.48.24c.03-.05.03-.13.31-.01z"/></svg>