<svg viewBox="0 0 76.17 131.04" xmlns="http://www.w3.org/2000/svg"><path d="m30.25 23.37 2-2c6.73-13.59 20-20 20-20 19-1 14 27 14 27v2l-15 75-33-7z" fill="#eace88"/><path d="m30.1 23.29 1.9-2.16-.07.09a41.63 41.63 0 0 1 3.53-6.36c.64-1 1.42-2 2.15-2.95s1.58-1.91 2.44-2.74a47 47 0 0 1 5.43-4.93 43 43 0 0 1 6.19-4.08l.23-.16h.28a17.42 17.42 0 0 1 4.82.36 12.67 12.67 0 0 1 4.56 2 15.73 15.73 0 0 1 5.44 8 32.58 32.58 0 0 1 1.39 9.17 45.84 45.84 0 0 1 -.78 9.11v-.24l-.06 2v.17.09l-4.35 18.6c-1.4 6.22-2.72 12.46-3.91 18.74s-2.29 12.52-3.38 18.81-2.1 12.58-3.26 18.84l-.25 1.35-1.4-.23c-5.53-1-11-2.14-16.55-3.25l-16.54-3.33-1.73-.34.28-1.77c1-6.3 2-12.6 3.08-18.88s2.19-12.55 3.31-18.8l1.73-9.35 1.81-9.3q1.73-9.31 3.71-18.46zm.31.16c-.7 6.4-1.43 12.75-2.25 19.05l-1.16 9.5-1.27 9.4c-.91 6.19-1.73 12.43-2.73 18.65s-1.9 12.42-2.91 18.62l-1.45-2.12 16.46 3.68q8.24 1.83 16.45 3.75l-1.7 1.11c1.35-6.23 2.83-12.43 4.24-18.65s2.85-12.44 4.12-18.67 2.49-12.51 3.6-18.77l3.19-18.88v.25l-.06-2v-.2a52.91 52.91 0 0 0 .38-8.55 32.1 32.1 0 0 0 -1.32-8.34 12.59 12.59 0 0 0 -4.23-6.52 10.25 10.25 0 0 0 -3.47-1.63 14.66 14.66 0 0 0 -4-.41l.52-.13a47.47 47.47 0 0 0 -6 3.56 53.82 53.82 0 0 0 -5.47 4.41 48.93 48.93 0 0 0 -4.85 5.12 42.85 42.85 0 0 0 -4 5.85v.07z"/><path d="m30.25 21.37s-26 0-28 46 1 62 1 62l70 1s-14-54 1-96c0 0-3-9-13-1s-20 50-20 50-16-14-11-62z" fill="#eace88"/><path d="m30.12 21.49c.13.12 0 .05-.09.08h-.23l-.46.06-.92.17a18.34 18.34 0 0 0 -1.8.48 26.92 26.92 0 0 0 -3.45 1.37 25.91 25.91 0 0 0 -6 4.22 31 31 0 0 0 -4.73 5.63 37.93 37.93 0 0 0 -3.52 6.5 61.35 61.35 0 0 0 -4 14.24 109.54 109.54 0 0 0 -1.3 14.87c-.14 5-.3 10-.38 15.06s-.11 10-.1 15.06.08 10 .26 15 .37 10.06 1 14.88l-1.15-1 17.5.58c5.83.21 11.66.37 17.49.52s11.67.24 17.5.3 11.67.11 17.5.14l-.63.81a222.88 222.88 0 0 1 -4.61-23.87 215.35 215.35 0 0 1 -2.06-24.34 169.73 169.73 0 0 1 1.16-24.47 129.14 129.14 0 0 1 5.45-24v1.22a5.37 5.37 0 0 0 -.34-.69 5.64 5.64 0 0 0 -.46-.7 4.73 4.73 0 0 0 -1.13-1.07 3.88 3.88 0 0 0 -2.88-.54l-.83.21a7.39 7.39 0 0 0 -.84.34 11 11 0 0 0 -1.69.89c-.56.31-1.09.77-1.64 1.15a6.5 6.5 0 0 0 -.73.6 6.85 6.85 0 0 0 -.66.66 31.75 31.75 0 0 0 -4.47 6.9c-1.3 2.53-2.47 5.15-3.55 7.82-2.18 5.35-4 10.85-5.78 16.39s-3.38 11.14-4.83 16.75l-.65 2.52-1.81-1.73a17.3 17.3 0 0 1 -1.52-1.7c-.42-.58-.85-1.15-1.24-1.74s-.75-1.19-1.11-1.79l-1-1.85a53.33 53.33 0 0 1 -3.11-7.67 77.77 77.77 0 0 1 -3.14-16.05l-.22-2c-.06-.68-.08-1.36-.12-2l-.2-4.06c-.07-2.7 0-5.41 0-8.11s.3-5.42.51-8.07zm.26-.23c-.13 2.64-.2 5.38-.35 8.16s-.03 5.38-.03 8.07.2 5.35.35 8l.36 4c.07.66.1 1.33.19 2l.3 2a74.91 74.91 0 0 0 3.6 15.43 50.6 50.6 0 0 0 3.11 7.2l1 1.69c.34.55.7 1.08 1.05 1.62s.76 1 1.14 1.52a15.76 15.76 0 0 0 1.19 1.29l-2.5.76c1.33-5.74 2.82-11.4 4.46-17s3.52-11.23 5.67-16.75c1.09-2.75 2.25-5.49 3.62-8.17a35.22 35.22 0 0 1 5.08-7.74 9.26 9.26 0 0 1 .89-.88 8.34 8.34 0 0 1 1-.79c.65-.45 1.24-1 2-1.36a14.62 14.62 0 0 1 2.19-1.15 11.28 11.28 0 0 1 1.19-.46l1.29-.32a7.48 7.48 0 0 1 5.54 1.08 8.3 8.3 0 0 1 2 1.94 11.42 11.42 0 0 1 .73 1.13 9.43 9.43 0 0 1 .55 1.27l.2.55-.2.65a126.89 126.89 0 0 0 -5.6 23.23c-.31 2-.45 4-.68 6l-.32 3-.18 3c-.1 2-.28 4-.32 6l-.09 6c0 8 .44 16.09 1.28 24.12q.63 6 1.58 12c.62 4 1.36 8 2.26 11.88l.19.83h-.83c-5.83-.14-11.66-.27-17.49-.36s-11.67-.14-17.5-.2-11.67 0-17.51 0l-17.5.08h-1l-.16-1a141.33 141.33 0 0 1 -1.64-15.18c-.28-5.05-.49-10.1-.49-15.15s0-10.1.16-15.14.32-10.11.6-15.11a105.24 105.24 0 0 1 1.69-15.19 60.83 60.83 0 0 1 4.63-14.62 35.27 35.27 0 0 1 9.19-12.28 26.57 26.57 0 0 1 6.54-4 22.24 22.24 0 0 1 3.65-1.19 17.27 17.27 0 0 1 1.88-.35c.31-.05.63-.08.95-.1h.48.23c.11-.05.1-.13.38-.01z"/></svg>