<svg viewBox="0 0 93.79 71.81" xmlns="http://www.w3.org/2000/svg"><path d="m11.15 1.86s-18 43-5 55 36 14 36 14l13-14s7 16 16 14 19-11 20-23 4-25-10-46z" fill="#fff"/><path d="m11.25 2-1.82 5.66q-.9 2.88-1.7 5.79c-1.07 3.87-2.07 7.76-2.88 11.67a103.6 103.6 0 0 0 -1.78 11.79 41.12 41.12 0 0 0 .47 11.6 16.32 16.32 0 0 0 2 5.11l.76 1.08.89.94 2.2 1.86a51.41 51.41 0 0 0 10.05 6 75.34 75.34 0 0 0 11.14 4.11 83.59 83.59 0 0 0 11.67 2.49l-.65.25c2.24-2.26 4.44-4.56 6.65-6.86s4.36-4.63 6.55-7l.53-.56.33.71a34.88 34.88 0 0 0 7.16 10.42 11.39 11.39 0 0 0 5.23 3 6.46 6.46 0 0 0 2.87 0c.49-.12 1-.29 1.49-.43s1-.36 1.45-.54a26.94 26.94 0 0 0 13.3-12.48 29 29 0 0 0 1.23-2.8 24.48 24.48 0 0 0 1.25-5.93l.25-3.24c.2-2.16.37-4.28.49-6.39a53.61 53.61 0 0 0 -.73-12.49 53.29 53.29 0 0 0 -3.88-11.86 91.75 91.75 0 0 0 -6.16-11l1.54.82c-5.75-.05-11.49-.07-17.26-.19s-11.54-.22-17.35-.36l-17.54-.53zm-.2-.29 8.58-.33c2.87-.11 5.74-.24 8.65-.31l17.48-.51c5.86-.14 11.75-.27 17.65-.36s11.82-.14 17.74-.2h1l.56.83a82 82 0 0 1 6.48 11.55 51.86 51.86 0 0 1 3.91 12.76 56.65 56.65 0 0 1 .53 13.31c-.16 2.19-.39 4.37-.62 6.51l-.36 3.2a25.91 25.91 0 0 1 -.65 3.39 28.78 28.78 0 0 1 -1 3.27 29.93 29.93 0 0 1 -1.48 3.07 25.63 25.63 0 0 1 -4 5.47 28.73 28.73 0 0 1 -11.08 7.4c-.53.17-1.06.38-1.6.52s-1.08.27-1.64.39a8 8 0 0 1 -3.55-.13 13.33 13.33 0 0 1 -5.72-3.54 31.54 31.54 0 0 1 -4.1-5.15 43.91 43.91 0 0 1 -3.16-5.75l.87.14c-2.15 2.35-4.32 4.69-6.45 7.05s-4.27 4.71-6.36 7.11l-.24.28h-.41a84.69 84.69 0 0 1 -12.08-1.91 73.12 73.12 0 0 1 -11.74-3.65 46.66 46.66 0 0 1 -10.83-6.12c-.8-.68-1.62-1.32-2.42-2l-1.17-1.34c-.33-.45-.64-.93-1-1.4a19.19 19.19 0 0 1 -2.25-6.13 41 41 0 0 1 -.22-12.49 90 90 0 0 1 2.32-12c1.06-3.95 2.25-7.84 3.66-11.64.7-1.91 1.43-3.79 2.2-5.67.38-.93.76-1.87 1.17-2.79l.63-1.38.32-.69.16-.35a2.16 2.16 0 0 1 .22-.41z"/></svg>