<svg viewBox="0 0 86.95 176.62" xmlns="http://www.w3.org/2000/svg"><path d="m70.54 111 14 31s5.8 12.57-10.16 29.15a2.82 2.82 0 0 1 -2 .85h-9.94a2.86 2.86 0 0 1 -1.63-.51l-7-4.89a2.83 2.83 0 0 0 -3.8.51c-2.7 3.19-9.24 8.89-21.48 8.89-15.42 0-25.08-25.5-26.74-30.24a2.78 2.78 0 0 1 -.1-1.51c.83-4 4.9-23 9.45-33a7.26 7.26 0 0 1 6.6-4.26h46.33a7.23 7.23 0 0 1 6.47 4z" fill="#fff"/><path d="m70.7 110.9c4.38 9.83 9.32 19.4 14.13 29l.45.9c.15.32.3.55.47 1a16.63 16.63 0 0 1 .68 2.11 20 20 0 0 1 .57 4.29c0 .72 0 1.43-.06 2.14s-.17 1.42-.25 2.13a28.64 28.64 0 0 1 -1.07 4.12l-.33 1-.41 1c-.28.64-.52 1.31-.85 1.93a38.61 38.61 0 0 1 -2.1 3.64l-1.15 1.75c-.4.56-.85 1.09-1.28 1.64s-.85 1.09-1.31 1.61l-1.4 1.52c-.49.53-.9 1-1.46 1.54a4.16 4.16 0 0 1 -2.73 1.1l-4.1-.11-4-.13-2-.06a4 4 0 0 1 -1.33-.29 4.85 4.85 0 0 1 -1.07-.65l-6.46-4.84a2.17 2.17 0 0 0 -2.85.08c-.16.16-.43.46-.66.71l-.73.74c-.5.47-1 .93-1.54 1.37a29 29 0 0 1 -15 6.2l-2 .2-2.05.09a16.1 16.1 0 0 1 -4.19-.48 20.24 20.24 0 0 1 -7.62-3.88 36.21 36.21 0 0 1 -5.84-5.9 54.84 54.84 0 0 1 -4.65-6.8q-2.04-3.57-3.76-7.28c-.58-1.24-1.12-2.5-1.63-3.78l-.74-1.92a5.5 5.5 0 0 1 -.38-1.35 4.26 4.26 0 0 1 0-.8 4.12 4.12 0 0 1 .11-.7q1.57-8 3.57-15.84a126 126 0 0 1 5-15.6l.85-1.92a9.29 9.29 0 0 1 1.39-2.11 9 9 0 0 1 6.67-3.07h2.05l4 .08c5.38.08 10.76.29 16.14.53l16.14.67c2.69.12 5.38.15 8.07.22a7.52 7.52 0 0 1 6.71 4.2zm-.32.14a7 7 0 0 0 -6.38-3.81c-2.69.08-5.38.1-8.07.23l-16.14.66c-5.38.24-10.76.46-16.14.54l-4 .07h-2a5.36 5.36 0 0 0 -1.49.26 5.43 5.43 0 0 0 -2.49 1.66 5.56 5.56 0 0 0 -.8 1.27l-.74 1.78a147.45 147.45 0 0 0 -4.9 15.12c-1.45 5.18-2.73 10.37-3.89 15.59a1.77 1.77 0 0 0 -.06.29.74.74 0 0 0 0 .21 2 2 0 0 0 .16.59l.67 1.86c.47 1.23 1 2.46 1.46 3.68 1 2.44 2.15 4.84 3.39 7.17 2.53 4.6 5.39 9.13 9.3 12.59a18.51 18.51 0 0 0 6.6 3.89 14.51 14.51 0 0 0 3.77.63h2l2-.14a25.88 25.88 0 0 0 14.37-5.91c.5-.43 1-.88 1.43-1.35l.66-.73c.22-.26.39-.47.69-.79a3.52 3.52 0 0 1 2.21-1 3.73 3.73 0 0 1 2.34.66l6.76 4.42a2.31 2.31 0 0 0 .67.37 1.77 1.77 0 0 0 .64.09l2-.06 4-.12 4-.13a1.41 1.41 0 0 0 .91-.44l1.24-1.46a41.93 41.93 0 0 0 8.09-13.13 24.63 24.63 0 0 0 1.51-7.41 21.29 21.29 0 0 0 -.21-3.75 13.86 13.86 0 0 0 -.41-1.77c-.06-.21-.23-.58-.34-.87l-.38-.94c-4.03-9.99-7.95-20.03-12.43-29.86z"/><path d="m32.46 20.65 2.54-3.18s9-18 13-16 8 15 8 15l.55 1.88 1.45 68.12-32-1z" fill="#eace88"/><path d="m32.3 20.59c.77-1.12 1.55-2.27 2.38-3.41v.08a82.54 82.54 0 0 1 4.64-9.14 38 38 0 0 1 2.9-4.33 18.92 18.92 0 0 1 1.8-2 9.66 9.66 0 0 1 1.08-.97 6.82 6.82 0 0 1 .7-.42 4.24 4.24 0 0 1 .87-.31 2.86 2.86 0 0 1 .51-.09 5.52 5.52 0 0 1 .58 0 2.65 2.65 0 0 1 .59.14l.28.11.19.11.71.46a4.92 4.92 0 0 1 .59.51 8.21 8.21 0 0 1 1 1.07c.32.36.56.74.83 1.11a32.68 32.68 0 0 1 2.55 4.67c.74 1.59 1.39 3.19 2 4.8.3.81.6 1.62.87 2.45s.48 1.66.73 2.49v.19.21c.26 11.35-.36 22.73-.27 34.08 0 5.68.22 11.35.47 17l.93 17 .07 1.26h-1.3c-10.68.06-21.34-.25-32-.41h-1.93l.16-2c.22-2.73.52-5.45.77-8.17s.55-5.45.86-8.16c.58-5.44 1.23-10.86 1.89-16.27s1.38-10.8 2.13-16.16 1.55-10.63 2.42-15.9zm.32.13q-.3 8.3-.79 16.46c-.32 5.45-.68 10.86-1.07 16.26s-.83 10.77-1.31 16.14c-.23 2.68-.47 5.36-.75 8s-.52 5.36-.84 8l-1.76-2c10.66.51 21.33.87 32 1.59l-1.3 1.33.21-17c0-5.68-.07-11.36-.26-17-.4-11.35-1.51-22.69-1.73-34l.06.4a72.85 72.85 0 0 0 -3.32-9.37 36.44 36.44 0 0 0 -2.2-4.32 9.34 9.34 0 0 0 -.65-.95 5.84 5.84 0 0 0 -.69-.83 3.65 3.65 0 0 0 -.35-.43l-.35-.24-.08-.07a0 0 0 0 1 0 0s0 0 0 0h-.06-.11a4 4 0 0 0 -1.6.93 16.45 16.45 0 0 0 -1.67 1.65c-1.07 1.22-2.07 2.56-3.05 3.91-1.92 2.74-3.73 5.6-5.45 8.5l-.05.07c-.94.99-1.88 1.96-2.83 2.97z"/><path d="m28 8.47s-20 31-16 53v40.87a3.13 3.13 0 0 0 3.13 3.13h50.75a3.37 3.37 0 0 0 3.37-3.16c.45-7.35 1.38-25-.21-25.84-2-1-2-59-2-59s-2-8-6-8c-3.84 0-15.04 45.3-13.28 52.35a5.29 5.29 0 0 1 .11 2.06c-.43 2.93-1.73 9.37-4.83 8.59-4-1-9-11-9-20s-2-38-2-38-.04-10-4.04-6z" fill="#eace88"/><path d="m28.18 8.58a121.45 121.45 0 0 0 -6.69 12.36q-1.5 3.18-2.82 6.45c-.87 2.17-1.67 4.38-2.37 6.61s-1.37 4.47-1.91 6.74a63.86 63.86 0 0 0 -1.29 6.84 41.15 41.15 0 0 0 .22 13.66v.09.14l.2 11.67.07 11.67v11.67l-.06 5.84a1.72 1.72 0 0 0 .64 1.38 1.62 1.62 0 0 0 .71.34 1.38 1.38 0 0 0 .2 0h.1.91l23.34.48c7.78.17 15.56.31 23.34.34h2.92a2.9 2.9 0 0 0 2.26-.86 2.75 2.75 0 0 0 .64-1 4.21 4.21 0 0 0 .18-1.3l.16-2.91c.2-3.88.36-7.76.39-11.64 0-1.94 0-3.88-.09-5.8 0-1-.12-1.92-.25-2.84a6.88 6.88 0 0 0 -.27-1.27.67.67 0 0 0 -.09-.19s0 0 0 0 .2.13-.1-.08a1 1 0 0 1 -.29-.38 1.37 1.37 0 0 1 -.12-.26 2.83 2.83 0 0 1 -.11-.33 44.89 44.89 0 0 1 -.8-6q-.24-2.93-.4-5.84c-.91-15.58-1.23-31.14-1.39-46.72v.4a19.25 19.25 0 0 0 -1.57-4 5.9 5.9 0 0 0 -2.28-2.61 2 2 0 0 1 -.26-.09 1 1 0 0 1 -.25 0s-.07 0 0 0a.59.59 0 0 0 .29 0c.1 0 .1 0 .15-.05l.08-.05s0 0-.08.1a9.62 9.62 0 0 0 -1 1.64 43.91 43.91 0 0 0 -1.67 4.13c-2 5.74-3.58 11.73-5.08 17.7s-2.74 12-3.72 18c-.23 1.51-.44 3-.58 4.5-.07.75-.12 1.48-.13 2.2a9.24 9.24 0 0 0 .1 1.91s.1.41.13.64.07.52.09.78a7.55 7.55 0 0 1 -.08 1.52c-.13.8-.27 1.6-.46 2.4a21.6 21.6 0 0 1 -.6 2.44 13.47 13.47 0 0 1 -1.06 2.44 5.63 5.63 0 0 1 -2.3 2.35l-.47.21a4.69 4.69 0 0 1 -.54.11 2.91 2.91 0 0 1 -1.06 0 3.17 3.17 0 0 1 -.89-.24 5.29 5.29 0 0 1 -.76-.34 11.58 11.58 0 0 1 -3.75-3.84 25.68 25.68 0 0 1 -2.27-4.38 31.4 31.4 0 0 1 -1.5-4.61 33.4 33.4 0 0 1 -.84-4.7 42.86 42.86 0 0 1 -.1-4.78c0-3.08 0-6.18-.08-9.28-.15-6.19-.32-12.4-.61-18.6l-.46-9.34a18.2 18.2 0 0 0 -.61-4.54c-.19-.68-.55-1.46-1.19-1.69s-1.32.34-1.82.81zm-.27-.22a4.12 4.12 0 0 1 1-.76 1.57 1.57 0 0 1 1.26-.19 1.87 1.87 0 0 1 1 .83 5.4 5.4 0 0 1 .48 1.11 18 18 0 0 1 .61 4.65c.18 3.08.49 6.18.72 9.27.5 6.19 1.07 12.37 1.53 18.56.22 3.1.46 6.2.6 9.33a40.61 40.61 0 0 0 .35 4.51 33.77 33.77 0 0 0 1 4.34 33 33 0 0 0 1.59 4.16 21.28 21.28 0 0 0 2.18 3.83 9.5 9.5 0 0 0 2.77 2.68c.11.08.21.07.31.12s.21.09.22.06.08 0 .09 0 0 0 0 0a2.62 2.62 0 0 0 .8-1 15.11 15.11 0 0 0 1.27-3.93c.15-.72.28-1.44.38-2.18a3.57 3.57 0 0 0 0-.79c0-.13 0-.25 0-.38l-.07-.58a12.72 12.72 0 0 1 -.2-2.72c0-.84 0-1.65.12-2.45.13-1.6.32-3.17.55-4.73.89-6.24 2.25-12.34 3.73-18.41a174.26 174.26 0 0 1 5.38-18 48.23 48.23 0 0 1 1.88-4.46 11.72 11.72 0 0 1 1.44-2.32 4.1 4.1 0 0 1 .76-.7 3.2 3.2 0 0 1 .34-.21 2.18 2.18 0 0 1 .42-.16 2.71 2.71 0 0 1 .58-.07 1.86 1.86 0 0 1 .26 0c.3 0 .61.07.9.12s.56.2.83.3a6.9 6.9 0 0 1 2.4 1.92 13 13 0 0 1 1.46 2.24 22.61 22.61 0 0 1 1.79 4.72l.05.18v.21c-.07 15.54-.21 31.11 0 46.64 0 1.94.11 3.87.2 5.81a44.34 44.34 0 0 0 .54 5.66c0 .1 0 .2.07.27v.08s0 0-.09-.08.09.06.18.16a1.09 1.09 0 0 1 .22.29 2.2 2.2 0 0 1 .22.49 9.91 9.91 0 0 1 .3 1.58c.1 1 .14 2 .16 3v5.87c-.11 3.9-.3 7.79-.52 11.68l-.18 2.92a5.23 5.23 0 0 1 -.25 1.58 3.79 3.79 0 0 1 -.87 1.42 3.93 3.93 0 0 1 -3 1.2h-2.92c-7.78 0-15.56.16-23.34.33l-23.34.48h-1.18a3.07 3.07 0 0 1 -.52-.06 4.33 4.33 0 0 1 -1.94-.81 4.57 4.57 0 0 1 -1.85-3.66l-.07-5.84v-11.67l.07-11.67.21-11.67v.23a43.2 43.2 0 0 1 .52-14.41 67.28 67.28 0 0 1 1.69-6.92c.67-2.28 1.44-4.52 2.28-6.73s1.72-4.39 2.72-6.53 2-4.29 3-6.39c2.15-4.21 4.35-8.34 6.91-12.35z"/></svg>