<svg viewBox="0 0 60.19 106.86" xmlns="http://www.w3.org/2000/svg"><path d="m22.07 20.65 2.59-3.18s9-18 13-16 8 15 8 15l.54 1.88 1.46 68.12-32-1z" fill="#eace88"/><path d="m21.91 20.59c.78-1.12 1.56-2.27 2.39-3.41l-.06.08a84.39 84.39 0 0 1 4.65-9.14 37.92 37.92 0 0 1 2.89-4.33 18.92 18.92 0 0 1 1.8-2 9.78 9.78 0 0 1 1.14-.97 6.66 6.66 0 0 1 .69-.42 4.13 4.13 0 0 1 .88-.31 2.86 2.86 0 0 1 .51-.09 5.62 5.62 0 0 1 .58 0 2.45 2.45 0 0 1 .62.16l.29.11.18.11.72.46a4.15 4.15 0 0 1 .58.51 7.66 7.66 0 0 1 1 1.07c.32.36.56.74.83 1.11a32.68 32.68 0 0 1 2.56 4.65q1.1 2.38 2 4.8c.3.81.6 1.62.87 2.45s.48 1.66.72 2.49l.06.19v.21c.27 11.35-.35 22.73-.26 34.08 0 5.68.22 11.35.47 17l.93 17 .05 1.31h-1.38c-10.68.06-21.35-.25-32-.41h-1.92l.16-2c.21-2.73.51-5.45.77-8.17s.55-5.45.85-8.16c.59-5.44 1.24-10.86 1.9-16.27s1.38-10.8 2.13-16.16 1.54-10.68 2.4-15.95zm.33.13q-.31 8.3-.79 16.46c-.32 5.45-.69 10.86-1.07 16.26s-.83 10.77-1.32 16.14q-.33 4-.75 8c-.28 2.68-.51 5.36-.83 8l-1.76-2c10.66.51 21.32.87 32 1.59l-1.3 1.33.2-17c0-5.68-.06-11.36-.26-17-.39-11.35-1.5-22.69-1.72-34l.06.4a72.85 72.85 0 0 0 -3.32-9.37 38 38 0 0 0 -2.2-4.32 11.3 11.3 0 0 0 -.65-.95 6.6 6.6 0 0 0 -.69-.83 2.81 2.81 0 0 0 -.36-.43l-.34-.24-.08-.07s0 0 0 0h-.06-.11a4 4 0 0 0 -1.6.93 16.45 16.45 0 0 0 -1.67 1.67 49.2 49.2 0 0 0 -3 3.91c-1.93 2.74-3.73 5.6-5.46 8.5v.07c-1.03.97-1.98 1.94-2.92 2.95z"/><path d="m17.66 8.47s-20 31-16 53v40.87a3.13 3.13 0 0 0 3.13 3.13h50.71a3.37 3.37 0 0 0 3.37-3.16c.45-7.35 1.37-25-.21-25.84-2-1-2-59-2-59s-2-8-6-8c-3.85 0-15.09 45.3-13.28 52.35a5.1 5.1 0 0 1 .1 2.06c-.42 2.93-1.72 9.37-4.82 8.59-4-1-9-11-9-20s-2-38-2-38 0-10-4-6z" fill="#eace88"/><path d="m17.8 8.58a121.53 121.53 0 0 0 -6.7 12.36q-1.49 3.18-2.82 6.45c-.86 2.17-1.65 4.38-2.37 6.61s-1.36 4.47-1.91 6.74a61.48 61.48 0 0 0 -1.29 6.84 41.15 41.15 0 0 0 .22 13.66v.23l.2 11.67.07 11.67v11.67l-.07 5.84a1.72 1.72 0 0 0 .65 1.38 1.52 1.52 0 0 0 .71.34 1.2 1.2 0 0 0 .2 0h.1.91l23.34.48c7.78.17 15.56.31 23.34.34h2.92a2.88 2.88 0 0 0 2.25-.86 2.66 2.66 0 0 0 .65-1 4.53 4.53 0 0 0 .18-1.3l.16-2.91c.2-3.88.36-7.76.38-11.64 0-1.94 0-3.88-.08-5.8 0-1-.12-1.92-.25-2.84a6.85 6.85 0 0 0 -.28-1.27.74.74 0 0 0 -.08-.19s0 0 0 0 .21.13-.09-.08a1.11 1.11 0 0 1 -.3-.38 1.23 1.23 0 0 1 -.11-.26c-.06-.15-.1-.29-.14-.42a44.83 44.83 0 0 1 -.77-5.91c-.16-2-.29-3.9-.41-5.84-.9-15.58-1.22-31.14-1.38-46.72v.4a19.83 19.83 0 0 0 -1.57-4 5.9 5.9 0 0 0 -2.28-2.61l-.18-.01a1 1 0 0 1 -.24 0s-.08 0 0 0a.55.55 0 0 0 .28 0 .76.76 0 0 0 .16-.05l.08-.05s0 0-.08.1a8.46 8.46 0 0 0 -1 1.64 43.91 43.91 0 0 0 -1.67 4.13c-2 5.74-3.58 11.73-5.08 17.7s-2.75 12-3.72 18c-.24 1.51-.44 3-.58 4.5-.07.75-.12 1.48-.14 2.2a10 10 0 0 0 .1 1.91s.1.41.14.64a7.46 7.46 0 0 1 0 2.3q-.18 1.2-.45 2.4a21.66 21.66 0 0 1 -.7 2.36 13.4 13.4 0 0 1 -1.05 2.44 5.63 5.63 0 0 1 -2.3 2.35l-.47.21a5.17 5.17 0 0 1 -.54.11 2.91 2.91 0 0 1 -1.06 0 3.25 3.25 0 0 1 -.9-.24 4.72 4.72 0 0 1 -.75-.34 11.62 11.62 0 0 1 -3.76-3.84 26.36 26.36 0 0 1 -2.27-4.35 30.29 30.29 0 0 1 -1.51-4.61 34.85 34.85 0 0 1 -.82-4.73 40.63 40.63 0 0 1 -.11-4.78c0-3.08 0-6.18-.07-9.28-.16-6.19-.33-12.4-.61-18.6l-.46-9.34a18.2 18.2 0 0 0 -.61-4.54c-.23-.69-.55-1.48-1.18-1.7s-1.34.35-1.83.82zm-.28-.22a4.4 4.4 0 0 1 1-.76 1.57 1.57 0 0 1 1.26-.19 1.81 1.81 0 0 1 .95.83 5 5 0 0 1 .49 1.11 18 18 0 0 1 .66 4.65c.18 3.08.49 6.18.72 9.27.5 6.19 1.07 12.37 1.52 18.56.23 3.1.46 6.2.6 9.33a40.58 40.58 0 0 0 .36 4.51 32.18 32.18 0 0 0 1 4.34 31.53 31.53 0 0 0 1.58 4.16 22 22 0 0 0 2.19 3.83 9.48 9.48 0 0 0 2.72 2.72 1.77 1.77 0 0 0 .31.12c.11 0 .21.09.23.06s.07 0 .09 0 0 0 0 0h.05a2.62 2.62 0 0 0 .8-1 15.5 15.5 0 0 0 1.26-3.93c.16-.72.28-1.44.38-2.18a3.08 3.08 0 0 0 0-.79c0-.13 0-.25 0-.38l-.09-.62a12.78 12.78 0 0 1 -.21-2.72c0-.84.06-1.65.12-2.45.13-1.6.33-3.17.55-4.73.9-6.24 2.26-12.34 3.74-18.41a171.83 171.83 0 0 1 5.38-18 48.23 48.23 0 0 1 1.88-4.46 11.72 11.72 0 0 1 1.46-2.33 3.8 3.8 0 0 1 .76-.7l.33-.2a2.18 2.18 0 0 1 .39-.14 2.8 2.8 0 0 1 .58-.09 1.7 1.7 0 0 1 .25 0c.31 0 .61.07.91.12s.56.2.83.3a6.9 6.9 0 0 1 2.43 1.93 12.35 12.35 0 0 1 1.45 2.24 22.61 22.61 0 0 1 1.79 4.72v.18.21c-.06 15.54-.2 31.11.06 46.64 0 1.94.11 3.87.2 5.81a42.6 42.6 0 0 0 .54 5.66 1.5 1.5 0 0 0 .07.27.24.24 0 0 0 0 .08s0 0-.09-.08.08.06.17.16a1 1 0 0 1 .23.29 2.11 2.11 0 0 1 .21.49 8.09 8.09 0 0 1 .3 1.58c.11 1 .14 2 .16 3v5.87c-.12 3.9-.31 7.79-.52 11.68l-.18 2.92a5.56 5.56 0 0 1 -.25 1.58 3.81 3.81 0 0 1 -.88 1.42 3.91 3.91 0 0 1 -3 1.2h-2.92c-7.78 0-15.56.16-23.34.33l-23.34.48h-1.15a3.19 3.19 0 0 1 -.53-.06 4.34 4.34 0 0 1 -1.93-.79 4.58 4.58 0 0 1 -1.86-3.66l-.06-5.86v-11.67l.03-11.67.2-11.67v.23a43.74 43.74 0 0 1 .54-14.41 70 70 0 0 1 1.69-6.93q1-3.42 2.28-6.73t2.73-6.53q1.43-3.24 3-6.39c2.17-4.21 4.4-8.34 6.92-12.35z"/></svg>