<svg viewBox="0 0 86.95 71.42" xmlns="http://www.w3.org/2000/svg"><path d="m70.54 5.77 14 31s5.8 12.57-10.16 29.15a2.82 2.82 0 0 1 -2 .85h-9.94a2.86 2.86 0 0 1 -1.63-.51l-7-4.89a2.83 2.83 0 0 0 -3.8.51c-2.7 3.19-9.24 8.89-21.48 8.89-15.41 0-25.07-25.51-26.73-30.25a2.74 2.74 0 0 1 -.1-1.52c.83-4 4.9-23 9.45-33a7.26 7.26 0 0 1 6.6-4.26h46.32a7.23 7.23 0 0 1 6.47 4z" fill="#fff"/><path d="m70.7 5.7c4.38 9.83 9.32 19.4 14.13 29l.45.9c.15.32.3.55.47 1a15.66 15.66 0 0 1 .68 2.11 20 20 0 0 1 .57 4.29c0 .71 0 1.43-.06 2.14s-.17 1.42-.25 2.13a29.34 29.34 0 0 1 -1.07 4.12l-.33 1-.41 1c-.28.65-.52 1.32-.85 1.94a38.61 38.61 0 0 1 -2.15 3.67l-1.15 1.7c-.4.56-.85 1.09-1.28 1.63s-.85 1.1-1.31 1.62l-1.4 1.52c-.49.52-.9 1-1.46 1.54a4.16 4.16 0 0 1 -2.73 1.1l-4.1-.11-4-.12-2-.06a4 4 0 0 1 -1.33-.29 4.85 4.85 0 0 1 -1.12-.66l-6.48-4.87a2.16 2.16 0 0 0 -2.85.08l-.66.7-.73.74c-.5.48-1 .94-1.54 1.38a29.06 29.06 0 0 1 -15 6.2l-2 .2-2.05.09a15.69 15.69 0 0 1 -4.19-.49 20.07 20.07 0 0 1 -7.5-3.83 36.21 36.21 0 0 1 -5.84-5.9 54.84 54.84 0 0 1 -4.65-6.8q-2.07-3.55-3.79-7.29c-.58-1.24-1.12-2.5-1.63-3.77l-.71-1.92a5.5 5.5 0 0 1 -.38-1.39 4.28 4.28 0 0 1 0-.8 4.12 4.12 0 0 1 .11-.7q1.57-8 3.57-15.84a125.46 125.46 0 0 1 5-15.6l.85-1.93a9.23 9.23 0 0 1 1.39-2.1 9 9 0 0 1 6.65-3.03h2.05l4 .07c5.38.1 10.8.31 16.18.55l16.14.66c2.69.13 5.38.16 8.07.23a7.52 7.52 0 0 1 6.69 4.19zm-.32.14a7 7 0 0 0 -6.38-3.84c-2.69.07-5.38.1-8.07.23l-16.13.69c-5.38.24-10.76.45-16.14.53l-4 .08h-2a5.48 5.48 0 0 0 -4 1.92 5.56 5.56 0 0 0 -.8 1.27l-.74 1.78a147.45 147.45 0 0 0 -4.9 15.12c-1.44 5.16-2.72 10.38-3.88 15.59a1.59 1.59 0 0 0 -.06.29.67.67 0 0 0 0 .2 2.07 2.07 0 0 0 .16.6l.67 1.86c.47 1.23 1 2.46 1.46 3.68 1.02 2.44 2.15 4.84 3.43 7.16 2.53 4.6 5.39 9.13 9.3 12.58a18.39 18.39 0 0 0 6.6 3.9 14.09 14.09 0 0 0 3.77.62h2l2-.14a25.82 25.82 0 0 0 14.33-5.9 16.55 16.55 0 0 0 1.43-1.35l.67-.71c.22-.26.39-.47.69-.8a3.51 3.51 0 0 1 2.21-1 3.67 3.67 0 0 1 2.34.66l6.76 4.42a2.31 2.31 0 0 0 .67.37 1.77 1.77 0 0 0 .64.09l2-.06 4-.12 4-.13a1.46 1.46 0 0 0 .91-.44l1.24-1.46a42 42 0 0 0 8.09-13.13 24.7 24.7 0 0 0 1.52-7.4 21.29 21.29 0 0 0 -.17-3.77 13.47 13.47 0 0 0 -.41-1.77c-.06-.21-.23-.58-.34-.88l-.38-.93c-4.09-9.98-8.01-20.02-12.49-29.81z"/></svg>