<svg viewBox="0 0 44.56 184.92" xmlns="http://www.w3.org/2000/svg"><path d="m32.32 77.17s-5 111-25 107c0 0-3-40-2-107a18.22 18.22 0 0 0 11 5c6.91.42 14.97-2.43 16-5z" fill="#eace88"/><path d="m32.36 77a.35.35 0 0 1 .13.17v.12 3.46 3.57c-.05 2.38-.07 4.76-.16 7.14-.15 4.76-.42 9.51-.73 14.26s-.71 9.49-1.23 14.23l-.79 7.1q-.45 3.54-1 7.08c-.37 2.36-.76 4.71-1.19 7.06s-.93 4.68-1.43 7c-1 4.67-2.15 9.31-3.49 13.89-.68 2.29-1.35 4.58-2.15 6.84a67.15 67.15 0 0 1 -2.64 6.68 26.07 26.07 0 0 1 -3.68 6.22 10.28 10.28 0 0 1 -2.9 2.4 5.91 5.91 0 0 1 -3.86.6l-.48-.09v-.51c-.43-4.45-.77-8.9-1.12-13.36s-.69-8.9-.92-13.36c-.52-8.92-.81-17.85-1.06-26.78-.11-4.46-.24-8.93-.25-13.39l-.05-6.7.05-6.7c-.04-8.93.24-17.85.59-26.78l.1-3.15 2.18 2.21a18.19 18.19 0 0 0 5.66 3.83 16.08 16.08 0 0 0 3.32 1 20.53 20.53 0 0 0 3.53.25 31 31 0 0 0 7.21-.89 20.77 20.77 0 0 0 3.43-1.19l.81-.4c.25-.15.52-.3.76-.46a4.72 4.72 0 0 0 .68-.56 2.26 2.26 0 0 0 .32-.35 3.58 3.58 0 0 1 .36-.44zm-.08.35c0 .15 0 .28-.05.37a1.69 1.69 0 0 1 -.26.37 5 5 0 0 1 -.68.7c-.24.21-.5.39-.75.59l-.81.5a21.94 21.94 0 0 1 -3.46 1.56 28.57 28.57 0 0 1 -7.41 1.56 22.76 22.76 0 0 1 -3.86 0 18 18 0 0 1 -3.84-.88 19.53 19.53 0 0 1 -3.56-1.66 17.42 17.42 0 0 1 -3.24-2.36l2.3-.91.27 26.75c.11 8.91.15 17.82.17 26.73s.18 17.82.29 26.73.19 17.83.59 26.72l-.53-.59a4.64 4.64 0 0 0 3.06-.39 8.8 8.8 0 0 0 2.6-2.06 24.23 24.23 0 0 0 3.64-5.91 71.47 71.47 0 0 0 4.31-13.45c1-4.61 1.85-9.28 2.56-13.95.36-2.34.69-4.69 1-7l.93-7c1.25-9.38 2.43-18.79 3.46-28.22l1.57-14.14.8-7.09.37-3.54.25-1.84.1-.89.05-.44v-.22-.11s0 0 0 0a.13.13 0 0 0 .13.07z"/><path d="m35.32.17-33 4s-4 60 4 72 27-1 27-1 21-70 2-75z" fill="#fff"/><path d="m35.31.35c-5.52 1.09-11 2-16.46 2.89l-8.18 1.25-8.17 1.16 1.3-1.38c-.24 4.25-.35 8.52-.55 12.78s-.39 8.52-.59 12.79a214.22 214.22 0 0 0 -.18 25.59 84.8 84.8 0 0 0 1.71 12.64c1 4.07 2.33 8.28 5.74 10.33a10.3 10.3 0 0 0 5.49 1.6 19.77 19.77 0 0 0 5.91-.87 36 36 0 0 0 5.72-2.23 44.69 44.69 0 0 0 5.33-3l-.66.9c1.77-6.38 3.28-12.8 4.7-19.18.7-3.2 1.39-6.4 2-9.6s1.21-6.43 1.75-9.65a124.54 124.54 0 0 0 1.91-19.37 37.56 37.56 0 0 0 -1.08-9.58 13 13 0 0 0 -2-4.28 7.85 7.85 0 0 0 -3.69-2.79zm0-.35a7.88 7.88 0 0 1 4.41 2.54 13.94 13.94 0 0 1 2.64 4.46 35.07 35.07 0 0 1 2 9.92 78.1 78.1 0 0 1 .08 10c-.15 3.34-.49 6.65-.89 10s-.93 6.51-1.55 9.78l-.91 4.89-1.06 4.86c-.73 3.23-1.52 6.44-2.4 9.64s-1.77 6.37-2.75 9.56l-.19.6-.47.3a41.76 41.76 0 0 1 -12.19 5.36 22 22 0 0 1 -6.79.6 12.7 12.7 0 0 1 -6.55-2.38 12.31 12.31 0 0 1 -4.14-5.45 31 31 0 0 1 -1.68-6.35 126.48 126.48 0 0 1 -1.5-12.82c-.58-8.51-1.09-17.12-1.31-25.71s.15-17.15.78-25.72l.09-1.26 1.21-.12 8.33-.84 8.32-.75c5.54-.45 11.07-.86 16.54-1.11z"/></svg>