<svg viewBox="0 0 29.27 110.88" xmlns="http://www.w3.org/2000/svg"><path d="m29.06 3.14s-5 111-25 107c0 0-3-40-2-107a18.29 18.29 0 0 0 11 5c6.94.41 14.94-2.44 16-5z" fill="#eace88"/><path d="m29.1 3a.3.3 0 0 1 .12.16v.13 3.43l-.05 3.57c0 2.38-.06 4.76-.15 7.13-.16 4.76-.42 9.51-.73 14.26s-.72 9.5-1.23 14.23l-.74 7.09q-.45 3.56-1 7.09c-.37 2.35-.76 4.7-1.19 7.05s-.93 4.68-1.44 7c-1 4.67-2.14 9.31-3.49 13.89-.67 2.3-1.34 4.59-2.14 6.84a68.3 68.3 0 0 1 -2.64 6.69 26 26 0 0 1 -3.76 6.2 10.48 10.48 0 0 1 -2.9 2.41 6 6 0 0 1 -3.86.6l-.48-.1-.05-.5c-.43-4.46-.77-8.91-1.12-13.36s-.69-8.91-.92-13.37c-.49-8.9-.78-17.83-1.03-26.75-.12-4.47-.24-8.93-.25-13.4l-.05-6.69.05-6.7c.06-8.9.34-17.9.67-26.78l.12-3.12 2.16 2.21a18.1 18.1 0 0 0 5.68 3.84 16.71 16.71 0 0 0 3.32 1 21.51 21.51 0 0 0 3.53.24 30.57 30.57 0 0 0 7.16-.93 21.7 21.7 0 0 0 3.43-1.18l.81-.4c.25-.16.52-.3.76-.47a4.6 4.6 0 0 0 .68-.56 2.26 2.26 0 0 0 .32-.35 2.86 2.86 0 0 1 .41-.4zm-.1.31c0 .16 0 .28-.05.37s-.18.25-.26.37a5 5 0 0 1 -.68.7c-.24.21-.5.39-.76.59l-.8.51a22.3 22.3 0 0 1 -3.45 1.55 29.1 29.1 0 0 1 -7.4 1.6 23.84 23.84 0 0 1 -3.87 0 18.61 18.61 0 0 1 -3.84-.88 20.31 20.31 0 0 1 -3.57-1.67 17.82 17.82 0 0 1 -3.22-2.38l2.3-.91.27 26.74q.15 13.37.17 26.73c0 8.91.18 17.82.29 26.73s.18 17.84.59 26.73l-.53-.6a4.59 4.59 0 0 0 3.06-.39 8.64 8.64 0 0 0 2.6-2.1 24.23 24.23 0 0 0 3.64-5.91 71 71 0 0 0 4.31-13.41c1-4.61 1.85-9.27 2.56-14q.54-3.51 1-7l.94-7c1.25-9.38 2.43-18.78 3.46-28.21l1.55-14.17.79-7.08.38-3.55.2-1.77.11-.9.05-.45v-.22-.09s0-.05 0 0a.12.12 0 0 0 .16.07z"/></svg>