<svg viewBox="0 0 44.56 82.57" xmlns="http://www.w3.org/2000/svg"><path d="m35.32.17-33 4s-4 60 4 72 27-1 27-1 21-70 2-75z" fill="#fff"/><path d="m35.31.35c-5.52 1.09-11 2-16.46 2.89l-8.18 1.25-8.17 1.16 1.3-1.38c-.24 4.25-.35 8.52-.55 12.78s-.39 8.52-.59 12.79a214.22 214.22 0 0 0 -.18 25.59 84.8 84.8 0 0 0 1.71 12.64c1 4.07 2.33 8.28 5.74 10.33a10.3 10.3 0 0 0 5.49 1.6 19.77 19.77 0 0 0 5.91-.87 36 36 0 0 0 5.72-2.23 44.69 44.69 0 0 0 5.33-3l-.66.9c1.77-6.38 3.28-12.8 4.7-19.18.7-3.2 1.39-6.4 2-9.6s1.21-6.43 1.75-9.65a124.54 124.54 0 0 0 1.91-19.37 37.56 37.56 0 0 0 -1.08-9.58 13 13 0 0 0 -2-4.28 7.85 7.85 0 0 0 -3.69-2.79zm0-.35a7.88 7.88 0 0 1 4.41 2.54 13.94 13.94 0 0 1 2.64 4.46 35.07 35.07 0 0 1 2 9.92 78.1 78.1 0 0 1 .08 10c-.15 3.34-.49 6.65-.89 10s-.93 6.51-1.55 9.78l-.91 4.89-1.06 4.86c-.73 3.23-1.52 6.44-2.4 9.64s-1.77 6.37-2.75 9.56l-.19.6-.47.3a41.76 41.76 0 0 1 -12.19 5.36 22 22 0 0 1 -6.79.6 12.7 12.7 0 0 1 -6.55-2.38 12.31 12.31 0 0 1 -4.14-5.45 31 31 0 0 1 -1.68-6.35 126.48 126.48 0 0 1 -1.5-12.82c-.58-8.51-1.09-17.12-1.31-25.71s.15-17.15.78-25.72l.09-1.26 1.21-.12 8.33-.84 8.32-.75c5.54-.45 11.07-.86 16.54-1.11z"/></svg>