<svg viewBox="0 0 47.84 191.62" xmlns="http://www.w3.org/2000/svg"><path d="m1 8s-2 79 18 77 27-44 27-44v-32s-8-10-23-7c0 0-12-2-22 6z" fill="#fff"/><path d="m1.12 8.06s0 0 0 .06v.4.54l.07 1.08.12 2.16.24 4.3.53 8.61c.37 5.73.8 11.45 1.36 17.14s1.25 11.37 2.12 17 1.95 11.24 4 16.48a26.61 26.61 0 0 0 1.82 3.76 12.36 12.36 0 0 0 2.62 3.15 6.64 6.64 0 0 0 3.55 1.66 5.43 5.43 0 0 0 1 0 5.89 5.89 0 0 0 1-.11l1-.16c.34-.06.67-.18 1-.27a17 17 0 0 0 7.09-4.3 31.09 31.09 0 0 0 5.14-6.7 71.45 71.45 0 0 0 6.58-15.66 134.82 134.82 0 0 0 4-16.54v.28l-.2-16v-7.94l.07-8 .39 1.12a18.17 18.17 0 0 0 -2-1.94 26.71 26.71 0 0 0 -2.35-1.72 21.21 21.21 0 0 0 -5.27-2.46 23 23 0 0 0 -5.83-1.1 22.64 22.64 0 0 0 -3 0c-1 .06-2 .23-3 .32h-.32-.14a27.36 27.36 0 0 0 -5.51-.32 29.69 29.69 0 0 0 -5.63.7c-.93.17-1.84.46-2.76.71s-1.82.6-2.68 1c-.44.2-.89.37-1.32.59l-1.27.7a12.83 12.83 0 0 0 -1.21.71zm-.32-.16c.75-.61 1.54-1.37 2.36-1.9l1.22-.84c.42-.27.86-.5 1.29-.75.85-.52 1.77-.9 2.67-1.34s1.85-.76 2.82-1a31.63 31.63 0 0 1 5.89-1.28 29 29 0 0 1 6.12-.05h-.46c1.08-.19 2.15-.43 3.29-.55a28.12 28.12 0 0 1 3.26-.19 24.63 24.63 0 0 1 6.6.88 24.92 24.92 0 0 1 6.14 2.63 23.26 23.26 0 0 1 2.78 1.92 19.74 19.74 0 0 1 2.55 2.42l.39.45v.7l.08 8v8l-.19 16v.17.1a107.65 107.65 0 0 1 -4.7 16.86 76.14 76.14 0 0 1 -7.8 15.64 38.55 38.55 0 0 1 -5.67 6.7 19.43 19.43 0 0 1 -7.58 4.47c-.36.1-.71.24-1.08.31l-1.1.19a5.92 5.92 0 0 1 -1.13.13 5.65 5.65 0 0 1 -1.16 0 8 8 0 0 1 -4.24-1.76 20.31 20.31 0 0 1 -5.32-7.21 69.67 69.67 0 0 1 -5.19-16.74c-.56-2.85-1-5.73-1.31-8.61s-.58-5.76-.79-8.65c-.4-5.77-.54-11.55-.54-17.33 0-2.89.08-5.77.21-8.65.06-1.45.14-2.89.23-4.33l.16-2.16.09-1.08.05-.54v-.27-.13a1.62 1.62 0 0 1 .06-.21z"/><path d="m33 77s1 110-17 114c0 0-10 1-7-40 0 0-4-70 0-72 0 0 7 15 24-2z" fill="#eace88"/><path d="m33 76.82a.33.33 0 0 1 .11.27v.12.23.46l.06.92.1 1.84.16 3.68c.08 2.46.19 4.92.23 7.37.11 4.92.12 9.83.08 14.75-.15 9.83-.49 19.67-1.32 29.48-.21 2.45-.48 4.9-.74 7.35s-.64 4.88-1 7.32c-.7 4.88-1.53 9.74-2.53 14.57a137 137 0 0 1 -3.66 14.34 40.45 40.45 0 0 1 -2.89 6.88 17.89 17.89 0 0 1 -2.21 3.1 7 7 0 0 1 -3.39 2.1h-.05a4.44 4.44 0 0 1 -2.88-1.27 10.25 10.25 0 0 1 -1.78-2.25l-.67-1.23c-.21-.42-.35-.85-.53-1.28a18.94 18.94 0 0 1 -.88-2.6 57.43 57.43 0 0 1 -1.84-10.67c-.08-.89-.18-1.79-.23-2.68l-.03-2.62-.11-2.74v-2.68c0-3.58.16-7.15.32-10.72v.21c-.32-6.07-.72-12.07-1.05-18.07s-.53-12.06-.7-18.09-.19-12.08 0-18.14c.07-3 .15-6.06.37-9.1.12-1.52.25-3 .46-4.59.1-.77.23-1.55.41-2.35a8.94 8.94 0 0 1 .36-1.25 4.77 4.77 0 0 1 .32-.71 3.94 3.94 0 0 1 .31-.44 2.39 2.39 0 0 1 .63-.5l1.16-.65.57 1.26a11.56 11.56 0 0 0 1.79 2.65 10 10 0 0 0 2.51 2 9.17 9.17 0 0 0 6.37.84 19.12 19.12 0 0 0 6.37-2.73c2-1.2 3.73-2.78 5.8-4.38zm-.13.32c-.42.47-.75.92-1.09 1.32s-.84.84-1.26 1.25a35.24 35.24 0 0 1 -2.79 2.37 19.7 19.7 0 0 1 -6.58 3.48 11.13 11.13 0 0 1 -7.68-.56 12.09 12.09 0 0 1 -3.24-2.28 13.25 13.25 0 0 1 -2.43-3.2l1.74.61c.08 0 .2-.15.2-.13s0 0 0 0-.07.17-.11.32a7.08 7.08 0 0 0 -.22.93c-.12.68-.21 1.39-.27 2.12-.13 1.45-.19 2.93-.23 4.42q-.11 4.47-.05 9c.1 6 .23 12 .45 18l.59 18q.29 9 .68 18v.21c-.21 3.51-.58 7-.67 10.54l-.11 2.64v2.63 2.63c0 .88.05 1.75.08 2.63a52.63 52.63 0 0 0 1.12 10.46 18.52 18.52 0 0 0 .69 2.48c.15.4.26.82.44 1.2l.54 1.14a9.16 9.16 0 0 0 1.4 2 3.07 3.07 0 0 0 .44.38 1.91 1.91 0 0 0 .49.27 2.33 2.33 0 0 0 .9.31h-.08a5.77 5.77 0 0 0 2.82-1.67 14.14 14.14 0 0 0 2.1-2.83 36.35 36.35 0 0 0 2.84-6.66 91.2 91.2 0 0 0 3.16-14.28c.69-4.84 1.2-9.71 1.61-14.58.21-2.44.38-4.87.55-7.32l.51-7.31c.69-9.76 1.33-19.54 1.82-29.33l.77-14.64.4-7.35.18-3.68.11-1.84.05-.92v-.46-.35c.03-.09.05.08.16.05z"/></svg>