<svg viewBox="0 0 28.4 114.8" xmlns="http://www.w3.org/2000/svg"><path d="m27.51.16s1 110-17 114c0 0-10 1-7-40 0 0-4-70 0-72 0 0 7 15 24-2z" fill="#eace88"/><path d="m27.58 0c.1.05.12.29.11.28v.11.23.46l.11.92.11 1.84.15 3.69c.09 2.45.2 4.91.24 7.37.11 4.91.12 9.83.08 14.74-.15 9.83-.49 19.67-1.32 29.48-.21 2.45-.48 4.9-.74 7.35s-.64 4.89-1 7.32c-.71 4.88-1.53 9.74-2.53 14.57a137 137 0 0 1 -3.66 14.34 40.11 40.11 0 0 1 -2.89 6.88 17.86 17.86 0 0 1 -2.24 3.11 6.94 6.94 0 0 1 -3.38 2.1h-.08a4.38 4.38 0 0 1 -2.87-1.26 10.61 10.61 0 0 1 -1.79-2.25l-.66-1.24c-.22-.41-.35-.85-.54-1.27a20.88 20.88 0 0 1 -.87-2.6 56.61 56.61 0 0 1 -1.81-10.66c-.08-.9-.18-1.79-.24-2.69l-.1-2.68-.09-2.69v-2.69c0-3.58.16-7.14.32-10.72v.21q-.6-9-1.08-18.07c-.34-6-.53-12-.7-18.09s-.18-12.09-.03-18.09c.07-3 .15-6.06.37-9.1.12-1.53.24-3 .46-4.59.1-.78.23-1.55.41-2.35a8.68 8.68 0 0 1 .36-1.26 5.27 5.27 0 0 1 .32-.7 3.58 3.58 0 0 1 .31-.44 2.43 2.43 0 0 1 .63-.56l1.16-.63.57 1.25a11.35 11.35 0 0 0 1.79 2.65 10 10 0 0 0 2.54 2.03 9.28 9.28 0 0 0 6.37.84 19.35 19.35 0 0 0 6.34-2.74c2.04-1.25 3.77-2.8 5.87-4.4zm-.14.32c-.41.47-.74.93-1.08 1.32s-.84.84-1.26 1.25a33.36 33.36 0 0 1 -2.79 2.38 19.9 19.9 0 0 1 -6.59 3.47 11.1 11.1 0 0 1 -7.72-.56 12.15 12.15 0 0 1 -3.22-2.28 13.31 13.31 0 0 1 -2.43-3.2l1.73.61c.09 0 .21-.14.2-.13s0 0 0 0-.07.18-.12.33a8.14 8.14 0 0 0 -.16.96c-.12.67-.21 1.39-.27 2.11-.18 1.42-.24 2.94-.28 4.42-.07 3-.09 6-.05 9 .09 6 .22 12 .45 18l.59 18q.28 9 .68 18v.21c-.21 3.51-.58 7-.67 10.54l-.11 2.64v2.63 2.64c0 .87.05 1.75.08 2.62a53.49 53.49 0 0 0 1.18 10.37 20 20 0 0 0 .7 2.47c.15.4.26.82.44 1.2l.54 1.14a8.89 8.89 0 0 0 1.4 2 2.61 2.61 0 0 0 .44.37 1.74 1.74 0 0 0 .46.32 1.64 1.64 0 0 0 .49.22 1.93 1.93 0 0 0 .41.09h-.08a5.86 5.86 0 0 0 2.82-1.68 14.14 14.14 0 0 0 2.1-2.83 36.06 36.06 0 0 0 2.84-6.66 90.92 90.92 0 0 0 3.15-14.28c.7-4.84 1.21-9.7 1.62-14.57.21-2.44.38-4.88.54-7.32l.53-7.24c.69-9.76 1.33-19.53 1.82-29.32l.77-14.69.41-7.35.18-3.68.05-1.84.06-.92v-.46-.34c.03-.1.05.07.15.04z"/></svg>