<svg viewBox="0 0 47.84 85.57" xmlns="http://www.w3.org/2000/svg"><path d="m1 8s-2 79 18 77 27-44 27-44v-32s-8-10-23-7c0 0-12-2-22 6z" fill="#fff"/><path d="m1.12 8.06s0 0 0 .06v.4.54l.07 1.08.12 2.16.24 4.3.53 8.61c.37 5.73.8 11.45 1.36 17.14s1.25 11.37 2.12 17 1.95 11.24 4 16.48a26.61 26.61 0 0 0 1.82 3.76 12.36 12.36 0 0 0 2.62 3.15 6.64 6.64 0 0 0 3.55 1.66 5.43 5.43 0 0 0 1 0 5.89 5.89 0 0 0 1-.11l1-.16c.34-.06.67-.18 1-.27a17 17 0 0 0 7.09-4.3 31.09 31.09 0 0 0 5.14-6.7 71.45 71.45 0 0 0 6.58-15.66 134.82 134.82 0 0 0 4-16.54v.28l-.2-16v-7.94l.07-8 .39 1.12a18.17 18.17 0 0 0 -2-1.94 26.71 26.71 0 0 0 -2.35-1.72 21.21 21.21 0 0 0 -5.27-2.46 23 23 0 0 0 -5.83-1.1 22.64 22.64 0 0 0 -3 0c-1 .06-2 .23-3 .32h-.32-.14a27.36 27.36 0 0 0 -5.51-.32 29.69 29.69 0 0 0 -5.63.7c-.93.17-1.84.46-2.76.71s-1.82.6-2.68 1c-.44.2-.89.37-1.32.59l-1.27.7a12.83 12.83 0 0 0 -1.21.71zm-.32-.16c.75-.61 1.54-1.37 2.36-1.9l1.22-.84c.42-.27.86-.5 1.29-.75.85-.52 1.77-.9 2.67-1.34s1.85-.76 2.82-1a31.63 31.63 0 0 1 5.89-1.28 29 29 0 0 1 6.12-.05h-.46c1.08-.19 2.15-.43 3.29-.55a28.12 28.12 0 0 1 3.26-.19 24.63 24.63 0 0 1 6.6.88 24.92 24.92 0 0 1 6.14 2.63 23.26 23.26 0 0 1 2.78 1.92 19.74 19.74 0 0 1 2.55 2.42l.39.45v.7l.08 8v8l-.19 16v.17.1a107.65 107.65 0 0 1 -4.7 16.86 76.14 76.14 0 0 1 -7.8 15.64 38.55 38.55 0 0 1 -5.67 6.7 19.43 19.43 0 0 1 -7.58 4.47c-.36.1-.71.24-1.08.31l-1.1.19a5.92 5.92 0 0 1 -1.13.13 5.65 5.65 0 0 1 -1.16 0 8 8 0 0 1 -4.24-1.76 20.31 20.31 0 0 1 -5.32-7.21 69.67 69.67 0 0 1 -5.19-16.74c-.56-2.85-1-5.73-1.31-8.61s-.58-5.76-.79-8.65c-.4-5.77-.54-11.55-.54-17.33 0-2.89.08-5.77.21-8.65.06-1.45.14-2.89.23-4.33l.16-2.16.09-1.08.05-.54v-.27-.13a1.62 1.62 0 0 1 .06-.21z"/></svg>