<svg viewBox="0 0 50.54 191.06" xmlns="http://www.w3.org/2000/svg"><path d="m39.93 67.2s-4 55-7 58v32s-6 41-24 32l1-21s-9-23-7-49c0 0-3-43 4-54 0 0 13 19 33 2z" fill="#eace88"/><path d="m40 67a.56.56 0 0 1 .09.4v.69.92 1.83l-.14 3.66-.31 7.32c-.26 4.88-.56 9.76-.94 14.63s-.83 9.74-1.37 14.61c-.26 2.44-.6 4.87-1 7.31-.19 1.22-.41 2.45-.66 3.68-.15.63-.26 1.23-.47 1.89a8.11 8.11 0 0 1 -.34 1c-.09.19-.12.32-.25.56a6.28 6.28 0 0 1 -.52.75l.46-1.11v8c0 2.67-.06 5.33-.09 8s-.13 5.33-.19 8l-.22 8v.15a101.58 101.58 0 0 1 -2.81 11.28 75.58 75.58 0 0 1 -4.24 10.89 35.38 35.38 0 0 1 -2.92 5 19.55 19.55 0 0 1 -4 4.32 10.54 10.54 0 0 1 -5.57 2.2 12 12 0 0 1 -5.87-1.23l-.38-.18v-.45l.51-21 .08.47a100.54 100.54 0 0 1 -3.88-12 120 120 0 0 1 -2.6-12.33c-.36-2.07-.57-4.16-.84-6.25s-.42-4.19-.48-6.3a111.58 111.58 0 0 1 0-12.67v.27c-.34-4.6-.49-9.15-.61-13.73s0-9.16.12-13.75a135.93 135.93 0 0 1 1.18-13.75 63.47 63.47 0 0 1 1.32-6.87 23.88 23.88 0 0 1 2.71-6.75l1.11-1.78 1.2 1.74a22.83 22.83 0 0 0 2.92 3.32 24.17 24.17 0 0 0 3.52 2.78 17.65 17.65 0 0 0 8.4 2.83 19.91 19.91 0 0 0 8.9-1.54 29.42 29.42 0 0 0 4.18-2.09l2-1.27c.62-.52 1.38-.98 2-1.45zm-.16.32c-.59.55-1.06 1.09-1.59 1.55s-1.24 1-1.89 1.46a31.58 31.58 0 0 1 -4.11 2.48 20.3 20.3 0 0 1 -9.44 2.28 19.79 19.79 0 0 1 -9.51-2.63 26.06 26.06 0 0 1 -4.06-2.86 23.24 23.24 0 0 1 -3.45-3.6h2.31a21.57 21.57 0 0 0 -2.08 6c-.46 2.15-.8 4.35-1 6.57-.48 4.45-.67 9-.78 13.46s0 9 0 13.57.28 9.06.53 13.55v.27a106.27 106.27 0 0 0 -.27 12.24c0 2 .23 4.08.35 6.13s.39 4.08.7 6.11c.56 4.06 1.25 8.11 2.18 12.12q.69 3 1.51 6c.54 2 1.12 4 1.78 5.87l.09.27v.2l-1.48 21-.37-.63a10.58 10.58 0 0 0 5.21 1.26 9 9 0 0 0 5-1.91c3-2.23 5-5.58 6.58-9a46.47 46.47 0 0 0 2.11-5.28c.61-1.8 1.17-3.62 1.62-5.47a98.19 98.19 0 0 0 2.15-11.17v.15l-.21-8c-.06-2.67-.16-5.33-.19-8s-.1-5.33-.09-8v-8l.46-1.11s0 0 0 0a1.47 1.47 0 0 0 .12-.27 5.23 5.23 0 0 0 .25-.71c.17-.51.29-1.1.43-1.66.25-1.15.48-2.33.68-3.51.41-2.38.75-4.78 1.09-7.18.69-4.81 1.25-9.65 1.86-14.49l1.67-14.66.89-7.26.43-3.64.21-1.82.11-.9.06-.46v-.23c.03-.13.05 0 .15-.05z"/><path d="m22.93.2s-15-1-20 10 4.67 55.5 4.67 55.5 10 9.86 14.69 8.68 12.64-1.18 17.64-9.18 9-46 9-46-3-15-26-19z" fill="#fff"/><path d="m22.91.37a29.09 29.09 0 0 0 -4.91.3 27.74 27.74 0 0 0 -4.78 1.24 16.15 16.15 0 0 0 -7.65 5.65 11.1 11.1 0 0 0 -1.18 2l-.5 1.06-.33 1.08a24.66 24.66 0 0 0 -.56 4.69 94.16 94.16 0 0 0 .25 9.77c.45 6.55 1.09 13.14 1.79 19.75s1.69 13.19 3.08 19.68l-.12-.27a48.44 48.44 0 0 0 8.28 6.46 13 13 0 0 0 4.63 1.81 3 3 0 0 0 1 0c.33-.07.86-.23 1.28-.32l2.61-.6a21.55 21.55 0 0 0 9.15-4 15.46 15.46 0 0 0 3.24-3.67 13.58 13.58 0 0 0 1.11-2c.32-.74.57-1.57.85-2.35 2-6.59 3-13.64 4.14-20.59l1.57-10.48 1.49-10.58v.48a11.63 11.63 0 0 0 -.5-1.75 15.78 15.78 0 0 0 -.74-1.73c-.3-.59-.59-1.19-.94-1.76a16.85 16.85 0 0 0 -1.1-1.69 27.24 27.24 0 0 0 -5.74-5.81l-1.71-1.24c-.58-.38-1.2-.69-1.81-1a29.2 29.2 0 0 0 -3.81-1.84c-1.3-.52-2.65-.92-4-1.35zm.09-.37 4.19.84c1.35.43 2.75.72 4.1 1.17a42.38 42.38 0 0 1 7.87 3.48 29.08 29.08 0 0 1 6.76 5.51 21.39 21.39 0 0 1 1.42 1.73 16.86 16.86 0 0 1 1.26 1.87 20.37 20.37 0 0 1 1.06 2c.16.35.32.7.45 1.07a12.16 12.16 0 0 1 .39 1.2v.17.31c-.28 3.56-.63 7.1-1.08 10.64l-.66 5.3c-.25 1.76-.52 3.53-.8 5.29-.54 3.52-1.22 7-2 10.54a106 106 0 0 1 -2.78 10.48c-.35.87-.64 1.74-1 2.62a16.28 16.28 0 0 1 -1.49 2.54 16.91 16.91 0 0 1 -4 4.1 23.07 23.07 0 0 1 -10.47 3.75l-2.65.39-1.32.24a4.8 4.8 0 0 1 -1.61 0 14.34 14.34 0 0 1 -5.09-2.35 44.49 44.49 0 0 1 -4.31-3.24c-1.39-1.14-2.71-2.33-4-3.58l-.12-.07v-.16l-2.12-9.84c-.71-3.26-1.43-6.52-2.07-9.79a141.1 141.1 0 0 1 -2.81-19.86 61.92 61.92 0 0 1 .19-10.18 24.19 24.19 0 0 1 1.12-5.17c.17-.43.36-.86.55-1.27l.69-1.14a13.18 13.18 0 0 1 1.59-2.08 6.29 6.29 0 0 1 .92-.94l1-.88a25.17 25.17 0 0 1 2.12-1.44 22.22 22.22 0 0 1 4.69-2 31.38 31.38 0 0 1 10.01-1.25z"/></svg>