<svg viewBox="0 0 39.67 128.38" xmlns="http://www.w3.org/2000/svg"><path d="m39.49 4.52s-4 55-7 58v32s-6 41-24 32l1-21s-9-23-7-49c0 0-3-43 4-54 0 0 13 19 33 2z" fill="#eace88"/><path d="m39.57 4.36a.62.62 0 0 1 .09.4v.68.92l-.05 1.83-.14 3.66-.31 7.33c-.26 4.87-.56 9.75-.94 14.62s-.83 9.75-1.37 14.62c-.26 2.43-.6 4.87-1 7.31-.19 1.22-.41 2.44-.66 3.68-.15.63-.26 1.23-.47 1.89a7.5 7.5 0 0 1 -.34 1c-.09.2-.12.33-.25.57a6.53 6.53 0 0 1 -.52.74l.46-1.1v8c0 2.66-.07 5.33-.09 8s-.13 5.33-.2 8l-.21 8v.15a102 102 0 0 1 -2.81 11.27 75.58 75.58 0 0 1 -4.16 10.83 34.84 34.84 0 0 1 -2.92 5 19.55 19.55 0 0 1 -4 4.32 10.47 10.47 0 0 1 -5.57 2.21 11.89 11.89 0 0 1 -5.87-1.24l-.38-.17v-.46l.51-21 .08.48a100.54 100.54 0 0 1 -3.88-12 120.56 120.56 0 0 1 -2.63-12.3c-.36-2.07-.57-4.17-.84-6.26s-.42-4.19-.49-6.34a113.77 113.77 0 0 1 .05-12.62v.26c-.34-4.59-.49-9.15-.61-13.73s0-9.16.12-13.74a135.93 135.93 0 0 1 1.13-13.77 61.31 61.31 0 0 1 1.32-6.88 24.27 24.27 0 0 1 2.7-6.75l1.12-1.77 1.2 1.73a22.83 22.83 0 0 0 2.89 3.32 22.89 22.89 0 0 0 3.52 2.78 17.77 17.77 0 0 0 8.4 2.84 20.05 20.05 0 0 0 8.9-1.54 30.53 30.53 0 0 0 4.16-2.13l2-1.27c.67-.49 1.43-.94 2.06-1.37zm-.16.31c-.59.56-1.06 1.09-1.59 1.56s-1.24 1-1.89 1.46a30.45 30.45 0 0 1 -4.11 2.47 20.31 20.31 0 0 1 -9.44 2.29 19.8 19.8 0 0 1 -9.51-2.64 25.54 25.54 0 0 1 -4.06-2.81 23.69 23.69 0 0 1 -3.46-3.7h2.31a21.45 21.45 0 0 0 -2.08 6c-.46 2.14-.8 4.34-1 6.56-.48 4.45-.67 9-.79 13.47s0 9 .06 13.56.28 9.07.52 13.56v.27a106.1 106.1 0 0 0 -.27 12.23c0 2 .23 4.09.35 6.13s.39 4.08.7 6.11c.56 4.06 1.25 8.12 2.18 12.12q.69 3 1.51 6c.54 2 1.12 4 1.78 5.87l.09.26v.21l-1.48 21-.37-.63a10.57 10.57 0 0 0 5.14 1.15 9 9 0 0 0 5-1.9c3-2.23 5-5.58 6.58-9a48 48 0 0 0 2.09-5.27c.61-1.8 1.17-3.62 1.62-5.47a100.16 100.16 0 0 0 2.15-11.18v.16l-.21-8c-.06-2.67-.16-5.34-.19-8s-.1-5.34-.09-8v-8l.46-1.11s.08-.19.12-.27a4.32 4.32 0 0 0 .24-.72c.18-.5.3-1.1.44-1.65.25-1.16.48-2.33.68-3.52.41-2.37.75-4.77 1.09-7.18.69-4.81 1.25-9.65 1.86-14.48l1.69-14.58.89-7.27.43-3.63.24-1.82.11-.91.06-.37v-.23c.03-.17.05-.04.15-.1z"/></svg>