<svg viewBox="0 0 50.54 75.34" xmlns="http://www.w3.org/2000/svg"><path d="m22.93.2s-15-1-20 10 4.67 55.5 4.67 55.5 10 9.86 14.69 8.68 12.64-1.18 17.64-9.18 9-46 9-46-3-15-26-19z" fill="#fff"/><path d="m22.91.37a29.09 29.09 0 0 0 -4.91.3 27.74 27.74 0 0 0 -4.78 1.24 16.15 16.15 0 0 0 -7.65 5.65 11.1 11.1 0 0 0 -1.18 2l-.5 1.06-.33 1.08a24.66 24.66 0 0 0 -.56 4.69 94.16 94.16 0 0 0 .25 9.77c.45 6.55 1.09 13.14 1.79 19.75s1.69 13.19 3.08 19.68l-.12-.27a48.44 48.44 0 0 0 8.28 6.46 13 13 0 0 0 4.63 1.81 3 3 0 0 0 1 0c.33-.07.86-.23 1.28-.32l2.61-.6a21.55 21.55 0 0 0 9.15-4 15.46 15.46 0 0 0 3.24-3.67 13.58 13.58 0 0 0 1.11-2c.32-.74.57-1.57.85-2.35 2-6.59 3-13.64 4.14-20.59l1.57-10.48 1.49-10.58v.48a11.63 11.63 0 0 0 -.5-1.75 15.78 15.78 0 0 0 -.74-1.73c-.3-.59-.59-1.19-.94-1.76a16.85 16.85 0 0 0 -1.1-1.69 27.24 27.24 0 0 0 -5.74-5.81l-1.71-1.24c-.58-.38-1.2-.69-1.81-1a29.2 29.2 0 0 0 -3.81-1.84c-1.3-.52-2.65-.92-4-1.35zm.09-.37 4.19.84c1.35.43 2.75.72 4.1 1.17a42.38 42.38 0 0 1 7.87 3.48 29.08 29.08 0 0 1 6.76 5.51 21.39 21.39 0 0 1 1.42 1.73 16.86 16.86 0 0 1 1.26 1.87 20.37 20.37 0 0 1 1.06 2c.16.35.32.7.45 1.07a12.16 12.16 0 0 1 .39 1.2v.17.31c-.28 3.56-.63 7.1-1.08 10.64l-.66 5.3c-.25 1.76-.52 3.53-.8 5.29-.54 3.52-1.22 7-2 10.54a106 106 0 0 1 -2.78 10.48c-.35.87-.64 1.74-1 2.62a16.28 16.28 0 0 1 -1.49 2.54 16.91 16.91 0 0 1 -4 4.1 23.07 23.07 0 0 1 -10.47 3.75l-2.65.39-1.32.24a4.8 4.8 0 0 1 -1.61 0 14.34 14.34 0 0 1 -5.09-2.35 44.49 44.49 0 0 1 -4.31-3.24c-1.39-1.14-2.71-2.33-4-3.58l-.12-.07v-.16l-2.12-9.84c-.71-3.26-1.43-6.52-2.07-9.79a141.1 141.1 0 0 1 -2.81-19.86 61.92 61.92 0 0 1 .19-10.18 24.19 24.19 0 0 1 1.12-5.17c.17-.43.36-.86.55-1.27l.69-1.14a13.18 13.18 0 0 1 1.59-2.08 6.29 6.29 0 0 1 .92-.94l1-.88a25.17 25.17 0 0 1 2.12-1.44 22.22 22.22 0 0 1 4.69-2 31.38 31.38 0 0 1 10.01-1.25z"/></svg>