<svg viewBox="0 0 67.26 189.82" xmlns="http://www.w3.org/2000/svg"><path d="m50.66 74.61c-.31 15.74-2.79 102.75-21 114.56 0 0-16 3-15-22l-3.84-94.93a2.73 2.73 0 0 1 2.93-2.84l34.52 2.6a2.59 2.59 0 0 1 2.39 2.61z" fill="#eace88"/><path d="m50.83 74.62-.28 14.8q-.07 7.41-.26 14.82c-.14 4.94-.28 9.89-.59 14.83s-.74 9.87-1.3 14.79a212.3 212.3 0 0 1 -5.4 29.23 116.17 116.17 0 0 1 -4.62 14.18 50.45 50.45 0 0 1 -3.33 6.73 23.6 23.6 0 0 1 -2.22 3 14.31 14.31 0 0 1 -2.83 2.63l-.1.06h-.1a12.92 12.92 0 0 1 -7.8-1.39 13.42 13.42 0 0 1 -5.48-5.76 22.79 22.79 0 0 1 -1.52-3.69c-.18-.64-.3-1.29-.46-1.93a19 19 0 0 1 -.39-1.94c-.13-1.31-.35-2.61-.41-3.92l-.11-3.93v.09q-.63-8.61-1.11-17.22c-.35-5.74-.63-11.49-.92-17.24l-.88-17.25c-.22-5.75-.51-11.5-.69-17.25s-.4-11.53-.5-17.26c-.08-2.88-.09-5.76-.13-8.64a4.09 4.09 0 0 1 1.12-2.94 4 4 0 0 1 2.84-1.26 8.79 8.79 0 0 1 1.23.1l1.07.12 2.15.25 17.19 1.9c2.86.33 5.73.57 8.59.86l4.3.36a3.07 3.07 0 0 1 2.1.79 2.81 2.81 0 0 1 .84 2.08zm-.35 0a2.42 2.42 0 0 0 -.77-1.79 2.67 2.67 0 0 0 -1.87-.65l-4.31-.28c-2.87-.14-5.74-.33-8.62-.44l-17.27-.66-2.16-.08h-1.07a7.43 7.43 0 0 0 -.93 0 1.41 1.41 0 0 0 -1.24 1.56c.2 2.87.42 5.74.58 8.61.36 5.75.61 11.5.9 17.25s.48 11.5.72 17.25l.56 17.21c.18 5.75.37 11.51.49 17.26s.27 11.51.34 17.27v.09l-.13 3.78c0 1.25.14 2.49.21 3.74a16.55 16.55 0 0 0 .29 1.85c.11.6.2 1.23.34 1.83a21.28 21.28 0 0 0 1.26 3.46 11.48 11.48 0 0 0 4.75 5.38 8.53 8.53 0 0 0 1.65.77 10.08 10.08 0 0 0 1.76.51 12 12 0 0 0 3.63.11l-.19.08a16 16 0 0 0 4.71-5.31 39.35 39.35 0 0 0 3.1-6.6 94.41 94.41 0 0 0 3.84-14.17c1-4.81 1.74-9.66 2.38-14.53s1.28-9.74 1.85-14.62l1.72-14.67c.54-4.89 1.12-9.79 1.6-14.7s.92-9.82 1.28-14.74c.14-2.46.3-4.92.41-7.39z"/><path d="m34.69.17s-32 6-33 15c-.77 6.94 1.24 39.11 11 52 2.91 3.84 6.92 3 11.23 3 18.77 0 21.77 2 26.77-1s20-39 13-53-29-16-29-16z" fill="#fff"/><path d="m34.7.35c-4.4 1.22-8.85 2.54-13.18 4a81 81 0 0 0 -12.52 5.29 16.39 16.39 0 0 0 -5 3.85 4.54 4.54 0 0 0 -.65 1.13 2.31 2.31 0 0 0 -.15.54 3.35 3.35 0 0 0 -.07.72c-.09 1.06-.07 2.21-.07 3.32.09 4.53.4 9.1.81 13.65s.95 9.15 1.76 13.62a67.39 67.39 0 0 0 3.6 13.21l.65 1.59.77 1.52.78 1.52.94 1.41a8.86 8.86 0 0 0 2.11 2.49 6.48 6.48 0 0 0 2.91 1.24 36 36 0 0 0 6.8 0c2.31-.06 4.63-.1 6.94-.1s4.64 0 7 .06 4.63.13 6.8 0a11.91 11.91 0 0 0 3-.57 8.07 8.07 0 0 0 1.35-.6l.67-.38c.11-.13.21-.15.38-.35a15.39 15.39 0 0 0 1.76-2.51c.58-.93 1.11-1.92 1.62-2.92a95.11 95.11 0 0 0 5.15-12.56 110 110 0 0 0 3.59-13.1 50.69 50.69 0 0 0 1.26-13.25 18 18 0 0 0 -1.34-6.17 19.31 19.31 0 0 0 -3.59-5.3 33.49 33.49 0 0 0 -11-7.41 59.3 59.3 0 0 0 -13.08-3.94zm0-.35a45.87 45.87 0 0 1 6.94.87 48.84 48.84 0 0 1 6.79 1.79 38.66 38.66 0 0 1 6.49 2.88 27.93 27.93 0 0 1 5.82 4.26 22.05 22.05 0 0 1 4.44 5.89 21 21 0 0 1 1.91 7.22 51 51 0 0 1 -1 14.27c-.44 2.32-1 4.6-1.65 6.86s-1.34 4.5-2.16 6.7a97 97 0 0 1 -5.68 12.89c-.56 1.05-1.16 2.08-1.82 3.1a16.62 16.62 0 0 1 -2.36 3 7.16 7.16 0 0 1 -.95.75l-.86.45a11.26 11.26 0 0 1 -1.83.73 13.38 13.38 0 0 1 -3.81.54c-2.44 0-4.73-.24-7-.44s-4.59-.39-6.88-.52-4.59-.23-6.9-.31c-1.13 0-2.27 0-3.45 0a17.45 17.45 0 0 1 -3.57-.3 7.91 7.91 0 0 1 -3.36-1.53 7.67 7.67 0 0 1 -1.31-1.3 17.32 17.32 0 0 1 -1-1.47l-1-1.47-.83-1.55-.82-1.56-.69-1.6a108.4 108.4 0 0 1 -7.16-26.97 104.62 104.62 0 0 1 -1-14c0-1.19 0-2.35.14-3.6a6.34 6.34 0 0 1 .46-2.1 7 7 0 0 1 1.09-1.85 18.7 18.7 0 0 1 6-4.43 50 50 0 0 1 6.56-2.69c2.22-.76 4.46-1.4 6.72-2a110.65 110.65 0 0 1 13.72-2.51z"/></svg>