<svg viewBox="0 0 41.44 121.69" xmlns="http://www.w3.org/2000/svg"><path d="m41.26 6.48c-.26 15.74-2.78 102.74-20.96 114.52 0 0-16 3-15-22l-3.88-94.9a2.74 2.74 0 0 1 2.94-2.83l34.51 2.59a2.57 2.57 0 0 1 2.39 2.62z" fill="#eace88"/><path d="m41.44 6.48-.29 14.81c0 4.93-.12 9.88-.26 14.82s-.28 9.88-.58 14.82-.74 9.87-1.31 14.79a212.72 212.72 0 0 1 -5.39 29.28 117.82 117.82 0 0 1 -4.61 14.13 48.7 48.7 0 0 1 -3.33 6.71 21.37 21.37 0 0 1 -2.22 3.07 14 14 0 0 1 -2.84 2.58l-.09.07h-.1a12.89 12.89 0 0 1 -7.82-1.4 13.38 13.38 0 0 1 -5.5-5.76 22.42 22.42 0 0 1 -1.53-3.69c-.19-.63-.31-1.28-.46-1.93a15.89 15.89 0 0 1 -.4-1.94c-.13-1.3-.35-2.61-.41-3.92l-.1-3.92v.08c-.41-5.74-.75-11.49-1.08-17.23s-.62-11.5-.92-17.25l-.87-17.24c-.23-5.76-.52-11.5-.69-17.26s-.4-11.5-.51-17.26c-.08-2.84-.13-5.76-.13-8.63a4.1 4.1 0 0 1 1.12-2.95 4 4 0 0 1 2.88-1.26c.6 0 .84.07 1.22.1l1.05.13 2.14.24 17.17 1.93c2.87.33 5.73.56 8.6.85l4.3.37a3 3 0 0 1 2.09.79 2.76 2.76 0 0 1 .87 2.07zm-.35 0a2.44 2.44 0 0 0 -.78-1.78 2.6 2.6 0 0 0 -1.86-.7l-4.31-.28c-2.88-.15-5.75-.34-8.63-.44l-17.26-.62-2.16-.08-1.09-.03c-.33 0-.81 0-.93 0a1.41 1.41 0 0 0 -1.22 1.54c.15 2.91.42 5.74.57 8.62.37 5.74.58 11.49.9 17.29s.48 11.45.68 17.2l.54 17.26c.21 5.76.46 11.54.53 17.27s.27 11.51.33 17.27v.09l-.1 3.77c0 1.26.15 2.5.21 3.75a16.37 16.37 0 0 0 .29 1.84c.12.61.21 1.23.35 1.83a20 20 0 0 0 1.26 3.47 11.42 11.42 0 0 0 4.75 5.38 8.86 8.86 0 0 0 1.65.77 10.44 10.44 0 0 0 1.76.5 12 12 0 0 0 3.63.12l-.2.08a16.26 16.26 0 0 0 4.72-5.32 39.73 39.73 0 0 0 3.09-6.6 94.61 94.61 0 0 0 3.84-14.16c.97-4.82 1.75-9.67 2.35-14.52s1.27-9.74 1.85-14.62l1.67-14.67c.54-4.89 1.13-9.78 1.6-14.69s.92-9.82 1.28-14.74c.15-2.47.3-4.93.41-7.39z"/></svg>