<svg viewBox="0 0 70.37 190.51" xmlns="http://www.w3.org/2000/svg"><path d="m16 71.17 40 3s-16 115-19 115-14-2-16-16-10-43-5-102z" fill="#eace88"/><path d="m15.88 71 9.8.32c3.29.1 6.64.22 10 .36s6.77.3 10.17.45 6.83.38 10.25.58l1.5.08-.19 1.54c-1.29 10.08-2.62 20.16-4.28 30.19s-3.54 20-5.3 30-3.26 20.07-4.75 30.13q-1.09 7.54-2.36 15.09c-.44 2.52-.88 5-1.52 7.57a10.55 10.55 0 0 1 -.71 2.06 1.93 1.93 0 0 1 -.25.4 1.24 1.24 0 0 1 -.29.3 1.6 1.6 0 0 1 -.25.18 1.8 1.8 0 0 1 -.57.17h-.67c-.37 0-.7-.06-1.06-.09a18.06 18.06 0 0 1 -10.89-5.51 19.63 19.63 0 0 1 -4.12-7.12c-.19-.65-.42-1.3-.58-2l-.4-2-.65-3.73-1.4-7.49a250.11 250.11 0 0 1 -3.87-30.4 295.11 295.11 0 0 1 -.32-30.62c.28-5.09.54-10.18 1-15.25l.33-3.81c.12-1.26.29-2.62.44-3.9zm.23.26-.18 7.62-.09 3.69-.05 3.81c-.16 5.07-.12 10.14-.11 15.21.11 10.13.53 20.25 1.37 30.31s2.19 20.1 3.85 30.1l1.25 7.53.58 3.79.32 1.75c.12.58.32 1.13.47 1.7a15.21 15.21 0 0 0 12.25 11c.27 0 .57.09.83.1h.4s.15 0-.07 0a1.17 1.17 0 0 0 -.46.13l-.16.11-.12.12a10.07 10.07 0 0 0 .57-1.52c.73-2.34 1.3-4.83 1.87-7.29 1.13-4.93 2.11-9.92 3.08-14.9 1.91-10 3.51-20 4.87-30.08s2.46-20.18 3.7-30.27 2.77-20.17 4.3-30.17l1.31 1.62c-3.25-.3-6.49-.58-9.75-.92s-6.53-.66-9.83-1z"/><path d="m34 .17s18 11 29 14 3 29 3 29-5 29-12 30-38-3-38-3-16-25-14-36 3-17 12-25a38.56 38.56 0 0 1 20-9z" fill="#fff"/><path d="m34 0c4.86 2.45 9.55 4.79 14.39 7 2.41 1.09 4.82 2.19 7.27 3.15a65.06 65.06 0 0 0 7.38 2.54c.28.07.71.22 1.08.35a5.81 5.81 0 0 1 1.11.5 7.28 7.28 0 0 1 1.92 1.52 10.69 10.69 0 0 1 2.24 4 24.21 24.21 0 0 1 .9 8.43 50 50 0 0 1 -1.06 8.13 68.23 68.23 0 0 1 -2.11 7.87v-.15a166.28 166.28 0 0 1 -4.74 17.36 55.2 55.2 0 0 1 -3.47 8.3 12.71 12.71 0 0 1 -2.79 3.71 4.34 4.34 0 0 1 -2.28 1c-.77.08-1.54.16-2.29.17-6 .13-12-.28-17.93-.64s-11.89-.9-17.83-1.56l-.72-.07-.4-.64a146.14 146.14 0 0 1 -10.87-19.97 52 52 0 0 1 -3.49-11.07 18 18 0 0 1 -.07-6.22c.36-1.84.76-3.71 1.11-5.55a37.81 37.81 0 0 1 4-11 34.62 34.62 0 0 1 7.65-8.73 35.78 35.78 0 0 1 9.9-5.87 39.09 39.09 0 0 1 5.47-1.71 29.93 29.93 0 0 1 5.63-.85zm0 .34a40.65 40.65 0 0 0 -10.45 3.66 36.76 36.76 0 0 0 -8.92 6.24 46.37 46.37 0 0 0 -3.7 4 27.91 27.91 0 0 0 -2.93 4.41 35.39 35.39 0 0 0 -3.22 10.21c-.35 1.81-.67 3.65-1 5.49a14.36 14.36 0 0 0 .22 4.95 50.93 50.93 0 0 0 3.23 10.3 144.83 144.83 0 0 0 10.09 19.72l-1.12-.71 17.64 2.45c2.95.4 5.89.75 8.84 1.06s5.91.58 8.85.58c.74 0 1.45 0 2.16-.08a3 3 0 0 0 1.73-.75 11.69 11.69 0 0 0 2.58-3.36 43.34 43.34 0 0 0 3.23-8.19c.85-2.83 1.52-5.72 2.09-8.62s1.09-5.83 1.5-8.74v-.14a80.42 80.42 0 0 0 2.38-15.4 23.59 23.59 0 0 0 -.7-7.39 7.7 7.7 0 0 0 -1.5-2.95 4.77 4.77 0 0 0 -1.17-1 3.44 3.44 0 0 0 -.69-.35c-.26-.09-.45-.19-.81-.3a56.7 56.7 0 0 1 -7.61-3c-2.44-1.14-4.84-2.35-7.18-3.66s-4.68-2.61-6.94-4.03-4.6-2.9-6.6-4.4z"/></svg>