<svg viewBox="0 0 44.69 119.47" xmlns="http://www.w3.org/2000/svg"><path d="m3.08.13 40 3s-16 115-19 115-14-2-16-16-10-43-5-102z" fill="#eace88"/><path d="m3 0 9.8.32c3.29.1 6.64.22 10 .36s6.76.3 10.17.46 6.82.37 10.24.57l1.51.09-.2 1.53c-1.29 10.09-2.62 20.16-4.28 30.19s-3.54 20-5.3 30-3.26 20.07-4.75 30.13c-.73 5-1.5 10.06-2.36 15.09-.44 2.52-.88 5-1.52 7.57a10.85 10.85 0 0 1 -.71 2.07 1.75 1.75 0 0 1 -.25.39 1.24 1.24 0 0 1 -.29.3 1.6 1.6 0 0 1 -.25.18 1.57 1.57 0 0 1 -.57.17h-.66c-.37 0-.71-.06-1.06-.08a18.08 18.08 0 0 1 -4-1 17.49 17.49 0 0 1 -6.88-4.53 19.55 19.55 0 0 1 -4.13-7.13c-.19-.65-.42-1.3-.58-2l-.4-2-.65-3.74-1.43-7.36a248.33 248.33 0 0 1 -3.88-30.41 295.11 295.11 0 0 1 -.32-30.62c.28-5.09.54-10.18 1-15.25l.34-3.8c.11-1.27.28-2.62.43-3.91zm.23.27-.23 7.61-.09 3.7v3.8c-.16 5.08-.12 10.15-.1 15.21.1 10.14.53 20.25 1.36 30.32s2.16 20.09 3.83 30.09l1.25 7.52.57 3.79.32 1.75c.12.58.32 1.14.47 1.71a15.29 15.29 0 0 0 12.25 11c.28 0 .57.08.83.09h.31s.15 0-.07 0a1 1 0 0 0 -.46.14.62.62 0 0 0 -.16.1l-.12.12a10.22 10.22 0 0 0 .58-1.52c.72-2.34 1.29-4.83 1.86-7.28 1.13-4.94 2.11-9.93 3.08-14.91q2.87-15 4.88-30.08c1.31-10.08 2.45-20.18 3.69-30.27s2.86-20.16 4.38-30.22l1.34 1.62c-3.25-.31-6.49-.58-9.75-.93s-6.53-.66-9.83-1z"/></svg>