<svg viewBox="0 0 70.37 73.95" xmlns="http://www.w3.org/2000/svg"><path d="m34 .17s18 11 29 14 3 29 3 29-5 29-12 30-38-3-38-3-16-25-14-36 3-17 12-25a38.56 38.56 0 0 1 20-9z" fill="#fff"/><path d="m34 0c4.86 2.45 9.55 4.79 14.39 7 2.41 1.09 4.82 2.19 7.27 3.15a65.06 65.06 0 0 0 7.38 2.54c.28.07.71.22 1.08.35a5.81 5.81 0 0 1 1.11.5 7.28 7.28 0 0 1 1.92 1.52 10.69 10.69 0 0 1 2.24 4 24.21 24.21 0 0 1 .9 8.43 50 50 0 0 1 -1.06 8.13 68.23 68.23 0 0 1 -2.11 7.87v-.15a166.28 166.28 0 0 1 -4.74 17.36 55.2 55.2 0 0 1 -3.47 8.3 12.71 12.71 0 0 1 -2.79 3.71 4.34 4.34 0 0 1 -2.28 1c-.77.08-1.54.16-2.29.17-6 .13-12-.28-17.93-.64s-11.89-.9-17.83-1.56l-.72-.07-.4-.64a146.14 146.14 0 0 1 -10.87-19.97 52 52 0 0 1 -3.49-11.07 18 18 0 0 1 -.07-6.22c.36-1.84.76-3.71 1.11-5.55a37.81 37.81 0 0 1 4-11 34.62 34.62 0 0 1 7.65-8.73 35.78 35.78 0 0 1 9.9-5.87 39.09 39.09 0 0 1 5.47-1.71 29.93 29.93 0 0 1 5.63-.85zm0 .34a40.65 40.65 0 0 0 -10.45 3.66 36.76 36.76 0 0 0 -8.92 6.24 46.37 46.37 0 0 0 -3.7 4 27.91 27.91 0 0 0 -2.93 4.41 35.39 35.39 0 0 0 -3.22 10.21c-.35 1.81-.67 3.65-1 5.49a14.36 14.36 0 0 0 .22 4.95 50.93 50.93 0 0 0 3.23 10.3 144.83 144.83 0 0 0 10.09 19.72l-1.12-.71 17.64 2.45c2.95.4 5.89.75 8.84 1.06s5.91.58 8.85.58c.74 0 1.45 0 2.16-.08a3 3 0 0 0 1.73-.75 11.69 11.69 0 0 0 2.58-3.36 43.34 43.34 0 0 0 3.23-8.19c.85-2.83 1.52-5.72 2.09-8.62s1.09-5.83 1.5-8.74v-.14a80.42 80.42 0 0 0 2.38-15.4 23.59 23.59 0 0 0 -.7-7.39 7.7 7.7 0 0 0 -1.5-2.95 4.77 4.77 0 0 0 -1.17-1 3.44 3.44 0 0 0 -.69-.35c-.26-.09-.45-.19-.81-.3a56.7 56.7 0 0 1 -7.61-3c-2.44-1.14-4.84-2.35-7.18-3.66s-4.68-2.61-6.94-4.03-4.6-2.9-6.6-4.4z"/></svg>