<svg viewBox="0 0 102.87 205.88" xmlns="http://www.w3.org/2000/svg"><path d="m85.66 71.19v115s-6 16-12 13-9-17-9-17 2-69-18-78c0 0-8 3-14 34s-9 66-9 66-17 4-21-33 8-104 11-105 6 12 72 5z" fill="#eace88"/><path d="m85.78 71.06.55 28.39.44 28.75c.18 9.61.23 19.29.34 29l.12 29v.3l-.1.26a46.76 46.76 0 0 1 -4.61 9 16.7 16.7 0 0 1 -3.59 4 6.7 6.7 0 0 1 -2.84 1.24 4.83 4.83 0 0 1 -3.32-.6 11.6 11.6 0 0 1 -4-3.86 26 26 0 0 1 -2.37-4.54 52.74 52.74 0 0 1 -3-9.56v-.15-.15c.23-6.83.19-13.73-.05-20.59s-.71-13.72-1.55-20.54a112.36 112.36 0 0 0 -4.2-20.1 45.27 45.27 0 0 0 -4.1-9.34 16.84 16.84 0 0 0 -7-6.87h.43a6.09 6.09 0 0 0 -1.13.83 12.74 12.74 0 0 0 -1.07 1.13 20.64 20.64 0 0 0 -1.84 2.57 40.81 40.81 0 0 0 -2.9 5.71 82.83 82.83 0 0 0 -4 12.26c-.53 2.09-1 4.2-1.46 6.31s-.86 4.23-1.21 6.37q-1.14 6.39-2.08 12.82c-1.29 8.56-2.34 17.16-3.35 25.76s-1.89 17.26-2.65 25.87l-.1 1.24-1.11.17c-5.75.86-10.55-2.33-13.67-6.13a36.91 36.91 0 0 1 -6.46-13c-.32-1.15-.7-2.28-1-3.44l-.74-3.47-.34-1.7-.26-1.75-.5-3.5a127.64 127.64 0 0 1 -1-14c-.37-18.75 1.44-37.33 4.02-55.75 1.38-9.21 2.92-18.38 5.02-27.5.53-2.28 1.09-4.54 1.83-6.83.18-.58.38-1.15.63-1.75a8.35 8.35 0 0 1 .44-.92l.17-.27c.09-.12.2-.25.3-.36a1.58 1.58 0 0 1 .3-.24 2.41 2.41 0 0 1 .42-.22 4.26 4.26 0 0 1 .49-.1 3 3 0 0 1 1.55.28 4.5 4.5 0 0 1 .49.24l.42.24 1.48.87a41.57 41.57 0 0 0 12.73 4.21c9 1.63 18.29 1.88 27.52 1.79 4.62-.05 9.25-.19 13.87-.45 2.32-.1 4.63-.28 6.94-.43zm-.24.26c-2.33.31-4.48.65-6.77.9s-4.61.51-6.92.71c-4.63.45-9.26.77-13.91 1s-9.3.28-14 .17a111.83 111.83 0 0 1 -13.94-1.1 42 42 0 0 1 -13.65-4.17l-1.53-.86c-.44-.28-1-.44-.76-.38h.06a.74.74 0 0 0 .24-.11 1.13 1.13 0 0 0 .13-.1 0 0 0 0 0 0 0l-.06.09a6.14 6.14 0 0 0 -.28.61c-.18.48-.36 1-.52 1.53-.63 2.05-1.15 4.3-1.63 6.54-1.89 9-3.28 18.16-4.48 27.32s-2.19 18.35-2.85 27.53-1.1 18.43-.91 27.61a132.38 132.38 0 0 0 .87 13.69l.46 3.39.22 1.69.34 1.67.67 3.33c.25 1.11.6 2.17.89 3.26 1.28 4.28 3 8.51 5.71 11.84l1 1.22c.37.38.78.7 1.17 1.06.19.17.38.36.59.52l.64.43a8.38 8.38 0 0 0 1.32.79 10.15 10.15 0 0 0 2.84 1 9.22 9.22 0 0 0 1.47.18 7.49 7.49 0 0 0 1.32-.06l-1.22 1.41c.83-8.67 1.89-17.29 3-25.91s2.49-17.2 4-25.76 3.06-17.12 5.4-25.54l.92-3.14c.32-1 .68-2.07 1-3.11s.73-2.06 1.11-3.09.8-2 1.23-3a41.58 41.58 0 0 1 3-5.85 21.41 21.41 0 0 1 2-2.7 8.65 8.65 0 0 1 2.69-2.26l.2-.1.24.11a18 18 0 0 1 7.49 7.38 47.29 47.29 0 0 1 4.24 9.54 123.43 123.43 0 0 1 4.53 20.25c1 6.85 1.71 13.73 2.16 20.63s.67 13.81.63 20.76v-.31a50.73 50.73 0 0 0 3.11 8.93 25.57 25.57 0 0 0 2.25 4 8.83 8.83 0 0 0 3 2.89 1.91 1.91 0 0 0 1.35.25 3.87 3.87 0 0 0 1.53-.77 14.57 14.57 0 0 0 2.87-3.23 44.19 44.19 0 0 0 4.24-8.34l-.1.55.12-28.45c.11-9.51.16-19 .34-28.55l.4-28.77z"/><path d="m102.66 20.19-2.61-2.61a2 2 0 0 0 -2.78 0l-7.61 7.61v-13l-12.84-9.41a4.7 4.7 0 0 0 -4.62-.55l-16.54 7a111.62 111.62 0 0 0 -4 20c-.87 9.62.47 19.47-1 18-3-3 3-38 3-38s-5-4-19-8-29 15-29 15c-6 25 7 42 8 48s57 13 72 5 17-48 17-48z" fill="#fff"/><path d="m102.5 20.26-1.6-1.46-.79-.72a2.73 2.73 0 0 0 -.77-.57 1.63 1.63 0 0 0 -1.65.27l-1.47 1.56-6 6.4-1.29 1.36v-1.91l-.32-13 .45.88-7.95-5.59-4-2.8-1-.71a3.71 3.71 0 0 0 -.79-.46 3.36 3.36 0 0 0 -1.68-.25 3.89 3.89 0 0 0 -.83.21l-1 .45-2.22 1-4.43 1.89-8.9 3.8.87-1a118.58 118.58 0 0 0 -3.84 18.64c-.39 3.13-.48 6.3-.56 9.5v4.82 2.46c0 .43 0 .84-.09 1.3a6.24 6.24 0 0 1 -.13.75 2 2 0 0 1 -.07.25 1.37 1.37 0 0 1 -.12.29l-.1.19-.07.1-.13.15a1.92 1.92 0 0 1 -.32.26 1.61 1.61 0 0 1 -.59.16 1.11 1.11 0 0 1 -.47-.05 1.37 1.37 0 0 1 -.37-.15l-.33-.26a4.38 4.38 0 0 1 -.33-.46l-.15-.24-.08-.2-.14-.38a7.88 7.88 0 0 1 -.27-1.39 18.69 18.69 0 0 1 -.13-2.56c0-1.66.11-3.29.24-4.91.27-3.25.68-6.46 1.13-9.67.9-6.4 1.93-12.78 3-19.15l.2.52a34.28 34.28 0 0 0 -5.89-3.28c-2.07-.93-4.19-1.76-6.34-2.52s-4.35-1.4-6.54-2a14.69 14.69 0 0 0 -6.64-.22 29 29 0 0 0 -11.87 5.88 56.67 56.67 0 0 0 -9.52 9.5l.22-.47a56.23 56.23 0 0 0 -.49 21.47 61.88 61.88 0 0 0 2.79 10.42c1.2 3.42 2.69 6.71 4.24 10.09.38.84.76 1.71 1.13 2.61l.52 1.4.21.81.1.4.05.2c-.1-.22 0 0 .25.16a5.09 5.09 0 0 0 .91.55 18.28 18.28 0 0 0 2.33 1 78.55 78.55 0 0 0 10.49 2.42 203 203 0 0 0 21.77 2.6c3.65.24 7.3.39 10.95.4s7.29 0 10.92-.36a41.93 41.93 0 0 0 10.43-2 13.36 13.36 0 0 0 4.24-2.64 20.68 20.68 0 0 0 3.33-3.92 45.55 45.55 0 0 0 4.79-9.63 93.85 93.85 0 0 0 3.21-10.45c.82-3.57 1.58-7.18 2.16-10.81q.45-2.73.8-5.47l.34-2.74c.08-.98.16-1.88.2-2.72zm.32-.13a24.62 24.62 0 0 1 0 2.85c0 .93-.08 1.85-.14 2.77-.13 1.85-.28 3.7-.47 5.54-.39 3.69-.87 7.37-1.58 11a93.59 93.59 0 0 1 -2.73 10.88 46.12 46.12 0 0 1 -4.64 10.36 23.5 23.5 0 0 1 -3.69 4.56 16.46 16.46 0 0 1 -5.07 3.25 44.66 44.66 0 0 1 -11.19 2.53 133.22 133.22 0 0 1 -22.41.41 176.93 176.93 0 0 1 -22.21-2.59 73.47 73.47 0 0 1 -11-2.8 23.33 23.33 0 0 1 -2.77-1.19 10.3 10.3 0 0 1 -1.44-.91 4.05 4.05 0 0 1 -1.45-2l-.33-1.31-.43-1.2c-.32-.82-.66-1.64-1-2.48-3.05-6.68-5.89-13.8-6.95-21.37a54.39 54.39 0 0 1 -.53-11.33 53.05 53.05 0 0 1 .56-5.64c.1-.95.35-1.86.54-2.78l.6-2.77.06-.27.17-.19a59.77 59.77 0 0 1 10.28-9.45 30.33 30.33 0 0 1 12.79-5.81 16.87 16.87 0 0 1 7.1.43c2.2.67 4.4 1.38 6.57 2.16s4.32 1.63 6.42 2.6a37.57 37.57 0 0 1 6.12 3.39l.26.18-.06.34c-1 6.35-1.91 12.74-2.54 19.15-.31 3.2-.57 6.41-.7 9.6-.06 1.59-.1 3.19 0 4.75a18.08 18.08 0 0 0 .2 2.27 5.33 5.33 0 0 0 .23 1l.07.18v.09s0 0 0 0a.39.39 0 0 0 -.1-.08.83.83 0 0 0 -.23-.1 1.17 1.17 0 0 0 -.32 0 .92.92 0 0 0 -.44.14.58.58 0 0 0 -.21.15.39.39 0 0 0 -.08.1.18.18 0 0 1 0-.05 3.82 3.82 0 0 0 0-.45c0-.34 0-.73 0-1.11 0-.78 0-1.58 0-2.38l-.15-4.85a82.82 82.82 0 0 1 .32-9.7 90.54 90.54 0 0 1 1.52-9.72c.66-3.21 1.46-6.34 2.42-9.51l.21-.69.66-.28 9-3.71 4.48-1.83 2.24-.91.56-.23.62-.25a6.24 6.24 0 0 1 1.48-.36 6 6 0 0 1 3 .52 6.58 6.58 0 0 1 1.28.77l1 .73 3.88 2.92 7.71 5.87.45.34v.53l-.32 13-1.32-.54 6.4-6c.55-.51 1-1 1.64-1.52a2.31 2.31 0 0 1 2.48-.25 2.93 2.93 0 0 1 .93.79l.77.83z"/></svg>