<svg viewBox="0 0 87.23 141.13" xmlns="http://www.w3.org/2000/svg"><path d="m85.66 6.44v115s-6 16-12 13-9-17-9-17 2-69-18-78c0 0-8 3-14 34s-9 66-9 66-17 4-21-33 8-104 11-105 6 12 72 5z" fill="#eace88"/><path d="m85.78 6.31.55 28.38.44 28.75c.18 9.61.23 19.29.34 29l.12 29.05v.29l-.1.26a46.76 46.76 0 0 1 -4.61 9 16.7 16.7 0 0 1 -3.59 4 6.71 6.71 0 0 1 -2.84 1.3 5 5 0 0 1 -3.32-.6 11.63 11.63 0 0 1 -4-3.87 25.62 25.62 0 0 1 -2.42-4.52 52.64 52.64 0 0 1 -3-9.55v-.16-.15c.23-6.83.19-13.72-.05-20.58s-.71-13.73-1.55-20.54a112.47 112.47 0 0 0 -4.2-20.11 45.19 45.19 0 0 0 -4.1-9.33 16.86 16.86 0 0 0 -7-6.88h.43a6.09 6.09 0 0 0 -1.13.83 12.74 12.74 0 0 0 -1.07 1.13 21.41 21.41 0 0 0 -1.84 2.57 40.81 40.81 0 0 0 -2.9 5.71 83 83 0 0 0 -4 12.27c-.53 2.09-1 4.19-1.46 6.3s-.88 4.14-1.23 6.29q-1.14 6.39-2.08 12.85c-1.29 8.56-2.34 17.16-3.35 25.76s-1.82 17.24-2.58 25.81l-.1 1.25-1.14.18c-5.75.87-10.55-2.33-13.67-6.12a37 37 0 0 1 -6.46-13c-.32-1.14-.7-2.28-1-3.44l-.68-3.44-.37-1.74-.26-1.75-.5-3.5a127.64 127.64 0 0 1 -1.06-14.01c-.35-18.72 1.46-37.29 4-55.72 1.46-9.28 3-18.42 5.1-27.53.53-2.28 1.09-4.55 1.83-6.84.18-.57.38-1.15.63-1.75a7.54 7.54 0 0 1 .47-1l.17-.23.3-.35a1.52 1.52 0 0 1 .3-.25 3.36 3.36 0 0 1 .42-.22l.49-.1a3.11 3.11 0 0 1 1.55.28c.19.08.35.17.49.24l.42.24 1.48.87a41.85 41.85 0 0 0 12.73 4.22c9 1.62 18.29 1.88 27.52 1.78 4.62 0 9.25-.18 13.87-.45 2.32-.1 4.63-.28 6.94-.42zm-.24.26c-2.33.3-4.48.64-6.77.89s-4.61.51-6.92.71c-4.63.45-9.26.77-13.91 1s-9.3.29-14 .17a111.81 111.81 0 0 1 -13.94-1.14 42.07 42.07 0 0 1 -13.67-4.2l-1.53-.84c-.44-.28-1-.44-.76-.38h.06a.72.72 0 0 0 .24-.1.62.62 0 0 0 .13-.11 0 0 0 0 0 0 0l-.06.1a4.56 4.56 0 0 0 -.28.61c-.18.47-.36 1-.52 1.53-.61 2.1-1.13 4.34-1.61 6.59-1.89 9-3.28 18.15-4.48 27.31s-2.19 18.35-2.85 27.55-1.1 18.43-.91 27.61a132.75 132.75 0 0 0 .87 13.7l.46 3.43.22 1.7.34 1.66.67 3.34c.25 1.1.6 2.17.89 3.25 1.28 4.29 3 8.52 5.71 11.85l1.08 1.2c.37.38.78.71 1.17 1.06a7.31 7.31 0 0 0 .59.52l.64.43a7.1 7.1 0 0 0 1.32.79 10.15 10.15 0 0 0 2.84 1 9.24 9.24 0 0 0 1.44.2 8.46 8.46 0 0 0 1.32-.07l-1.22 1.41c.83-8.67 1.89-17.29 3-25.91s2.49-17.2 4-25.76 3.06-17.12 5.4-25.53l.91-3.14c.32-1 .68-2.07 1-3.11s.73-2.06 1.11-3.08.8-2 1.23-3a41.58 41.58 0 0 1 3-5.85 20.61 20.61 0 0 1 2-2.69 8.54 8.54 0 0 1 2.69-2.27l.2-.1.24.11a18.06 18.06 0 0 1 7.49 7.38 47.79 47.79 0 0 1 4.24 9.54 123.54 123.54 0 0 1 4.53 20.26c1 6.84 1.71 13.73 2.16 20.63s.67 13.8.63 20.75v-.3a50.91 50.91 0 0 0 3.07 8.83 24.7 24.7 0 0 0 2.25 4 8.74 8.74 0 0 0 3 2.89 1.86 1.86 0 0 0 1.35.25 3.62 3.62 0 0 0 1.53-.77 14.36 14.36 0 0 0 2.87-3.25 44.4 44.4 0 0 0 4.24-8.33l-.1.55.07-28.44c.11-9.5.16-19 .34-28.55l.45-28.77z"/></svg>