<svg viewBox="0 0 100.18 74.56" xmlns="http://www.w3.org/2000/svg"><path d="m100 20.19-2.62-2.61a2 2 0 0 0 -2.77 0l-7.61 7.61v-13l-12.87-9.41a4.7 4.7 0 0 0 -4.62-.55l-16.51 6.96a110.62 110.62 0 0 0 -4 20c-.88 9.62.46 19.47-1 18-3-3 3-38 3-38s-5-4-19-8-29 15-29 15c-6 25 7 42 8 48s57 13 72 5 17-48 17-48z" fill="#fff"/><path d="m99.81 20.26-1.6-1.46-.79-.72a2.48 2.48 0 0 0 -.77-.57 1.61 1.61 0 0 0 -1.64.27l-1.48 1.56-6 6.4-1.28 1.36v-1.91l-.31-13 .44.88-7.96-5.59-3.94-2.8-1-.71a3.48 3.48 0 0 0 -.79-.46 3.34 3.34 0 0 0 -1.69-.25 3.8 3.8 0 0 0 -.82.21l-1.06.45-2.22 1-4.42 1.89-8.91 3.8.88-1a117.48 117.48 0 0 0 -3.85 18.68 93.36 93.36 0 0 0 -.55 9.5v4.82c0 .81 0 1.63-.06 2.46 0 .43 0 .84-.09 1.3a6.24 6.24 0 0 1 -.13.75 2 2 0 0 1 -.07.25 1.37 1.37 0 0 1 -.12.29l-.1.19-.06.1-.14.15a1.92 1.92 0 0 1 -.32.26 1.56 1.56 0 0 1 -.58.16 1.07 1.07 0 0 1 -.47-.05 1.37 1.37 0 0 1 -.37-.15 2.91 2.91 0 0 1 -.33-.26 4.52 4.52 0 0 1 -.34-.46l-.15-.24a1.59 1.59 0 0 1 -.07-.2l-.14-.38a7.13 7.13 0 0 1 -.28-1.39 22.51 22.51 0 0 1 -.13-2.56c0-1.66.11-3.29.24-4.91.27-3.25.68-6.46 1.13-9.67.91-6.4 1.93-12.78 3-19.15l.19.52a34.56 34.56 0 0 0 -5.88-3.28c-2.07-.93-4.2-1.76-6.35-2.52s-4.34-1.4-6.54-2a14.69 14.69 0 0 0 -6.53-.24 28.85 28.85 0 0 0 -11.91 5.86 57.11 57.11 0 0 0 -9.53 9.5l.22-.47a56.23 56.23 0 0 0 -.48 21.47 60.91 60.91 0 0 0 2.78 10.42c1.21 3.42 2.7 6.71 4.24 10.09.38.84.77 1.71 1.13 2.61l.52 1.4.22.81.1.4v.2c-.09-.22 0 0 .26.16a5.09 5.09 0 0 0 .91.55 17.7 17.7 0 0 0 2.33 1 78.18 78.18 0 0 0 10.53 2.42 203.11 203.11 0 0 0 21.76 2.6c3.65.24 7.31.39 11 .4s7.29-.06 10.89-.39a41.92 41.92 0 0 0 10.44-2 13.47 13.47 0 0 0 4.23-2.61 20.64 20.64 0 0 0 3.36-3.94 45.11 45.11 0 0 0 4.8-9.63 91.75 91.75 0 0 0 3.12-10.43c.83-3.57 1.59-7.18 2.17-10.81.29-1.82.56-3.64.79-5.47l.34-2.74c.11-.98.2-1.88.23-2.72zm.33-.13a22.52 22.52 0 0 1 0 2.85c0 .93-.07 1.85-.14 2.77-.12 1.85-.28 3.7-.47 5.54-.38 3.69-.87 7.37-1.57 11a93.64 93.64 0 0 1 -2.74 10.85 45.68 45.68 0 0 1 -4.64 10.36 23.13 23.13 0 0 1 -3.69 4.56 16.34 16.34 0 0 1 -5.07 3.25 44.48 44.48 0 0 1 -11.18 2.53 133.26 133.26 0 0 1 -22.41.41 177.08 177.08 0 0 1 -22.23-2.56 73.34 73.34 0 0 1 -11-2.8 22.65 22.65 0 0 1 -2.77-1.19 9.26 9.26 0 0 1 -1.44-.91 4.06 4.06 0 0 1 -1.46-2l-.33-1.27-.42-1.2c-.32-.82-.67-1.64-1-2.48-3.04-6.72-5.88-13.84-6.94-21.41a54.4 54.4 0 0 1 -.54-11.33 50.58 50.58 0 0 1 .57-5.64 25.73 25.73 0 0 1 .53-2.78l.61-2.77.06-.27.13-.19a60.13 60.13 0 0 1 10.33-9.45c3.79-2.71 8-5 12.77-5.76a16.86 16.86 0 0 1 7.1.43c2.21.67 4.4 1.38 6.57 2.16s4.32 1.63 6.42 2.6a38.08 38.08 0 0 1 6.13 3.39l.25.18-.06.34c-1.04 6.3-1.91 12.66-2.51 19.1-.3 3.2-.57 6.41-.7 9.6-.06 1.59-.09 3.19 0 4.75a18 18 0 0 0 .21 2.27 5.38 5.38 0 0 0 .22 1l.08.18v.09s0 0 0 0a.34.34 0 0 0 -.09-.08 1.22 1.22 0 0 0 -.23-.1 1.31 1.31 0 0 0 -.33 0 .88.88 0 0 0 -.43.14.51.51 0 0 0 -.21.15.43.43 0 0 0 -.09.1s0 0 0-.05a3.82 3.82 0 0 0 .05-.45c0-.34 0-.73 0-1.11 0-.78 0-1.58 0-2.38l-.15-4.85a80.75 80.75 0 0 1 .24-9.7 90.51 90.51 0 0 1 1.51-9.72c.66-3.21 1.46-6.34 2.43-9.51l.2-.69.67-.28 8.94-3.71 4.48-1.86 2.25-.91.56-.23.62-.25a6.15 6.15 0 0 1 1.53-.33 6.2 6.2 0 0 1 4.32 1.29l1 .73 3.86 2.92 7.71 5.87.46.34v.53l-.31 13-1.32-.54 6.4-6c.55-.51 1-1 1.63-1.52a2.33 2.33 0 0 1 2.49-.26 3 3 0 0 1 .93.79l.76.83z"/></svg>