<svg viewBox="0 0 110.42 201.98" xmlns="http://www.w3.org/2000/svg"><path d="m96.57 66.87s-82 16-87-1-9-41-9-41 8-22 28-23 24 15 24 15l-1 13s1-28 26-28 31 16 31 16 4 24-12 49z" fill="#fff"/><path d="m96.67 67a.33.33 0 0 1 -.13 0h-.06-.13l-.25.06-.5.12-1 .23-2 .46-4 .85q-4 .83-8.11 1.59c-5.49 1.08-10.93 1.97-16.4 2.69s-11 1.33-16.47 1.74a159 159 0 0 1 -16.62.41 72 72 0 0 1 -8.38-.72 32.62 32.62 0 0 1 -8.33-2.21 13.6 13.6 0 0 1 -3.89-2.49 8 8 0 0 1 -1.51-2c-.1-.19-.21-.38-.29-.57l-.22-.61a10.69 10.69 0 0 1 -.31-1.06c-.7-2.68-1.36-5.36-2-8.06-2.4-10.75-4.2-21.61-6.07-32.43v-.15l.05-.13a46.18 46.18 0 0 1 4.05-7.72 43.88 43.88 0 0 1 5.42-6.82 30.18 30.18 0 0 1 15.1-8.68 31.9 31.9 0 0 1 8.83-.5c.74.07 1.48.12 2.22.22l2.2.45a16.22 16.22 0 0 1 2.13.63l1.08.36c.35.13.69.31 1 .47a21 21 0 0 1 7.3 5.38 17.52 17.52 0 0 1 1.43 1.79 20.37 20.37 0 0 1 1.25 1.92 20.57 20.57 0 0 1 1.94 4.28v.19.31c-.26 4.34-.56 8.68-.86 13l-3.26-.18a37.22 37.22 0 0 1 .64-5.18 41.29 41.29 0 0 1 1.27-5 33.21 33.21 0 0 1 4.62-9.36 23.88 23.88 0 0 1 7.91-7.1 25.61 25.61 0 0 1 10.17-3c.94-.18 1.81-.13 2.69-.18s1.72 0 2.57.08 1.71.07 2.57.13l2.55.33a46.35 46.35 0 0 1 5.07 1c.84.23 1.66.52 2.49.78.41.13.82.26 1.23.41l1.2.51a30.42 30.42 0 0 1 8.85 5.53 28.45 28.45 0 0 1 3.56 3.88 22.33 22.33 0 0 1 1.49 2.2 17.77 17.77 0 0 1 1.24 2.48l.06.16v.13a61.67 61.67 0 0 1 0 13.17 76 76 0 0 1 -2.41 12.81 71.61 71.61 0 0 1 -4.5 12.17c-.86 2-2 3.84-3 5.74-.49.94-1.13 1.87-1.72 2.79zm-.2-.29 1.53-2.8c.48-.94 1-1.81 1.44-2.8.89-1.94 1.85-3.84 2.57-5.85a81.09 81.09 0 0 0 3.75-12.14 73.8 73.8 0 0 0 1.74-12.53c.14-2.1.16-4.2.12-6.3a53 53 0 0 0 -.53-6.17l.08.28a16.43 16.43 0 0 0 -1.06-1.92 18.76 18.76 0 0 0 -1.34-1.87 24.27 24.27 0 0 0 -3.23-3.34 28.18 28.18 0 0 0 -8-4.76l-1.08-.45c-.37-.13-.75-.23-1.13-.35-.78-.22-1.53-.48-2.33-.71a39.09 39.09 0 0 0 -4.67-.85l-2.33-.25c-.79 0-1.59 0-2.39-.08s-1.61-.09-2.39-.07-1.56 0-2.32.12a22.23 22.23 0 0 0 -8.73 2.55 21 21 0 0 0 -6.8 6 29.65 29.65 0 0 0 -4.26 8.3 38.69 38.69 0 0 0 -1.91 9.23l-3.26-.18c.37-4.33.74-8.66 1.15-13v.48a18.08 18.08 0 0 0 -1.5-3.61 16.81 16.81 0 0 0 -1.05-1.72 15.74 15.74 0 0 0 -1.21-1.61 19.54 19.54 0 0 0 -6.27-5c-.31-.15-.6-.33-.91-.46l-.95-.37a14.29 14.29 0 0 0 -1.94-.66l-2-.51c-.67-.12-1.36-.19-2-.28a28.92 28.92 0 0 0 -8.31.14 26.15 26.15 0 0 0 -7.87 2.75 30 30 0 0 0 -6.73 5 39 39 0 0 0 -5.35 6.62 40.4 40.4 0 0 0 -3.91 7.52v-.28c1.91 10.81 4.43 21.54 7.29 32.11.71 2.64 1.49 5.27 2.3 7.87.1.3.2.71.3.91l.15.36.2.34a6 6 0 0 0 1 1.24 10.87 10.87 0 0 0 3.09 1.84 24.15 24.15 0 0 0 3.7 1.15c1.27.31 2.58.55 3.9.74 2.65.38 5.35.57 8.05.7 10.85.43 21.81-.41 32.72-1.4q8.19-.8 16.37-1.8c2.73-.32 5.45-.66 8.18-1z"/><path d="m95.57 68.87s3 121 7 122-30 3-35-47-25-28-25-28-17 60-13 80c0 0-7 11-13-1s-12-20-13-48-4-67 5-80c0 0 11 15 87 2z" fill="#eace88"/><path d="m95.68 68.73a1.07 1.07 0 0 1 .08.36v.23.47.92l.1 1.85.2 3.71.37 7.4.77 14.81q.67 14.8 1.48 29.61c.52 9.86 1 19.73 1.64 29.58.3 4.93.62 9.85 1 14.77.2 2.45.41 4.9.66 7.35s.49 4.88.88 7.24c.1.59.21 1.17.34 1.72a6.17 6.17 0 0 0 .21.75 1.42 1.42 0 0 0 .1.26s0 .05 0 0a.85.85 0 0 0 -.17-.16 1.11 1.11 0 0 0 -.45-.21l.2.06h.11l.19.09a.86.86 0 0 1 .21.11 1.87 1.87 0 0 1 .5.47c.22 0 .43 1.44.07 1.72a1.9 1.9 0 0 1 -.64.62 3.3 3.3 0 0 1 -.45.17 2.63 2.63 0 0 1 -.44.09 8.06 8.06 0 0 1 -1.18 0 16.62 16.62 0 0 1 -2-.2 28.7 28.7 0 0 1 -7.44-2.36 35.47 35.47 0 0 1 -12.02-9.35 48.49 48.49 0 0 1 -7.77-13 71.11 71.11 0 0 1 -4.13-14.43c-.45-2.46-.79-4.93-1-7.41s-.46-4.91-.76-7.36a81.47 81.47 0 0 0 -2.95-14.39 32.25 32.25 0 0 0 -2.86-6.69 12.81 12.81 0 0 0 -4.84-5.08 7.31 7.31 0 0 0 -3.33-.84 9.38 9.38 0 0 0 -3.41.65 16.76 16.76 0 0 0 -5.84 4l.13-.23c-1.77 6.53-3.48 13.11-5 19.72s-2.9 13.25-4.13 19.91-2.27 13.35-3 20.06c-.36 3.35-.6 6.71-.7 10.05a45.45 45.45 0 0 0 .62 9.81l.11.59-.31.47a14.8 14.8 0 0 1 -3.54 3.78 8.5 8.5 0 0 1 -2.49 1.28 6.23 6.23 0 0 1 -3 .16 7 7 0 0 1 -2.7-1.25 11.25 11.25 0 0 1 -1.92-1.92 25.19 25.19 0 0 1 -2.53-4.24c-1.4-2.73-2.89-5.46-4.28-8.28a80.28 80.28 0 0 1 -3.69-8.74c-4.16-12.07-4.67-24.87-5.15-37.16s-1.23-24.76-1.04-37.27a165.89 165.89 0 0 1 1.16-18.68 72.14 72.14 0 0 1 1.78-9.32 29.37 29.37 0 0 1 3.87-9l1-1.49 1.52 1.49.28.27a3.4 3.4 0 0 0 .44.36 6.78 6.78 0 0 0 1 .69 22.15 22.15 0 0 0 2.27 1.2c.8.35 1.64.64 2.46 1s1.71.51 2.56.77a25.66 25.66 0 0 0 2.62.64c.89.19 1.76.41 2.66.56 1.8.25 3.58.58 5.4.77a159.23 159.23 0 0 0 22 .74c7.36-.23 14.72-.79 22.06-1.52l5.51-.59 2.76-.29 2.81-.37zm-.22.27-10.85 2-2.67.48-2.74.4-5.5.81c-3.66.6-7.35 1-11 1.35s-7.4.62-11.1.92a154.29 154.29 0 0 1 -22.34-.13c-1.86-.16-3.72-.47-5.59-.69-.93-.15-1.85-.36-2.78-.53s-1.89-.33-2.81-.61-1.84-.48-2.75-.78-1.82-.64-2.72-1a23.66 23.66 0 0 1 -2.61-1.36 10 10 0 0 1 -1.34-.86 6.79 6.79 0 0 1 -.66-.51 5.94 5.94 0 0 1 -.69-.71h2.51a26.39 26.39 0 0 0 -3.26 8.06 69.22 69.22 0 0 0 -1.53 8.92 177.68 177.68 0 0 0 -.94 18.35c0 12.31.56 24.66 1.06 37 .26 6.22.36 12.35 1 18.42.29 3 .77 6 1.32 9a79.54 79.54 0 0 0 2.29 8.77c1.89 5.74 4.78 11.09 7.61 16.66l.53 1.05.5 1a18.26 18.26 0 0 0 1.13 1.76 5.28 5.28 0 0 0 2.78 2.11c1.95.54 4.51-1.61 6-3.79l-.2 1.06a49.42 49.42 0 0 1 -.49-10.48c.15-3.44.49-6.86.95-10.24.9-6.78 2.15-13.48 3.55-20.14s2.95-13.28 4.61-19.87 3.36-13.17 5.23-19.71v-.15l.09-.09a17.88 17.88 0 0 1 6.32-4.26 10.56 10.56 0 0 1 3.82-.7 8.36 8.36 0 0 1 3.79 1 13.74 13.74 0 0 1 5.3 5.45 33.65 33.65 0 0 1 3 6.89 85 85 0 0 1 3.24 14.56c.37 2.45.66 5 1 7.36s.74 4.85 1.25 7.24a69.24 69.24 0 0 0 4.42 13.9 45.84 45.84 0 0 0 7.81 12.14 34.22 34.22 0 0 0 11.34 8.41 26.29 26.29 0 0 0 6.67 2 14 14 0 0 0 1.66.17 6.34 6.34 0 0 0 .67 0 1 1 0 0 0 -.24.1 1.36 1.36 0 0 0 -.55.54c-.35.25-.13 1.61.06 1.61a1.3 1.3 0 0 0 .41.4l.1.06h.09a2.14 2.14 0 0 1 -.66-.32c-.11-.1-.23-.21-.33-.32l-.17-.23a3.31 3.31 0 0 1 -.22-.39 6.23 6.23 0 0 1 -.24-.6c-.12-.36-.22-.7-.3-1-.15-.66-.27-1.29-.38-1.92-.81-5-1.18-9.94-1.55-14.89s-.64-9.89-.9-14.83q-.75-14.82-1.17-29.65t-.67-29.66l-.18-14.83v-7.41-7.19c-.05-.1-.02-.04.02-.1z"/></svg>