<svg viewBox="0 0 103.98 137.48" xmlns="http://www.w3.org/2000/svg"><path d="m95.12 4.37s3 121 7 122-30 3-35-47-25-28-25-28-17 60-13 80c0 0-7 11-13-1s-12-20-13-48-4-67 5-80c0 0 11 15 87 2z" fill="#eace88"/><path d="m95.23 4.23a1.07 1.07 0 0 1 .08.37v.23.46.93l.1 1.85.21 3.7.37 7.4.84 14.83q.69 14.81 1.48 29.61c.53 9.87 1 19.73 1.65 29.59.3 4.92.62 9.85 1 14.76.19 2.45.41 4.91.65 7.35s.5 4.89.89 7.25c.1.58.2 1.17.33 1.71.07.27.14.53.21.75l.1.26s0 0 0 0a.81.81 0 0 0 -.16-.16 1.35 1.35 0 0 0 -.45-.21l.2.06h.11l.19.08a2.28 2.28 0 0 1 .21.11 1.83 1.83 0 0 1 .49.47c.22 0 .44 1.45.07 1.72a1.73 1.73 0 0 1 -.64.62 2 2 0 0 1 -.45.18 3.51 3.51 0 0 1 -.44.08 9.84 9.84 0 0 1 -1.17 0 18.58 18.58 0 0 1 -2-.21 28.33 28.33 0 0 1 -7.44-2.36 35.47 35.47 0 0 1 -12.11-9.37 48.54 48.54 0 0 1 -7.77-13 71.22 71.22 0 0 1 -4.14-14.44q-.66-3.69-1-7.4c-.25-2.49-.45-4.92-.75-7.37a82.38 82.38 0 0 0 -3-14.39 32.29 32.29 0 0 0 -2.89-6.69 12.74 12.74 0 0 0 -4.84-5.08 7.27 7.27 0 0 0 -3.32-.84 9.36 9.36 0 0 0 -3.41.66 16.58 16.58 0 0 0 -5.85 4l.13-.24c-1.77 6.54-3.47 13.11-5 19.72s-2.88 13.28-4.11 19.94-2.28 13.35-3 20.06c-.35 3.35-.6 6.71-.69 10a46.19 46.19 0 0 0 .61 9.82l.12.59-.32.46a14.5 14.5 0 0 1 -3.54 3.79 8.49 8.49 0 0 1 -2.49 1.28 6.11 6.11 0 0 1 -3 .15 6.8 6.8 0 0 1 -2.69-1.25 11.32 11.32 0 0 1 -1.93-1.92 24.09 24.09 0 0 1 -2.55-4.14c-1.41-2.73-2.9-5.46-4.28-8.28a76.52 76.52 0 0 1 -3.69-8.74c-4.15-12.12-4.67-24.92-5.15-37.2s-1.16-24.78-1-37.23a163.75 163.75 0 0 1 1.19-18.73 72 72 0 0 1 1.81-9.33 29.32 29.32 0 0 1 3.87-9l.99-1.49 1.5 1.46.28.27c.11.12.3.23.44.35a6.89 6.89 0 0 0 1 .69 19.5 19.5 0 0 0 2.28 1.23c.79.35 1.64.64 2.45 1s1.71.51 2.57.78 1.74.44 2.62.64 1.76.4 2.65.55c1.8.25 3.59.59 5.4.77a157.87 157.87 0 0 0 22 .74c7.36-.23 14.72-.78 22.06-1.52l5.51-.58 2.73-.38 2.81-.38zm-.23.27-10.85 2-2.66.5-2.75.41-5.49.81c-3.66.59-7.35.94-11 1.35s-7.39.62-11.09.91a152.87 152.87 0 0 1 -22.34-.13c-1.87-.16-3.73-.46-5.59-.69-.93-.14-1.86-.36-2.79-.53s-1.86-.35-2.77-.63-1.88-.5-2.8-.78-1.82-.63-2.72-1a25.44 25.44 0 0 1 -2.65-1.36 10.24 10.24 0 0 1 -1.29-.85 6 6 0 0 1 -.64-.51 5.41 5.41 0 0 1 -.7-.72h2.52a26.15 26.15 0 0 0 -3.26 8.06 69.08 69.08 0 0 0 -1.53 8.9 174.6 174.6 0 0 0 -.94 18.34c0 12.31.56 24.66 1.06 37 .28 6.26.35 12.42 1.02 18.42.29 3 .77 6 1.32 9a76.83 76.83 0 0 0 2.29 8.77c1.88 5.74 4.78 11.1 7.61 16.67l.52 1 .51 1a15.52 15.52 0 0 0 1.12 1.76 5.29 5.29 0 0 0 2.79 2.11c2 .54 4.51-1.6 6-3.79l-.2 1.06a48.69 48.69 0 0 1 -.48-10.47c.15-3.45.48-6.86.94-10.25.91-6.78 2.16-13.48 3.56-20.14s3-13.28 4.61-19.87 3.35-13.17 5.22-19.71v-.15l.09-.09a17.88 17.88 0 0 1 6.36-4.19 10.35 10.35 0 0 1 3.83-.71 8.28 8.28 0 0 1 3.78 1 13.7 13.7 0 0 1 5.3 5.46 32.81 32.81 0 0 1 3 6.88 84.92 84.92 0 0 1 3.25 14.57c.37 2.44.66 4.94 1 7.36s.74 4.84 1.25 7.24a69.63 69.63 0 0 0 4.41 13.9 46.3 46.3 0 0 0 7.71 12.13 34.43 34.43 0 0 0 11.32 8.46 25.84 25.84 0 0 0 6.68 2 13.79 13.79 0 0 0 1.65.17 4.58 4.58 0 0 0 .68 0 1.21 1.21 0 0 0 -.23.1 1.39 1.39 0 0 0 -.55.55c-.36.24-.14 1.6.06 1.61a1.35 1.35 0 0 0 .4.39l.11.06h.08a2 2 0 0 1 -.65-.32 2.42 2.42 0 0 1 -.33-.31l-.17-.24a2.67 2.67 0 0 1 -.22-.39c-.11-.22-.18-.42-.25-.6-.12-.36-.21-.7-.29-1-.16-.66-.28-1.29-.39-1.92-.81-5-1.17-9.93-1.54-14.89s-.64-9.88-.91-14.82q-.73-14.84-1.16-29.66t-.68-29.73l-.14-14.79-.06-7.42v-7.19c0-.07.06-.04.06-.1z"/></svg>