<svg viewBox="0 0 110.42 75.22" xmlns="http://www.w3.org/2000/svg"><path d="m96.57 66.87s-82 16-87-1-9-41-9-41 8-22 28-23 24 15 24 15l-1 13s1-28 26-28 31 16 31 16 4 24-12 49z" fill="#fff"/><path d="m96.67 67a.33.33 0 0 1 -.13 0h-.06-.13l-.25.06-.5.12-1 .23-2 .46-4 .85q-4 .83-8.11 1.59c-5.49 1.08-10.93 1.97-16.4 2.69s-11 1.33-16.47 1.74a159 159 0 0 1 -16.62.41 72 72 0 0 1 -8.38-.72 32.62 32.62 0 0 1 -8.33-2.21 13.6 13.6 0 0 1 -3.89-2.49 8 8 0 0 1 -1.51-2c-.1-.19-.21-.38-.29-.57l-.22-.61a10.69 10.69 0 0 1 -.31-1.06c-.7-2.68-1.36-5.36-2-8.06-2.4-10.75-4.2-21.61-6.07-32.43v-.15l.05-.13a46.18 46.18 0 0 1 4.05-7.72 43.88 43.88 0 0 1 5.42-6.82 30.18 30.18 0 0 1 15.1-8.68 31.9 31.9 0 0 1 8.83-.5c.74.07 1.48.12 2.22.22l2.2.45a16.22 16.22 0 0 1 2.13.63l1.08.36c.35.13.69.31 1 .47a21 21 0 0 1 7.3 5.38 17.52 17.52 0 0 1 1.43 1.79 20.37 20.37 0 0 1 1.25 1.92 20.57 20.57 0 0 1 1.94 4.28v.19.31c-.26 4.34-.56 8.68-.86 13l-3.26-.18a37.22 37.22 0 0 1 .64-5.18 41.29 41.29 0 0 1 1.27-5 33.21 33.21 0 0 1 4.62-9.36 23.88 23.88 0 0 1 7.91-7.1 25.61 25.61 0 0 1 10.17-3c.94-.18 1.81-.13 2.69-.18s1.72 0 2.57.08 1.71.07 2.57.13l2.55.33a46.35 46.35 0 0 1 5.07 1c.84.23 1.66.52 2.49.78.41.13.82.26 1.23.41l1.2.51a30.42 30.42 0 0 1 8.85 5.53 28.45 28.45 0 0 1 3.56 3.88 22.33 22.33 0 0 1 1.49 2.2 17.77 17.77 0 0 1 1.24 2.48l.06.16v.13a61.67 61.67 0 0 1 0 13.17 76 76 0 0 1 -2.41 12.81 71.61 71.61 0 0 1 -4.5 12.17c-.86 2-2 3.84-3 5.74-.49.94-1.13 1.87-1.72 2.79zm-.2-.29 1.53-2.8c.48-.94 1-1.81 1.44-2.8.89-1.94 1.85-3.84 2.57-5.85a81.09 81.09 0 0 0 3.75-12.14 73.8 73.8 0 0 0 1.74-12.53c.14-2.1.16-4.2.12-6.3a53 53 0 0 0 -.53-6.17l.08.28a16.43 16.43 0 0 0 -1.06-1.92 18.76 18.76 0 0 0 -1.34-1.87 24.27 24.27 0 0 0 -3.23-3.34 28.18 28.18 0 0 0 -8-4.76l-1.08-.45c-.37-.13-.75-.23-1.13-.35-.78-.22-1.53-.48-2.33-.71a39.09 39.09 0 0 0 -4.67-.85l-2.33-.25c-.79 0-1.59 0-2.39-.08s-1.61-.09-2.39-.07-1.56 0-2.32.12a22.23 22.23 0 0 0 -8.73 2.55 21 21 0 0 0 -6.8 6 29.65 29.65 0 0 0 -4.26 8.3 38.69 38.69 0 0 0 -1.91 9.23l-3.26-.18c.37-4.33.74-8.66 1.15-13v.48a18.08 18.08 0 0 0 -1.5-3.61 16.81 16.81 0 0 0 -1.05-1.72 15.74 15.74 0 0 0 -1.21-1.61 19.54 19.54 0 0 0 -6.27-5c-.31-.15-.6-.33-.91-.46l-.95-.37a14.29 14.29 0 0 0 -1.94-.66l-2-.51c-.67-.12-1.36-.19-2-.28a28.92 28.92 0 0 0 -8.31.14 26.15 26.15 0 0 0 -7.87 2.75 30 30 0 0 0 -6.73 5 39 39 0 0 0 -5.35 6.62 40.4 40.4 0 0 0 -3.91 7.52v-.28c1.91 10.81 4.43 21.54 7.29 32.11.71 2.64 1.49 5.27 2.3 7.87.1.3.2.71.3.91l.15.36.2.34a6 6 0 0 0 1 1.24 10.87 10.87 0 0 0 3.09 1.84 24.15 24.15 0 0 0 3.7 1.15c1.27.31 2.58.55 3.9.74 2.65.38 5.35.57 8.05.7 10.85.43 21.81-.41 32.72-1.4q8.19-.8 16.37-1.8c2.73-.32 5.45-.66 8.18-1z"/></svg>