<svg viewBox="0 0 108.94 188.41" xmlns="http://www.w3.org/2000/svg"><path d="m94.6 67.94s-79 5-82-4-12-40-12-40 9-24 39-21c0 0 13 5 13 11v14s-6-24 25-26 30 30 30 30-5 31-13 36z" fill="#fff"/><path d="m94.65 68.11c-10.45 1.11-20.79 1.89-31.23 2.26q-7.81.34-15.65.37c-5.23 0-10.45-.09-15.7-.38-2.62-.15-5.24-.36-7.87-.7a45.78 45.78 0 0 1 -7.91-1.58 15.55 15.55 0 0 1 -2-.78 7.55 7.55 0 0 1 -2-1.32 3.35 3.35 0 0 1 -.49-.55l-.22-.31-.19-.38c0-.12-.13-.29-.15-.37l-.08-.24-.16-.47-.57-1.88-2.14-7.53c-2.81-10.04-5.41-20.13-8.23-30.15l-.06-.19.07-.17a36.14 36.14 0 0 1 6.65-10 36.41 36.41 0 0 1 9.49-7.38 37 37 0 0 1 5.55-2.46c.94-.36 1.93-.59 2.89-.88s2-.49 3-.63a49 49 0 0 1 12.09-.53h.13l.15.06a44.65 44.65 0 0 1 7.37 3.56 22.09 22.09 0 0 1 3.35 2.52 10.78 10.78 0 0 1 2.75 3.58 6.53 6.53 0 0 1 .51 2.42v2l.06 4 .09 7.94.18 15.28-3.33-14.89a23.9 23.9 0 0 1 -.54-6.08 23.66 23.66 0 0 1 1-6 20.13 20.13 0 0 1 6.92-10 28.37 28.37 0 0 1 10.9-5 49.94 49.94 0 0 1 11.72-1.25 31.84 31.84 0 0 1 11.67 2.36 27 27 0 0 1 5.25 3.07 26.38 26.38 0 0 1 4.28 4.3 31 31 0 0 1 5.23 10.63 40.53 40.53 0 0 1 1.16 5.74 38.08 38.08 0 0 1 .34 5.88v.1.07c-.61 3.24-1.34 6.4-2.13 9.57s-1.66 6.3-2.66 9.41a74.47 74.47 0 0 1 -3.55 9.14 34.29 34.29 0 0 1 -2.42 4.3 11.69 11.69 0 0 1 -3.52 3.54zm-.1-.33a12.2 12.2 0 0 0 3-3.61 33.68 33.68 0 0 0 2.06-4.33 85.85 85.85 0 0 0 2.91-9.18 175.17 175.17 0 0 0 3.8-18.93v.17a38.19 38.19 0 0 0 -1.77-10.66 28.15 28.15 0 0 0 -4.93-9.41 21.27 21.27 0 0 0 -8.29-6.17 28.48 28.48 0 0 0 -10.41-1.92c-7.16.01-14.76 1.26-20.33 5.35a16.67 16.67 0 0 0 -5.86 8.19 20.93 20.93 0 0 0 -.92 5.11 21.82 21.82 0 0 0 .35 5.16l-3.16.39.08-7.94.06-4v-2a3.37 3.37 0 0 0 -.26-1.39 8.16 8.16 0 0 0 -2-2.71 22.66 22.66 0 0 0 -2.88-2.28 41.67 41.67 0 0 0 -6.79-3.62l.28.06a45.57 45.57 0 0 0 -11.61-.06c-1 .1-1.91.33-2.87.49s-1.89.43-2.81.74a30.12 30.12 0 0 0 -5.41 2.17 32.9 32.9 0 0 0 -9.28 7 32.84 32.84 0 0 0 -6.38 9.7v-.36c3 10 6.26 19.87 9.48 29.76l2.48 7.39.63 1.83.16.46.07.23v.07a.14.14 0 0 1 0 .06l.07.07a.7.7 0 0 0 .17.18 4.7 4.7 0 0 0 1.26.75 13.34 13.34 0 0 0 1.65.58 48.66 48.66 0 0 0 7.4 1.39c2.54.3 5.11.53 7.68.71 10.4.78 20.82.78 31.19.78s20.85-.1 31.18-.22z"/><path d="m52.6 108.94s-23 0-15 77c0 0-28-12-30-60l3.79-55.94a3.09 3.09 0 0 1 3.3-2.88c14.93 1 79 5.2 79.91.78 1-5-1 54 2 59s9 53 9 53-14 24.04-53-70.96z" fill="#eace88"/><path d="m52.5 109.09s.06 0 0 0h-.08-.15l-.31.06a4.5 4.5 0 0 0 -.6.17 8.46 8.46 0 0 0 -1.17.48 10.84 10.84 0 0 0 -2.11 1.39 17.27 17.27 0 0 0 -3.33 3.81 33.76 33.76 0 0 0 -4.17 9.28 79 79 0 0 0 -2.18 10q-.72 5.1-1 10.24a200 200 0 0 0 0 20.63c.32 6.88 1 13.74 1.66 20.6l.26 2.62-2.32-1.04a22.76 22.76 0 0 1 -2.1-1.12c-.68-.37-1.3-.8-1.94-1.22s-1.24-.87-1.85-1.32a21.88 21.88 0 0 1 -1.77-1.41l-1.72-1.47-1.62-1.58c-1.11-1-2.06-2.19-3.06-3.32a63.74 63.74 0 0 1 -9.37-15.25l-1.68-4.15c-.52-1.4-.91-2.83-1.37-4.25l-.66-2.13c-.23-.71-.34-1.44-.51-2.17l-1-4.34-.23-1.09-.12-1.1-.31-2.2-.6-4.39-.53-8.82v-.12c.88-10.58 1.81-21.17 2.6-31.76l1.15-15.89.5-8a3.9 3.9 0 0 1 .7-2.16 3.68 3.68 0 0 1 1.87-1.37 3.56 3.56 0 0 1 1.17-.16h1l2 .13c10.6.69 21.21 1.15 31.82 1.5s21.23.53 31.78.28c2.64-.08 5.27-.19 7.85-.45a23.06 23.06 0 0 0 3.66-.62 3.5 3.5 0 0 0 .65-.24s0 0 .06 0 0 0 0 0 0 0-.14.2a.83.83 0 0 0 -.06.21s0-.1 0-.15a2 2 0 0 1 .09-.3 1.9 1.9 0 0 1 .22-.41c.15-1.2 3-.18 2.53.11a1.62 1.62 0 0 1 .23.62v.22.59 1c.16 5.38.1 10.66.12 16 0 10.61 0 21.24.58 31.75a63.79 63.79 0 0 0 .78 7.67 5.51 5.51 0 0 0 .38 1.31 8.75 8.75 0 0 1 .53 1.18c.14.37.26.72.36 1.06.41 1.36.73 2.68 1 4 1.15 5.28 2 10.52 2.87 15.79q2.39 15.79 4.27 31.63l.07.61-.29.46a6.39 6.39 0 0 1 -.64.86c-.22.24-.45.46-.68.67a8.18 8.18 0 0 1 -1.58 1.08 7.77 7.77 0 0 1 -3.66.87 12.59 12.59 0 0 1 -6.35-2.03 38.92 38.92 0 0 1 -9-8.58 130 130 0 0 1 -13-20.48c-3.77-7.12-7.2-14.4-10.43-21.75l-2.38-5.54-2.28-5.57-1.13-2.79-1.07-2.74zm.2-.29 5 11 2.53 5.46 2.61 5.41c3.52 7.23 7.16 14.33 11.16 21.33 1 1.73 2 3.46 3.05 5.14s2.11 3.38 3.19 5a98.21 98.21 0 0 0 7 9.56 36.52 36.52 0 0 0 8.46 7.74 9.56 9.56 0 0 0 4.81 1.55 4.27 4.27 0 0 0 2.13-.54 4.44 4.44 0 0 0 .88-.63 3.48 3.48 0 0 0 .38-.39c.11-.12.24-.32.26-.34l-.22 1.06c-1.44-10.5-2.89-21-4.6-31.47-.83-5.22-1.69-10.46-2.8-15.56-.28-1.27-.58-2.54-.94-3.71-.09-.3-.18-.59-.28-.84a4.68 4.68 0 0 0 -.27-.63 8 8 0 0 1 -.81-2.48 67 67 0 0 1 -.75-8.18c-.44-10.7-.3-21.32-.22-32 0-5.3.15-10.64.11-15.88v-.94-.4s0 0 0 0-.07-.08.16.39c-.44.24 2.31 1.25 2.43.09a1.27 1.27 0 0 0 .17-.3c0-.09 0-.07 0-.07v.1a2.32 2.32 0 0 1 -.16.44 2 2 0 0 1 -.43.6 2 2 0 0 1 -.42.33 3.9 3.9 0 0 1 -.36.22 6.79 6.79 0 0 1 -1.22.44 24.94 24.94 0 0 1 -4.19.64c-2.72.22-5.39.28-8.07.3-10.69 0-21.3-.57-31.92-1.17s-21.29-1.4-31.9-2.07l-2-.14c-.32 0-.69-.06-1-.07a2.32 2.32 0 0 0 -.79.11 2.57 2.57 0 0 0 -1.8 2.5l-.57 7.94-1 15.9c-.6 10.56-1.11 21.17-1.67 31.76v-.11l.82 8.64.72 4.28.37 2.13.18 1.07.26 1 1.06 4.19c.19.69.31 1.41.56 2.08l.68 2c.47 1.36.87 2.74 1.39 4.07l1.68 3.95a64 64 0 0 0 9 14.47c.94 1.07 1.83 2.18 2.86 3.15l1.5 1.5 1.6 1.39c.53.48 1.09.91 1.65 1.33s1.11.87 1.7 1.24 1.16.8 1.76 1.13a19.73 19.73 0 0 0 1.76 1l-2.08 1.54q-1-10.38-1.37-20.81a179.73 179.73 0 0 1 .52-20.88c.64-6.93 1.62-13.91 4-20.55a34.65 34.65 0 0 1 4.74-9.32 17.45 17.45 0 0 1 3.71-3.77 12 12 0 0 1 2.29-1.32 9.35 9.35 0 0 1 1.26-.43c.21-.06.43-.1.65-.14h.33.17.09a.35.35 0 0 1 .2-.03z"/></svg>