<svg viewBox="0 0 100.81 122.21" xmlns="http://www.w3.org/2000/svg"><path d="m46.05 42.75s-23 0-15 77c0 0-28-12-30-60l3.79-55.91a3.08 3.08 0 0 1 3.29-2.84c14.94 1 79 5.19 79.92.78 1-5-1 54 2 59s9 53 9 53-14 23.97-53-71.03z" fill="#eace88"/><path d="m46 42.89s.06 0 0 0h-.1-.15c-.1 0-.21 0-.31.06a5.9 5.9 0 0 0 -.6.17 8.46 8.46 0 0 0 -1.17.48 11 11 0 0 0 -2.11 1.39 17.74 17.74 0 0 0 -3.36 3.77 34 34 0 0 0 -4.2 9.35 79.11 79.11 0 0 0 -2.18 10c-.48 3.39-.83 6.81-1 10.24a197 197 0 0 0 .07 20.65c.32 6.88 1 13.74 1.65 20.6l.27 2.62-2.35-1.08a21.75 21.75 0 0 1 -2.11-1.14c-.67-.37-1.3-.8-1.93-1.22s-1.24-.87-1.85-1.33a21.91 21.91 0 0 1 -1.78-1.4l-1.71-1.48-1.62-1.57c-1.1-1-2.06-2.19-3.05-3.31a63.8 63.8 0 0 1 -9.41-15.25l-1.65-4.15c-.51-1.39-.91-2.83-1.35-4.24l-.65-2.13c-.23-.71-.34-1.45-.52-2.17l-.97-4.35-.23-1.08-.16-1.1-.3-2.22-.61-4.4-.56-8.81v-.11c.89-10.59 1.82-21.17 2.61-31.76l1.14-15.92.51-7.95a3.84 3.84 0 0 1 .74-2.14 3.63 3.63 0 0 1 1.83-1.36 3.27 3.27 0 0 1 1.17-.17c.39 0 .68 0 1 .06l2 .12c10.6.69 21.21 1.15 31.81 1.5s21.19.53 31.79.28c2.63-.08 5.27-.18 7.84-.45a23.38 23.38 0 0 0 3.67-.62 3.65 3.65 0 0 0 .64-.27h.06s0 0 0 0 0 .05-.14.21a.48.48 0 0 0 -.07.2s0-.1 0-.14a1.74 1.74 0 0 1 .09-.3 1.89 1.89 0 0 1 .22-.42c.15-1.2 2.95-.18 2.52.11a1.63 1.63 0 0 1 .24.62v.22c0 .23 0 .41.06.6v1c.16 5.39.1 10.66.12 16 0 10.61 0 21.24.57 31.76a65.91 65.91 0 0 0 .79 7.66 5.06 5.06 0 0 0 .38 1.31 8.3 8.3 0 0 1 .53 1.19 10.76 10.76 0 0 1 .35 1c.42 1.37.73 2.68 1 4 1.15 5.28 2 10.53 2.86 15.79q2.4 15.81 4.28 31.64l.07.61-.29.46a6 6 0 0 1 -.65.85 8.73 8.73 0 0 1 -.68.68 7.81 7.81 0 0 1 -1.57 1.08 7.67 7.67 0 0 1 -3.66.86 12.62 12.62 0 0 1 -6.35-1.99 38.87 38.87 0 0 1 -9.07-8.58 130.56 130.56 0 0 1 -13-20.49c-3.77-7.12-7.2-14.39-10.44-21.75l-2.37-5.54-2.31-5.64-1.14-2.78-1.06-2.75zm.2-.29 5 11 2.53 5.45 2.61 5.41c3.5 7.2 7.12 14.34 11.1 21.26 1 1.73 2 3.46 3 5.15s2.1 3.38 3.19 5a99.44 99.44 0 0 0 7 9.56 36.05 36.05 0 0 0 8.46 7.73 9.37 9.37 0 0 0 4.81 1.55 4.33 4.33 0 0 0 2.12-.53 4.7 4.7 0 0 0 1.27-1c.1-.12.24-.31.26-.34l-.19 1.16c-1.44-10.5-2.9-21-4.6-31.47-.83-5.26-1.69-10.53-2.76-15.6-.28-1.27-.58-2.54-.94-3.72-.09-.3-.18-.58-.28-.83s-.2-.46-.27-.64a8 8 0 0 1 -.81-2.47 67.22 67.22 0 0 1 -.75-8.18c-.44-10.71-.31-21.33-.22-32 0-5.3.14-10.65.11-15.88v-1-.39c0 .06-.07-.07.17.39-.44.24 2.3 1.25 2.43.1a1.78 1.78 0 0 0 .17-.31c0-.08 0-.06 0-.06v.09a2.32 2.32 0 0 1 -.16.44 2.06 2.06 0 0 1 -.43.6 1.74 1.74 0 0 1 -.42.33 1.88 1.88 0 0 1 -.37.22 6.55 6.55 0 0 1 -1.21.45 26.23 26.23 0 0 1 -4.2.63c-2.82.3-5.5.3-8.17.36-10.65.04-21.3-.58-31.92-1.17s-21.21-1.41-31.81-2.14l-2-.14c-.31 0-.69-.06-1-.06a2.41 2.41 0 0 0 -.8.1 2.57 2.57 0 0 0 -1.79 2.5l-.57 8-.96 15.85c-.65 10.6-1.15 21.21-1.71 31.82v-.12l.82 8.65.73 4.27.36 2.13.19 1.07.26 1.05 1 4.19c.19.69.32 1.4.56 2.08l.69 2c.47 1.35.87 2.73 1.39 4.07l1.68 4a63.49 63.49 0 0 0 9 14.47 40.48 40.48 0 0 0 2.86 3.14l1.5 1.51 1.6 1.39c.52.48 1.08.9 1.65 1.33s1.11.87 1.7 1.24 1.16.79 1.76 1.13 1.23.7 1.76 1l-2.09 1.53q-1-10.37-1.36-20.81a177.54 177.54 0 0 1 .52-20.88c.64-6.93 1.62-13.91 4-20.54a35.29 35.29 0 0 1 4.76-9.38 17.45 17.45 0 0 1 3.72-3.76 11.23 11.23 0 0 1 2.31-1.32 7.48 7.48 0 0 1 1.26-.43 4.69 4.69 0 0 1 .65-.14h.33.3a.89.89 0 0 1 .15-.09z"/></svg>