<svg viewBox="0 0 108.94 70.74" xmlns="http://www.w3.org/2000/svg"><path d="m94.6 67.94s-79 5-82-4-12-40-12-40 9-24 39-21c0 0 13 5 13 11v14s-6-24 25-26 30 30 30 30-5 31-13 36z" fill="#fff"/><path d="m94.65 68.11c-10.45 1.11-20.79 1.89-31.23 2.26q-7.81.34-15.65.37c-5.23 0-10.45-.09-15.7-.38-2.62-.15-5.24-.36-7.87-.7a45.78 45.78 0 0 1 -7.91-1.58 15.55 15.55 0 0 1 -2-.78 7.55 7.55 0 0 1 -2-1.32 3.35 3.35 0 0 1 -.49-.55l-.22-.31-.19-.38c0-.12-.13-.29-.15-.37l-.08-.24-.16-.47-.57-1.88-2.14-7.53c-2.81-10.04-5.41-20.13-8.23-30.15l-.06-.19.07-.17a36.14 36.14 0 0 1 6.65-10 36.41 36.41 0 0 1 9.49-7.38 37 37 0 0 1 5.55-2.46c.94-.36 1.93-.59 2.89-.88s2-.49 3-.63a49 49 0 0 1 12.09-.53h.13l.15.06a44.65 44.65 0 0 1 7.37 3.56 22.09 22.09 0 0 1 3.35 2.52 10.78 10.78 0 0 1 2.75 3.58 6.53 6.53 0 0 1 .51 2.42v2l.06 4 .09 7.94.18 15.28-3.33-14.89a23.9 23.9 0 0 1 -.54-6.08 23.66 23.66 0 0 1 1-6 20.13 20.13 0 0 1 6.92-10 28.37 28.37 0 0 1 10.9-5 49.94 49.94 0 0 1 11.72-1.25 31.84 31.84 0 0 1 11.67 2.36 27 27 0 0 1 5.25 3.07 26.38 26.38 0 0 1 4.28 4.3 31 31 0 0 1 5.23 10.63 40.53 40.53 0 0 1 1.16 5.74 38.08 38.08 0 0 1 .34 5.88v.1.07c-.61 3.24-1.34 6.4-2.13 9.57s-1.66 6.3-2.66 9.41a74.47 74.47 0 0 1 -3.55 9.14 34.29 34.29 0 0 1 -2.42 4.3 11.69 11.69 0 0 1 -3.52 3.54zm-.1-.33a12.2 12.2 0 0 0 3-3.61 33.68 33.68 0 0 0 2.06-4.33 85.85 85.85 0 0 0 2.91-9.18 175.17 175.17 0 0 0 3.8-18.93v.17a38.19 38.19 0 0 0 -1.77-10.66 28.15 28.15 0 0 0 -4.93-9.41 21.27 21.27 0 0 0 -8.29-6.17 28.48 28.48 0 0 0 -10.41-1.92c-7.16.01-14.76 1.26-20.33 5.35a16.67 16.67 0 0 0 -5.86 8.19 20.93 20.93 0 0 0 -.92 5.11 21.82 21.82 0 0 0 .35 5.16l-3.16.39.08-7.94.06-4v-2a3.37 3.37 0 0 0 -.26-1.39 8.16 8.16 0 0 0 -2-2.71 22.66 22.66 0 0 0 -2.88-2.28 41.67 41.67 0 0 0 -6.79-3.62l.28.06a45.57 45.57 0 0 0 -11.61-.06c-1 .1-1.91.33-2.87.49s-1.89.43-2.81.74a30.12 30.12 0 0 0 -5.41 2.17 32.9 32.9 0 0 0 -9.28 7 32.84 32.84 0 0 0 -6.38 9.7v-.36c3 10 6.26 19.87 9.48 29.76l2.48 7.39.63 1.83.16.46.07.23v.07a.14.14 0 0 1 0 .06l.07.07a.7.7 0 0 0 .17.18 4.7 4.7 0 0 0 1.26.75 13.34 13.34 0 0 0 1.65.58 48.66 48.66 0 0 0 7.4 1.39c2.54.3 5.11.53 7.68.71 10.4.78 20.82.78 31.19.78s20.85-.1 31.18-.22z"/></svg>