<svg viewBox="0 0 44.56 184.92" xmlns="http://www.w3.org/2000/svg"><path d="m12.24 77.17s5 111 25 107c0 0 3-40 2-107a18.22 18.22 0 0 1 -11 5c-6.91.42-14.98-2.43-16-5z" fill="#eace88"/><path d="m12.28 77.35a.13.13 0 0 0 .13-.06c0-.06 0 0 0 0v.11.22.44l.1.89.21 1.77.37 3.54.8 7.09 1.57 14.14c1 9.43 2.21 18.84 3.46 28.22l.93 7c.3 2.34.63 4.69 1 7 .72 4.67 1.53 9.34 2.57 13.95a71.47 71.47 0 0 0 4.31 13.45 24.23 24.23 0 0 0 3.64 5.91 8.8 8.8 0 0 0 2.6 2.06 4.64 4.64 0 0 0 3.06.39l-.53.59c.4-8.89.46-17.81.59-26.72s.25-17.82.29-26.73.06-17.82.17-26.73l.27-26.75 2.3.91a17.42 17.42 0 0 1 -3.12 2.44 19.53 19.53 0 0 1 -3.56 1.66 18 18 0 0 1 -3.84.88 22.87 22.87 0 0 1 -3.88 0 28.59 28.59 0 0 1 -7.4-1.6 21.94 21.94 0 0 1 -3.46-1.56l-.81-.5c-.25-.2-.51-.38-.76-.59a5.54 5.54 0 0 1 -.67-.7 1.69 1.69 0 0 1 -.26-.37c-.06-.07-.05-.2-.08-.35zm-.08-.35a3.58 3.58 0 0 1 .41.44 2.26 2.26 0 0 0 .32.35 4.72 4.72 0 0 0 .68.56c.24.16.51.31.76.46l.81.4a20.77 20.77 0 0 0 3.43 1.19 31 31 0 0 0 7.16.93 20.53 20.53 0 0 0 3.53-.25 16.08 16.08 0 0 0 3.32-1 18.19 18.19 0 0 0 5.66-3.83l2.18-2.25.12 3.11c.33 8.93.61 17.85.66 26.78l.06 6.7v6.7c0 4.46-.14 8.93-.25 13.39-.25 8.93-.54 17.86-1.06 26.78-.23 4.46-.58 8.91-.92 13.36s-.69 8.91-1.12 13.36v.51l-.48.09a5.91 5.91 0 0 1 -3.86-.6 10.28 10.28 0 0 1 -2.9-2.4 26.07 26.07 0 0 1 -3.76-6.21 67.15 67.15 0 0 1 -2.64-6.68c-.8-2.26-1.47-4.55-2.15-6.84-1.34-4.58-2.48-9.22-3.49-13.89q-.75-3.49-1.43-7c-.43-2.35-.82-4.7-1.19-7.06s-.67-4.72-1-7.08l-.79-7.1c-.52-4.74-.88-9.48-1.23-14.23s-.58-9.5-.73-14.26c-.09-2.38-.11-4.76-.16-7.14v-3.57-3.43s0 0 0-.12a.35.35 0 0 1 .06-.17z"/><path d="m9.24.17 33 4s4 60-4 72-27-1-27-1-21-70-2-75z" fill="#fff"/><path d="m9.23 0c5.47.25 11 .66 16.54 1.11l8.32.75 8.33.84 1.21.12.09 1.26c.63 8.57 1 17.14.78 25.72s-.73 17.2-1.35 25.71a126.48 126.48 0 0 1 -1.5 12.82 31 31 0 0 1 -1.65 6.35 12.31 12.31 0 0 1 -4.14 5.45 12.7 12.7 0 0 1 -6.55 2.38 22 22 0 0 1 -6.79-.6 41.76 41.76 0 0 1 -12.22-5.36l-.47-.3-.19-.6c-1-3.19-1.88-6.36-2.75-9.56s-1.67-6.41-2.4-9.64l-1.06-4.86-.91-4.89c-.58-3.27-1.12-6.55-1.52-9.85s-.74-6.61-.89-10a78.1 78.1 0 0 1 .08-10 35.07 35.07 0 0 1 2.01-9.85 13.94 13.94 0 0 1 2.62-4.46 7.88 7.88 0 0 1 4.41-2.54zm0 .35a7.85 7.85 0 0 0 -3.69 2.79 13 13 0 0 0 -2 4.28 37.56 37.56 0 0 0 -1.06 9.58 124.54 124.54 0 0 0 1.86 19.37c.54 3.22 1.11 6.44 1.75 9.65s1.35 6.4 2.05 9.6c1.47 6.38 2.93 12.8 4.7 19.08l-.66-.9a43.92 43.92 0 0 0 5.33 3 36 36 0 0 0 5.72 2.23 19.77 19.77 0 0 0 5.91.87 10.3 10.3 0 0 0 5.49-1.55c3.41-2.05 4.78-6.26 5.74-10.33a84.8 84.8 0 0 0 1.71-12.64 214.22 214.22 0 0 0 -.18-25.59c-.2-4.27-.44-8.53-.59-12.79s-.31-8.48-.55-12.73l1.3 1.38-8.17-1.16-8.18-1.25c-5.46-.89-10.94-1.8-16.46-2.89z"/></svg>