<svg viewBox="0 0 29.27 110.88" xmlns="http://www.w3.org/2000/svg"><path d="m.21 3.14s5 111 25 107c0 0 3-40 2-107a18.29 18.29 0 0 1 -11 5c-6.91.41-14.98-2.44-16-5z" fill="#eace88"/><path d="m.24 3.31a.13.13 0 0 0 .14-.06c0-.06 0 0 0 0v.11.22l.1.42.1.88.2 1.77.38 3.55.84 7.1 1.53 14.15c1 9.43 2.21 18.83 3.46 28.21l.93 7q.45 3.52 1 7c.72 4.68 1.53 9.34 2.57 14a71 71 0 0 0 4.31 13.45 23.92 23.92 0 0 0 3.62 5.89 8.6 8.6 0 0 0 2.58 2.1 4.62 4.62 0 0 0 3.07.39l-.53.6c.4-8.89.46-17.82.59-26.73s.24-17.82.29-26.73.06-17.82.17-26.73l.27-26.74 2.3.91a18.24 18.24 0 0 1 -3.23 2.38 20 20 0 0 1 -3.57 1.66 18.66 18.66 0 0 1 -3.82.89 24 24 0 0 1 -3.88 0 29.19 29.19 0 0 1 -7.41-1.6 22.2 22.2 0 0 1 -3.45-1.55l-.8-.51c-.25-.2-.51-.38-.76-.59a4.94 4.94 0 0 1 -.67-.7c-.1-.12-.26-.27-.28-.37s-.01-.21-.05-.37zm-.07-.31a3.46 3.46 0 0 1 .41.43 2.92 2.92 0 0 0 .31.35 5.19 5.19 0 0 0 .68.56c.25.17.52.31.77.47l.81.4a21.25 21.25 0 0 0 3.42 1.15 30.65 30.65 0 0 0 7.17.93 21.46 21.46 0 0 0 3.52-.24 16.52 16.52 0 0 0 3.32-1 18 18 0 0 0 5.66-3.84l2.19-2.21.11 3.12c.34 8.92.62 17.85.67 26.78l.06 6.7-.05 6.69c0 4.47-.14 8.93-.25 13.4-.26 8.92-.54 17.85-1.07 26.77-.22 4.46-.57 8.91-.91 13.37s-.69 8.9-1.12 13.36l-.05.5-.48.1a6.08 6.08 0 0 1 -3.87-.6 10.44 10.44 0 0 1 -2.89-2.41 26 26 0 0 1 -3.76-6.2 68.3 68.3 0 0 1 -2.64-6.69c-.8-2.25-1.47-4.54-2.15-6.84-1.35-4.58-2.48-9.22-3.49-13.89q-.75-3.5-1.43-7c-.44-2.35-.82-4.7-1.19-7.05s-.67-4.73-.92-7.11l-.79-7.1c-.52-4.73-.88-9.48-1.24-14.23s-.62-9.49-.77-14.25c-.09-2.37-.12-4.75-.2-7.13v-3.57-3.46a.32.32 0 0 1 0-.13.27.27 0 0 1 .17-.13z"/></svg>