<svg viewBox="0 0 44.56 82.57" xmlns="http://www.w3.org/2000/svg"><path d="m9.24.17 33 4s4 60-4 72-27-1-27-1-21-70-2-75z" fill="#fff"/><path d="m9.23 0c5.47.25 11 .66 16.54 1.11l8.32.75 8.33.84 1.21.12.09 1.26c.63 8.57 1 17.14.78 25.72s-.73 17.2-1.35 25.71a126.48 126.48 0 0 1 -1.5 12.82 31 31 0 0 1 -1.65 6.35 12.31 12.31 0 0 1 -4.14 5.45 12.7 12.7 0 0 1 -6.55 2.38 22 22 0 0 1 -6.79-.6 41.76 41.76 0 0 1 -12.22-5.36l-.47-.3-.19-.6c-1-3.19-1.88-6.36-2.75-9.56s-1.67-6.41-2.4-9.64l-1.06-4.86-.91-4.89c-.58-3.27-1.12-6.55-1.52-9.85s-.74-6.61-.89-10a78.1 78.1 0 0 1 .08-10 35.07 35.07 0 0 1 2.01-9.85 13.94 13.94 0 0 1 2.62-4.46 7.88 7.88 0 0 1 4.41-2.54zm0 .35a7.85 7.85 0 0 0 -3.69 2.79 13 13 0 0 0 -2 4.28 37.56 37.56 0 0 0 -1.06 9.58 124.54 124.54 0 0 0 1.86 19.37c.54 3.22 1.11 6.44 1.75 9.65s1.35 6.4 2.05 9.6c1.47 6.38 2.93 12.8 4.7 19.08l-.66-.9a43.92 43.92 0 0 0 5.33 3 36 36 0 0 0 5.72 2.23 19.77 19.77 0 0 0 5.91.87 10.3 10.3 0 0 0 5.49-1.55c3.41-2.05 4.78-6.26 5.74-10.33a84.8 84.8 0 0 0 1.71-12.64 214.22 214.22 0 0 0 -.18-25.59c-.2-4.27-.44-8.53-.59-12.79s-.31-8.48-.55-12.73l1.3 1.38-8.17-1.16-8.18-1.25c-5.46-.89-10.94-1.8-16.46-2.89z"/></svg>