<svg viewBox="0 0 47.84 191.62" xmlns="http://www.w3.org/2000/svg"><path d="m46.87 8s2 79-18 77-27-44-27-44v-32s8-10 23-7c0 0 12-2 22 6z" fill="#fff"/><path d="m47 7.9a1.62 1.62 0 0 1 0 .21v.13.27.54l.09 1.08.15 2.16c.1 1.44.17 2.88.23 4.33.14 2.88.18 5.76.21 8.65 0 5.78-.14 11.56-.53 17.33-.22 2.89-.47 5.77-.8 8.65s-.75 5.76-1.31 8.61a69.2 69.2 0 0 1 -5.04 16.74 20.31 20.31 0 0 1 -5.31 7.16 8.08 8.08 0 0 1 -4.25 1.76 5.61 5.61 0 0 1 -1.16 0 5.82 5.82 0 0 1 -1.12-.13l-1.11-.19c-.36-.07-.71-.21-1.07-.31a19.36 19.36 0 0 1 -7.58-4.47 38.55 38.55 0 0 1 -5.67-6.7 75.14 75.14 0 0 1 -7.8-15.64 107.68 107.68 0 0 1 -4.7-16.83v-.1-.15l-.23-16v-8l.07-8v-.7l.39-.45a20.36 20.36 0 0 1 2.54-2.42 24.86 24.86 0 0 1 9-4.54 24.71 24.71 0 0 1 6.58-.89 28 28 0 0 1 3.3.18c1.09.12 2.17.36 3.24.55h-.45a29.05 29.05 0 0 1 6.12.05 31.8 31.8 0 0 1 5.89 1.22c1 .27 1.88.67 2.81 1s1.83.82 2.68 1.34c.42.25.87.48 1.28.75l1.23.91a29.19 29.19 0 0 1 2.32 1.9zm-.31.16-1.19-.75a11.67 11.67 0 0 0 -1.21-.71l-1.29-.69c-.42-.22-.88-.39-1.31-.59-.86-.41-1.79-.68-2.68-1s-1.83-.54-2.77-.71a29.69 29.69 0 0 0 -5.63-.7 27.4 27.4 0 0 0 -5.55.32h-.13-.32c-1-.09-2-.26-3-.32a22.79 22.79 0 0 0 -3 0 23 23 0 0 0 -5.73 1.09 21.27 21.27 0 0 0 -5.28 2.44 25.16 25.16 0 0 0 -2.34 1.72 17.44 17.44 0 0 0 -2 1.94l.41-1.1.08 8v8l-.21 16v-.28a136.63 136.63 0 0 0 4 16.54 71.94 71.94 0 0 0 6.52 15.64 31.74 31.74 0 0 0 5.14 6.7 17.17 17.17 0 0 0 7.09 4.3c.34.09.67.21 1 .27l1 .16a6.11 6.11 0 0 0 1 .11 5.47 5.47 0 0 0 1 0 6.64 6.64 0 0 0 3.55-1.66 12.11 12.11 0 0 0 2.57-3.15 27.8 27.8 0 0 0 1.83-3.76c2-5.24 3-10.89 3.93-16.49s1.58-11.29 2.12-17 1-11.41 1.35-17.14l.54-8.61.24-4.3.12-2.16.06-1.08v-.54-.27-.16c.1-.06.09-.12.12-.06z"/><path d="m14.87 77s-1 110 17 114c0 0 10 1 7-40 0 0 4-70 0-72 0 0-7 15-24-2z" fill="#eace88"/><path d="m14.94 77.14c.1 0 .13-.14.11 0v.35.46l.05.92.1 1.84.19 3.68.39 7.35.78 14.68c.49 9.79 1.12 19.57 1.81 29.33l.52 7.31c.16 2.45.34 4.88.54 7.32.42 4.87.92 9.74 1.62 14.58a90.08 90.08 0 0 0 3.16 14.28 36.32 36.32 0 0 0 2.83 6.66 14.54 14.54 0 0 0 2.1 2.83 5.77 5.77 0 0 0 2.86 1.62h-.07a2.22 2.22 0 0 0 .89-.31 1.78 1.78 0 0 0 .47-.32 2.55 2.55 0 0 0 .43-.38 8.87 8.87 0 0 0 1.41-2l.54-1.14c.17-.38.28-.8.43-1.2a18.55 18.55 0 0 0 .7-2.48 54.19 54.19 0 0 0 1.2-10.35c0-.88.07-1.75.07-2.63v-2.63-2.63l-.11-2.64c-.09-3.52-.45-7-.66-10.54v-.21q.41-9 .69-18l.58-18c.23-6 .36-12 .45-18q.06-4.5 0-9c0-1.49-.1-3-.23-4.42-.07-.73-.15-1.44-.27-2.12a7.08 7.08 0 0 0 -.22-.93 1.82 1.82 0 0 0 -.2-.42s0 0 0 0 .11.13.2.13l1.7-.61a13.25 13.25 0 0 1 -2.43 3.19 12.09 12.09 0 0 1 -3.2 2.29 11.13 11.13 0 0 1 -7.71.57 19.84 19.84 0 0 1 -6.59-3.48c-1-.74-1.9-1.54-2.79-2.37-.41-.41-.91-.86-1.25-1.25s-.68-.86-1.09-1.33zm-.13-.32c2.1 1.6 3.83 3.15 5.86 4.4a19.21 19.21 0 0 0 6.33 2.78 9.16 9.16 0 0 0 6.37-.84 10.18 10.18 0 0 0 2.52-2 11.51 11.51 0 0 0 1.78-2.65l.58-1.26 1.16.65a2.33 2.33 0 0 1 .62.5 3 3 0 0 1 .31.44 4 4 0 0 1 .33.71 12.86 12.86 0 0 1 .36 1.25c.18.8.31 1.58.41 2.35.21 1.55.34 3.07.45 4.59.23 3 .31 6.08.38 9.1.15 6.06 0 12.1-.05 18.14s-.31 12.02-.66 18.02-.68 12-1.08 18.07v-.21c.16 3.57.36 7.14.33 10.72v2.68l-.08 2.74-.11 2.69c0 .89-.16 1.79-.23 2.68a58.26 58.26 0 0 1 -1.84 10.63 20.39 20.39 0 0 1 -.88 2.6c-.18.43-.32.86-.54 1.28l-.66 1.23a10.56 10.56 0 0 1 -1.78 2.25 4.46 4.46 0 0 1 -2.88 1.27h-.06a7 7 0 0 1 -3.38-2.1 17.94 17.94 0 0 1 -2.22-3.1 42.13 42.13 0 0 1 -2.89-6.88 134.46 134.46 0 0 1 -3.65-14.34c-1-4.83-1.83-9.69-2.54-14.57q-.53-3.66-1-7.32c-.27-2.45-.54-4.9-.74-7.35-.83-9.81-1.17-19.65-1.32-29.48 0-4.92 0-9.83.07-14.75 0-2.45.15-4.91.24-7.37l.15-3.68.11-1.84.06-.92v-.46-.35s.07-.25.17-.3z"/></svg>