<svg viewBox="0 0 28.4 114.8" xmlns="http://www.w3.org/2000/svg"><path d="m.89.16s-1 110 17 114c0 0 10 1 7-40 0 0 4-70 0-72 0 0-7 15-24-2z" fill="#eace88"/><path d="m1 .32c.1 0 .12-.14.11 0v.3.46l.06.92.1 1.84.18 3.68.4 7.35.77 14.69c.49 9.79 1.13 19.56 1.82 29.32l.56 7.32c.16 2.44.33 4.88.54 7.32.41 4.87.92 9.73 1.62 14.57a89.81 89.81 0 0 0 3.15 14.28 36.06 36.06 0 0 0 2.8 6.63 14.14 14.14 0 0 0 2.1 2.83 5.86 5.86 0 0 0 2.79 1.71h-.08a1.93 1.93 0 0 0 .41-.09 1.64 1.64 0 0 0 .49-.22 1.91 1.91 0 0 0 .46-.32 2.61 2.61 0 0 0 .44-.37 8.89 8.89 0 0 0 1.4-2l.54-1.14c.18-.38.29-.8.44-1.2a20 20 0 0 0 .7-2.47 53.49 53.49 0 0 0 1.2-10.38c0-.87.08-1.75.08-2.62v-2.64-2.63l-.08-2.64c-.09-3.51-.46-7-.67-10.54v-.21q.41-9 .68-18l.59-18q.33-9 .45-18c0-3 0-6-.05-9 0-1.48-.1-3-.23-4.42-.06-.72-.15-1.44-.27-2.11a8.14 8.14 0 0 0 -.21-.93c0-.15-.09-.24-.12-.33s0 0 0 0 .11.13.19.13l1.74-.61a13.31 13.31 0 0 1 -2.43 3.2 12.15 12.15 0 0 1 -3.24 2.28 11.1 11.1 0 0 1 -7.7.56 19.9 19.9 0 0 1 -6.64-3.57 33.36 33.36 0 0 1 -2.79-2.38c-.42-.41-.92-.89-1.3-1.25s-.63-.85-1-1.32zm-.18-.32c2.1 1.6 3.83 3.15 5.87 4.4a19.35 19.35 0 0 0 6.37 2.74 9.29 9.29 0 0 0 6.37-.84 10 10 0 0 0 2.51-2 11.35 11.35 0 0 0 1.79-2.65l.57-1.28 1.16.63a2.61 2.61 0 0 1 .63.5 3.58 3.58 0 0 1 .31.5 5.27 5.27 0 0 1 .32.71 8.68 8.68 0 0 1 .36 1.26c.18.8.31 1.57.41 2.35.22 1.54.34 3.06.46 4.59.22 3 .3 6.07.37 9.1.15 6.05.05 12.09 0 18.13s-.36 12.07-.7 18.09-.72 12-1.12 18.02v-.25c.16 3.58.36 7.14.32 10.72v2.69l-.09 2.69-.1 2.68c-.06.9-.16 1.79-.24 2.69a56.61 56.61 0 0 1 -1.84 10.67 19.41 19.41 0 0 1 -.88 2.6c-.18.42-.31.86-.53 1.27l-.66 1.24a10.61 10.61 0 0 1 -1.79 2.25 4.38 4.38 0 0 1 -2.87 1.26h-.08a6.94 6.94 0 0 1 -3.38-2.1 17.86 17.86 0 0 1 -2.22-3.11 40.11 40.11 0 0 1 -2.89-6.88 137 137 0 0 1 -3.65-14.31c-1-4.83-1.82-9.69-2.53-14.57-.35-2.43-.68-4.88-1-7.32s-.53-4.9-.74-7.35c-.82-9.81-1.16-19.65-1.33-29.48 0-4.91 0-9.83.1-14.74 0-2.46.15-4.92.24-7.37l.15-3.69.11-1.84.05-.92v-.46l.05-.23v-.11a.33.33 0 0 1 .12-.28z"/></svg>