<svg viewBox="0 0 47.84 85.57" xmlns="http://www.w3.org/2000/svg"><path d="m46.87 8s2 79-18 77-27-44-27-44v-32s8-10 23-7c0 0 12-2 22 6z" fill="#fff"/><path d="m47 7.9a1.62 1.62 0 0 1 0 .21v.13.27.54l.09 1.08.15 2.16c.1 1.44.17 2.88.23 4.33.14 2.88.18 5.76.21 8.65 0 5.78-.14 11.56-.53 17.33-.22 2.89-.47 5.77-.8 8.65s-.75 5.76-1.31 8.61a69.2 69.2 0 0 1 -5.04 16.74 20.31 20.31 0 0 1 -5.31 7.16 8.08 8.08 0 0 1 -4.25 1.76 5.61 5.61 0 0 1 -1.16 0 5.82 5.82 0 0 1 -1.12-.13l-1.11-.19c-.36-.07-.71-.21-1.07-.31a19.36 19.36 0 0 1 -7.58-4.47 38.55 38.55 0 0 1 -5.67-6.7 75.14 75.14 0 0 1 -7.8-15.64 107.68 107.68 0 0 1 -4.7-16.83v-.1-.15l-.23-16v-8l.07-8v-.7l.39-.45a20.36 20.36 0 0 1 2.54-2.42 24.86 24.86 0 0 1 9-4.54 24.71 24.71 0 0 1 6.58-.89 28 28 0 0 1 3.3.18c1.09.12 2.17.36 3.24.55h-.45a29.05 29.05 0 0 1 6.12.05 31.8 31.8 0 0 1 5.89 1.22c1 .27 1.88.67 2.81 1s1.83.82 2.68 1.34c.42.25.87.48 1.28.75l1.23.91a29.19 29.19 0 0 1 2.32 1.9zm-.31.16-1.19-.75a11.67 11.67 0 0 0 -1.21-.71l-1.29-.69c-.42-.22-.88-.39-1.31-.59-.86-.41-1.79-.68-2.68-1s-1.83-.54-2.77-.71a29.69 29.69 0 0 0 -5.63-.7 27.4 27.4 0 0 0 -5.55.32h-.13-.32c-1-.09-2-.26-3-.32a22.79 22.79 0 0 0 -3 0 23 23 0 0 0 -5.73 1.09 21.27 21.27 0 0 0 -5.28 2.44 25.16 25.16 0 0 0 -2.34 1.72 17.44 17.44 0 0 0 -2 1.94l.41-1.1.08 8v8l-.21 16v-.28a136.63 136.63 0 0 0 4 16.54 71.94 71.94 0 0 0 6.52 15.64 31.74 31.74 0 0 0 5.14 6.7 17.17 17.17 0 0 0 7.09 4.3c.34.09.67.21 1 .27l1 .16a6.11 6.11 0 0 0 1 .11 5.47 5.47 0 0 0 1 0 6.64 6.64 0 0 0 3.55-1.66 12.11 12.11 0 0 0 2.57-3.15 27.8 27.8 0 0 0 1.83-3.76c2-5.24 3-10.89 3.93-16.49s1.58-11.29 2.12-17 1-11.41 1.35-17.14l.54-8.61.24-4.3.12-2.16.06-1.08v-.54-.27-.16c.1-.06.09-.12.12-.06z"/></svg>