<svg viewBox="0 0 50.54 191.06" xmlns="http://www.w3.org/2000/svg"><path d="m10.61 67.2s4 55 7 58v32s6 41 24 32l-1-21s9-23 7-49c0 0 3-43-4-54 0 0-13 19-33 2z" fill="#eace88"/><path d="m10.69 67.36c.1 0 .12-.08.12 0v.23l.06.46.13.95.24 1.82.43 3.64.9 7.26 1.73 14.53c.6 4.84 1.17 9.68 1.85 14.49.34 2.4.68 4.8 1.09 7.18.2 1.18.43 2.36.68 3.51.15.56.27 1.15.44 1.66a5.23 5.23 0 0 0 .25.71 1.6 1.6 0 0 0 .11.27s0 0 0 0l.45 1.11v8c0 2.67-.06 5.33-.09 8s-.13 5.33-.19 8l-.21 8v-.15a100.43 100.43 0 0 0 2.15 11.17c.45 1.85 1 3.67 1.62 5.47a46.47 46.47 0 0 0 2.09 5.33c1.61 3.4 3.63 6.75 6.58 9a9 9 0 0 0 5 1.91 10.56 10.56 0 0 0 5.21-1.26l-.37.63-1.48-21v-.2l.1-.27c.65-1.9 1.24-3.89 1.78-5.87s1-4 1.5-6c.93-4 1.62-8.06 2.18-12.12.31-2 .48-4.08.7-6.11s.34-4.09.36-6.13a108.57 108.57 0 0 0 -.28-12.24v-.27c.24-4.49.44-9 .53-13.55s.15-9 0-13.57-.31-9-.79-13.46a64.68 64.68 0 0 0 -1-6.57 21.25 21.25 0 0 0 -2.08-6h2.31a23.24 23.24 0 0 1 -3.46 3.66 25.59 25.59 0 0 1 -4.06 2.86 19.78 19.78 0 0 1 -9.5 2.63 20.24 20.24 0 0 1 -9.44-2.28 31 31 0 0 1 -4.12-2.48c-.64-.47-1.27-1-1.89-1.46s-1.04-.94-1.63-1.49zm-.16-.36c.64.43 1.39.89 2.09 1.41l2 1.27a28.79 28.79 0 0 0 4.15 2.09 19.91 19.91 0 0 0 8.9 1.54 17.65 17.65 0 0 0 8.4-2.83 23.65 23.65 0 0 0 3.52-2.78 22.92 22.92 0 0 0 2.9-3.32l1.2-1.74 1.11 1.78a23.85 23.85 0 0 1 2.7 6.75 61.14 61.14 0 0 1 1.32 6.87c.63 4.59 1 9.18 1.14 13.77s.22 9.17.11 13.75-.27 9.13-.61 13.73v-.27a109.32 109.32 0 0 1 .05 12.67c-.06 2.11-.32 4.2-.49 6.3s-.48 4.18-.84 6.25a122.68 122.68 0 0 1 -2.59 12.33 100.6 100.6 0 0 1 -3.89 12l.08-.47.51 21v.45l-.37.18a12 12 0 0 1 -5.92 1.27 10.47 10.47 0 0 1 -5.56-2.2 19.32 19.32 0 0 1 -4-4.32 35.45 35.45 0 0 1 -2.93-5 76.78 76.78 0 0 1 -4.16-10.83 101.58 101.58 0 0 1 -2.81-11.28v-.15l-.21-8c-.06-2.67-.16-5.33-.19-8s-.1-5.33-.1-8v-8l.46 1.11a7.71 7.71 0 0 1 -.52-.75c-.13-.24-.16-.37-.25-.56a10.13 10.13 0 0 1 -.34-1c-.2-.66-.31-1.26-.47-1.89-.25-1.23-.47-2.46-.66-3.68-.38-2.44-.71-4.87-1-7.31-.54-4.87-1-9.74-1.36-14.61s-.69-9.75-.94-14.63l-.32-7.32-.14-3.66v-1.83-.92-.69a.62.62 0 0 1 .03-.48z"/><path d="m27.61.2s15-1 20 10-4.67 55.5-4.67 55.5-10 9.86-14.68 8.68-12.65-1.18-17.65-9.18-9-46-9-46 3-15 26-19z" fill="#fff"/><path d="m27.59 0a31.34 31.34 0 0 1 10 1.22 22.22 22.22 0 0 1 4.69 2 25.17 25.17 0 0 1 2.15 1.44l1 .88a6.29 6.29 0 0 1 .92.94 12.62 12.62 0 0 1 1.59 2.12l.7 1.14c.18.41.37.84.54 1.27a23.59 23.59 0 0 1 1.12 5.13 60.84 60.84 0 0 1 .19 10.18 139.66 139.66 0 0 1 -2.89 19.92c-.6 3.27-1.36 6.53-2.07 9.76l-2.08 9.78v.16l-.11.11c-1.29 1.25-2.62 2.44-4 3.58a44.49 44.49 0 0 1 -4.34 3.27 14.26 14.26 0 0 1 -5.09 2.35 4.75 4.75 0 0 1 -1.6 0l-1.31-.25-2.62-.41a23.07 23.07 0 0 1 -10.47-3.75 17.28 17.28 0 0 1 -4-4.1 15.49 15.49 0 0 1 -1.48-2.54c-.41-.88-.69-1.75-1-2.62a103.39 103.39 0 0 1 -2.9-10.44c-.74-3.51-1.43-7-2-10.54-.29-1.76-.55-3.53-.8-5.29l-.63-5.31c-.44-3.53-.8-7.07-1.1-10.63v-.31l.05-.17a8.47 8.47 0 0 1 .39-1.2c.13-.37.29-.72.44-1.07a22.73 22.73 0 0 1 1.06-2 18.38 18.38 0 0 1 1.26-1.88 21.39 21.39 0 0 1 1.42-1.74 29.13 29.13 0 0 1 6.82-5.49 42.29 42.29 0 0 1 7.86-3.51c1.35-.45 2.75-.74 4.11-1.17zm0 .34-4.11.94c-1.34.43-2.69.83-4 1.35a29.2 29.2 0 0 0 -3.79 1.8c-.6.35-1.23.66-1.81 1l-1.7 1.19a27.06 27.06 0 0 0 -5.71 5.88 16.85 16.85 0 0 0 -1.1 1.69c-.35.57-.64 1.17-.93 1.76a17.87 17.87 0 0 0 -.77 1.81 11.63 11.63 0 0 0 -.5 1.75v-.48l1.49 10.5 1.6 10.47c1.14 7 2.15 14 4.13 20.6.29.78.54 1.61.85 2.35a12.83 12.83 0 0 0 1.12 2.05 15.42 15.42 0 0 0 3.22 3.61 21.59 21.59 0 0 0 9.16 4l2.6.6c.42.09 1 .25 1.28.32a3 3 0 0 0 1 0 12.94 12.94 0 0 0 4.63-1.81 47.67 47.67 0 0 0 8.28-6.46l-.15.27a198.23 198.23 0 0 0 3.07-19.68c.71-6.61 1.35-13.2 1.79-19.75a94.18 94.18 0 0 0 .26-9.77 24.66 24.66 0 0 0 -.5-4.63l-.33-1.06-.49-1.06a11.71 11.71 0 0 0 -1.18-2 16.23 16.23 0 0 0 -7.65-5.65 27.87 27.87 0 0 0 -4.79-1.26 29.21 29.21 0 0 0 -4.93-.3z"/></svg>