<svg viewBox="0 0 39.67 128.38" xmlns="http://www.w3.org/2000/svg"><path d="m.17 4.52s4 55 7 58v32s6 41 24 32l-1-21s9-23 7-49c0 0 3-43-4-54 0 0-13 19-33 2z" fill="#eace88"/><path d="m.25 4.67c.11.06.13-.07.13.06l.03.27.05.45.12.91.23 1.78.44 3.63.89 7.23 1.73 14.57c.6 4.83 1.13 9.67 1.85 14.48.35 2.41.69 4.81 1.1 7.18.2 1.19.43 2.36.68 3.52.14.55.26 1.15.43 1.65a5.41 5.41 0 0 0 .25.72c0 .08.09.25.11.27s0 0 0 0l.46 1.11v8c0 2.66-.07 5.33-.09 8s-.13 5.33-.2 8l-.21 8v-.16a98 98 0 0 0 2.16 11.18c.45 1.85 1 3.67 1.62 5.47a48 48 0 0 0 2.11 5.28c1.6 3.4 3.62 6.75 6.58 9a8.94 8.94 0 0 0 5 1.9 10.57 10.57 0 0 0 5.21-1.25l-.37.63-1.49-21v-.21l.09-.26c.66-1.9 1.24-3.9 1.78-5.87s1.05-4 1.51-6c.93-4 1.61-8.06 2.17-12.12.32-2 .48-4.07.71-6.11s.33-4.08.35-6.13a106.1 106.1 0 0 0 -.28-12.23v-.27c.24-4.49.45-9 .53-13.56s.16-9 .05-13.56-.3-9-.78-13.47c-.25-2.22-.59-4.42-1-6.56a21.45 21.45 0 0 0 -2.08-6h2.31a23.27 23.27 0 0 1 -3.58 3.8 25.45 25.45 0 0 1 -4.05 2.81 19.8 19.8 0 0 1 -9.51 2.64 20.28 20.28 0 0 1 -9.44-2.29 31.19 31.19 0 0 1 -4.12-2.47c-.64-.47-1.26-1-1.88-1.46s-1-1-1.6-1.56zm-.16-.31c.64.43 1.39.88 2.1 1.41l1.97 1.23a30.53 30.53 0 0 0 4.16 2.13 20.05 20.05 0 0 0 8.9 1.54 17.77 17.77 0 0 0 8.4-2.84 22.34 22.34 0 0 0 3.51-2.78 22.32 22.32 0 0 0 2.87-3.32l1.23-1.73 1.11 1.77a24 24 0 0 1 2.71 6.75 66.17 66.17 0 0 1 1.32 6.88 135.93 135.93 0 0 1 1.13 13.77c.16 4.58.22 9.17.11 13.74s-.26 9.14-.6 13.73v-.26a109.13 109.13 0 0 1 0 12.66c-.06 2.11-.31 4.2-.48 6.3s-.48 4.19-.84 6.26a120.56 120.56 0 0 1 -2.6 12.33 100.54 100.54 0 0 1 -3.88 12l.07-.48.52 21v.46l-.38.17a11.9 11.9 0 0 1 -5.88 1.24 10.47 10.47 0 0 1 -5.54-2.18 19.55 19.55 0 0 1 -4-4.32 34.84 34.84 0 0 1 -2.92-5 74.42 74.42 0 0 1 -4.16-10.83 102 102 0 0 1 -2.8-11.32v-.15l-.21-8c-.06-2.67-.16-5.34-.19-8s-.1-5.34-.09-8v-8l.46 1.1a5.47 5.47 0 0 1 -.52-.74 4.33 4.33 0 0 1 -.25-.57 7.5 7.5 0 0 1 -.34-1c-.21-.66-.32-1.26-.47-1.89-.27-1.25-.51-2.42-.68-3.69q-.58-3.66-1-7.31c-.54-4.87-1-9.74-1.37-14.62s-.66-9.75-.92-14.62l-.31-7.33-.14-3.66-.09-1.83v-.92-.68a.69.69 0 0 1 .09-.4z"/></svg>