<svg viewBox="0 0 50.54 75.34" xmlns="http://www.w3.org/2000/svg"><path d="m27.61.2s15-1 20 10-4.67 55.5-4.67 55.5-10 9.86-14.68 8.68-12.65-1.18-17.65-9.18-9-46-9-46 3-15 26-19z" fill="#fff"/><path d="m27.59 0a31.34 31.34 0 0 1 10 1.22 22.22 22.22 0 0 1 4.69 2 25.17 25.17 0 0 1 2.15 1.44l1 .88a6.29 6.29 0 0 1 .92.94 12.62 12.62 0 0 1 1.59 2.12l.7 1.14c.18.41.37.84.54 1.27a23.59 23.59 0 0 1 1.12 5.13 60.84 60.84 0 0 1 .19 10.18 139.66 139.66 0 0 1 -2.89 19.92c-.6 3.27-1.36 6.53-2.07 9.76l-2.08 9.78v.16l-.11.11c-1.29 1.25-2.62 2.44-4 3.58a44.49 44.49 0 0 1 -4.34 3.27 14.26 14.26 0 0 1 -5.09 2.35 4.75 4.75 0 0 1 -1.6 0l-1.31-.25-2.62-.41a23.07 23.07 0 0 1 -10.47-3.75 17.28 17.28 0 0 1 -4-4.1 15.49 15.49 0 0 1 -1.48-2.54c-.41-.88-.69-1.75-1-2.62a103.39 103.39 0 0 1 -2.9-10.44c-.74-3.51-1.43-7-2-10.54-.29-1.76-.55-3.53-.8-5.29l-.63-5.31c-.44-3.53-.8-7.07-1.1-10.63v-.31l.05-.17a8.47 8.47 0 0 1 .39-1.2c.13-.37.29-.72.44-1.07a22.73 22.73 0 0 1 1.06-2 18.38 18.38 0 0 1 1.26-1.88 21.39 21.39 0 0 1 1.42-1.74 29.13 29.13 0 0 1 6.82-5.49 42.29 42.29 0 0 1 7.86-3.51c1.35-.45 2.75-.74 4.11-1.17zm0 .34-4.11.94c-1.34.43-2.69.83-4 1.35a29.2 29.2 0 0 0 -3.79 1.8c-.6.35-1.23.66-1.81 1l-1.7 1.19a27.06 27.06 0 0 0 -5.71 5.88 16.85 16.85 0 0 0 -1.1 1.69c-.35.57-.64 1.17-.93 1.76a17.87 17.87 0 0 0 -.77 1.81 11.63 11.63 0 0 0 -.5 1.75v-.48l1.49 10.5 1.6 10.47c1.14 7 2.15 14 4.13 20.6.29.78.54 1.61.85 2.35a12.83 12.83 0 0 0 1.12 2.05 15.42 15.42 0 0 0 3.22 3.61 21.59 21.59 0 0 0 9.16 4l2.6.6c.42.09 1 .25 1.28.32a3 3 0 0 0 1 0 12.94 12.94 0 0 0 4.63-1.81 47.67 47.67 0 0 0 8.28-6.46l-.15.27a198.23 198.23 0 0 0 3.07-19.68c.71-6.61 1.35-13.2 1.79-19.75a94.18 94.18 0 0 0 .26-9.77 24.66 24.66 0 0 0 -.5-4.63l-.33-1.06-.49-1.06a11.71 11.71 0 0 0 -1.18-2 16.23 16.23 0 0 0 -7.65-5.65 27.87 27.87 0 0 0 -4.79-1.26 29.21 29.21 0 0 0 -4.93-.3z"/></svg>