<svg viewBox="0 0 67.26 189.82" xmlns="http://www.w3.org/2000/svg"><path d="m16.61 74.61c.3 15.74 2.78 102.75 21 114.56 0 0 16 3 15-22l3.87-94.93a2.73 2.73 0 0 0 -2.93-2.84l-34.55 2.6a2.58 2.58 0 0 0 -2.39 2.61z" fill="#eace88"/><path d="m16.78 74.61.22 7.39c.1 2.47.26 4.93.41 7.39.36 4.92.8 9.84 1.28 14.74s1.06 9.81 1.6 14.7l1.71 14.66c.58 4.88 1.18 9.76 1.85 14.62s1.42 9.72 2.38 14.53a95.65 95.65 0 0 0 3.85 14.17 39.31 39.31 0 0 0 3.09 6.6 16.1 16.1 0 0 0 4.71 5.31l-.19-.08a12 12 0 0 0 3.63-.11 9.61 9.61 0 0 0 1.76-.51 8.27 8.27 0 0 0 1.65-.77 11.48 11.48 0 0 0 4.75-5.38 19.56 19.56 0 0 0 1.26-3.46c.14-.6.23-1.23.35-1.83a14.49 14.49 0 0 0 .28-1.85c.07-1.25.23-2.49.21-3.74l-.09-3.77v-.09c.06-5.76.19-11.51.33-17.27s.32-11.51.49-17.26l.54-17.26c.24-5.75.41-11.5.71-17.25s.54-11.5.9-17.25c.16-2.87.39-5.74.58-8.61a1.4 1.4 0 0 0 -1.23-1.56 7.43 7.43 0 0 0 -.93 0h-1.08l-2.16.08-17.27.65c-2.88.11-5.75.3-8.62.44l-4.31.28a2.65 2.65 0 0 0 -1.86.65 2.43 2.43 0 0 0 -.8 1.84zm-.35 0a2.81 2.81 0 0 1 .86-2.08 3.09 3.09 0 0 1 2.1-.79l4.3-.36c2.86-.29 5.73-.53 8.59-.86l17.18-1.92 2.14-.25 1.07-.12a8.79 8.79 0 0 1 1.23-.1 4 4 0 0 1 2.85 1.26 4.14 4.14 0 0 1 1.12 2.94c0 2.88 0 5.76-.13 8.64-.11 5.75-.33 11.5-.51 17.26s-.46 11.5-.69 17.25l-.88 17.25c-.29 5.75-.56 11.5-.92 17.24s-.66 11.5-1.07 17.24v-.09l-.1 3.93c-.06 1.31-.28 2.61-.42 3.92a16.66 16.66 0 0 1 -.39 1.94c-.15.64-.28 1.29-.46 1.93a22.79 22.79 0 0 1 -1.53 3.69 13.36 13.36 0 0 1 -5.48 5.76 12.91 12.91 0 0 1 -7.82 1.41h-.1l-.1-.06a14 14 0 0 1 -2.83-2.64 21.86 21.86 0 0 1 -2.22-3 48.14 48.14 0 0 1 -3.33-6.71 114.52 114.52 0 0 1 -4.63-14.18 212.3 212.3 0 0 1 -5.4-29.23c-.56-4.92-1-9.85-1.3-14.79s-.44-9.89-.59-14.83-.2-9.88-.26-14.82z"/><path d="m32.57.17s32 6 33 15c.77 6.94-1.23 39.11-11 52-2.91 3.84-6.92 3-11.22 3-18.78 0-21.78 2-26.78-1s-20-39-13-53 29-16 29-16z" fill="#fff"/><path d="m32.58 0a111.35 111.35 0 0 1 13.7 2.58c2.25.57 4.5 1.21 6.71 2a49.42 49.42 0 0 1 6.56 2.69 18.6 18.6 0 0 1 6 4.43 7.31 7.31 0 0 1 1.1 1.85 6.57 6.57 0 0 1 .45 2.1c.12 1.25.12 2.41.14 3.6a103 103 0 0 1 -1 14 108.4 108.4 0 0 1 -7.17 27l-.69 1.6-.82 1.56-.82 1.55-1 1.47a17.46 17.46 0 0 1 -1 1.47 7.33 7.33 0 0 1 -1.31 1.3 7.91 7.91 0 0 1 -3.36 1.53 17.39 17.39 0 0 1 -3.57.3c-1.18 0-2.31 0-3.45 0-2.3.08-4.6.17-6.9.31s-4.58.33-6.88.52-4.58.45-7 .44a13.38 13.38 0 0 1 -3.81-.54 11.26 11.26 0 0 1 -1.83-.73l-.85-.45a6.56 6.56 0 0 1 -.95-.75 16.26 16.26 0 0 1 -2.37-3c-.66-1-1.25-2-1.82-3.1a98.36 98.36 0 0 1 -5.64-12.99c-.81-2.2-1.52-4.44-2.15-6.7s-1.26-4.54-1.7-6.86a51 51 0 0 1 -1-14.27 21.21 21.21 0 0 1 1.91-7.22 22.27 22.27 0 0 1 4.46-5.89 27.93 27.93 0 0 1 5.83-4.26 39 39 0 0 1 6.49-2.88 48.84 48.84 0 0 1 6.79-1.79 45.84 45.84 0 0 1 6.95-.87zm0 .35a59.3 59.3 0 0 0 -13.07 4 33.49 33.49 0 0 0 -11 7.41 19.76 19.76 0 0 0 -3.62 5.24 18 18 0 0 0 -1.34 6.15 50.69 50.69 0 0 0 1.26 13.29 112 112 0 0 0 3.59 13.1 96.49 96.49 0 0 0 5.15 12.56c.51 1 1 2 1.62 2.92a15.41 15.41 0 0 0 1.83 2.49 3.61 3.61 0 0 0 .38.35l.66.38a8.16 8.16 0 0 0 1.36.6 11.74 11.74 0 0 0 3 .57c2.17.11 4.49 0 6.8 0s4.63-.08 7-.06 4.63 0 6.95.1a35.85 35.85 0 0 0 6.79 0 6.48 6.48 0 0 0 2.91-1.24 9.06 9.06 0 0 0 2.12-2.49l.94-1.41.77-1.52.77-1.52.55-1.59a67.41 67.41 0 0 0 3.61-13.21c.8-4.51 1.3-9.06 1.72-13.62s.71-9.12.8-13.65c0-1.11 0-2.26-.06-3.32a3.26 3.26 0 0 0 -.08-.72 1.63 1.63 0 0 0 -.15-.54 4.82 4.82 0 0 0 -.64-1.13 16.64 16.64 0 0 0 -4.95-3.85 81 81 0 0 0 -12.5-5.28c-4.33-1.47-8.75-2.79-13.19-4.01z"/></svg>