<svg viewBox="0 0 41.44 121.69" xmlns="http://www.w3.org/2000/svg"><path d="m.18 6.48c.3 15.74 2.82 102.74 20.96 114.52 0 0 16 3 15-22l3.86-94.9a2.72 2.72 0 0 0 -2.93-2.83l-34.5 2.59a2.57 2.57 0 0 0 -2.39 2.62z" fill="#eace88"/><path d="m.35 6.47.23 7.4c.11 2.46.27 4.92.42 7.39.36 4.92.8 9.83 1.27 14.74s1.07 9.8 1.6 14.69l1.68 14.67q.86 7.32 1.85 14.64c.6 4.85 1.42 9.7 2.38 14.51a94.61 94.61 0 0 0 3.84 14.16 39.77 39.77 0 0 0 3.1 6.6 16.12 16.12 0 0 0 4.71 5.32l-.19-.08a12 12 0 0 0 3.63-.12 10.71 10.71 0 0 0 1.76-.5 9.17 9.17 0 0 0 1.65-.77 11.52 11.52 0 0 0 4.72-5.38 21.74 21.74 0 0 0 1.26-3.47c.14-.6.23-1.22.35-1.83s.26-1.21.28-1.84c.07-1.25.23-2.49.21-3.75l-.1-3.77v-.08c.06-5.75.19-11.51.33-17.26s.32-11.51.49-17.27l.53-17.26c.25-5.75.42-11.5.72-17.25s.54-11.5.9-17.24c.16-2.88.38-5.75.58-8.62a1.41 1.41 0 0 0 -1.24-1.56c-.12 0-.59 0-.92 0h-1.08l-2.16.08-17.27.66c-2.88.1-5.75.29-8.62.44l-4.26.28a2.6 2.6 0 0 0 -1.86.65 2.37 2.37 0 0 0 -.79 1.82zm-.35.01a2.79 2.79 0 0 1 .86-2.07 3 3 0 0 1 2.14-.79l4.3-.37c2.82-.25 5.7-.52 8.55-.85l17.15-1.93 2.17-.24 1.07-.13c.39 0 .63-.09 1.23-.1a4 4 0 0 1 2.84 1.26 4.1 4.1 0 0 1 1.12 3c0 2.87 0 5.75-.12 8.63-.11 5.71-.31 11.46-.51 17.21s-.47 11.5-.69 17.26l-.88 17.24c-.29 5.75-.56 11.5-.92 17.25s-.66 11.49-1.07 17.23v-.08l-.1 3.92c-.06 1.31-.29 2.62-.42 3.92a15.86 15.86 0 0 1 -.39 1.94c-.16.65-.28 1.3-.46 1.93a22.42 22.42 0 0 1 -1.53 3.69 13.5 13.5 0 0 1 -5.48 5.77 12.91 12.91 0 0 1 -7.82 1.4h-.1l-.1-.07a14.26 14.26 0 0 1 -2.84-2.59 23 23 0 0 1 -2.22-3.07 48.64 48.64 0 0 1 -3.32-6.71 114.37 114.37 0 0 1 -4.63-14.13 212.72 212.72 0 0 1 -5.4-29.24c-.56-4.92-1-9.85-1.3-14.79s-.45-9.92-.59-14.86-.2-9.89-.26-14.82z"/></svg>