<svg viewBox="0 0 70.37 73.95" xmlns="http://www.w3.org/2000/svg"><path d="m36.38.17s-18 11-29 14-3 29-3 29 5 29 12 30 38-3 38-3 16-25 14-36-3-17-12-25a38.56 38.56 0 0 0 -20-9z" fill="#fff"/><path d="m36.42.34c-2.09 1.5-4.4 3-6.65 4.4s-4.57 2.78-6.92 4.07-4.74 2.52-7.18 3.66a56.7 56.7 0 0 1 -7.61 3c-.36.11-.55.21-.81.3a3.73 3.73 0 0 0 -.69.35 5 5 0 0 0 -1.17 1 7.84 7.84 0 0 0 -1.53 2.88 23.89 23.89 0 0 0 -.7 7.39 80.42 80.42 0 0 0 2.38 15.4v.14c.41 2.91.92 5.84 1.5 8.74s1.24 5.79 2.09 8.62a43.34 43.34 0 0 0 3.23 8.19 11.69 11.69 0 0 0 2.64 3.39 3 3 0 0 0 1.73.75c.71 0 1.43.1 2.17.08 2.93 0 5.89-.29 8.84-.58s5.9-.66 8.84-1.06l17.64-2.45-1.12.71a144.83 144.83 0 0 0 10.04-19.72 50.93 50.93 0 0 0 3.24-10.3 14.36 14.36 0 0 0 .19-4.95c-.31-1.84-.63-3.68-1-5.49a35.39 35.39 0 0 0 -3.21-10.21 27.91 27.91 0 0 0 -2.94-4.43 46.37 46.37 0 0 0 -3.7-4 36.76 36.76 0 0 0 -8.9-6.22 40.58 40.58 0 0 0 -10.4-3.66zm-.08-.34a29.83 29.83 0 0 1 5.66.85 38.68 38.68 0 0 1 5.45 1.71 35.78 35.78 0 0 1 9.9 5.87 34.62 34.62 0 0 1 7.7 8.74 37.81 37.81 0 0 1 4 11c.4 1.86.75 3.71 1.11 5.55a18 18 0 0 1 -.07 6.22 52 52 0 0 1 -3.52 11.06 145.07 145.07 0 0 1 -10.87 20l-.4.64-.72.07c-5.94.66-11.87 1.2-17.83 1.56s-11.9.77-17.93.64c-.75 0-1.52-.09-2.29-.17a4.34 4.34 0 0 1 -2.28-1 12.71 12.71 0 0 1 -2.79-3.74 55.2 55.2 0 0 1 -3.46-8.3 166.28 166.28 0 0 1 -4.82-17.32v.15a68.23 68.23 0 0 1 -2.08-7.87 50 50 0 0 1 -1.1-8.13 24.21 24.21 0 0 1 .9-8.43 10.69 10.69 0 0 1 2.24-4 7.28 7.28 0 0 1 1.96-1.55 5.81 5.81 0 0 1 1.11-.5c.37-.13.81-.28 1.08-.35a65.06 65.06 0 0 0 7.38-2.54c2.45-1 4.86-2.06 7.27-3.15 4.84-2.22 9.53-4.56 14.4-7.01z"/></svg>