<svg viewBox="0 0 102.87 205.88" xmlns="http://www.w3.org/2000/svg"><path d="m17.21 71.19v115s6 16 12 13 9-17 9-17-2-69 18-78c0 0 8 3 14 34s9 66 9 66 17 4 21-33-8-104-11-105-6 12-72 5z" fill="#eace88"/><path d="m17.32 71.32.55 29.12.45 28.75c.17 9.56.23 19 .33 28.55l.13 28.45-.1-.55a44.19 44.19 0 0 0 4.24 8.36 14.33 14.33 0 0 0 2.87 3.26 3.87 3.87 0 0 0 1.53.77 1.92 1.92 0 0 0 1.35-.25 8.83 8.83 0 0 0 3-2.89 25.53 25.53 0 0 0 2.24-4 50.76 50.76 0 0 0 3.09-8.97v.31c-.05-6.95.19-13.85.63-20.76s1.12-13.78 2.16-20.63a122.41 122.41 0 0 1 4.53-20.25 47.29 47.29 0 0 1 4.24-9.54 18 18 0 0 1 7.44-7.38l.24-.11.2.1a8.61 8.61 0 0 1 2.68 2.26 21.41 21.41 0 0 1 2 2.7 41.64 41.64 0 0 1 3 5.85c.43 1 .87 2 1.23 3s.78 2 1.11 3.09.7 2.07 1 3.11l.91 3.14c2.35 8.42 3.85 17 5.41 25.54s2.86 17.15 4 25.76 2.18 17.24 3 25.91l-1.22-1.41a7.44 7.44 0 0 0 1.32.06 9.22 9.22 0 0 0 1.47-.18 10.15 10.15 0 0 0 2.84-1 9.4 9.4 0 0 0 1.32-.79l.64-.43c.21-.16.39-.35.59-.52.38-.36.79-.68 1.16-1.06l1-1.22a33.81 33.81 0 0 0 5.7-11.84c.3-1.09.65-2.15.89-3.26l.68-3.33.33-1.67.23-1.69.45-3.39a127 127 0 0 0 .87-13.69c.2-9.18-.25-18.41-.91-27.61s-1.64-18.39-2.85-27.55-2.58-18.31-4.47-27.32c-.48-2.24-1-4.49-1.64-6.63-.16-.53-.34-1-.53-1.53a6.34 6.34 0 0 0 -.27-.61l-.06-.09s0 0 0 0 .06 0 .13.1a.86.86 0 0 0 .24.11h.07c.22-.06-.32.1-.77.38l-1.53.86a42 42 0 0 1 -13.58 4.29 111.67 111.67 0 0 1 -14 1.16q-7 .17-14-.17c-4.64-.24-9.28-.56-13.9-1-2.31-.2-4.62-.47-6.93-.71s-4.4-.65-6.73-.96zm-.23-.26 7.07.46c2.31.15 4.62.33 6.93.43 4.63.26 9.25.4 13.88.45 9.23.09 18.51-.16 27.51-1.79a41.63 41.63 0 0 0 12.74-4.21l1.48-.87c.12-.08.27-.16.42-.24a4.5 4.5 0 0 1 .49-.24 3 3 0 0 1 1.55-.28 4.26 4.26 0 0 1 .49.1 2.82 2.82 0 0 1 .42.22 1.18 1.18 0 0 1 .29.24 2.49 2.49 0 0 1 .3.36l.18.27a8.35 8.35 0 0 1 .47 1c.24.6.45 1.17.63 1.75.73 2.29 1.29 4.55 1.83 6.83 2.09 9.12 3.64 18.29 5 27.49 2.58 18.43 4.4 37 4 55.72a127.62 127.62 0 0 1 -1 14l-.51 3.5-.25 1.75-.37 1.74-.74 3.47c-.27 1.16-.65 2.29-1 3.44-1.41 4.54-3.25 9.1-6.45 13s-7.92 7-13.67 6.13l-1.11-.17-.11-1.24c-.72-8.61-1.58-17.24-2.57-25.84s-1.99-17.24-3.29-25.8q-.95-6.43-2.08-12.82c-.35-2.14-.81-4.25-1.22-6.37s-.92-4.22-1.45-6.31a84.06 84.06 0 0 0 -4-12.26 41.86 41.86 0 0 0 -2.89-5.71 20.71 20.71 0 0 0 -1.85-2.57 11.34 11.34 0 0 0 -1.06-1.13 5.81 5.81 0 0 0 -1.14-.83h.44a16.92 16.92 0 0 0 -7.06 6.87 45.78 45.78 0 0 0 -4.09 9.34 111.49 111.49 0 0 0 -4.2 20.1c-.84 6.82-1.31 13.68-1.56 20.54s-.28 13.76 0 20.59v.15.15a53.51 53.51 0 0 1 -3 9.56 25.37 25.37 0 0 1 -2.54 4.51 11.57 11.57 0 0 1 -3.94 3.86 4.87 4.87 0 0 1 -3.33.6 6.66 6.66 0 0 1 -2.83-1.29 16.75 16.75 0 0 1 -3.6-4 47.33 47.33 0 0 1 -4.61-9l-.1-.26v-.3l.13-29c.11-9.66.16-19.34.33-29l.45-28.75z"/><path d="m.21 20.19 2.61-2.61a2 2 0 0 1 2.77 0l7.62 7.61v-13l12.84-9.41a4.7 4.7 0 0 1 4.62-.55l16.54 7a111.62 111.62 0 0 1 4 20c.87 9.62-.47 19.47 1 18 3-3-3-38-3-38s5-4 19-8 29 15 29 15c6 25-7 42-8 48s-57 13-72 5-17-48-17-48z" fill="#fff"/><path d="m0 20.13 1.5-1.64.76-.83a3 3 0 0 1 .93-.79 2.33 2.33 0 0 1 2.49.25c.61.54 1.09 1 1.64 1.52l6.39 6-1.32.54-.31-13v-.53l.46-.34 7.71-5.87 3.86-2.92 1-.73a6.15 6.15 0 0 1 5.89-.95l.63.25.56.23 2.24.91 4.48 1.83 8.89 3.71.67.28.21.69c1 3.17 1.76 6.3 2.42 9.51a88.08 88.08 0 0 1 1.51 9.75 80.75 80.75 0 0 1 .31 9.82l-.14 4.85c0 .8-.05 1.6-.05 2.38v1.11a3.82 3.82 0 0 0 .05.45s0 0 0 .05 0 0 0 0l-.08-.1a.62.62 0 0 0 -.22-.15.88.88 0 0 0 -.43-.14 1.31 1.31 0 0 0 -.33 0 1.22 1.22 0 0 0 -.23.1.34.34 0 0 0 -.09.08s0 0 0 0v-.09l.07-.18a5.33 5.33 0 0 0 .23-1 20.17 20.17 0 0 0 .2-2.27c.06-1.56 0-3.16 0-4.75-.13-3.19-.4-6.4-.7-9.6-.63-6.41-1.5-12.8-2.54-19.15l-.05-.41.25-.18a38.08 38.08 0 0 1 6.14-3.44c2.1-1 4.25-1.82 6.42-2.6s4.35-1.49 6.58-2.16a16.87 16.87 0 0 1 7.1-.43 30.33 30.33 0 0 1 12.75 5.81 59.77 59.77 0 0 1 10.3 9.5l.16.19.06.27.63 2.72a25.73 25.73 0 0 1 .53 2.78 50.58 50.58 0 0 1 .57 5.64 54.4 54.4 0 0 1 -.54 11.33c-1.06 7.52-3.9 14.69-6.9 21.41-.37.84-.72 1.66-1 2.48l-.42 1.2-.33 1.31a4.06 4.06 0 0 1 -1.46 2 9.68 9.68 0 0 1 -1.45.87 23.46 23.46 0 0 1 -2.78 1.19 73 73 0 0 1 -11 2.8 177.08 177.08 0 0 1 -22.22 2.59 133.26 133.26 0 0 1 -22.41-.41 44.48 44.48 0 0 1 -11.18-2.53 16.34 16.34 0 0 1 -5.07-3.25 23.13 23.13 0 0 1 -3.69-4.56 46.12 46.12 0 0 1 -4.65-10.36 91.6 91.6 0 0 1 -2.76-10.85c-.71-3.66-1.24-7.32-1.58-11.03q-.29-2.76-.47-5.54c-.07-.92-.1-1.84-.14-2.75a22.52 22.52 0 0 1 -.05-2.87zm.33.13c0 .84.12 1.75.23 2.68l.34 2.74c.23 1.83.5 3.65.79 5.47.62 3.63 1.38 7.24 2.21 10.85a91.79 91.79 0 0 0 3.1 10.45 44.62 44.62 0 0 0 4.79 9.63 20.64 20.64 0 0 0 3.4 3.92 13.47 13.47 0 0 0 4.26 2.58 42 42 0 0 0 10.44 2c3.6.33 7.25.4 10.9.39s7.3-.16 11-.4a202.51 202.51 0 0 0 21.71-2.57 78.18 78.18 0 0 0 10.5-2.5 17.7 17.7 0 0 0 2.33-1 5.2 5.2 0 0 0 .92-.55c.23-.15.35-.38.25-.16 0 0 0 .11 0 0v-.2l.1-.4.22-.81.52-1.4c.36-.9.75-1.77 1.13-2.61 1.54-3.38 3-6.67 4.24-10.09a61.88 61.88 0 0 0 2.79-10.42 56.23 56.23 0 0 0 -.5-21.39l.22.47a57 57 0 0 0 -9.52-9.5 29 29 0 0 0 -11.85-5.88 14.69 14.69 0 0 0 -6.53.24c-2.2.62-4.39 1.25-6.54 2s-4.28 1.61-6.35 2.54a34.56 34.56 0 0 0 -5.88 3.28l.19-.52c1.09 6.37 2.11 12.75 3 19.15.45 3.21.86 6.42 1.13 9.67.13 1.62.24 3.25.24 4.91a20.42 20.42 0 0 1 -.11 2.56 7.88 7.88 0 0 1 -.27 1.39l-.14.38-.08.2-.15.24a4.52 4.52 0 0 1 -.34.46 2.91 2.91 0 0 1 -.33.26 1.37 1.37 0 0 1 -.37.15 1.07 1.07 0 0 1 -.47.05 1.61 1.61 0 0 1 -.58-.16 1.92 1.92 0 0 1 -.27-.26l-.19-.1-.06-.1-.1-.19a1.37 1.37 0 0 1 -.12-.29 2 2 0 0 1 -.07-.25 6.24 6.24 0 0 1 -.13-.75c0-.46-.07-.87-.09-1.3 0-.83-.05-1.65-.06-2.46v-4.82a93.36 93.36 0 0 0 -.55-9.5 117.48 117.48 0 0 0 -3.9-18.69l.88 1-8.91-3.84-4.44-1.93-2.26-.96-1-.45a4 4 0 0 0 -.83-.21 3.34 3.34 0 0 0 -1.68.25 3.48 3.48 0 0 0 -.79.46l-1 .71-3.94 2.8-7.91 5.59.44-.88-.31 13-.05 1.91-1.27-1.36-6-6.4-1.49-1.56a1.61 1.61 0 0 0 -1.64-.27 2.6 2.6 0 0 0 -.77.57l-.76.72z"/></svg>