<svg viewBox="0 0 87.23 141.13" xmlns="http://www.w3.org/2000/svg"><path d="m1.57 6.44v115s6 16 12 13 9-17 9-17-2-69 18-78c0 0 8 3 14 34s9 66 9 66 17 4 21-33-8-104-11-105-6 12-72 5z" fill="#eace88"/><path d="m1.69 6.57.55 29.11.45 28.75c.17 9.57.22 19.05.31 28.57l.12 28.46-.1-.55a45 45 0 0 0 4.24 8.33 14.15 14.15 0 0 0 2.88 3.26 3.64 3.64 0 0 0 1.52.77 1.89 1.89 0 0 0 1.34-.27 8.92 8.92 0 0 0 3-2.89 25.43 25.43 0 0 0 2.24-4 50.91 50.91 0 0 0 3.07-8.93v.3c-.05-7 .19-13.84.62-20.75s1.07-13.8 2.15-20.64a122.52 122.52 0 0 1 4.53-20.26 47.22 47.22 0 0 1 4.24-9.54 18 18 0 0 1 7.49-7.38l.24-.11.19.1a8.54 8.54 0 0 1 2.69 2.27 20.61 20.61 0 0 1 2 2.69 42.72 42.72 0 0 1 3 5.85c.43 1 .87 2 1.23 3s.78 2 1.1 3.08.71 2.07 1 3.11l.91 3.15c2.35 8.41 3.85 17 5.41 25.53s2.85 17.15 4 25.76 2.19 17.24 3 25.91l-1.22-1.41a8.39 8.39 0 0 0 1.32.07 9.24 9.24 0 0 0 1.47-.19 10.26 10.26 0 0 0 2.84-1 7.36 7.36 0 0 0 1.31-.79l.65-.43c.2-.16.39-.34.59-.52.38-.35.79-.68 1.16-1.06l1-1.21a33.77 33.77 0 0 0 5.77-11.81c.29-1.08.65-2.15.89-3.25l.67-3.34.34-1.66.23-1.7.45-3.38a132.75 132.75 0 0 0 .87-13.7c.19-9.18-.25-18.4-.91-27.61s-1.65-18.39-2.85-27.55-2.56-18.31-4.46-27.31c-.48-2.25-1-4.49-1.64-6.63-.16-.54-.33-1.06-.52-1.53a3.57 3.57 0 0 0 -.28-.61l-.05-.1a1.54 1.54 0 0 0 .13.11.72.72 0 0 0 .24.1h.07c.22-.06-.32.1-.77.38l-1.51.88a42.07 42.07 0 0 1 -13.65 4.2 111.81 111.81 0 0 1 -14 1.15c-4.67.12-9.33.05-14-.17s-9.28-.56-13.9-1c-2.31-.2-4.62-.46-6.93-.71s-4.42-.6-6.73-.9zm-.23-.26 7.06.46c2.32.14 4.63.32 6.94.42 4.62.27 9.25.4 13.87.45 9.23.1 18.52-.16 27.52-1.78a41.76 41.76 0 0 0 12.73-4.22l1.49-.87.42-.24c.13-.07.3-.16.49-.24a3 3 0 0 1 1.54-.29l.49.1a3.48 3.48 0 0 1 .43.22 1.71 1.71 0 0 1 .29.25 3.11 3.11 0 0 1 .3.35l.17.28a7.54 7.54 0 0 1 .47 1c.25.6.45 1.18.64 1.75.69 2.25 1.29 4.52 1.83 6.8 2.08 9.11 3.64 18.28 5 27.48 2.58 18.43 4.39 37 4 55.72a127.64 127.64 0 0 1 -1 14l-.5 3.5-.25 1.75-.34 1.8-.74 3.47c-.27 1.16-.66 2.3-1 3.44a37 37 0 0 1 -6.45 13c-3.13 3.79-7.93 7-13.67 6.12l-1.12-.16-.1-1.25c-.72-8.61-1.59-17.24-2.57-25.84s-2.05-17.25-3.33-25.78q-.94-6.46-2.07-12.85c-.35-2.14-.82-4.24-1.22-6.37s-.93-4.21-1.45-6.3a84.18 84.18 0 0 0 -4-12.27 40.81 40.81 0 0 0 -2.9-5.71 20.35 20.35 0 0 0 -1.84-2.57 14.28 14.28 0 0 0 -1.06-1.13 6.12 6.12 0 0 0 -1.16-.8h.44a16.94 16.94 0 0 0 -7.06 6.88 45.16 45.16 0 0 0 -4.09 9.33 111.6 111.6 0 0 0 -4.2 20.11c-.84 6.77-1.31 13.68-1.56 20.5s-.28 13.75 0 20.58v.15.16a53.41 53.41 0 0 1 -3 9.55 26.35 26.35 0 0 1 -2.43 4.52 11.59 11.59 0 0 1 -3.94 3.87 5 5 0 0 1 -3.33.6 6.71 6.71 0 0 1 -2.9-1.25 16.92 16.92 0 0 1 -3.59-4 47.33 47.33 0 0 1 -4.61-9l-.1-.26v-.29l.12-29c.11-9.66.16-19.34.34-28.95l.45-28.81z"/></svg>