<svg viewBox="0 0 100.18 74.56" xmlns="http://www.w3.org/2000/svg"><path d="m.21 20.19 2.61-2.61a2 2 0 0 1 2.77 0l7.62 7.61v-13l12.84-9.41a4.7 4.7 0 0 1 4.62-.55l16.54 7a111.62 111.62 0 0 1 4 20c.87 9.62-.47 19.47 1 18 3-3-3-38-3-38s5-4 19-8 29 15 29 15c6 25-7 42-8 48s-57 13-72 5-17-48-17-48z" fill="#fff"/><path d="m0 20.13 1.5-1.64.76-.83a3 3 0 0 1 .93-.79 2.33 2.33 0 0 1 2.49.25c.61.54 1.09 1 1.64 1.52l6.39 6-1.32.54-.31-13v-.53l.46-.34 7.71-5.87 3.86-2.92 1-.73a6.15 6.15 0 0 1 5.89-.95l.63.25.56.23 2.24.91 4.48 1.83 8.89 3.71.67.28.21.69c1 3.17 1.76 6.3 2.42 9.51a88.08 88.08 0 0 1 1.51 9.75 80.75 80.75 0 0 1 .31 9.82l-.14 4.85c0 .8-.05 1.6-.05 2.38v1.11a3.82 3.82 0 0 0 .05.45s0 0 0 .05 0 0 0 0l-.08-.1a.62.62 0 0 0 -.22-.15.88.88 0 0 0 -.43-.14 1.31 1.31 0 0 0 -.33 0 1.22 1.22 0 0 0 -.23.1.34.34 0 0 0 -.09.08s0 0 0 0v-.09l.07-.18a5.33 5.33 0 0 0 .23-1 20.17 20.17 0 0 0 .2-2.27c.06-1.56 0-3.16 0-4.75-.13-3.19-.4-6.4-.7-9.6-.63-6.41-1.5-12.8-2.54-19.15l-.05-.41.25-.18a38.08 38.08 0 0 1 6.14-3.44c2.1-1 4.25-1.82 6.42-2.6s4.35-1.49 6.58-2.16a16.87 16.87 0 0 1 7.1-.43 30.33 30.33 0 0 1 12.75 5.81 59.77 59.77 0 0 1 10.3 9.5l.16.19.06.27.63 2.72a25.73 25.73 0 0 1 .53 2.78 50.58 50.58 0 0 1 .57 5.64 54.4 54.4 0 0 1 -.54 11.33c-1.06 7.52-3.9 14.69-6.9 21.41-.37.84-.72 1.66-1 2.48l-.42 1.2-.33 1.31a4.06 4.06 0 0 1 -1.46 2 9.68 9.68 0 0 1 -1.45.87 23.46 23.46 0 0 1 -2.78 1.19 73 73 0 0 1 -11 2.8 177.08 177.08 0 0 1 -22.22 2.59 133.26 133.26 0 0 1 -22.41-.41 44.48 44.48 0 0 1 -11.18-2.53 16.34 16.34 0 0 1 -5.07-3.25 23.13 23.13 0 0 1 -3.69-4.56 46.12 46.12 0 0 1 -4.65-10.36 91.6 91.6 0 0 1 -2.76-10.85c-.71-3.66-1.24-7.32-1.58-11.03q-.29-2.76-.47-5.54c-.07-.92-.1-1.84-.14-2.75a22.52 22.52 0 0 1 -.05-2.87zm.33.13c0 .84.12 1.75.23 2.68l.34 2.74c.23 1.83.5 3.65.79 5.47.62 3.63 1.38 7.24 2.21 10.85a91.79 91.79 0 0 0 3.1 10.45 44.62 44.62 0 0 0 4.79 9.63 20.64 20.64 0 0 0 3.4 3.92 13.47 13.47 0 0 0 4.26 2.58 42 42 0 0 0 10.44 2c3.6.33 7.25.4 10.9.39s7.3-.16 11-.4a202.51 202.51 0 0 0 21.71-2.57 78.18 78.18 0 0 0 10.5-2.5 17.7 17.7 0 0 0 2.33-1 5.2 5.2 0 0 0 .92-.55c.23-.15.35-.38.25-.16 0 0 0 .11 0 0v-.2l.1-.4.22-.81.52-1.4c.36-.9.75-1.77 1.13-2.61 1.54-3.38 3-6.67 4.24-10.09a61.88 61.88 0 0 0 2.79-10.42 56.23 56.23 0 0 0 -.5-21.39l.22.47a57 57 0 0 0 -9.52-9.5 29 29 0 0 0 -11.85-5.88 14.69 14.69 0 0 0 -6.53.24c-2.2.62-4.39 1.25-6.54 2s-4.28 1.61-6.35 2.54a34.56 34.56 0 0 0 -5.88 3.28l.19-.52c1.09 6.37 2.11 12.75 3 19.15.45 3.21.86 6.42 1.13 9.67.13 1.62.24 3.25.24 4.91a20.42 20.42 0 0 1 -.11 2.56 7.88 7.88 0 0 1 -.27 1.39l-.14.38-.08.2-.15.24a4.52 4.52 0 0 1 -.34.46 2.91 2.91 0 0 1 -.33.26 1.37 1.37 0 0 1 -.37.15 1.07 1.07 0 0 1 -.47.05 1.61 1.61 0 0 1 -.58-.16 1.92 1.92 0 0 1 -.27-.26l-.19-.1-.06-.1-.1-.19a1.37 1.37 0 0 1 -.12-.29 2 2 0 0 1 -.07-.25 6.24 6.24 0 0 1 -.13-.75c0-.46-.07-.87-.09-1.3 0-.83-.05-1.65-.06-2.46v-4.82a93.36 93.36 0 0 0 -.55-9.5 117.48 117.48 0 0 0 -3.9-18.69l.88 1-8.91-3.84-4.44-1.93-2.26-.96-1-.45a4 4 0 0 0 -.83-.21 3.34 3.34 0 0 0 -1.68.25 3.48 3.48 0 0 0 -.79.46l-1 .71-3.94 2.8-7.91 5.59.44-.88-.31 13-.05 1.91-1.27-1.36-6-6.4-1.49-1.56a1.61 1.61 0 0 0 -1.64-.27 2.6 2.6 0 0 0 -.77.57l-.76.72z"/></svg>