<svg viewBox="0 0 110.42 201.98" xmlns="http://www.w3.org/2000/svg"><path d="m13.85 66.87s82 16 87-1 9-41 9-41-8-22-28-23-24 15-24 15l1 13s-1-28-26-28-31 16-31 16-4 24 12 49z" fill="#fff"/><path d="m14 66.72 8.11 1.1c2.72.36 5.45.7 8.17 1q8.19 1 16.37 1.8c10.91 1 21.87 1.83 32.72 1.4 2.71-.13 5.4-.32 8.05-.7 1.32-.19 2.63-.43 3.91-.74a24.38 24.38 0 0 0 3.67-1.13 10.73 10.73 0 0 0 3.09-1.84 6 6 0 0 0 1-1.24l.2-.34.14-.36c.1-.2.2-.61.3-.91.82-2.6 1.59-5.23 2.3-7.87 2.87-10.57 5.35-21.3 7.26-32.11v.28a39.8 39.8 0 0 0 -3.91-7.52 39 39 0 0 0 -5.3-6.54 30 30 0 0 0 -6.73-5 26.06 26.06 0 0 0 -7.87-2.75 28.92 28.92 0 0 0 -8.31-.25c-.68.09-1.37.16-2 .28l-2 .51a14.16 14.16 0 0 0 -1.93.66l-1 .37c-.31.13-.6.31-.9.46a19.69 19.69 0 0 0 -6.28 5 15.74 15.74 0 0 0 -1.21 1.61 18.8 18.8 0 0 0 -1.05 1.72 17.46 17.46 0 0 0 -1.49 3.61v-.48q.6 6.49 1.14 13l-3.26.18a38.21 38.21 0 0 0 -1.91-9.23 29.62 29.62 0 0 0 -4.25-8.3 21 21 0 0 0 -6.81-6 22.14 22.14 0 0 0 -8.72-2.55c-.77-.11-1.56-.07-2.33-.12s-1.59 0-2.39.07-1.59 0-2.39.08l-2.37.29a39.09 39.09 0 0 0 -4.64.84c-.76.19-1.5.45-2.26.67-.37.12-.75.22-1.12.35l-1.09.45a28.32 28.32 0 0 0 -8 4.76 24.87 24.87 0 0 0 -3.23 3.34 18.76 18.76 0 0 0 -1.34 1.87 16.27 16.27 0 0 0 -1.06 1.96l.07-.28a53 53 0 0 0 -.53 6.17c0 2.1 0 4.2.12 6.3a74.82 74.82 0 0 0 1.74 12.53 81.13 81.13 0 0 0 3.76 12.14c.71 2 1.67 3.91 2.56 5.85.43 1 1 1.86 1.45 2.8zm-.2.29-1.8-2.71c-.59-.92-1.24-1.85-1.72-2.79-1-1.9-2.12-3.76-3-5.74a72.47 72.47 0 0 1 -4.51-12.17 76 76 0 0 1 -2.41-12.81 61.67 61.67 0 0 1 0-13.17v-.13l.07-.16a15.81 15.81 0 0 1 1.24-2.47 22.24 22.24 0 0 1 1.48-2.2 29.11 29.11 0 0 1 3.56-3.88 30.69 30.69 0 0 1 8.85-5.53l1.2-.51c.41-.15.83-.28 1.24-.41.82-.26 1.64-.55 2.48-.78a46.82 46.82 0 0 1 5.07-1l2.56-.33c.89-.06 1.71-.09 2.56-.13s1.7-.09 2.57-.09 1.76 0 2.63.15a25.56 25.56 0 0 1 10.13 3.01 23.78 23.78 0 0 1 8 7.1 32.94 32.94 0 0 1 4.62 9.36 41.29 41.29 0 0 1 1.27 5 35.77 35.77 0 0 1 .64 5.18l-3.31.2q-.45-6.49-.85-13v-.29l.06-.19a20.55 20.55 0 0 1 1.89-4.28 20.37 20.37 0 0 1 1.25-1.92 19 19 0 0 1 1.43-1.81 21.14 21.14 0 0 1 7.3-5.38c.35-.16.68-.34 1-.47l1.07-.36a16.68 16.68 0 0 1 2.16-.64l2.2-.45c.74-.1 1.48-.15 2.22-.22a32 32 0 0 1 8.84.51 30.15 30.15 0 0 1 15.09 8.63 43.88 43.88 0 0 1 5.44 6.87 46.18 46.18 0 0 1 4.05 7.73v.13.15c-1.84 10.86-3.65 21.72-6.07 32.5-.6 2.7-1.26 5.38-2 8.06a10.43 10.43 0 0 1 -.3 1.06l-.22.61c-.09.19-.19.38-.29.57a8 8 0 0 1 -1.51 2 13.88 13.88 0 0 1 -3.89 2.49 32.69 32.69 0 0 1 -8.34 2.21 71.78 71.78 0 0 1 -8.38.72 158.79 158.79 0 0 1 -16.63-.41q-8.21-.69-16.41-1.82c-5.47-.72-10.91-1.61-16.33-2.59-2.71-.51-5.42-1-8.11-1.59l-4.05-.82-2-.46-1-.23-.5-.12-.25-.06h-.13-.06a.33.33 0 0 1 -.15-.13z"/><path d="m14.85 68.87s-3 121-7 122 30 3 35-47 25-28 25-28 17 60 13 80c0 0 7 11 13-1s12-20 13-48 4-67-5-80c0 0-11 15-87 2z" fill="#eace88"/><path d="m15 69c0 .06.07 0 .07.1v7.19l-.07 7.41-.15 14.83q-.28 14.84-.67 29.66t-1.18 29.65c-.26 4.94-.55 9.89-.9 14.83s-.73 9.87-1.55 14.89c-.1.63-.22 1.26-.38 1.92-.08.33-.17.67-.29 1-.07.18-.14.38-.25.6a3.31 3.31 0 0 1 -.22.39l-.17.23a3.34 3.34 0 0 1 -.33.32 2 2 0 0 1 -.65.32h.09l.1-.06a1.3 1.3 0 0 0 .41-.4c.2 0 .42-1.36.06-1.61a1.36 1.36 0 0 0 -.55-.54 1.21 1.21 0 0 0 -.23-.1 6.55 6.55 0 0 0 .68 0 13.79 13.79 0 0 0 1.65-.17 26.36 26.36 0 0 0 6.68-2 34.43 34.43 0 0 0 11.34-8.41 46.35 46.35 0 0 0 7.71-12.14 69.22 69.22 0 0 0 4.38-13.91c.51-2.39.92-4.81 1.25-7.24s.6-4.91 1-7.36a85 85 0 0 1 3.25-14.56 33.11 33.11 0 0 1 3-6.89 13.68 13.68 0 0 1 5.3-5.45 8.29 8.29 0 0 1 3.78-1 10.48 10.48 0 0 1 3.82.7 17.83 17.83 0 0 1 6.33 4.26l.09.09v.15c1.87 6.54 3.53 13.12 5.22 19.71s3.22 13.21 4.61 19.87 2.65 13.36 3.56 20.14c.46 3.38.79 6.8.94 10.24a48.13 48.13 0 0 1 -.49 10.48l-.19-1.06c1.49 2.18 4.05 4.33 6 3.79a5.28 5.28 0 0 0 2.78-2.11 16.53 16.53 0 0 0 1.17-1.76l.51-1 .49-1c2.83-5.57 5.73-10.92 7.61-16.66a77.38 77.38 0 0 0 2.29-8.77c.55-3 1-6 1.32-9 .67-6.07.76-12.2 1-18.42.5-12.38 1.1-24.73 1.06-37a177.68 177.68 0 0 0 -.94-18.35 69.22 69.22 0 0 0 -1.53-8.92 26.15 26.15 0 0 0 -3.26-8.06h2.52a5.9 5.9 0 0 1 -.7.71 5.71 5.71 0 0 1 -.64.51 9.33 9.33 0 0 1 -1.29.86 23.53 23.53 0 0 1 -2.65 1.34c-.9.38-1.82.68-2.72 1s-1.84.52-2.76.78-1.85.44-2.77.63-1.86.38-2.79.53c-1.86.22-3.72.53-5.59.69a154.28 154.28 0 0 1 -22.31.13c-3.7-.3-7.41-.45-11.09-.92s-7.38-.75-11-1.35l-5.49-.81-2.75-.4-2.71-.52zm-.22-.27 11.07 1.42 2.81.37 2.75.29 5.51.59c7.34.73 14.7 1.29 22.06 1.52a159.23 159.23 0 0 0 22-.74c1.82-.19 3.61-.52 5.41-.77.89-.15 1.77-.37 2.65-.56a25.66 25.66 0 0 0 2.62-.64c.86-.26 1.73-.48 2.57-.77s1.66-.62 2.45-1a21.16 21.16 0 0 0 2.27-1.2 7.47 7.47 0 0 0 1-.69 5.67 5.67 0 0 0 .44-.36l.28-.27 1.5-1.45 1 1.49a29.37 29.37 0 0 1 3.83 9.04 73.91 73.91 0 0 1 1.79 9.34 163.57 163.57 0 0 1 1.14 18.66c.2 12.47-.43 24.87-1 37.23s-1 25.09-5.15 37.16a76.52 76.52 0 0 1 -3.69 8.74c-1.38 2.82-2.87 5.55-4.28 8.28a25.1 25.1 0 0 1 -2.52 4.24 11.69 11.69 0 0 1 -1.93 1.92 6.92 6.92 0 0 1 -2.7 1.25 6.19 6.19 0 0 1 -3-.16 8.43 8.43 0 0 1 -2.5-1.28 14.59 14.59 0 0 1 -3.53-3.78l-.32-.47.12-.59a46.1 46.1 0 0 0 .61-9.81c-.09-3.34-.34-6.7-.7-10.05-.7-6.71-1.77-13.4-3-20.06s-2.62-13.3-4.13-19.91-3.18-13.19-5-19.72l.13.23a16.67 16.67 0 0 0 -5.84-4 9.38 9.38 0 0 0 -3.41-.65 7.27 7.27 0 0 0 -3.32.84 12.74 12.74 0 0 0 -4.77 5.11 32.29 32.29 0 0 0 -2.87 6.69 82.38 82.38 0 0 0 -3 14.39c-.3 2.45-.5 4.87-.75 7.36s-.61 4.95-1.06 7.41a70.47 70.47 0 0 1 -4.13 14.43 48.24 48.24 0 0 1 -7.77 13 35.38 35.38 0 0 1 -12.11 9.38 28.7 28.7 0 0 1 -7.44 2.36 16.42 16.42 0 0 1 -2 .2 7.93 7.93 0 0 1 -1.17 0 2.72 2.72 0 0 1 -.45-.09 3.3 3.3 0 0 1 -.45-.17 1.87 1.87 0 0 1 -.63-.62c-.37-.28-.15-1.69.07-1.72a1.83 1.83 0 0 1 .49-.47 1.08 1.08 0 0 1 .21-.11l.19-.09h.11l.2-.06a1.18 1.18 0 0 0 -.45.21.61.61 0 0 0 -.16.16s0 0 0 0l.1-.26c.07-.22.14-.48.21-.75.12-.55.23-1.13.33-1.72.39-2.36.65-4.8.89-7.24s.46-4.9.65-7.35c.39-4.92.71-9.84 1-14.77.62-9.85 1.12-19.72 1.64-29.58s1-19.74 1.49-29.61l.76-14.81.37-7.4.21-3.71.1-1.85.05-.92v-.47-.23a1.07 1.07 0 0 1 .11-.38z"/></svg>