<svg viewBox="0 0 103.98 137.48" xmlns="http://www.w3.org/2000/svg"><path d="m8.86 4.37s-3 121-7 122 30 3 35-47 25-28 25-28 17 60 13 80c0 0 7 11 13-1s12-20 13-48 4-67-5-80c0 0-11 15-87 2z" fill="#eace88"/><path d="m9 4.5c0 .06.07 0 .07.1v7.19l-.07 7.42-.16 14.79q-.29 14.82-.67 29.65t-1.17 29.7c-.26 4.94-.55 9.88-.9 14.82s-.73 9.88-1.55 14.89c-.1.63-.22 1.26-.38 1.92a9.68 9.68 0 0 1 -.3 1 6.23 6.23 0 0 1 -.24.6 2.67 2.67 0 0 1 -.22.39l-.17.24a2.42 2.42 0 0 1 -.33.31 2 2 0 0 1 -.65.32h.09l.1-.06a1.27 1.27 0 0 0 .41-.39c.2 0 .42-1.37.06-1.61a1.39 1.39 0 0 0 -.55-.55 1.21 1.21 0 0 0 -.23-.1 4.58 4.58 0 0 0 .68 0 13.79 13.79 0 0 0 1.63-.13 26 26 0 0 0 6.68-2 34.43 34.43 0 0 0 11.34-8.41 46.3 46.3 0 0 0 7.71-12.13 69.63 69.63 0 0 0 4.41-13.9c.51-2.4.92-4.81 1.25-7.24s.6-4.92 1-7.36a84.9 84.9 0 0 1 3.24-14.57 33.88 33.88 0 0 1 3-6.88 13.84 13.84 0 0 1 5.28-5.51 8.35 8.35 0 0 1 3.79-1 10.27 10.27 0 0 1 3.82.69 17.83 17.83 0 0 1 6.33 4.31l.09.09v.15c1.86 6.54 3.53 13.13 5.22 19.71s3.22 13.21 4.61 19.87 2.65 13.36 3.55 20.14c.47 3.39.8 6.8 1 10.25a48.07 48.07 0 0 1 -.49 10.47l-.19-1.06c1.49 2.19 4 4.33 6 3.79a5.23 5.23 0 0 0 2.78-2.11 15.58 15.58 0 0 0 1.13-1.79l.5-1 .53-1c2.83-5.57 5.73-10.93 7.61-16.67a76.83 76.83 0 0 0 2.29-8.77c.55-3 1-6 1.32-9 .66-6.07.76-12.2 1-18.42.5-12.38 1.1-24.73 1.06-37a177.34 177.34 0 0 0 -.94-18.34 69.08 69.08 0 0 0 -1.53-8.93 26.15 26.15 0 0 0 -3.26-8.06h2.52a6.11 6.11 0 0 1 -.7.72 7.14 7.14 0 0 1 -.64.51 10.24 10.24 0 0 1 -1.29.85 24.62 24.62 0 0 1 -2.66 1.35c-.89.38-1.81.67-2.71 1s-1.84.52-2.76.78-1.85.44-2.77.63-1.86.39-2.79.53c-1.86.23-3.72.53-5.59.69a152.87 152.87 0 0 1 -22.34.13c-3.7-.29-7.41-.45-11.09-.91s-7.38-.76-11-1.35l-5.49-.81-2.78-.44-2.67-.47zm-.22-.27 11.03 1.42 2.82.35 2.75.29 5.51.58c7.34.74 14.7 1.29 22.06 1.52a157.68 157.68 0 0 0 22-.74c1.82-.18 3.61-.52 5.41-.77.89-.15 1.76-.37 2.65-.55s1.74-.33 2.59-.61 1.73-.49 2.57-.78 1.66-.62 2.45-1a19.5 19.5 0 0 0 2.27-1.2 7.47 7.47 0 0 0 1-.69c.14-.12.33-.23.44-.35l.27-.27 1.52-1.43 1 1.49a29.32 29.32 0 0 1 3.87 9 73.76 73.76 0 0 1 1.79 9.33 163.75 163.75 0 0 1 1.15 18.73c.2 12.46-.44 24.86-1 37.23s-1 25.08-5.15 37.15a76.52 76.52 0 0 1 -3.69 8.74c-1.39 2.82-2.87 5.55-4.28 8.28a24.72 24.72 0 0 1 -2.52 4.24 11.32 11.32 0 0 1 -1.93 1.92 6.78 6.78 0 0 1 -2.7 1.25 6.12 6.12 0 0 1 -3-.15 8.75 8.75 0 0 1 -2.49-1.28 14.84 14.84 0 0 1 -3.54-3.79l-.31-.46.12-.59a46.19 46.19 0 0 0 .61-9.82c-.09-3.34-.34-6.7-.7-10-.7-6.71-1.77-13.4-3-20.06s-2.62-13.29-4.13-19.91-3.18-13.18-5-19.72l.13.24a16.54 16.54 0 0 0 -5.84-4 9.4 9.4 0 0 0 -3.41-.66 7.27 7.27 0 0 0 -3.32.84 12.74 12.74 0 0 0 -4.78 5 32.29 32.29 0 0 0 -2.87 6.69 82.38 82.38 0 0 0 -3 14.39c-.3 2.45-.5 4.88-.75 7.37s-.61 4.94-1.06 7.4a70.56 70.56 0 0 1 -4.13 14.44 48.54 48.54 0 0 1 -7.77 13 35.47 35.47 0 0 1 -12.11 9.37 28.33 28.33 0 0 1 -7.44 2.36 18.84 18.84 0 0 1 -2 .21 10 10 0 0 1 -1.18 0l-.44-.08a2.47 2.47 0 0 1 -.42-.15 1.78 1.78 0 0 1 -.63-.62c-.37-.27-.15-1.69.06-1.72a2 2 0 0 1 .5-.47 2.28 2.28 0 0 1 .24-.19l.19-.08h.11l.2-.06a1.26 1.26 0 0 0 -.45.21.81.81 0 0 0 -.16.16s0 0 0 0a2.54 2.54 0 0 0 .04-.23c.07-.22.14-.48.2-.75.13-.54.24-1.13.34-1.71.39-2.36.65-4.81.89-7.25s.46-4.9.65-7.35c.39-4.91.71-9.84 1-14.76.61-9.86 1.12-19.72 1.64-29.59s1.04-19.74 1.49-29.59l.77-14.81.37-7.4.2-3.7.11-1.85.05-.93v-.46-.25a1.07 1.07 0 0 1 .11-.37z"/></svg>