<svg viewBox="0 0 110.42 75.22" xmlns="http://www.w3.org/2000/svg"><path d="m13.85 66.87s82 16 87-1 9-41 9-41-8-22-28-23-24 15-24 15l1 13s-1-28-26-28-31 16-31 16-4 24 12 49z" fill="#fff"/><path d="m14 66.72 8.11 1.1c2.72.36 5.45.7 8.17 1q8.19 1 16.37 1.8c10.91 1 21.87 1.83 32.72 1.4 2.71-.13 5.4-.32 8.05-.7 1.32-.19 2.63-.43 3.91-.74a24.38 24.38 0 0 0 3.67-1.13 10.73 10.73 0 0 0 3.09-1.84 6 6 0 0 0 1-1.24l.2-.34.14-.36c.1-.2.2-.61.3-.91.82-2.6 1.59-5.23 2.3-7.87 2.87-10.57 5.35-21.3 7.26-32.11v.28a39.8 39.8 0 0 0 -3.91-7.52 39 39 0 0 0 -5.3-6.54 30 30 0 0 0 -6.73-5 26.06 26.06 0 0 0 -7.87-2.75 28.92 28.92 0 0 0 -8.31-.25c-.68.09-1.37.16-2 .28l-2 .51a14.16 14.16 0 0 0 -1.93.66l-1 .37c-.31.13-.6.31-.9.46a19.69 19.69 0 0 0 -6.28 5 15.74 15.74 0 0 0 -1.21 1.61 18.8 18.8 0 0 0 -1.05 1.72 17.46 17.46 0 0 0 -1.49 3.61v-.48q.6 6.49 1.14 13l-3.26.18a38.21 38.21 0 0 0 -1.91-9.23 29.62 29.62 0 0 0 -4.25-8.3 21 21 0 0 0 -6.81-6 22.14 22.14 0 0 0 -8.72-2.55c-.77-.11-1.56-.07-2.33-.12s-1.59 0-2.39.07-1.59 0-2.39.08l-2.37.29a39.09 39.09 0 0 0 -4.64.84c-.76.19-1.5.45-2.26.67-.37.12-.75.22-1.12.35l-1.09.45a28.32 28.32 0 0 0 -8 4.76 24.87 24.87 0 0 0 -3.23 3.34 18.76 18.76 0 0 0 -1.34 1.87 16.27 16.27 0 0 0 -1.06 1.96l.07-.28a53 53 0 0 0 -.53 6.17c0 2.1 0 4.2.12 6.3a74.82 74.82 0 0 0 1.74 12.53 81.13 81.13 0 0 0 3.76 12.14c.71 2 1.67 3.91 2.56 5.85.43 1 1 1.86 1.45 2.8zm-.2.29-1.8-2.71c-.59-.92-1.24-1.85-1.72-2.79-1-1.9-2.12-3.76-3-5.74a72.47 72.47 0 0 1 -4.51-12.17 76 76 0 0 1 -2.41-12.81 61.67 61.67 0 0 1 0-13.17v-.13l.07-.16a15.81 15.81 0 0 1 1.24-2.47 22.24 22.24 0 0 1 1.48-2.2 29.11 29.11 0 0 1 3.56-3.88 30.69 30.69 0 0 1 8.85-5.53l1.2-.51c.41-.15.83-.28 1.24-.41.82-.26 1.64-.55 2.48-.78a46.82 46.82 0 0 1 5.07-1l2.56-.33c.89-.06 1.71-.09 2.56-.13s1.7-.09 2.57-.09 1.76 0 2.63.15a25.56 25.56 0 0 1 10.13 3.01 23.78 23.78 0 0 1 8 7.1 32.94 32.94 0 0 1 4.62 9.36 41.29 41.29 0 0 1 1.27 5 35.77 35.77 0 0 1 .64 5.18l-3.31.2q-.45-6.49-.85-13v-.29l.06-.19a20.55 20.55 0 0 1 1.89-4.28 20.37 20.37 0 0 1 1.25-1.92 19 19 0 0 1 1.43-1.81 21.14 21.14 0 0 1 7.3-5.38c.35-.16.68-.34 1-.47l1.07-.36a16.68 16.68 0 0 1 2.16-.64l2.2-.45c.74-.1 1.48-.15 2.22-.22a32 32 0 0 1 8.84.51 30.15 30.15 0 0 1 15.09 8.63 43.88 43.88 0 0 1 5.44 6.87 46.18 46.18 0 0 1 4.05 7.73v.13.15c-1.84 10.86-3.65 21.72-6.07 32.5-.6 2.7-1.26 5.38-2 8.06a10.43 10.43 0 0 1 -.3 1.06l-.22.61c-.09.19-.19.38-.29.57a8 8 0 0 1 -1.51 2 13.88 13.88 0 0 1 -3.89 2.49 32.69 32.69 0 0 1 -8.34 2.21 71.78 71.78 0 0 1 -8.38.72 158.79 158.79 0 0 1 -16.63-.41q-8.21-.69-16.41-1.82c-5.47-.72-10.91-1.61-16.33-2.59-2.71-.51-5.42-1-8.11-1.59l-4.05-.82-2-.46-1-.23-.5-.12-.25-.06h-.13-.06a.33.33 0 0 1 -.15-.13z"/></svg>