<svg viewBox="0 0 108.94 188.41" xmlns="http://www.w3.org/2000/svg"><path d="m14.34 67.94s79 5 82-4 12-40 12-40-9-24-39-21c0 0-13 5-13 11v14s6-24-25-26-30 30-30 30 5 31 13 36z" fill="#fff"/><path d="m14.39 67.78c10.33.12 20.8.23 31.18.25s20.79-.08 31.1-.77c2.57-.18 5.14-.41 7.68-.71a48.66 48.66 0 0 0 7.4-1.39 13.34 13.34 0 0 0 1.65-.58 4.7 4.7 0 0 0 1.26-.75.7.7 0 0 0 .17-.18l.07-.07a.14.14 0 0 1 0-.06s0 0 0-.07l.07-.23.16-.46.63-1.83 2.48-7.39c3.22-9.89 6.49-19.79 9.48-29.76v.36a34 34 0 0 0 -15.58-16.7 30 30 0 0 0 -5.4-2.17c-.92-.31-1.88-.5-2.81-.74s-1.93-.39-2.87-.53a45.57 45.57 0 0 0 -11.61 0h.28a41.67 41.67 0 0 0 -6.73 3.62 22.66 22.66 0 0 0 -3 2.32 8.16 8.16 0 0 0 -2 2.71 3.37 3.37 0 0 0 -.23 1.35v2l.06 4 .17 7.94-3.17-.39a21.82 21.82 0 0 0 .35-5.16 20.48 20.48 0 0 0 -.93-5.11 16.59 16.59 0 0 0 -5.85-8.19c-5.62-4.09-13.22-5.34-20.4-5.35a28.48 28.48 0 0 0 -10.34 1.92 22.92 22.92 0 0 0 -4.52 2.57 22.92 22.92 0 0 0 -3.77 3.6 28.15 28.15 0 0 0 -4.93 9.41 38.19 38.19 0 0 0 -1.77 10.66v-.17a175.17 175.17 0 0 0 3.8 18.93 85.85 85.85 0 0 0 2.91 9.18 33.68 33.68 0 0 0 2.06 4.33 12.2 12.2 0 0 0 2.95 3.61zm-.11.33a11.77 11.77 0 0 1 -3.49-3.54 34.29 34.29 0 0 1 -2.42-4.3 72.9 72.9 0 0 1 -3.55-9.14c-1-3.13-1.82-6.25-2.66-9.41s-1.52-6.33-2.16-9.57v-.07-.08a38.08 38.08 0 0 1 .35-5.9 40.53 40.53 0 0 1 1.16-5.74 31 31 0 0 1 5.23-10.63 26 26 0 0 1 4.26-4.3 27 27 0 0 1 5.25-3.07 31.84 31.84 0 0 1 11.75-2.36 49.94 49.94 0 0 1 11.64 1.26 28.37 28.37 0 0 1 10.9 5 20.13 20.13 0 0 1 6.92 10 23.66 23.66 0 0 1 1 6 23.9 23.9 0 0 1 -.54 6.08l-3.37 14.88.18-15.28.09-7.94.06-4v-2a6.35 6.35 0 0 1 .54-2.48 10.78 10.78 0 0 1 2.78-3.52 22.09 22.09 0 0 1 3.38-2.49 44.26 44.26 0 0 1 7.42-3.58l.15-.06h.13a49 49 0 0 1 12.09.53c1 .14 2 .42 3 .63s1.95.52 2.89.88a37 37 0 0 1 5.55 2.43 36.58 36.58 0 0 1 9.49 7.38 36.14 36.14 0 0 1 6.65 10l.07.17-.06.19c-2.82 10-5.42 20.11-8.23 30.15l-2.13 7.53-.6 1.9-.14.47-.08.24c0 .08-.1.25-.15.37l-.19.38-.23.31a2.91 2.91 0 0 1 -.48.55 7.55 7.55 0 0 1 -2 1.32 15.55 15.55 0 0 1 -2 .78 45.78 45.78 0 0 1 -7.91 1.58c-2.63.34-5.25.55-7.87.7-5.25.29-10.47.41-15.7.38s-10.44-.14-15.65-.37c-10.52-.37-20.86-1.15-31.32-2.26z"/><path d="m56.34 108.94s23 0 15 77c0 0 28-12 30-60l-3.79-55.94a3.09 3.09 0 0 0 -3.3-2.88c-14.93 1-79 5.2-79.91.78-1-5 1 54-2 59s-9 53-9 53 14 24.04 53-70.96z" fill="#eace88"/><path d="m56.24 108.8a.35.35 0 0 1 .19 0h.09.16.34c.22 0 .44.08.65.14a9.35 9.35 0 0 1 1.26.43 12 12 0 0 1 2.31 1.32 17.45 17.45 0 0 1 3.76 3.8 34.65 34.65 0 0 1 4.76 9.37c2.35 6.64 3.33 13.62 4 20.55a179.73 179.73 0 0 1 .52 20.88q-.35 10.43-1.37 20.81l-2.08-1.54a19.73 19.73 0 0 0 1.76-1c.6-.33 1.17-.74 1.76-1.13s1.14-.82 1.7-1.24 1.12-.85 1.65-1.33l1.59-1.39 1.51-1.5c1-1 1.92-2.08 2.85-3.15a63.66 63.66 0 0 0 9-14.47l1.68-3.95c.52-1.33.92-2.71 1.39-4.07l.68-2c.25-.67.37-1.39.56-2.08l1.06-4.19.26-1 .18-1.07.37-2.13.72-4.28.82-8.64v.06c-.56-10.6-1.07-21.21-1.71-31.82l-1-15.9-.66-7.93a2.57 2.57 0 0 0 -1.8-2.5 2.32 2.32 0 0 0 -.79-.11c-.28 0-.65.05-1 .07l-2 .14c-10.6.72-21.19 1.51-31.8 2.13s-21.18 1.22-31.87 1.17c-2.68 0-5.35-.08-8.07-.3a24.94 24.94 0 0 1 -4.19-.64 6.79 6.79 0 0 1 -1.22-.44l-.37-.22a2.35 2.35 0 0 1 -.41-.33 2 2 0 0 1 -.43-.6 3.34 3.34 0 0 1 -.17-.44v-.1s0 0 0 .07a1.27 1.27 0 0 0 .17.3c.12 1.16 2.87.15 2.43-.09.23-.47.13-.34.16-.39s0 0 0 0v.4.94c0 5.24.08 10.58.12 15.88.08 10.64.22 21.26-.22 32a67.09 67.09 0 0 1 -.76 8.18 7.71 7.71 0 0 1 -.8 2.48 4.68 4.68 0 0 0 -.27.63c-.1.25-.19.54-.28.84-.36 1.17-.66 2.44-.94 3.71-1.11 5.1-2 10.34-2.8 15.56-1.71 10.46-3.16 21-4.6 31.47l-.22-1.06s.15.22.26.34a3.48 3.48 0 0 0 .38.39 4.44 4.44 0 0 0 .88.63 4.27 4.27 0 0 0 2.13.54 9.56 9.56 0 0 0 4.81-1.55 36.52 36.52 0 0 0 8.46-7.74 98.21 98.21 0 0 0 7-9.56c1.08-1.66 2.16-3.33 3.19-5s2-3.41 3-5.14c4-6.92 7.6-14.06 11.1-21.26l2.61-5.41 2.53-5.46zm.2.29-2.14 5.6-1.07 2.74-1.13 2.79-2.29 5.57-2.37 5.54c-3.23 7.35-6.66 14.67-10.44 21.75a130 130 0 0 1 -13 20.48 38.92 38.92 0 0 1 -9.08 8.58 12.59 12.59 0 0 1 -6.47 2.14 7.77 7.77 0 0 1 -3.66-.87 8.18 8.18 0 0 1 -1.58-1.08c-.23-.21-.46-.43-.68-.67a6.39 6.39 0 0 1 -.64-.86l-.29-.46.07-.61q1.88-15.85 4.27-31.63c.85-5.27 1.72-10.51 2.87-15.79.29-1.32.6-2.64 1-4 .1-.34.22-.69.36-1.06a8.75 8.75 0 0 1 .53-1.18 5.51 5.51 0 0 0 .38-1.31 63.79 63.79 0 0 0 .78-7.67c.56-10.51.54-21.14.58-31.75 0-5.32 0-10.6.11-16l.06-1c0-.18 0-.36.05-.59v-.22a1.62 1.62 0 0 1 .23-.62c-.42-.29 2.38-1.31 2.53-.11a1.9 1.9 0 0 1 .22.41 2 2 0 0 1 .09.3s0 .17 0 .15a.83.83 0 0 0 -.06-.21c-.1-.15-.09-.16-.14-.2s0 0 0 0 0 0 .06 0a3.5 3.5 0 0 0 .65.24 23.06 23.06 0 0 0 3.66.62c2.58.26 5.21.37 7.85.45 10.55.25 21.18 0 31.78-.28s21.22-.81 31.81-1.5l2-.13h1a3.56 3.56 0 0 1 1.17.16 3.68 3.68 0 0 1 1.87 1.37 3.81 3.81 0 0 1 .69 2.16l.51 8 1.15 15.89c.79 10.59 1.72 21.18 2.6 31.76v.01l-.56 8.83-.6 4.39-.31 2.2-.15 1.1-.23 1.09-1 4.34c-.17.73-.28 1.46-.51 2.17l-.66 2.13c-.46 1.42-.85 2.85-1.37 4.25l-1.68 4.15a64.06 64.06 0 0 1 -9.26 15.24c-1 1.13-2 2.29-3.06 3.32l-1.61 1.58-1.72 1.47a21.88 21.88 0 0 1 -1.77 1.41c-.61.45-1.2.92-1.85 1.32s-1.26.85-1.94 1.22a22.76 22.76 0 0 1 -2.1 1.12l-2.35 1.08.26-2.62c.7-6.86 1.34-13.72 1.66-20.6a200 200 0 0 0 0-20.63q-.28-5.15-1-10.24a79 79 0 0 0 -2.18-10 33.76 33.76 0 0 0 -4.15-9.32 17.27 17.27 0 0 0 -3.36-3.77 10.84 10.84 0 0 0 -2.11-1.39 8.46 8.46 0 0 0 -1.17-.48 4.5 4.5 0 0 0 -.6-.17l-.31-.06h-.15-.08s.03-.01.03-.04z"/></svg>