<svg viewBox="0 0 100.81 122.21" xmlns="http://www.w3.org/2000/svg"><path d="m54.76 42.75s23 0 15 77c0 0 28-12 30-60l-3.76-55.91a3.08 3.08 0 0 0 -3.32-2.84c-14.94 1-79 5.19-79.92.78-1-5 1 54-2 59s-9 53-9 53 14 23.97 53-71.03z" fill="#eace88"/><path d="m54.66 42.6a.89.89 0 0 1 .19 0h.26.33a5.18 5.18 0 0 1 .66.14 7.68 7.68 0 0 1 1.25.43 11.23 11.23 0 0 1 2.31 1.32 17.23 17.23 0 0 1 3.72 3.76 35.29 35.29 0 0 1 4.76 9.38c2.34 6.63 3.32 13.61 4 20.54a175.41 175.41 0 0 1 .52 20.88q-.33 10.44-1.36 20.81l-2.09-1.53c.53-.26 1.18-.61 1.76-1s1.18-.74 1.76-1.13 1.14-.82 1.7-1.24 1.13-.85 1.65-1.33l1.6-1.39 1.5-1.51a40.48 40.48 0 0 0 2.82-3.06 63.49 63.49 0 0 0 9-14.47l1.68-4c.52-1.34.92-2.72 1.39-4.07l.69-2c.24-.68.37-1.39.56-2.08l1-4.19.27-1.05.18-1.07.36-2.13.73-4.27.82-8.65v.12c-.52-10.6-1.02-21.21-1.68-31.81l-1-15.9-.57-7.95a2.57 2.57 0 0 0 -1.79-2.5 2.41 2.41 0 0 0 -.8-.1c-.27 0-.65 0-1 .06l-2 .14c-10.6.73-21.2 1.51-31.81 2.14s-21.18 1.21-31.87 1.17c-2.67-.06-5.35-.06-8.06-.31a26.23 26.23 0 0 1 -4.2-.63 6.55 6.55 0 0 1 -1.21-.45 2.22 2.22 0 0 1 -.37-.22 1.55 1.55 0 0 1 -.41-.33 1.9 1.9 0 0 1 -.44-.6 2.32 2.32 0 0 1 -.16-.44v-.09s0 0 0 .06a1.78 1.78 0 0 0 .17.31c.13 1.15 2.87.14 2.43-.1.24-.46.13-.33.17-.39v.39 1c0 5.23.07 10.58.11 15.88.09 10.63.22 21.25-.22 32a67.22 67.22 0 0 1 -.75 8.18 8 8 0 0 1 -.81 2.47c-.07.18-.17.34-.27.64s-.19.53-.28.83c-.35 1.18-.66 2.45-.94 3.72-1.11 5.1-2 10.34-2.8 15.56-1.7 10.45-3.16 21-4.6 31.47l-.22-1.07s.16.22.26.34a4.7 4.7 0 0 0 1.27 1 4.33 4.33 0 0 0 2.12.53 9.37 9.37 0 0 0 4.81-1.55 36.05 36.05 0 0 0 8.46-7.73 97.78 97.78 0 0 0 7-9.56c1.09-1.66 2.16-3.34 3.19-5s2-3.42 3-5.15c4-6.92 7.6-14.06 11.1-21.26l2.61-5.41 2.53-5.45zm.2.29-2.14 5.6-1.06 2.75-1.14 2.76-2.28 5.57-2.37 5.54c-3.23 7.36-6.67 14.63-10.44 21.75a130.56 130.56 0 0 1 -13 20.49 38.87 38.87 0 0 1 -9.1 8.65 12.62 12.62 0 0 1 -6.48 2.13 7.67 7.67 0 0 1 -3.66-.86 8.1 8.1 0 0 1 -1.57-1.08 8.73 8.73 0 0 1 -.68-.68 6 6 0 0 1 -.65-.85l-.29-.51.07-.61q1.88-15.85 4.28-31.64c.85-5.26 1.71-10.51 2.86-15.79.3-1.32.61-2.63 1-4a10.76 10.76 0 0 1 .35-1 8.3 8.3 0 0 1 .53-1.19 5.39 5.39 0 0 0 .39-1.31 68.2 68.2 0 0 0 .78-7.66c.55-10.52.54-21.15.57-31.76 0-5.32 0-10.59.12-16v-1c0-.19 0-.37.06-.6v-.22a1.63 1.63 0 0 1 .24-.62c-.32-.36 2.48-1.38 2.63-.18a1.52 1.52 0 0 1 .22.43 1.74 1.74 0 0 1 .09.3s0 .16 0 .14a.48.48 0 0 0 -.07-.2c-.1-.16-.09-.16-.14-.21s0 0 0 0 0 0 .06 0a3.5 3.5 0 0 0 .65.24 23.06 23.06 0 0 0 3.66.62c2.57.27 5.21.37 7.84.45 10.56.25 21.18.05 31.79-.28s21.23-.81 31.83-1.5l2-.12c.34 0 .63 0 1-.06a3.27 3.27 0 0 1 1.19.17 3.63 3.63 0 0 1 1.88 1.36 3.84 3.84 0 0 1 .69 2.17l.51 8 1.12 15.84c.79 10.59 1.72 21.17 2.61 31.76v.11l-.56 8.83-.61 4.38-.3 2.2-.16 1.1-.18 1.1-1 4.35c-.18.72-.29 1.46-.51 2.17l-.66 2.13c-.46 1.41-.86 2.85-1.37 4.24l-1.69 4.15a63.8 63.8 0 0 1 -9.37 15.26 43.31 43.31 0 0 1 -3.05 3.3l-1.61 1.58-1.74 1.49a21.91 21.91 0 0 1 -1.78 1.4c-.61.46-1.2.93-1.85 1.33s-1.26.85-1.93 1.22a21.75 21.75 0 0 1 -2.11 1.11l-2.33 1.08.27-2.62c.7-6.86 1.33-13.72 1.65-20.6a197 197 0 0 0 0-20.62c-.18-3.43-.53-6.85-1-10.24a79.11 79.11 0 0 0 -2.18-10 34 34 0 0 0 -4.17-9.28 17.74 17.74 0 0 0 -3.36-3.77 11 11 0 0 0 -2.11-1.39 7.86 7.86 0 0 0 -1.1-.5c-.2-.07-.41-.12-.61-.17s-.21 0-.31-.06h-.15-.08s.01-.04.01-.07z"/></svg>