<svg viewBox="0 0 108.94 70.74" xmlns="http://www.w3.org/2000/svg"><path d="m14.34 67.94s79 5 82-4 12-40 12-40-9-24-39-21c0 0-13 5-13 11v14s6-24-25-26-30 30-30 30 5 31 13 36z" fill="#fff"/><path d="m14.39 67.78c10.33.12 20.8.23 31.18.25s20.79-.08 31.1-.77c2.57-.18 5.14-.41 7.68-.71a48.66 48.66 0 0 0 7.4-1.39 13.34 13.34 0 0 0 1.65-.58 4.7 4.7 0 0 0 1.26-.75.7.7 0 0 0 .17-.18l.07-.07a.14.14 0 0 1 0-.06s0 0 0-.07l.07-.23.16-.46.63-1.83 2.48-7.39c3.22-9.89 6.49-19.79 9.48-29.76v.36a34 34 0 0 0 -15.58-16.7 30 30 0 0 0 -5.4-2.17c-.92-.31-1.88-.5-2.81-.74s-1.93-.39-2.87-.53a45.57 45.57 0 0 0 -11.61 0h.28a41.67 41.67 0 0 0 -6.73 3.62 22.66 22.66 0 0 0 -3 2.32 8.16 8.16 0 0 0 -2 2.71 3.37 3.37 0 0 0 -.23 1.35v2l.06 4 .17 7.94-3.17-.39a21.82 21.82 0 0 0 .35-5.16 20.48 20.48 0 0 0 -.93-5.11 16.59 16.59 0 0 0 -5.85-8.19c-5.62-4.09-13.22-5.34-20.4-5.35a28.48 28.48 0 0 0 -10.34 1.92 22.92 22.92 0 0 0 -4.52 2.57 22.92 22.92 0 0 0 -3.77 3.6 28.15 28.15 0 0 0 -4.93 9.41 38.19 38.19 0 0 0 -1.77 10.66v-.17a175.17 175.17 0 0 0 3.8 18.93 85.85 85.85 0 0 0 2.91 9.18 33.68 33.68 0 0 0 2.06 4.33 12.2 12.2 0 0 0 2.95 3.61zm-.11.33a11.77 11.77 0 0 1 -3.49-3.54 34.29 34.29 0 0 1 -2.42-4.3 72.9 72.9 0 0 1 -3.55-9.14c-1-3.13-1.82-6.25-2.66-9.41s-1.52-6.33-2.16-9.57v-.07-.08a38.08 38.08 0 0 1 .35-5.9 40.53 40.53 0 0 1 1.16-5.74 31 31 0 0 1 5.23-10.63 26 26 0 0 1 4.26-4.3 27 27 0 0 1 5.25-3.07 31.84 31.84 0 0 1 11.75-2.36 49.94 49.94 0 0 1 11.64 1.26 28.37 28.37 0 0 1 10.9 5 20.13 20.13 0 0 1 6.92 10 23.66 23.66 0 0 1 1 6 23.9 23.9 0 0 1 -.54 6.08l-3.37 14.88.18-15.28.09-7.94.06-4v-2a6.35 6.35 0 0 1 .54-2.48 10.78 10.78 0 0 1 2.78-3.52 22.09 22.09 0 0 1 3.38-2.49 44.26 44.26 0 0 1 7.42-3.58l.15-.06h.13a49 49 0 0 1 12.09.53c1 .14 2 .42 3 .63s1.95.52 2.89.88a37 37 0 0 1 5.55 2.43 36.58 36.58 0 0 1 9.49 7.38 36.14 36.14 0 0 1 6.65 10l.07.17-.06.19c-2.82 10-5.42 20.11-8.23 30.15l-2.13 7.53-.6 1.9-.14.47-.08.24c0 .08-.1.25-.15.37l-.19.38-.23.31a2.91 2.91 0 0 1 -.48.55 7.55 7.55 0 0 1 -2 1.32 15.55 15.55 0 0 1 -2 .78 45.78 45.78 0 0 1 -7.91 1.58c-2.63.34-5.25.55-7.87.7-5.25.29-10.47.41-15.7.38s-10.44-.14-15.65-.37c-10.52-.37-20.86-1.15-31.32-2.26z"/></svg>