<svg viewBox="0 0 49.11 132.71" xmlns="http://www.w3.org/2000/svg"><path d="m30.9 83.3s18 14 17 45c0 0-4 8-40 1 0 0-10-43 7-46s16 0 16 0z" fill="#fff"/><path d="m31.06 83.25c.16 0 .37.23.59.37s.42.31.63.47c.42.32.82.66 1.21 1 .81.68 1.54 1.43 2.28 2.18s1.45 1.54 2.08 2.38a31.56 31.56 0 0 1 1.92 2.52 51.76 51.76 0 0 1 5.93 11.2 54.18 54.18 0 0 1 3 12.33l.2 1.57.08 1.59.12 3.16c0 2.11-.19 4.21-.26 6.3v.24l-.09.16a2.16 2.16 0 0 1 -.31.42 2.64 2.64 0 0 1 -.29.29 5 5 0 0 1 -.6.48 11.08 11.08 0 0 1 -1.24.72c-.42.18-.85.34-1.27.51l-1.29.38c-.85.23-1.72.41-2.58.56l-1.3.17a11.33 11.33 0 0 1 -1.29.15c-.87.07-1.73.18-2.6.2s-1.72.06-2.59.09-1.72 0-2.59 0-1.72 0-2.58 0c-3.45-.1-6.9-.29-10.33-.64-1.71-.18-3.45-.29-5.15-.54l-5.13-.72-.91-.13-.24-1a126.7 126.7 0 0 1 -2.91-16.73 62.07 62.07 0 0 1 .31-17.15 23.43 23.43 0 0 1 3-8.42 12 12 0 0 1 3.22-3.46 10.56 10.56 0 0 1 4.42-1.78c2.82-.37 5.61-.65 8.45-.75a38.13 38.13 0 0 1 4.27.12 13.32 13.32 0 0 1 2.14.37 5.44 5.44 0 0 1 1 .43 2.22 2.22 0 0 1 .46.41.79.79 0 0 1 .16.3v.18a.28.28 0 0 1 0 .09.08.08 0 0 0 .08-.02zm-.33.1a.17.17 0 0 1 0-.1v-.06-.08c-.05 0-.06-.1-.12-.14a2.26 2.26 0 0 0 -.37-.22 5.72 5.72 0 0 0 -.95-.21 13.57 13.57 0 0 0 -2-.05 41.18 41.18 0 0 0 -4.1.47c-2.71.43-5.45 1-8.12 1.61a8.16 8.16 0 0 0 -3.17 1.58 9.56 9.56 0 0 0 -2.3 2.85 21.81 21.81 0 0 0 -2.23 7.38 80.15 80.15 0 0 0 -.22 16.26 143 143 0 0 0 2.18 16.36l-1.15-1.11c3.33.69 6.64 1.5 10 2.11 1.67.35 3.36.58 5 .84s3.38.46 5.07.6a48.67 48.67 0 0 0 10.17-.11 24.24 24.24 0 0 0 4.89-1.09l1.14-.46 1.06-.57a7 7 0 0 0 .92-.67 2.11 2.11 0 0 0 .37-.36 2 2 0 0 0 .2-.18s.09-.14.06-.1l-.1.4c-.13-2-.2-4.08-.4-6.11l-.39-3-.17-1.56-.28-1.49c-.19-1-.35-2-.51-3s-.47-2-.68-2.94l-.32-1.48c-.13-.49-.29-1-.43-1.45-.29-1-.55-1.94-.87-2.9l-1-2.84c-.33-1-.79-1.86-1.18-2.79s-.87-1.83-1.33-2.74c-.23-.46-.44-.92-.68-1.36l-.72-1.31c-.47-.9-1-1.76-1.56-2.61s-1.18-1.72-1.75-2.54c-.29-.42-.61-.81-.92-1.22s-.62-.82-1-1.21-.65-.79-1-1.18c-.17-.19-.33-.39-.51-.58a8.35 8.35 0 0 1 -.53-.64z"/><path d="m6.9 86.3s-11-77-3-84 11 10 11 10 3 28 9 39 7 31 7 31-13-3-24 4z" fill="#eace88"/><path d="m6.82 86.46c-.09 0-.12-.24-.12-.22v-.08-.17l-.08-.34-.19-.65-.29-1.35-.55-2.7-1-5.42c-.59-3.63-1.18-7.26-1.7-10.89-1-7.27-1.89-14.57-2.41-21.9a208.21 208.21 0 0 1 -.34-22.07c.15-3.68.33-7.36.79-11a26.63 26.63 0 0 1 1.2-5.48 9 9 0 0 1 .64-1.33 4.23 4.23 0 0 1 1-1.15 7.19 7.19 0 0 1 2.6-1.52 4.18 4.18 0 0 1 3.12.25 7.14 7.14 0 0 1 2.33 1.94 18.71 18.71 0 0 1 2.71 5.05q.51 1.32.9 2.67c.14.46.26.91.38 1.37.06.25.11.42.17.75l.1.7c.28 1.8.59 3.6.91 5.39 1.28 7.18 2.59 14.36 4.52 21.31a60.3 60.3 0 0 0 3.62 10l1.24 2.51c.45.86.75 1.76 1.14 2.64a51.38 51.38 0 0 1 1.72 5.41 83.54 83.54 0 0 1 2.12 11 111 111 0 0 1 .92 11.1v1.81l-1.73-.4a35 35 0 0 0 -5.9-.82 39.48 39.48 0 0 0 -6.05.15 32 32 0 0 0 -6 1.16l-1.47.45-1.42.57-.72.29-.78.37zm.18-.32c.44-.3.84-.61 1.23-.89l.57-.42c.21-.13.45-.25.68-.37l1.4-.75 1.45-.64a28.91 28.91 0 0 1 6.08-1.86 34.67 34.67 0 0 1 6.35-.69 33.86 33.86 0 0 1 6.44.48l-1.68 1.41a124.15 124.15 0 0 0 -3.81-21.25c-.27-.85-.51-1.71-.8-2.55s-.57-1.67-.9-2.48-.62-1.65-1-2.4l-1.21-2.48a55.79 55.79 0 0 1 -3.65-10.74 166.36 166.36 0 0 1 -3.77-21.83c-.19-1.83-.35-3.66-.5-5.5l-.05-.67c0-.12-.06-.4-.09-.6-.08-.43-.16-.87-.26-1.31-.18-.87-.41-1.73-.67-2.58a17.08 17.08 0 0 0 -2.15-4.75c-.95-1.4-2.41-2.41-4-1.93a5.55 5.55 0 0 0 -2.16 1.19 4.27 4.27 0 0 0 -1.36 2 21 21 0 0 0 -1.14 5.24 69.53 69.53 0 0 0 -.2 10.9c.35 7.33 1.2 14.55 1.79 21.83l1.84 21.85.88 11 .41 5.48.18 2.75.1 1.32v.69.34.26c.08.08.05-.05 0-.05z"/></svg>