<svg viewBox="0 0 32.32 86.46" xmlns="http://www.w3.org/2000/svg"><path d="m6.9 86.3s-11-77-3-84 11 10 11 10 3 28 9 39 7 31 7 31-13-3-24 4z" fill="#eace88"/><path d="m6.82 86.46c-.09 0-.12-.24-.12-.22v-.08-.17l-.08-.34-.19-.65-.29-1.35-.55-2.7-1-5.42c-.59-3.63-1.18-7.26-1.7-10.89-1-7.27-1.89-14.57-2.41-21.9a208.21 208.21 0 0 1 -.34-22.07c.15-3.68.33-7.36.79-11a26.63 26.63 0 0 1 1.2-5.48 9 9 0 0 1 .64-1.33 4.23 4.23 0 0 1 1-1.15 7.19 7.19 0 0 1 2.6-1.52 4.18 4.18 0 0 1 3.12.25 7.14 7.14 0 0 1 2.33 1.94 18.71 18.71 0 0 1 2.71 5.05q.51 1.32.9 2.67c.14.46.26.91.38 1.37.06.25.11.42.17.75l.1.7c.28 1.8.59 3.6.91 5.39 1.28 7.18 2.59 14.36 4.52 21.31a60.3 60.3 0 0 0 3.62 10l1.24 2.51c.45.86.75 1.76 1.14 2.64a51.38 51.38 0 0 1 1.72 5.41 83.54 83.54 0 0 1 2.12 11 111 111 0 0 1 .92 11.1v1.81l-1.73-.4a35 35 0 0 0 -5.9-.82 39.48 39.48 0 0 0 -6.05.15 32 32 0 0 0 -6 1.16l-1.47.45-1.42.57-.72.29-.78.37zm.18-.32c.44-.3.84-.61 1.23-.89l.57-.42c.21-.13.45-.25.68-.37l1.4-.75 1.45-.64a28.91 28.91 0 0 1 6.08-1.86 34.67 34.67 0 0 1 6.35-.69 33.86 33.86 0 0 1 6.44.48l-1.68 1.41a124.15 124.15 0 0 0 -3.81-21.25c-.27-.85-.51-1.71-.8-2.55s-.57-1.67-.9-2.48-.62-1.65-1-2.4l-1.21-2.48a55.79 55.79 0 0 1 -3.65-10.74 166.36 166.36 0 0 1 -3.77-21.83c-.19-1.83-.35-3.66-.5-5.5l-.05-.67c0-.12-.06-.4-.09-.6-.08-.43-.16-.87-.26-1.31-.18-.87-.41-1.73-.67-2.58a17.08 17.08 0 0 0 -2.15-4.75c-.95-1.4-2.41-2.41-4-1.93a5.55 5.55 0 0 0 -2.16 1.19 4.27 4.27 0 0 0 -1.36 2 21 21 0 0 0 -1.14 5.24 69.53 69.53 0 0 0 -.2 10.9c.35 7.33 1.2 14.55 1.79 21.83l1.84 21.85.88 11 .41 5.48.18 2.75.1 1.32v.69.34.26c.08.08.05-.05 0-.05z"/></svg>