<svg viewBox="0 0 46 51.37" xmlns="http://www.w3.org/2000/svg"><path d="m27.79 2s18 14 17 45c0 0-4 8-40 1 0 0-10-43 7-46s16 0 16 0z" fill="#fff"/><path d="m28 1.91c.15 0 .37.23.59.37l.62.47c.43.32.82.66 1.22 1 .8.68 1.53 1.43 2.27 2.18s1.45 1.54 2.09 2.38 1.32 1.64 1.92 2.52a52.65 52.65 0 0 1 5.89 11.17 54.18 54.18 0 0 1 3 12.33l.2 1.57.08 1.59.12 3.2c0 2.11-.18 4.21-.25 6.3v.24l-.1.16a2.16 2.16 0 0 1 -.31.42 2 2 0 0 1 -.29.29 3.83 3.83 0 0 1 -.6.48 9.61 9.61 0 0 1 -1.23.72c-.42.18-.85.34-1.27.51l-1.29.38a26 26 0 0 1 -2.59.56l-1.29.17c-.43.07-.87.13-1.3.16-.86.06-1.73.17-2.59.19s-1.73.06-2.59.09-1.73 0-2.59 0-1.73 0-2.59 0c-3.45-.1-6.89-.29-10.33-.64-1.71-.18-3.44-.29-5.15-.54l-5.12-.72-.91-.13-.25-1a126.68 126.68 0 0 1 -2.91-16.76 61.31 61.31 0 0 1 .31-17.15 23.25 23.25 0 0 1 3.04-8.42 12.13 12.13 0 0 1 3.2-3.46 10.56 10.56 0 0 1 4.43-1.78c2.83-.37 5.57-.65 8.45-.76a38.13 38.13 0 0 1 4.27.12 13.13 13.13 0 0 1 2.14.38 5.27 5.27 0 0 1 1.05.43 2.22 2.22 0 0 1 .46.41 1.22 1.22 0 0 1 .16.3v.18a.27.27 0 0 1 0 .09v.09a.06.06 0 0 0 .04-.09zm-.34.1v-.16-.08c0-.05 0-.1-.12-.14a1.65 1.65 0 0 0 -.37-.22 5.72 5.72 0 0 0 -.95-.21 15.06 15.06 0 0 0 -2-.05 40.65 40.65 0 0 0 -4.22.47c-2.72.43-5.46 1-8.13 1.61a8.23 8.23 0 0 0 -3.14 1.58 9.69 9.69 0 0 0 -2.24 2.81 21.8 21.8 0 0 0 -2.22 7.38 80.15 80.15 0 0 0 -.22 16.26 138.66 138.66 0 0 0 2.18 16.37l-1.16-1.11c3.33.69 6.65 1.5 10 2.11 1.67.35 3.35.58 5 .84s3.37.46 5.07.6a47.9 47.9 0 0 0 10.2-.07 24.09 24.09 0 0 0 4.89-1.09l1.14-.46 1.06-.57a6.39 6.39 0 0 0 .92-.67 1.81 1.81 0 0 0 .37-.36 1.09 1.09 0 0 0 .15-.18s.1-.14.06-.1l-.1.4c-.13-2-.2-4.08-.4-6.11l-.38-3-.17-1.51-.28-1.55c-.19-1-.35-2-.51-3s-.47-2-.68-2.94l-.32-1.48c-.12-.49-.28-1-.42-1.45-.3-1-.56-1.94-.88-2.9l-1-2.84c-.33-1-.78-1.86-1.17-2.79s-.84-1.84-1.29-2.74c-.23-.46-.45-.92-.69-1.36l-.78-1.3c-.48-.9-1-1.76-1.57-2.61s-1.13-1.69-1.71-2.54c-.28-.43-.58-.85-.92-1.23s-.61-.82-.94-1.21-.66-.79-1-1.18c-.16-.19-.33-.39-.51-.58s-.34-.33-.59-.65z"/></svg>