<svg viewBox="0 0 40.71 115.97" xmlns="http://www.w3.org/2000/svg"><path d="m40.31 114.25h-26s-6 2-7-8 0-23 0-23 1-7 9-5c0 0 7-3 12 6s12 15 12 30z" fill="#fff"/><path d="m40.43 114.38c-2 .22-4 .4-6.14.58s-4.29.33-6.5.46-4.45.24-6.7.3-4.52.13-6.78.11l.5-.08a5.7 5.7 0 0 1 -1.06.19 6.42 6.42 0 0 1 -1 0 6 6 0 0 1 -1.89-.47 6.14 6.14 0 0 1 -2.81-2.44 12.62 12.62 0 0 1 -1.65-6.2c-.16-4 0-7.92-.09-11.86s-.06-7.82 0-11.86a7.11 7.11 0 0 1 .16-.9 8.28 8.28 0 0 1 .24-.81 8.63 8.63 0 0 1 .71-1.55 6.82 6.82 0 0 1 2.53-2.5 7.92 7.92 0 0 1 3.41-1 16.17 16.17 0 0 1 1.71 0c.55.08 1.09.17 1.63.27l-1 .08a8.13 8.13 0 0 1 1.81-.52 9.45 9.45 0 0 1 1.76-.16 10.46 10.46 0 0 1 3.5.59 12.76 12.76 0 0 1 5.48 4.09 21.76 21.76 0 0 1 1.82 2.71c.47.83.95 1.66 1.46 2.49l3.12 5c1 1.72 2 3.49 2.93 5.35a35.85 35.85 0 0 1 2.13 5.79 32.15 32.15 0 0 1 1 6c.09 1 0 2 .05 3s-.24 2.42-.33 3.34zm-.25-.25c-.07-.52-.16-1-.25-1.47l-.22-1.35c-.22-1-.32-1.93-.59-2.88a38.34 38.34 0 0 0 -1.7-5.52 42.91 42.91 0 0 0 -2.54-5.13c-1-1.65-2-3.27-3.17-4.87s-2.27-3.24-3.36-5c-.56-.84-1.07-1.73-1.59-2.62a21.77 21.77 0 0 0 -1.46-2.25 9.37 9.37 0 0 0 -3.78-3.04 7.11 7.11 0 0 0 -2.32-.52 6.88 6.88 0 0 0 -1.2 0 6.15 6.15 0 0 0 -1.06.23l-.62.19-.4-.11a7.18 7.18 0 0 0 -4.72 0 4.45 4.45 0 0 0 -1.79 1.4 6.92 6.92 0 0 0 -.66 1.05 8 8 0 0 0 -.43 1.1 91.5 91.5 0 0 0 -.91 11.66 57 57 0 0 0 .92 11.62 11.24 11.24 0 0 0 2 4.85 3.84 3.84 0 0 0 1.67 1.23 3.12 3.12 0 0 0 1 .16 4.19 4.19 0 0 0 .5 0 2.17 2.17 0 0 0 .38-.07l.41-.08h.09c2.07 0 4.14.06 6.22.1s4.17.18 6.29.3 4.29.29 6.51.47z"/><path d="m12.31 3.25s6 59 14 75c0 0-18-2-19 1s-10-64-3-74 8-2 8-2z" fill="#eace88"/><path d="m12.48 3.23c.65 6.35 1.71 12.64 3 18.9s2.43 12.51 3.41 18.8 1.81 12.57 2.84 18.84l.87 4.69c.28 1.56.72 3.09 1.07 4.63l.33 1.16.36 1.13.64 2.26a14.36 14.36 0 0 0 .84 2.21l.96 2.15.38.88-.93-.09a78.52 78.52 0 0 0 -13.18-.26 21 21 0 0 0 -3.15.47 4.72 4.72 0 0 0 -1.29.46.84.84 0 0 0 -.27.2s0 0 0 0a0 0 0 0 0 0 0v.12.11a1.06 1.06 0 0 1 -.14.2 1.36 1.36 0 0 1 -.24.24 1.3 1.3 0 0 1 -.67.22 1.15 1.15 0 0 1 -.52-.11 1.73 1.73 0 0 1 -.32-.21 2.25 2.25 0 0 1 -.21-.24l-.08-.13a2.64 2.64 0 0 1 -.18-.4 15.27 15.27 0 0 1 -.53-1.76l-.47-1.65c-.24-1.1-.46-2.2-.67-3.3-.81-4.39-1.44-8.8-2-13.21s-1.07-8.84-1.46-13.28q-.28-3.33-.51-6.66t-.28-6.69a115.7 115.7 0 0 1 .27-13.42c.21-2.24.47-4.47.87-6.7a26 26 0 0 1 1.92-6.58 7.4 7.4 0 0 1 .95-1.49c.35-.44.71-.88 1.08-1.3a16.51 16.51 0 0 1 2.41-2.42 5.91 5.91 0 0 1 1.51-.83 2.11 2.11 0 0 1 1.8.06 2.74 2.74 0 0 1 1.11 1.35 6.33 6.33 0 0 1 .48 1.65zm-.35 0a3.72 3.72 0 0 0 -1.45-2.62 1.68 1.68 0 0 0 -1.42 0 4.82 4.82 0 0 0 -1.26.88 15.14 15.14 0 0 0 -2.2 2.43c-.31.45-.62.9-.91 1.37a5.79 5.79 0 0 0 -.7 1.38 23.37 23.37 0 0 0 -1 6.35c-.11 2.17-.11 4.37 0 6.56.08 4.39.34 8.78.55 13.18.12 2.2.28 4.4.44 6.59s.3 4.41.48 6.61c.62 8.8 1.5 17.61 2.57 26.36.14 1.09.28 2.18.44 3.26l.24 1.61c.09.51.2 1.09.3 1.45 0 0 0 .07 0 0v-.05a.87.87 0 0 0 -.21-.12 1.19 1.19 0 0 0 -.28-.18 1 1 0 0 0 -.47-.09 1.14 1.14 0 0 0 -.62.2 1.31 1.31 0 0 0 -.21.2c-.29.49-.06.13 0 0a1.69 1.69 0 0 1 .24-.37 3.1 3.1 0 0 1 1.06-.77 7.36 7.36 0 0 1 1.81-.46 24.22 24.22 0 0 1 3.47-.25c2.27 0 4.5.13 6.72.32s4.44.4 6.66.64l-.55.79-.94-2.24c-.31-.75-.63-1.49-.87-2.26-.49-1.52-1.07-3-1.5-4.58l-1.37-4.61-1.29-4.63c-1.64-6.18-3.09-12.44-4.1-18.76s-1.66-12.68-2.08-19.06-.85-12.75-1.55-19.09z"/></svg>