<svg viewBox="0 0 34.42 39.85" xmlns="http://www.w3.org/2000/svg"><path d="m34 38.14h-26s-6 2-7-8 0-23 0-23 1-7 9-5c0 0 7-3 12 6s12 15 12 30z" fill="#fff"/><path d="m34.14 38.26c-2 .23-4 .4-6.14.59s-4.29.33-6.5.46-4.45.23-6.7.3-4.52.12-6.78.1l.49-.08a4.88 4.88 0 0 1 -1 .2 8 8 0 0 1 -1 0 6 6 0 0 1 -1.89-.46 6.14 6.14 0 0 1 -2.81-2.44 12.62 12.62 0 0 1 -1.65-6.2c-.16-4 0-7.92-.09-11.86s-.07-7.81-.07-11.87a7.25 7.25 0 0 1 .16-.89 5.41 5.41 0 0 1 .24-.81 8.63 8.63 0 0 1 .71-1.55 6.87 6.87 0 0 1 2.52-2.5 8 8 0 0 1 3.43-.95 16.22 16.22 0 0 1 1.71 0c.55.11 1.09.2 1.63.3l-1 .08a8.13 8.13 0 0 1 1.8-.52 9.45 9.45 0 0 1 1.8-.16 10.21 10.21 0 0 1 3.5.59 12.76 12.76 0 0 1 5.48 4.09 20.62 20.62 0 0 1 1.81 2.71c.48.83 1 1.66 1.47 2.49l3.11 5c1 1.72 2.05 3.49 2.94 5.34a37.3 37.3 0 0 1 2.13 5.8 32.15 32.15 0 0 1 1 6.05c.09 1 0 2 0 3s-.21 2.28-.3 3.19zm-.25-.26c-.07-.52-.16-1-.25-1.48l-.23-1.34c-.21-1-.31-1.94-.58-2.88a38 38 0 0 0 -1.7-5.52 42.36 42.36 0 0 0 -2.55-5.14q-1.47-2.46-3.16-4.86c-1.11-1.61-2.27-3.24-3.36-5-.56-.78-1.06-1.67-1.59-2.55a19.82 19.82 0 0 0 -1.47-2.23 9.25 9.25 0 0 0 -3.79-3.12 6.76 6.76 0 0 0 -2.31-.52 6.88 6.88 0 0 0 -1.2 0 6.62 6.62 0 0 0 -1.07.22l-.63.22-.4-.12a7.32 7.32 0 0 0 -4.72 0 4.57 4.57 0 0 0 -1.76 1.42 6.54 6.54 0 0 0 -.66 1 8.56 8.56 0 0 0 -.46 1.15 91.35 91.35 0 0 0 -.91 11.63 57 57 0 0 0 .91 11.62 11.16 11.16 0 0 0 2 4.86 3.82 3.82 0 0 0 1.67 1.22 2.85 2.85 0 0 0 1 .17 3.91 3.91 0 0 0 .49 0 3.75 3.75 0 0 0 .39-.07l.41-.08h.04c2.07 0 4.14 0 6.22.1s4.17.18 6.29.3 4.29.29 6.51.46z"/></svg>