<svg viewBox="0 0 39 132.94" xmlns="http://www.w3.org/2000/svg"><path d="m18.48 87.16s12-4 18 17-12 28-12 28-12 0-20-10 5-33 5-33z" fill="#fff"/><path d="m18.43 87a11.93 11.93 0 0 1 7.62.75 17.64 17.64 0 0 1 6.27 4.79l1.24 1.57c.37.55.72 1.11 1.07 1.67a28.59 28.59 0 0 1 1.8 3.53 15.79 15.79 0 0 1 .7 1.84l.62 1.86a13.88 13.88 0 0 1 .5 1.92c.14.65.26 1.3.39 2a11.77 11.77 0 0 1 .24 2l.1 2a12.26 12.26 0 0 1 -.11 2c-.07.66-.1 1.33-.21 2a25 25 0 0 1 -2.66 7.36 27.19 27.19 0 0 1 -11.25 10.6l-.1.05h-.18a28.09 28.09 0 0 1 -14.47-3.82 26.13 26.13 0 0 1 -6-4.85 13.64 13.64 0 0 1 -2.37-3.27 15.59 15.59 0 0 1 -1.31-3.9 23.46 23.46 0 0 1 0-7.8 40.16 40.16 0 0 1 1.87-7.3 64 64 0 0 1 6.81-13.12l.16-.24h.21c1.52-.22 3.05-.44 4.56-.72s3-.61 4.5-.92zm.09.34c-1.5.35-3 .7-4.48 1.1s-3 .84-4.44 1.28l.37-.27a66.25 66.25 0 0 0 -2.54 6.72c-.74 2.27-1.43 4.54-2 6.81a50.21 50.21 0 0 0 -1.43 6.8 23.84 23.84 0 0 0 0 6.64 13.4 13.4 0 0 0 .87 3 11 11 0 0 0 1.74 2.58 24.17 24.17 0 0 0 5 4.55 31.3 31.3 0 0 0 6.1 3.19 26 26 0 0 0 6.75 1.65l-.29.05a19.58 19.58 0 0 0 10.66-9.73 19 19 0 0 0 1.62-7.08c0-.61 0-1.22-.06-1.82a12.1 12.1 0 0 0 -.12-1.8l-.27-1.8a8.93 8.93 0 0 0 -.34-1.77c-.35-1.17-.53-2.36-.93-3.53s-.7-2.36-1.14-3.5-.8-2.32-1.35-3.4l-.74-1.67-.89-1.58a14.79 14.79 0 0 0 -4.95-5.27 9.34 9.34 0 0 0 -7.14-1.16z"/><path d="m6.48.16a32.21 32.21 0 0 0 -2 15l2 76s13-6 19-3-9-87-19-88z" fill="#eace88"/><path d="m6.56.31c.09 0 0 .06 0 .14l-.06.23-.13.46-.23.92c-.14.61-.27 1.23-.39 1.85-.23 1.24-.39 2.48-.5 3.73a33.06 33.06 0 0 0 -.09 3.72 28 28 0 0 0 .35 3.64v.1q.6 9.49 1 19c.25 6.33.42 12.67.37 19s-.21 12.69-.23 19 .17 12.67.48 19l-.9-.56a58.64 58.64 0 0 1 6.6-2.65 35.47 35.47 0 0 1 7-1.65 15.54 15.54 0 0 1 3.79 0l1 .17 1 .34.38.25a.73.73 0 0 0 -.61 0 1.17 1.17 0 0 0 -.31.2 1.26 1.26 0 0 1 0-.12 7 7 0 0 0 .2-1.4c0-.53 0-1.09 0-1.65 0-1.12-.06-2.26-.14-3.4-.54-9.21-2.14-18.43-3.72-27.63s-3.31-18.33-5.35-27.41c-1-4.54-2.12-9.06-3.44-13.5-.68-2.22-1.4-4.42-2.27-6.55a22.58 22.58 0 0 0 -1.54-3.03 8.79 8.79 0 0 0 -1-1.33 3.06 3.06 0 0 0 -.63-.53 2.43 2.43 0 0 0 -.35-.2l-.18-.07s-.05-.03-.1-.07zm-.17-.31a1.22 1.22 0 0 1 .33 0l.28.06a3.34 3.34 0 0 1 .44.17 3.82 3.82 0 0 1 .76.51 7.49 7.49 0 0 1 1.28 1.26 22.48 22.48 0 0 1 2 3 54.52 54.52 0 0 1 3 6.45c1.74 4.39 3.17 8.89 4.46 13.41a264.37 264.37 0 0 1 6.16 27.54c.82 4.62 1.45 9.28 2 13.95s1 9.36 1.19 14.12v3.6c0 .61-.08 1.22-.15 1.86a9.35 9.35 0 0 1 -.45 2 3.2 3.2 0 0 1 -.34.66 2 2 0 0 1 -.94.79 1.83 1.83 0 0 1 -1.41-.03l-.37-.15-.65-.29-.74-.18a12.82 12.82 0 0 0 -3.24-.27 31.3 31.3 0 0 0 -6.71 1.09 50.34 50.34 0 0 0 -6.55 2.19l-.9.38v-.94c0-6.34-.18-12.67-.52-19s-.85-12.65-1.23-19-.55-12.66-.62-19-.11-12.67 0-19v.1a28.94 28.94 0 0 1 0-3.95 27.94 27.94 0 0 1 .43-3.88 30.2 30.2 0 0 1 1-3.77c.2-.61.41-1.22.66-1.82l.34-.86.2-.47.11-.22a.87.87 0 0 1 .18-.31z"/></svg>