<svg viewBox="0 0 24.97 92.12" xmlns="http://www.w3.org/2000/svg"><path d="m3.12.16a32.21 32.21 0 0 0 -2 15l2 76s13-6 19-3-9-87-19-88z" fill="#eace88"/><path d="m3.21.31c.08 0 0 .06 0 .14l-.07.23-.14.46-.23.92c-.14.61-.28 1.23-.39 1.85-.21 1.24-.38 2.48-.48 3.73a30.86 30.86 0 0 0 -.09 3.72 26.36 26.36 0 0 0 .35 3.64v.1q.61 9.49 1 19c.26 6.33.42 12.67.37 19s-.21 12.69-.22 19 .17 12.67.48 19l-.9-.56a57.89 57.89 0 0 1 6.6-2.65 35.47 35.47 0 0 1 7-1.65 15.54 15.54 0 0 1 3.79 0l1 .17 1 .34.45.16a.74.74 0 0 0 -.61 0 1.17 1.17 0 0 0 -.31.2 1.26 1.26 0 0 1 0-.12 7 7 0 0 0 .2-1.4c0-.53 0-1.09 0-1.65 0-1.12-.06-2.26-.14-3.4-.63-9.12-2.24-18.34-3.8-27.54s-3.31-18.33-5.35-27.41c-1-4.54-2.12-9.06-3.45-13.5-.67-2.18-1.39-4.38-2.27-6.51a21.43 21.43 0 0 0 -1.53-3.07 9.56 9.56 0 0 0 -1-1.33 2.81 2.81 0 0 0 -.64-.53 2.43 2.43 0 0 0 -.35-.2l-.18-.07s-.05-.03-.09-.07zm-.21-.31a1.29 1.29 0 0 1 .34 0h.24a3 3 0 0 1 .45.17 3.82 3.82 0 0 1 .79.51 7.87 7.87 0 0 1 1.31 1.32 22.41 22.41 0 0 1 2 3 53 53 0 0 1 3 6.45 139.57 139.57 0 0 1 4.47 13.41 269.61 269.61 0 0 1 6.15 27.54c.81 4.62 1.45 9.28 2 13.95s1 9.36 1.18 14.12v3.6c0 .61-.07 1.22-.15 1.86a8.8 8.8 0 0 1 -.45 2 3.11 3.11 0 0 1 -.33.66 2 2 0 0 1 -.94.79 1.83 1.83 0 0 1 -1.46-.07l-.37-.15-.66-.29-.74-.18a12.78 12.78 0 0 0 -3.19-.27 31.21 31.21 0 0 0 -6.7 1.09 49.84 49.84 0 0 0 -6.55 2.19l-.9.38v-.94c0-6.34-.19-12.67-.52-19s-.85-12.61-1.23-18.94-.55-12.66-.63-19-.1-12.67 0-19v.1a30.65 30.65 0 0 1 0-3.95 28 28 0 0 1 .5-3.89 28.56 28.56 0 0 1 1-3.77c.2-.61.41-1.22.65-1.82l.29-.87.2-.44.1-.22a1.46 1.46 0 0 1 .15-.34z"/></svg>