<svg viewBox="0 0 39 46.28" xmlns="http://www.w3.org/2000/svg"><path d="m18.48.49s12-4 18 17-12 28-12 28-12 0-20-10 5-33 5-33z" fill="#fff"/><path d="m18.43.32a11.93 11.93 0 0 1 7.62.75 17.75 17.75 0 0 1 6.27 4.79l1.24 1.57c.37.55.72 1.11 1.07 1.68a27.25 27.25 0 0 1 1.8 3.53 15 15 0 0 1 .7 1.83l.62 1.87a13.39 13.39 0 0 1 .5 1.91c.14.65.26 1.31.39 2a11.77 11.77 0 0 1 .24 2l.1 2a12.2 12.2 0 0 1 -.11 2c-.07.67-.1 1.33-.21 2a25 25 0 0 1 -2.66 7.37 27.13 27.13 0 0 1 -11.25 10.6l-.1.06h-.18a28.2 28.2 0 0 1 -14.47-3.83 26.13 26.13 0 0 1 -6-4.85 13.78 13.78 0 0 1 -2.41-3.29 15.66 15.66 0 0 1 -1.27-3.91 23.46 23.46 0 0 1 0-7.8 40.16 40.16 0 0 1 1.86-7.29 63.71 63.71 0 0 1 6.82-13.09l.14-.22h.21c1.52-.22 3.05-.44 4.56-.72s3.02-.64 4.52-.96zm.09.34c-1.5.35-3 .7-4.48 1.11s-3 .83-4.44 1.28l.4-.28a66.25 66.25 0 0 0 -2.57 6.72c-.74 2.27-1.43 4.51-2.02 6.82a49.6 49.6 0 0 0 -1.41 6.81 23.77 23.77 0 0 0 0 6.63 13.4 13.4 0 0 0 .87 3 11.21 11.21 0 0 0 1.76 2.59 24.4 24.4 0 0 0 5 4.54 31.3 31.3 0 0 0 6.1 3.19 26 26 0 0 0 6.75 1.65h-.29a19.58 19.58 0 0 0 10.66-9.72 19 19 0 0 0 1.62-7c0-.6 0-1.22-.06-1.82a12.1 12.1 0 0 0 -.12-1.8l-.29-1.84a9.07 9.07 0 0 0 -.34-1.77c-.35-1.17-.53-2.36-.93-3.52s-.7-2.37-1.14-3.5-.8-2.33-1.35-3.4l-.74-1.67-.89-1.59a14.79 14.79 0 0 0 -4.95-5.27 9.34 9.34 0 0 0 -7.14-1.16z"/></svg>