<svg viewBox="0 0 62.5 72.45" xmlns="http://www.w3.org/2000/svg"><path d="m19.74 42.9s1-35 7-40 9 45 9 45l-1 13-17-7z" fill="#eace88"/><path d="m19.57 42.89c.14-3.68.15-7.41.12-11.12s0-7.47.31-11.2a55.28 55.28 0 0 1 2.08-11.09 22.84 22.84 0 0 1 2.35-5.37 9.91 9.91 0 0 1 .95-1.26 4 4 0 0 1 1.53-1.1 2.6 2.6 0 0 1 .64-.1 2.14 2.14 0 0 1 .63.13 2.22 2.22 0 0 1 .87.59 5.17 5.17 0 0 1 .95 1.37 29.3 29.3 0 0 1 1.65 5.48q.62 2.73 1.13 5.47l2 11c1.36 7.31 2.12 14.68 2.76 22.11v.2c-.22 4.34-.55 8.67-1 13l-.24 2.55-2.27-1-4.2-1.86c-1.4-.63-2.78-1.29-4.16-2s-2.67-1.32-4.08-2.01l-4.09-2.13-.5-.28.13-.49c.87-3.59 1.77-7.23 2.44-10.89zm.35 0c-.66 3.67-1.11 7.37-1.46 11.11l-.46-.74 4.41 1.37c1.46.47 2.93.92 4.38 1.42s2.91 1 4.35 1.53l4.29 1.64-2.43 1.55c.24-4.34.56-8.67 1-13v.23c-.32-7.35-.83-14.73-1.18-22.11a106.81 106.81 0 0 0 -1.11-11 54.39 54.39 0 0 0 -1.11-5.4q-.34-1.34-.81-2.61a13.53 13.53 0 0 0 -1.11-2.4 3.44 3.44 0 0 0 -.72-.87.46.46 0 0 0 -.27-.15c-.06 0-.05 0-.1 0a3.86 3.86 0 0 0 -.58.65 9.52 9.52 0 0 0 -.58 1 25.29 25.29 0 0 0 -1.51 5c-.75 3.51-1.3 7.12-1.93 10.74-1.29 7.34-2.91 14.64-3.07 22.07z"/><path d="m52 64.11c-.61-4.22-.46-13.11 7.44-26.11a10 10 0 0 0 1.45-4.71c.35-7.42.94-28.08-3.15-31.36-5-4-9 27-9 27s-11 24-18 21-11-2-16-21-7-25-7-25-9 9-5 20c0 0 2 23 6 36v11h17s9-9 18-9a29 29 0 0 1 6.92 3.07.88.88 0 0 0 1.34-.89z" fill="#eace88"/><path d="m51.86 64.14a31.06 31.06 0 0 1 .87-11.83 57.9 57.9 0 0 1 4.19-11.18c.42-.91.9-1.78 1.38-2.66a15 15 0 0 0 1.2-2.55 9.25 9.25 0 0 0 .44-2.65v-3c0-3.93-.12-7.87-.3-11.77a74.13 74.13 0 0 0 -1.26-11.44 16.08 16.08 0 0 0 -.76-2.57 5.36 5.36 0 0 0 -.53-1 2.9 2.9 0 0 0 -.36-.41.34.34 0 0 0 .2 0c.06 0 0 0-.06 0a3.5 3.5 0 0 0 -.62.75 14.78 14.78 0 0 0 -1.18 2.39 82.25 82.25 0 0 0 -3.2 11.16c-.87 3.89-1.61 7.77-2.24 11.62v.16.1c-1.58 3.14-3.32 6.16-5.14 9.14a56.81 56.81 0 0 1 -6.18 8.49 14.21 14.21 0 0 1 -4.31 3.35 4.59 4.59 0 0 1 -2.87.35 9.81 9.81 0 0 1 -1.31-.46c-.39-.16-.79-.32-1.2-.47a28.58 28.58 0 0 1 -4.87-2.09 12.92 12.92 0 0 1 -3.95-3.73 38.4 38.4 0 0 1 -4.5-9.61c-1.15-3.32-2.07-6.68-3.06-10-2-6.63-3.86-13.35-6-19.83l2.62.6a22.12 22.12 0 0 0 -2.86 4.09 20.39 20.39 0 0 0 -1.91 4.62 15.65 15.65 0 0 0 -.57 4.84 16 16 0 0 0 .94 4.74l.08.26v.2c.3 3 .68 6 1 9s.78 6 1.25 9 .93 6 1.52 8.92 1.24 5.88 2.06 8.72l.08.29v.22c-.07 3.67-.11 7.34-.23 11l-1.48-1.5c5.67.13 11.33.41 17 .61l-.63.26a42.54 42.54 0 0 1 8.62-5.93 31.25 31.25 0 0 1 4.85-1.94 18.78 18.78 0 0 1 5.16-.76h.08a36.42 36.42 0 0 1 4.51 1.78 20.16 20.16 0 0 1 2.13 1.18c.36.25.61.41.94.28a.68.68 0 0 0 .46-.74zm.34 0a1.06 1.06 0 0 1 -1.39 1.16 4 4 0 0 1 -.56-.31 20.15 20.15 0 0 0 -2.1-1.13 30.09 30.09 0 0 0 -4.48-1.65h.07a18.53 18.53 0 0 0 -4.94.94 27.12 27.12 0 0 0 -4.55 2.17 38.53 38.53 0 0 0 -4.15 2.9 39.84 39.84 0 0 0 -3.72 3.36l-.24.25h-.4c-5.67.2-11.33.48-17 .61h-1.45l-.06-1.54c-.12-3.66-.15-7.33-.23-11l.08.52c-.94-3-1.65-6-2.3-9s-1.19-6-1.66-9.07c-.92-6.1-1.68-12.16-2.12-18.29l.1.46a19.29 19.29 0 0 1 -1-5.87 18.9 18.9 0 0 1 .8-5.86 24.45 24.45 0 0 1 2.22-5.34 25.19 25.19 0 0 1 3.5-4.67l1.85-1.93.78 2.55c1 3.4 1.9 6.73 2.8 10.1s1.74 6.73 2.54 10.11 1.56 6.76 2.52 10a36.8 36.8 0 0 0 3.89 9.39 10.76 10.76 0 0 0 3.42 3.49 28.65 28.65 0 0 0 4.58 2.13c.41.15.82.31 1.22.48l.61.25c.21.09.35.11.53.18a3.52 3.52 0 0 0 2.19-.28 12.17 12.17 0 0 0 3.88-3.06 48.28 48.28 0 0 0 5.87-8.43 94.52 94.52 0 0 0 4.61-9.23l-.08.26c.43-4 1-7.89 1.63-11.82a70.07 70.07 0 0 1 2.8-11.75 17 17 0 0 1 1.37-3 6 6 0 0 1 1.28-1.48 3.49 3.49 0 0 1 1.22-.65 2.88 2.88 0 0 1 1.67.08 3.23 3.23 0 0 1 1.12.71 4.69 4.69 0 0 1 .71.8 8.79 8.79 0 0 1 .88 1.6 18.5 18.5 0 0 1 .94 3.1 46.11 46.11 0 0 1 .81 6.08c.16 2 .23 4 .24 6 0 4-.17 8-.44 11.93l-.23 3a10.77 10.77 0 0 1 -.75 3.13 15.62 15.62 0 0 1 -1.51 2.72c-.52.83-1 1.65-1.52 2.51a47.22 47.22 0 0 0 -4.75 10.71 28 28 0 0 0 -1.1 11.63z"/></svg>