<svg viewBox="0 0 62.38 44.96" xmlns="http://www.w3.org/2000/svg"><path d="m44.06 1.45s21.69 14.75 15.69 36.75c0 0-13 7-19 6s-14-7-14-7l-12 5s-11 0-12-6-3-21 5-27h16s18.62-12.51 20.31-7.75z" fill="#fff"/><path d="m44.2 1.34a38.7 38.7 0 0 1 8.34 6.72 37.71 37.71 0 0 1 6.38 8.86 30 30 0 0 1 3.26 10.59c.13.93.14 1.86.2 2.8s0 1.87-.14 2.8a28.24 28.24 0 0 1 -1.06 5.48l-.18.64-.55.28a67.35 67.35 0 0 1 -8.45 3.49 34.78 34.78 0 0 1 -9 2c-.4 0-.79 0-1.19 0s-.81-.08-1.21-.14l-1.14-.28-1.1-.34a30.73 30.73 0 0 1 -4.2-1.81c-1.36-.67-2.68-1.41-4-2.2s-2.57-1.57-3.82-2.46l.63.08q-5.91 2.72-11.8 5.48l-.18.08h-.27a25.15 25.15 0 0 1 -5.67-.51 12.5 12.5 0 0 1 -5.52-2.44 7.53 7.53 0 0 1 -1.18-1.21 7.78 7.78 0 0 1 -.86-1.55 16.42 16.42 0 0 1 -.65-3c-.26-1.81-.51-3.63-.65-5.48a47.26 47.26 0 0 1 -.19-5.59 28.73 28.73 0 0 1 .68-5.63 21.89 21.89 0 0 1 2-5.56 15.23 15.23 0 0 1 4-4.65l.47-.37h.61c2.67 0 5.34.07 8 .15s5.34.13 8 .23l-.76.2c1.67-1 3.33-2 5-2.9s3.42-1.8 5.19-2.59a38.58 38.58 0 0 1 5.47-2 13 13 0 0 1 2.94-.51 3.93 3.93 0 0 1 1.54.23 1.81 1.81 0 0 1 1.06 1.11zm-.28.22c-.44-.92-1.38-.88-2.25-.77a11.59 11.59 0 0 0 -2.67.82 49.25 49.25 0 0 0 -5 2.58c-1.63 1-3.23 2-4.82 3s-3.15 2.11-4.67 3.19l-.32.23h-.48c-2.66.1-5.33.17-8 .23s-5.33.12-8 .15l1.09-.36a12.22 12.22 0 0 0 -2.8 3.57 18.11 18.11 0 0 0 -1.63 4.57 39.3 39.3 0 0 0 -.75 10.23c.08 1.74.26 3.49.48 5.24a15.78 15.78 0 0 0 .4 2.32c0 .16.13.27.19.41a2.32 2.32 0 0 0 .22.41 4.55 4.55 0 0 0 .66.74 10.61 10.61 0 0 0 4.17 2.07 25.14 25.14 0 0 0 5 .86l-.44.09c4.07-1.48 8.13-3 12.19-4.52l.36-.14.28.22a49.08 49.08 0 0 0 7.49 4.75 28.49 28.49 0 0 0 4.08 1.65l1 .29 1.06.19 1 .06c.35 0 .7 0 1-.07a20.89 20.89 0 0 0 4.21-1c1.38-.47 2.75-1 4.09-1.62 2.68-1.21 5.33-2.59 7.86-4l-.72.92a31.52 31.52 0 0 0 .78-10 26.29 26.29 0 0 0 -.91-4.95 30 30 0 0 0 -1.7-4.79 43.1 43.1 0 0 0 -5.35-8.81 55.2 55.2 0 0 0 -7.1-7.76z"/></svg>