<svg viewBox="0 0 55.63 97.45" xmlns="http://www.w3.org/2000/svg"><path d="m8.05 1.62s5 38 22 43 12-43 12-43 4-3 6 1 8 42-2 58c0 0-23-1-23 2s-15 0-15 0 2-19-3-27-3-29 3-34z" fill="#eace88"/><path d="m8.12 1.46a.42.42 0 0 1 .12.22v.11l.06.21.08.39.17.76.35 1.51.72 3.05q.77 3 1.67 6a109.78 109.78 0 0 0 4.17 11.7 60.17 60.17 0 0 0 2.68 5.59 39.63 39.63 0 0 0 3.25 5.12c2.42 3.15 5.39 6 9 7a5.27 5.27 0 0 0 4.68-.49 10 10 0 0 0 3.15-4.3 30.69 30.69 0 0 0 1.78-5.71 60 60 0 0 0 1.06-6 116.47 116.47 0 0 0 .81-12.41c.08-4.16 0-8.35-.37-12.49v-.34l.25-.17a6.73 6.73 0 0 1 2-1 4.17 4.17 0 0 1 2.35 0 3.76 3.76 0 0 1 1.9 1.35 6.58 6.58 0 0 1 .95 2 73 73 0 0 1 1.71 8.18 163.79 163.79 0 0 1 1.85 16.56 99.78 99.78 0 0 1 -.25 16.75 57.64 57.64 0 0 1 -1.54 8.36 31 31 0 0 1 -3.31 8.05l-.47.79h-1c-3.22-.09-6.48-.11-9.71 0a71.49 71.49 0 0 0 -9.5.69 10.21 10.21 0 0 0 -2 .49l-.23.11a.9.9 0 0 0 .22-.29 1.16 1.16 0 0 0 .1-.28.51.51 0 0 0 0-.17v-.06a2.74 2.74 0 0 1 -.22 1 2.64 2.64 0 0 1 -.52.79 2.37 2.37 0 0 1 -.58.48 4.78 4.78 0 0 1 -1.81.67 11.39 11.39 0 0 1 -1.46.18 26 26 0 0 1 -2.65 0 68.48 68.48 0 0 1 -10-1.36l-1.62-.33.16-1.66a90.5 90.5 0 0 0 .35-15.51 37.2 37.2 0 0 0 -1.29-7.45l-.61-1.71-.81-1.61a17.15 17.15 0 0 1 -1.6-4 33.76 33.76 0 0 1 -1-8.13 52.57 52.57 0 0 1 .56-8 39.41 39.41 0 0 1 2-7.8 24.69 24.69 0 0 1 1.63-3.71 12.06 12.06 0 0 1 1.15-1.67 8.19 8.19 0 0 1 .68-.76 3.55 3.55 0 0 1 .94-.7zm-.12.33c-.09.13-.15.26-.22.35s-.15.18-.26.33a7.35 7.35 0 0 0 -.52.78 13.19 13.19 0 0 0 -1 1.69 22.58 22.58 0 0 0 -1.29 3.64 44.21 44.21 0 0 0 -1.29 7.67 40.75 40.75 0 0 0 1.3 15.22 14.18 14.18 0 0 0 1.47 3.28l1 1.87.81 2a37.62 37.62 0 0 1 1.7 8.06 83 83 0 0 1 .12 16.15l-1.46-2c1.55.28 3.16.53 4.73.74s3.17.4 4.71.48a21.17 21.17 0 0 0 2.25 0 6.5 6.5 0 0 0 1-.11 1.77 1.77 0 0 0 .48-.13s-.05 0-.1.1a1.23 1.23 0 0 0 -.18.29.85.85 0 0 0 -.08.39v-.05-.16a1.88 1.88 0 0 1 .05-.33 3 3 0 0 1 .21-.57 2.92 2.92 0 0 1 1.08-1.13 5.42 5.42 0 0 1 .86-.44 13.68 13.68 0 0 1 2.78-.66 74.65 74.65 0 0 1 10.05-.52c3.3 0 6.58.09 9.88.25l-1.45.77c2.7-4.37 4.08-9.71 4.9-15a105.68 105.68 0 0 0 1.09-16.33 127.32 127.32 0 0 0 -1.1-16.42 61.38 61.38 0 0 0 -1.52-8.11 3.55 3.55 0 0 0 -2.2-2.69 4.28 4.28 0 0 0 -3.4.88l.22-.52a153.09 153.09 0 0 1 .89 25.26 41.38 41.38 0 0 1 -2.51 12.69 12.58 12.58 0 0 1 -4.19 5.69 7.72 7.72 0 0 1 -3.66 1.32 9.54 9.54 0 0 1 -3.69-.46 16.91 16.91 0 0 1 -5.95-3.37 26.07 26.07 0 0 1 -4.42-4.93 49.1 49.1 0 0 1 -5.81-11.46 87.51 87.51 0 0 1 -3.5-12.18q-.64-3.12-1.14-6.22c-.16-1-.32-2.07-.44-3.12l-.2-1.56v-.79-.39-.2a.28.28 0 0 1 0-.08.09.09 0 0 0 0 .03z"/><path d="m46.05 62.62s10 7 8 17v12s-3 6-11 4-15-9-15-9-12 8-16 7-9-1-10-5 0-18 0-18 0-9 4-9 13.15 4 16.08 2 22.92-5 23.92-1z" fill="#fff"/><path d="m46.2 62.52a20.14 20.14 0 0 1 3.92 3.07 20.83 20.83 0 0 1 3.19 4 15.78 15.78 0 0 1 1.94 4.89 14.79 14.79 0 0 1 .12 5.39v-.27c.05 2 .12 4 .15 6l.07 6v.4l-.17.32a8.85 8.85 0 0 1 -1.37 1.89 11.06 11.06 0 0 1 -1.67 1.46 10 10 0 0 1 -4.09 1.64 14.41 14.41 0 0 1 -8.09-1.37 33.52 33.52 0 0 1 -6.71-4 57.86 57.86 0 0 1 -5.87-5l.7.07a100 100 0 0 1 -10.4 5.99l-1.39.62c-.49.18-1 .37-1.46.53a7.27 7.27 0 0 1 -3.37.33c-1.87-.38-3.86-.49-5.94-1a8.6 8.6 0 0 1 -3.14-1.48 5.89 5.89 0 0 1 -2-3.21 32.16 32.16 0 0 1 -.62-6.27c-.07-4 .05-8 .24-12v.13a19.43 19.43 0 0 1 1.13-7.08 8.2 8.2 0 0 1 1-1.86 4.78 4.78 0 0 1 2-1.62 4.23 4.23 0 0 1 1.4-.3 8.62 8.62 0 0 1 1.06 0 18.1 18.1 0 0 1 1.79.29c2.27.47 4.32 1.12 6.38 1.63 1 .27 2 .5 3 .68a8.59 8.59 0 0 0 2.63.1h.25l.15-.07a.77.77 0 0 0 .27-.12 3.67 3.67 0 0 1 .51-.27 12.56 12.56 0 0 1 1.75-.6c1.12-.31 2.22-.53 3.32-.72a61.22 61.22 0 0 1 6.59-.74 44.49 44.49 0 0 1 6.73.03 18.84 18.84 0 0 1 3.3.57 6.09 6.09 0 0 1 1.6.64l.37.24.33.31c.1.12.18.25.27.38s.08.25.13.38zm-.29.2a1.66 1.66 0 0 0 -1.09-.95 7.45 7.45 0 0 0 -1.5-.35 19.54 19.54 0 0 0 -3.16-.09 57 57 0 0 0 -6.36.67c-2.11.33-4.21.77-6.26 1.29a30.54 30.54 0 0 0 -3 .88 9.48 9.48 0 0 0 -1.29.54 1 1 0 0 0 -.2.13l-.45.26c-.19.1-.39.2-.58.28l-.55.16a11.13 11.13 0 0 1 -3.83.12c-1.16-.14-2.28-.34-3.37-.57-2.15-.43-4.27-1.02-6.27-1.37-2.51-.31-2.21-.59-3.16 1.21a19.42 19.42 0 0 0 -1 5.69v.13c-.33 3.9-.59 7.86-.65 11.75a35.12 35.12 0 0 0 .22 5.62 3.08 3.08 0 0 0 .94 1.88 6.24 6.24 0 0 0 2.13 1.22c1.71.63 3.68 1 5.66 1.53a5.54 5.54 0 0 0 2.51-.09c.46-.1.92-.24 1.37-.37l1.37-.48a56.11 56.11 0 0 0 10.36-5.6l.37-.24.32.31a28.73 28.73 0 0 0 2.86 2.39 32.09 32.09 0 0 0 3.09 2.08 30.34 30.34 0 0 0 6.66 3.07 16 16 0 0 0 1.74.46c.58.16 1.14.21 1.71.31a11.16 11.16 0 0 0 3.28-.14 8.22 8.22 0 0 0 2.84-1.28 7.13 7.13 0 0 0 1.16-1 7.59 7.59 0 0 0 .87-1.16l-.17.7.08-6c0-2 .1-4 .15-6v-.21-.14a13.67 13.67 0 0 0 .29-4.47 15.71 15.71 0 0 0 -1.28-4.42 22.52 22.52 0 0 0 -2.47-4.08 23 23 0 0 0 -1.54-1.88 24.51 24.51 0 0 0 -1.8-1.79z"/></svg>