<svg viewBox="0 0 51.6 65.82" xmlns="http://www.w3.org/2000/svg"><path d="m6.89 1.62s5 38 22 43 12-43 12-43 4-3 6 1 8 42-2 58c0 0-23-1-23 2s-15 0-15 0 2-19-3-27-3-29 3-34z" fill="#eace88"/><path d="m7 1.46a.43.43 0 0 1 .13.22v.11.19l.08.39.17.76.35 1.53.72 3.05c.51 2 1.06 4 1.67 6a109.78 109.78 0 0 0 4.17 11.7 60.17 60.17 0 0 0 2.71 5.59 38.58 38.58 0 0 0 3.25 5.12c2.42 3.15 5.38 6 9 7a5.27 5.27 0 0 0 4.68-.49 10 10 0 0 0 3.07-4.32 30.69 30.69 0 0 0 1.79-5.69 60 60 0 0 0 1.06-6 116.47 116.47 0 0 0 .81-12.41c.08-4.16-.05-8.35-.38-12.49v-.34l.25-.17a6.73 6.73 0 0 1 2-1 4.17 4.17 0 0 1 2.35 0 3.76 3.76 0 0 1 1.92 1.41 6.82 6.82 0 0 1 1 2 73 73 0 0 1 1.71 8.18c.86 5.48 1.53 11 1.84 16.56a97.7 97.7 0 0 1 -.25 16.75 57.6 57.6 0 0 1 -1.53 8.36 31 31 0 0 1 -3.31 8.05l-.47.79h-1c-3.22-.09-6.48-.11-9.71 0a71.37 71.37 0 0 0 -9.5.69 10.21 10.21 0 0 0 -2 .49l-.23.11a.89.89 0 0 0 .21-.29.86.86 0 0 0 .11-.28.51.51 0 0 0 0-.17v-.06a2.74 2.74 0 0 1 -.22 1 2.64 2.64 0 0 1 -.52.79 2.57 2.57 0 0 1 -.58.48 4.78 4.78 0 0 1 -1.81.67 11.61 11.61 0 0 1 -1.46.18 26 26 0 0 1 -2.65 0 68.48 68.48 0 0 1 -10-1.36l-1.62-.33.16-1.66a90.5 90.5 0 0 0 .34-15.57 37.2 37.2 0 0 0 -1.31-7.46l-.6-1.71-.81-1.61a17.11 17.11 0 0 1 -1.59-4 33.76 33.76 0 0 1 -1-8.13 51.33 51.33 0 0 1 .56-8 39.41 39.41 0 0 1 1.95-7.8 24.69 24.69 0 0 1 1.68-3.7 12.06 12.06 0 0 1 1.15-1.67 7 7 0 0 1 .66-.76 3.49 3.49 0 0 1 1-.7zm-.12.33c-.1.13-.15.26-.22.35s-.15.18-.26.33a7.35 7.35 0 0 0 -.56.78 13.19 13.19 0 0 0 -.93 1.69 22.58 22.58 0 0 0 -1.36 3.64 44.21 44.21 0 0 0 -1.29 7.67 40.55 40.55 0 0 0 1.3 15.22 13.77 13.77 0 0 0 1.44 3.28l1 1.87.81 2a38.23 38.23 0 0 1 1.7 8.06 83 83 0 0 1 .12 16.15l-1.46-2c1.55.28 3.15.53 4.73.74s3.17.4 4.71.48a21.17 21.17 0 0 0 2.25 0 6.83 6.83 0 0 0 1-.11 1.77 1.77 0 0 0 .48-.13s-.05 0-.1.1a1.23 1.23 0 0 0 -.18.29.85.85 0 0 0 -.08.39v-.05-.16c0-.11 0-.22 0-.33a4 4 0 0 1 .22-.57 2.85 2.85 0 0 1 1.08-1.13 5 5 0 0 1 .86-.44 13.68 13.68 0 0 1 2.86-.65 74.59 74.59 0 0 1 10-.52c3.31 0 6.59.09 9.89.25l-1.45.77c2.7-4.37 4.08-9.71 4.9-15a106.94 106.94 0 0 0 1.16-16.37 127.32 127.32 0 0 0 -1.14-16.39 61.38 61.38 0 0 0 -1.56-8.11 3.56 3.56 0 0 0 -2.17-2.69 4.3 4.3 0 0 0 -3.4.88l.23-.52a154.2 154.2 0 0 1 .89 25.26 41.68 41.68 0 0 1 -2.5 12.69 12.58 12.58 0 0 1 -4.19 5.69 7.75 7.75 0 0 1 -3.66 1.32 9.54 9.54 0 0 1 -3.69-.46 16.82 16.82 0 0 1 -5.95-3.37 26.07 26.07 0 0 1 -4.42-4.93 49.1 49.1 0 0 1 -5.82-11.46 87.51 87.51 0 0 1 -3.5-12.18q-.62-3.12-1.14-6.22c-.16-1-.32-2.07-.44-3.12l-.18-1.56-.07-.79v-.39-.2s0-.08 0-.08a.09.09 0 0 0 .04.03z"/></svg>