<svg viewBox="0 0 55.63 37.7" xmlns="http://www.w3.org/2000/svg"><path d="m46.05 2.87s10 7 8 17v12s-3 6-11 4-15-9-15-9-12 8-16 7-9-1-10-5 0-18 0-18 0-9 4-9 13.15 4 16.08 2 22.92-5 23.92-1z" fill="#fff"/><path d="m46.2 2.77a20.14 20.14 0 0 1 3.92 3.07 20.83 20.83 0 0 1 3.19 4 15.78 15.78 0 0 1 1.94 4.89 14.73 14.73 0 0 1 .12 5.38v-.26c.05 2 .12 4 .15 6l.07 6v.38l-.17.32a8.78 8.78 0 0 1 -1.37 1.88 10.53 10.53 0 0 1 -1.67 1.46 10 10 0 0 1 -4.09 1.65 14.41 14.41 0 0 1 -8.09-1.37 33.52 33.52 0 0 1 -6.71-3.95 59.18 59.18 0 0 1 -5.87-5l.7.07a100 100 0 0 1 -10.44 5.93l-1.39.62c-.49.18-1 .37-1.46.52a7 7 0 0 1 -3.37.33c-1.87-.38-3.86-.49-5.94-1a8.63 8.63 0 0 1 -3.14-1.48 5.86 5.86 0 0 1 -1.96-3.21 32.09 32.09 0 0 1 -.62-6.24c-.07-4 .05-8 .24-12v.13a19.4 19.4 0 0 1 1.15-7.1 8 8 0 0 1 1-1.86 4.78 4.78 0 0 1 2-1.62 4 4 0 0 1 1.46-.31 8.62 8.62 0 0 1 1.06 0 15.57 15.57 0 0 1 1.79.34c2.3.47 4.3 1.12 6.38 1.66 1 .26 2 .5 3 .68a8.59 8.59 0 0 0 2.63.1h.25a.51.51 0 0 1 .15-.07.7.7 0 0 0 .27-.13 5 5 0 0 1 .51-.26 12.68 12.68 0 0 1 1.75-.61c1.12-.3 2.22-.52 3.32-.71a61.25 61.25 0 0 1 6.61-.82 44.5 44.5 0 0 1 6.63.07 19.79 19.79 0 0 1 3.3.56 6.86 6.86 0 0 1 1.6.64l.37.25.33.3c.1.12.18.25.27.38s.08.26.13.39zm-.29.2a1.63 1.63 0 0 0 -1.09-1 6.83 6.83 0 0 0 -1.5-.35 18.46 18.46 0 0 0 -3.16-.09 54.75 54.75 0 0 0 -6.36.71c-2.11.33-4.21.77-6.26 1.28-1 .26-2 .55-3 .88a9.43 9.43 0 0 0 -1.28.6 1 1 0 0 0 -.2.13l-.45.25-.61.29-.55.15a10.91 10.91 0 0 1 -3.8.18c-1.16-.14-2.28-.34-3.37-.57-2.16-.52-4.28-1.11-6.28-1.43-2.5-.34-2.2-.62-3.15 1.18a19.42 19.42 0 0 0 -1 5.69v.13c-.33 3.9-.59 7.86-.65 11.75a35.17 35.17 0 0 0 .22 5.62 3.11 3.11 0 0 0 .93 1.83 6.59 6.59 0 0 0 2.13 1.22c1.71.63 3.68 1 5.66 1.53a5.54 5.54 0 0 0 2.51-.09c.46-.1.92-.25 1.37-.37l1.37-.49a57.32 57.32 0 0 0 10.36-5.6l.37-.25.32.32a28.73 28.73 0 0 0 2.86 2.39 32.09 32.09 0 0 0 3.09 2.14 31.29 31.29 0 0 0 6.66 3c.58.18 1.16.34 1.74.46a15 15 0 0 0 1.71.3 10.52 10.52 0 0 0 3.28-.14 8 8 0 0 0 2.84-1.27 7.67 7.67 0 0 0 2-2.2l-.17.7.08-6c0-2 .1-4 .15-6v-.13-.13a13.67 13.67 0 0 0 .32-4.45 15.71 15.71 0 0 0 -1.28-4.42 22.52 22.52 0 0 0 -2.47-4.08 23 23 0 0 0 -1.54-1.88 22.66 22.66 0 0 0 -1.8-1.76z"/></svg>