<svg viewBox="0 0 49.11 132.71" xmlns="http://www.w3.org/2000/svg"><path d="m18.21 83.3s-18 14-17 45c0 0 4 8 40 1 0 0 10-43-7-46s-16 0-16 0z" fill="#fff"/><path d="m18.38 83.35c-.25.31-.42.45-.59.64s-.34.39-.51.58c-.34.39-.67.78-1 1.18s-.64.79-.94 1.21-.64.8-.92 1.22c-.58.85-1.18 1.67-1.71 2.54s-1.09 1.71-1.56 2.61l-.76 1.32c-.24.44-.46.9-.68 1.36-.46.9-.91 1.8-1.3 2.74s-.84 1.83-1.17 2.79l-1 2.84c-.32 1-.58 1.93-.88 2.9-.14.48-.29 1-.42 1.45l-.32 1.48c-.21 1-.48 2-.68 2.94s-.32 2-.51 3l-.28 1.49-.15 1.5-.38 3c-.2 2-.27 4.07-.4 6.11l-.1-.4s0 .06.06.1a1.09 1.09 0 0 0 .15.18 2.11 2.11 0 0 0 .37.36 7 7 0 0 0 .92.67l1.06.57 1.14.46a24.09 24.09 0 0 0 4.89 1.09 48.58 48.58 0 0 0 10.16.11c1.7-.14 3.39-.33 5.08-.6s3.36-.49 5-.84c3.36-.61 6.67-1.42 10-2.11l-1.17 1.16a140.77 140.77 0 0 0 2.22-16.4 80.16 80.16 0 0 0 -.21-16.26 21.81 21.81 0 0 0 -2.28-7.34 9.56 9.56 0 0 0 -2.24-2.81 8.23 8.23 0 0 0 -3.17-1.58c-2.67-.61-5.41-1.22-8.1-1.61a40.65 40.65 0 0 0 -4.09-.47 13.57 13.57 0 0 0 -2 .05 5.72 5.72 0 0 0 -.95.21 1.9 1.9 0 0 0 -.37.22c-.06 0-.07.09-.12.14v.08.06a.17.17 0 0 1 -.09.06zm-.33-.1a0 0 0 0 0 0 0v-.13-.18a.79.79 0 0 1 .16-.3 2 2 0 0 1 .46-.41 5 5 0 0 1 1-.43 13.13 13.13 0 0 1 2.14-.37 38.13 38.13 0 0 1 4.27-.12c2.84.1 5.63.38 8.45.75a10.56 10.56 0 0 1 4.47 1.82 12 12 0 0 1 3.22 3.46 23.22 23.22 0 0 1 3 8.42 61.31 61.31 0 0 1 .31 17.15 126.68 126.68 0 0 1 -2.9 16.73l-.25 1-.91.13-5.12.72c-1.71.25-3.44.36-5.15.54-3.43.35-6.88.54-10.33.64-.86 0-1.72 0-2.59 0s-1.72 0-2.58 0-1.73-.08-2.6-.09-1.72-.13-2.59-.2a11.33 11.33 0 0 1 -1.29-.15l-1.3-.17c-.87-.15-1.73-.33-2.59-.56l-1.28-.38-1.28-.51a11 11 0 0 1 -1.23-.72 4.35 4.35 0 0 1 -.6-.48 2 2 0 0 1 -.29-.29 2.16 2.16 0 0 1 -.31-.42l-.09-.16v-.24c-.07-2.06-.25-4.16-.25-6.3l.11-3.16.08-1.59.21-1.57a53.15 53.15 0 0 1 3-12.33 52.16 52.16 0 0 1 5.92-11.2c.6-.88 1.25-1.71 1.92-2.52s1.38-1.6 2.09-2.38 1.47-1.5 2.28-2.18c.39-.35.78-.69 1.21-1 .21-.16.41-.32.63-.47s.44-.33.6-.35z"/><path d="m42.21 86.3s11-77 3-84-11 10-11 10-3 28-9 39-7 31-7 31 13-3 24 4z" fill="#eace88"/><path d="m42.14 86.14c-.09 0-.11.13-.1 0v-.26-.34-.69l.08-1.37.19-2.75.4-5.48.89-11 1.92-21.75c.59-7.28 1.48-14.5 1.76-21.83a69.53 69.53 0 0 0 -.2-10.9 21 21 0 0 0 -1.08-5.23 4.21 4.21 0 0 0 -1.37-2 5.51 5.51 0 0 0 -2.18-1.19c-1.56-.48-3 .53-4 1.93a17.39 17.39 0 0 0 -2.16 4.72c-.26.85-.48 1.71-.67 2.58-.09.44-.17.88-.25 1.31 0 .2-.08.48-.09.6l-.05.67c-.15 1.84-.31 3.67-.51 5.5a166.33 166.33 0 0 1 -3.72 21.85 55.79 55.79 0 0 1 -3.65 10.74l-1.19 2.44c-.4.75-.68 1.6-1 2.4s-.58 1.66-.9 2.48-.53 1.7-.79 2.55a125.14 125.14 0 0 0 -3.82 21.25l-1.75-1.37a34 34 0 0 1 6.48-.44 34.76 34.76 0 0 1 6.35.69 29.27 29.27 0 0 1 6.08 1.86l1.45.64 1.4.75c.22.12.47.24.68.37l.57.42c.39.24.79.55 1.23.85zm.15.32-1.47-.65-.82-.37-.72-.29-1.43-.57-1.46-.45a32 32 0 0 0 -6-1.16 39.42 39.42 0 0 0 -6.05-.15 35 35 0 0 0 -5.89.82l-1.73.4.05-1.81a111 111 0 0 1 .92-11.1 85.17 85.17 0 0 1 2.11-11 53.9 53.9 0 0 1 1.73-5.41c.38-.88.69-1.78 1.14-2.64l1.33-2.5a60.32 60.32 0 0 0 3.63-10c1.93-6.95 3.23-14.13 4.52-21.31q.48-2.68.9-5.39l.11-.7c.06-.33.11-.5.17-.75.12-.46.24-.91.37-1.37q.4-1.35.9-2.67a18.74 18.74 0 0 1 2.72-5 7.14 7.14 0 0 1 2.3-1.95 4.15 4.15 0 0 1 3.11-.25 7.23 7.23 0 0 1 2.58 1.48 4.2 4.2 0 0 1 1 1.15 7.37 7.37 0 0 1 .69 1.33 26.66 26.66 0 0 1 1.21 5.48c.45 3.68.64 7.36.79 11a205.58 205.58 0 0 1 -.35 22.07c-.54 7.33-1.4 14.63-2.4 21.9-.52 3.63-1.08 7.26-1.71 10.87l-1 5.42-.54 2.74-.32 1.37-.15.67-.07.34v.17.08a.32.32 0 0 1 -.17.2z"/></svg>