<svg viewBox="0 0 32.32 86.46" xmlns="http://www.w3.org/2000/svg"><path d="m25.43 86.3s11-77 3-84-11 10-11 10-3 28-9 39-7 31-7 31 13-3 24 4z" fill="#eace88"/><path d="m25.35 86.14c-.08 0-.11.13-.09 0v-.26-.34l.05-.69.08-1.37.18-2.75.43-5.43.88-11 1.85-21.8c.59-7.28 1.44-14.54 1.76-21.83a69.53 69.53 0 0 0 -.2-10.9 21 21 0 0 0 -1.11-5.23 4.27 4.27 0 0 0 -1.36-2 5.55 5.55 0 0 0 -2.19-1.19c-1.56-.48-3 .53-4 1.93a17.08 17.08 0 0 0 -2.12 4.72c-.26.85-.49 1.71-.67 2.58-.1.44-.18.88-.26 1.31 0 .2-.08.48-.09.6v.67c-.14 1.84-.31 3.67-.5 5.5a166.36 166.36 0 0 1 -3.77 21.83 55.79 55.79 0 0 1 -3.65 10.74l-1.24 2.46c-.4.75-.68 1.6-1 2.4s-.59 1.66-.9 2.48-.53 1.7-.8 2.55a124.15 124.15 0 0 0 -3.83 21.25l-1.68-1.37a33.91 33.91 0 0 1 6.47-.44 34.57 34.57 0 0 1 6.35.69 28.91 28.91 0 0 1 6.06 1.82l1.45.64 1.4.75c.23.12.47.24.68.37l.57.42c.41.28.81.59 1.25.89zm.15.32-1.5-.65-.78-.37-.72-.29-1.42-.57-1.47-.45a32 32 0 0 0 -6-1.16 39.48 39.48 0 0 0 -6-.15 35.09 35.09 0 0 0 -5.9.82l-1.71.36.06-1.81a108.08 108.08 0 0 1 .94-11.06 83.54 83.54 0 0 1 2.12-11 53.83 53.83 0 0 1 1.72-5.41c.36-.87.66-1.72 1.16-2.63l1.23-2.51a60.3 60.3 0 0 0 3.62-10c1.93-6.95 3.24-14.13 4.52-21.31.32-1.79.63-3.59.91-5.39l.1-.7c.06-.33.11-.5.17-.75.12-.46.24-.91.38-1.37q.39-1.35.9-2.67a18.71 18.71 0 0 1 2.71-5 7.14 7.14 0 0 1 2.29-1.95 4.18 4.18 0 0 1 3.17-.25 7.19 7.19 0 0 1 2.57 1.48 4.23 4.23 0 0 1 1 1.15 9 9 0 0 1 .64 1.33 26.63 26.63 0 0 1 1.2 5.48c.46 3.68.64 7.36.79 11a208.21 208.21 0 0 1 -.34 22.07c-.54 7.33-1.41 14.63-2.41 21.9-.52 3.63-1.08 7.26-1.71 10.87l-1 5.42-.54 2.7-.31 1.41-.14.67-.08.34v.17.08s-.08.15-.17.2z"/></svg>