<svg viewBox="0 0 46 51.37" xmlns="http://www.w3.org/2000/svg"><path d="m18.21 2s-18 14-17 45c0 0 4 8 40 1 0 0 10-43-7-46s-16 0-16 0z" fill="#fff"/><path d="m18.38 2c-.25.31-.42.45-.59.64s-.34.39-.51.58c-.34.39-.67.78-1 1.18s-.64.79-.94 1.21-.64.8-.92 1.22c-.58.85-1.18 1.67-1.71 2.54s-1.09 1.72-1.56 2.63l-.76 1.32c-.24.44-.46.9-.68 1.36-.46.9-.91 1.8-1.3 2.74s-.84 1.83-1.17 2.79l-1.03 2.79c-.32 1-.58 1.93-.88 2.9-.14.48-.29 1-.42 1.45l-.32 1.48c-.21 1-.48 1.95-.68 2.94s-.32 2-.51 3l-.28 1.49-.12 1.54-.38 3c-.2 2-.27 4.07-.4 6.11l-.1-.4.06.1a1.09 1.09 0 0 0 .15.18 2.11 2.11 0 0 0 .37.36 7 7 0 0 0 .92.67l1.06.57 1.14.46a24.09 24.09 0 0 0 4.84 1.15 47.91 47.91 0 0 0 10.16.11c1.7-.14 3.39-.33 5.08-.6s3.36-.49 5-.84c3.36-.61 6.67-1.42 10-2.11l-1.15 1.11a140.77 140.77 0 0 0 2.25-16.41 80.16 80.16 0 0 0 -.26-16.26 21.81 21.81 0 0 0 -2.23-7.38 9.69 9.69 0 0 0 -2.24-2.81 8.23 8.23 0 0 0 -3.17-1.58c-2.67-.61-5.41-1.18-8.1-1.61a40.65 40.65 0 0 0 -4.09-.47 15.06 15.06 0 0 0 -2 .05 5.72 5.72 0 0 0 -.95.21 1.9 1.9 0 0 0 -.37.22c-.06 0-.07.09-.12.14v.08.06a.17.17 0 0 1 -.09.09zm-.33-.1a0 0 0 0 0 0 0v-.08-.18a.79.79 0 0 1 .16-.3 2 2 0 0 1 .46-.41 5 5 0 0 1 1-.43 13.13 13.13 0 0 1 2.18-.37 38.13 38.13 0 0 1 4.27-.13c2.84.1 5.63.38 8.45.75a10.56 10.56 0 0 1 4.43 1.79 12.16 12.16 0 0 1 3.21 3.46 23.22 23.22 0 0 1 3 8.42 61.31 61.31 0 0 1 .31 17.15 126.68 126.68 0 0 1 -2.9 16.73l-.25 1-.91.13-5.12.72c-1.71.25-3.44.36-5.15.54-3.43.35-6.88.54-10.33.64-.86 0-1.72 0-2.59 0s-1.72 0-2.58 0-1.73-.08-2.6-.09-1.72-.13-2.59-.19c-.43 0-.86-.09-1.29-.16l-1.3-.17a26 26 0 0 1 -2.59-.56l-1.28-.38-1.25-.48a9.61 9.61 0 0 1 -1.23-.72 4.35 4.35 0 0 1 -.56-.48 2 2 0 0 1 -.29-.29 2.16 2.16 0 0 1 -.31-.42l-.09-.16v-.23c-.13-2.1-.31-4.2-.31-6.31l.11-3.16.08-1.59.21-1.57a53.15 53.15 0 0 1 3.01-12.37 52.16 52.16 0 0 1 5.92-11.2c.6-.88 1.25-1.71 1.92-2.52s1.38-1.6 2.09-2.38 1.47-1.5 2.28-2.18c.39-.35.78-.69 1.21-1 .21-.16.41-.32.63-.47s.43-.32.59-.34z"/></svg>