<svg viewBox="0 0 40.71 115.97" xmlns="http://www.w3.org/2000/svg"><path d="m.4 114.25h26s6 2 7-8 0-23 0-23-1-7-9-5c0 0-7-3-12 6s-12 15-12 30z" fill="#fff"/><path d="m.52 114.13 6.86-.58c2.22-.18 4.38-.34 6.51-.47s4.21-.23 6.29-.3 4.15-.12 6.22-.1h.08l.42.08a2.17 2.17 0 0 0 .38.07 4.07 4.07 0 0 0 .5 0 3.17 3.17 0 0 0 1-.16 3.84 3.84 0 0 0 1.67-1.23 11.24 11.24 0 0 0 2-4.85 57.75 57.75 0 0 0 .85-11.59 93.37 93.37 0 0 0 -.91-11.64 7 7 0 0 0 -.44-1.1 6.17 6.17 0 0 0 -.65-1.05 4.45 4.45 0 0 0 -1.79-1.4 7.18 7.18 0 0 0 -4.72 0l-.4.11-.62-.19a6.15 6.15 0 0 0 -1.06-.23 6.88 6.88 0 0 0 -1.2 0 7.05 7.05 0 0 0 -2.32.52 9.31 9.31 0 0 0 -3.78 3.12 23.61 23.61 0 0 0 -1.47 2.25c-.51.89-1 1.78-1.58 2.62-1.09 1.71-2.25 3.34-3.36 5s-2.19 3.22-3.17 4.87a42.91 42.91 0 0 0 -2.54 5.13 39.68 39.68 0 0 0 -1.71 5.52c-.26.95-.37 1.92-.58 2.88l-.23 1.35c-.08.36-.17.85-.25 1.37zm-.24.25c-.09-.92-.26-2.06-.28-3.13s0-2 .06-3a31.36 31.36 0 0 1 1-6 35.85 35.85 0 0 1 2.13-5.79c.81-1.95 1.86-3.72 2.89-5.46l3.12-5c.5-.83 1-1.66 1.46-2.49a20.71 20.71 0 0 1 1.82-2.71 12.64 12.64 0 0 1 5.52-4.1 10.46 10.46 0 0 1 3.5-.59 9.45 9.45 0 0 1 1.76.16 8.13 8.13 0 0 1 1.81.52l-1-.08c.55-.1 1.09-.19 1.64-.27a16 16 0 0 1 1.7 0 7.93 7.93 0 0 1 3.42 1 6.82 6.82 0 0 1 2.53 2.5 8.63 8.63 0 0 1 .64 1.48q.14.4.24.81a7.11 7.11 0 0 1 .16.9v11.86s.07 7.85-.09 11.86a12.63 12.63 0 0 1 -1.66 6.2 6.16 6.16 0 0 1 -2.8 2.44 6 6 0 0 1 -1.9.47 6.31 6.31 0 0 1 -1 0 5.56 5.56 0 0 1 -1.06-.19l.5.08c-2.26 0-4.52-.06-6.78-.11s-4.5-.17-6.71-.3-4.37-.28-6.49-.46-4.18-.38-6.13-.6z"/><path d="m28.4 3.25s-6 59-14 75c0 0 18-2 19 1s10-64 3-74-8-2-8-2z" fill="#eace88"/><path d="m28.57 3.27c-.69 6.34-1.13 12.73-1.57 19.09s-1 12.75-2 19.06-2.51 12.58-4.14 18.76l-1.29 4.63-1.37 4.61c-.43 1.54-1 3.06-1.5 4.58a24 24 0 0 1 -.88 2.26l-.93 2.24-.55-.79c2.22-.24 4.43-.48 6.66-.64s4.45-.34 6.72-.32a24.22 24.22 0 0 1 3.46.23 7.19 7.19 0 0 1 1.87.51 3.13 3.13 0 0 1 1.07.77 2.15 2.15 0 0 1 .24.37c0 .1.26.46 0 0a1.31 1.31 0 0 0 -.21-.2 1.16 1.16 0 0 0 -1.1-.11 1.29 1.29 0 0 0 -.27.18 1.93 1.93 0 0 0 -.15.16v.05s0 0 0 0c.1-.36.21-.94.3-1.45l.24-1.61c.16-1.08.3-2.17.43-3.26 1.08-8.75 2-17.56 2.58-26.36.18-2.2.34-4.41.47-6.61s.32-4.39.45-6.59c.21-4.4.47-8.79.55-13.18.06-2.19.07-4.39-.05-6.56a23 23 0 0 0 -1-6.35 5.79 5.79 0 0 0 -.7-1.38c-.29-.47-.6-.92-.91-1.37a15.14 15.14 0 0 0 -2.15-2.43 4.82 4.82 0 0 0 -1.39-.94 1.68 1.68 0 0 0 -1.45-.01 3.76 3.76 0 0 0 -1.43 2.66zm-.34 0a6 6 0 0 1 .46-1.65 2.74 2.74 0 0 1 1.13-1.39 2.11 2.11 0 0 1 1.8-.06 5.91 5.91 0 0 1 1.51.83 17 17 0 0 1 2.41 2.39c.37.42.73.86 1.08 1.3a7.4 7.4 0 0 1 1 1.49 26.46 26.46 0 0 1 1.92 6.58c.39 2.23.66 4.46.87 6.7a115.7 115.7 0 0 1 .27 13.42q-.1 3.35-.28 6.69t-.51 6.66c-.39 4.44-.93 8.86-1.49 13.28s-1.19 8.82-2 13.21c-.21 1.1-.42 2.2-.66 3.3l-.39 1.65a13.67 13.67 0 0 1 -.54 1.76 1.63 1.63 0 0 1 -.16.35l-.08.13a1.6 1.6 0 0 1 -.22.24 1.21 1.21 0 0 1 -.32.21 1.07 1.07 0 0 1 -.51.11 1.3 1.3 0 0 1 -.67-.22 1.88 1.88 0 0 1 -.25-.24.84.84 0 0 1 -.13-.2v-.11-.12s0 0 0 0a.84.84 0 0 0 -.27-.2 4.8 4.8 0 0 0 -1.3-.46 20.82 20.82 0 0 0 -3.14-.46 78.52 78.52 0 0 0 -13.18.26l-.93.09.38-.88.93-2.16a14.36 14.36 0 0 0 .84-2.21l.72-2.26.36-1.13.12-1.08c.35-1.54.79-3.07 1.07-4.63l.93-4.69c1-6.27 1.84-12.58 2.88-18.84s2.12-12.54 3.39-18.8 2.31-12.55 2.96-18.9z"/></svg>