<svg viewBox="0 0 27.18 80.5" xmlns="http://www.w3.org/2000/svg"><path d="m14.87 3.25s-6 59-14 75c0 0 18-2 19 1s10-64 3-74-8-2-8-2z" fill="#eace88"/><path d="m15 3.27c-.65 6.34-1.09 12.73-1.51 19.09s-1.05 12.75-2.07 19.06-2.42 12.58-4.09 18.76l-1.33 4.63-1.34 4.61c-.42 1.58-1 3.06-1.49 4.58a24 24 0 0 1 -.88 2.26l-.93 2.24-.55-.79c2.22-.24 4.43-.48 6.65-.64s4.46-.34 6.73-.32a24.22 24.22 0 0 1 3.46.23 7.19 7.19 0 0 1 1.87.51 3.13 3.13 0 0 1 1.07.77 3 3 0 0 1 .24.37c0 .1.26.46 0 0a1 1 0 0 0 -.21-.2 1.09 1.09 0 0 0 -.62-.2 1.12 1.12 0 0 0 -.47.09 1.29 1.29 0 0 0 -.27.18 1.93 1.93 0 0 0 -.15.16v.05s0 0 0 0a12.18 12.18 0 0 0 .3-1.45l.25-1.61c.16-1.08.3-2.17.43-3.26 1.01-8.82 1.91-17.63 2.51-26.39.18-2.2.34-4.41.47-6.61s.32-4.39.44-6.59c.21-4.4.48-8.79.56-13.18.06-2.19.07-4.39-.05-6.56a23.76 23.76 0 0 0 -1-6.35 5.79 5.79 0 0 0 -.7-1.38c-.29-.47-.6-.92-.91-1.37a15.14 15.14 0 0 0 -2.15-2.43 4.82 4.82 0 0 0 -1.34-.91 1.7 1.7 0 0 0 -1.43 0 3.79 3.79 0 0 0 -1.49 2.65zm-.34 0a6 6 0 0 1 .46-1.65 2.74 2.74 0 0 1 1.17-1.39 2.08 2.08 0 0 1 1.79-.06 5.59 5.59 0 0 1 1.51.83 16.58 16.58 0 0 1 2.41 2.42c.37.42.73.86 1.08 1.3a7.4 7.4 0 0 1 .92 1.49 26 26 0 0 1 2 6.58c.4 2.23.67 4.46.88 6.7a118 118 0 0 1 .27 13.42q-.11 3.35-.28 6.69t-.51 6.66c-.39 4.44-.93 8.86-1.49 13.28s-1.19 8.82-2 13.21c-.21 1.1-.42 2.2-.66 3.3l-.39 1.65a15.46 15.46 0 0 1 -.54 1.76 2.36 2.36 0 0 1 -.16.35l-.09.13a1.13 1.13 0 0 1 -.21.24 1.21 1.21 0 0 1 -.32.21 1.1 1.1 0 0 1 -.51.11 1.27 1.27 0 0 1 -.67-.22 1.42 1.42 0 0 1 -.32-.28.84.84 0 0 1 -.13-.2l-.05-.11v-.12s0 0 0 0a.84.84 0 0 0 -.27-.2 4.8 4.8 0 0 0 -1.3-.46 20.82 20.82 0 0 0 -3.14-.46 78.52 78.52 0 0 0 -13.18.35l-.93.09.38-.89.93-2.16a15.47 15.47 0 0 0 .84-2.21l.72-2.26.36-1.13.28-1.16c.35-1.54.79-3.07 1.07-4.63l.86-4.69c1-6.27 1.85-12.58 2.89-18.84s2.16-12.54 3.41-18.8 2.31-12.54 2.96-18.89z"/></svg>