<svg viewBox="0 0 34.42 39.85" xmlns="http://www.w3.org/2000/svg"><path d="m.4 38.14h26s6 2 7-8 0-23 0-23-1-7-9-5c0 0-7-3-12 6s-12 15-12 30z" fill="#fff"/><path d="m.52 38 6.86-.59c2.22-.17 4.38-.33 6.51-.46s4.21-.23 6.29-.3 4.15-.12 6.22-.1h.08l.42.08s.24.06.38.07a4.07 4.07 0 0 0 .5 0 2.9 2.9 0 0 0 1-.17 3.82 3.82 0 0 0 1.67-1.22 11.28 11.28 0 0 0 2-4.86 57.69 57.69 0 0 0 .92-11.62 93.21 93.21 0 0 0 -.91-11.63 7.46 7.46 0 0 0 -.46-1.06 6.49 6.49 0 0 0 -.65-1 4.57 4.57 0 0 0 -1.79-1.41 7.32 7.32 0 0 0 -4.72 0l-.4.12-.62-.2a6.26 6.26 0 0 0 -1.06-.22 6.88 6.88 0 0 0 -1.2 0 6.81 6.81 0 0 0 -2.32.52 9.23 9.23 0 0 0 -3.83 3.05 21.33 21.33 0 0 0 -1.47 2.25c-.51.88-1 1.77-1.58 2.62-1.09 1.71-2.25 3.34-3.36 5s-2.19 3.13-3.17 4.79a43.81 43.81 0 0 0 -2.54 5.14 39.27 39.27 0 0 0 -1.71 5.52c-.26.94-.37 1.92-.58 2.88l-.23 1.34c-.08.46-.17.96-.25 1.46zm-.24.24c-.09-.91-.26-2-.28-3.13s0-2 .06-3a31.36 31.36 0 0 1 1-6.05 36.31 36.31 0 0 1 2.13-5.8c.88-1.85 1.9-3.62 2.93-5.34l3.12-5c.5-.83 1-1.66 1.46-2.49a20.71 20.71 0 0 1 1.82-2.71 12.64 12.64 0 0 1 5.48-4.13 10.21 10.21 0 0 1 3.46-.59 9.45 9.45 0 0 1 1.76.16 8.13 8.13 0 0 1 1.78.52l-1-.08c.56-.1 1.1-.19 1.65-.27a16 16 0 0 1 1.7 0 7.93 7.93 0 0 1 3.42 1 6.82 6.82 0 0 1 2.53 2.5 8.63 8.63 0 0 1 .7 1.48q.14.39.24.81a7.25 7.25 0 0 1 .16.89v11.87s.07 7.85-.09 11.86a12.63 12.63 0 0 1 -1.66 6.2 6.16 6.16 0 0 1 -2.8 2.44 5.94 5.94 0 0 1 -1.9.46 7.87 7.87 0 0 1 -1 0 5 5 0 0 1 -1.06-.2l.5.08c-2.26 0-4.52-.05-6.78-.1s-4.5-.17-6.71-.3-4.36-.32-6.48-.47-4.19-.36-6.14-.59z"/></svg>