<svg viewBox="0 0 39 132.94" xmlns="http://www.w3.org/2000/svg"><path d="m20.52 87.16s-12-4-18 17 12 28 12 28 12 0 20-10-5-33-5-33z" fill="#fff"/><path d="m20.47 87.33a9.32 9.32 0 0 0 -7.14 1.16 14.71 14.71 0 0 0 -4.95 5.27l-.89 1.58-.75 1.66c-.55 1.08-.88 2.28-1.34 3.4s-.74 2.35-1.14 3.5-.59 2.36-.93 3.53a8.93 8.93 0 0 0 -.33 1.78l-.3 1.79a13.61 13.61 0 0 0 -.12 1.8c0 .6-.08 1.21-.06 1.82a19.38 19.38 0 0 0 1.62 7.08 19.65 19.65 0 0 0 10.66 9.73l-.28-.05a26.23 26.23 0 0 0 6.75-1.65 30.94 30.94 0 0 0 6.09-3.19 23.92 23.92 0 0 0 5-4.55 10.66 10.66 0 0 0 1.76-2.58 12.42 12.42 0 0 0 .87-3 23.83 23.83 0 0 0 0-6.64 51.79 51.79 0 0 0 -1.4-6.81c-.6-2.27-1.28-4.54-2-6.81a68.72 68.72 0 0 0 -2.59-6.71l.37.27c-1.48-.44-3-.89-4.45-1.28s-2.92-.75-4.45-1.1zm.1-.34c1.5.32 3 .63 4.52.9s3 .5 4.55.72h.21l.16.24a63.55 63.55 0 0 1 6.79 13.15 39.35 39.35 0 0 1 1.86 7.29 23.73 23.73 0 0 1 0 7.8 16 16 0 0 1 -1.31 3.9 13.64 13.64 0 0 1 -2.41 3.3 26.18 26.18 0 0 1 -6 4.85 28.06 28.06 0 0 1 -14.48 3.82h-.18l-.1-.05a27.07 27.07 0 0 1 -11.18-10.62 24.71 24.71 0 0 1 -2.65-7.45c-.12-.65-.14-1.32-.22-2a12.24 12.24 0 0 1 -.1-2l.1-2a11.77 11.77 0 0 1 .24-2c.12-.66.25-1.31.39-2a12.57 12.57 0 0 1 .48-1.84l.62-1.86a14.24 14.24 0 0 1 .71-1.84 26.07 26.07 0 0 1 1.8-3.53c.35-.56.7-1.12 1.06-1.67l1.25-1.57a17.55 17.55 0 0 1 6.32-4.79 11.92 11.92 0 0 1 7.57-.74z"/><path d="m32.52.16a32.21 32.21 0 0 1 2 15l-2 76s-13-6-19-3 9-87 19-88z" fill="#eace88"/><path d="m32.61 0a1.46 1.46 0 0 1 .18.3l.1.22.2.44.38.89c.24.6.46 1.21.66 1.82a30.17 30.17 0 0 1 1 3.77 26.53 26.53 0 0 1 .5 3.89 29 29 0 0 1 0 3.95v-.1q.11 9.51 0 19c-.08 6.34-.25 12.67-.63 19s-.88 12.65-1.23 19-.49 12.66-.51 19v.94l-.9-.38a49.84 49.84 0 0 0 -6.55-2.19 31.21 31.21 0 0 0 -6.81-1.09 12.78 12.78 0 0 0 -3.19.27l-.74.18-.66.29-.37.15a1.81 1.81 0 0 1 -1.45.07 2 2 0 0 1 -.95-.79 3.11 3.11 0 0 1 -.33-.66 9.35 9.35 0 0 1 -.45-2c-.08-.64-.12-1.25-.15-1.86-.06-1.22 0-2.41 0-3.6.14-4.76.64-9.44 1.18-14.12s1.2-9.33 2-13.95a266.92 266.92 0 0 1 6.2-27.49c1.29-4.52 2.73-9 4.47-13.41a54.52 54.52 0 0 1 3-6.45 22.41 22.41 0 0 1 2-3 8.28 8.28 0 0 1 1.23-1.35 3.82 3.82 0 0 1 .79-.51 3 3 0 0 1 .42-.17h.24a1.29 1.29 0 0 1 .37-.06zm-.18.3s-.06.07-.09.07l-.18.07a2.43 2.43 0 0 0 -.35.2 2.81 2.81 0 0 0 -.62.53 8.79 8.79 0 0 0 -1 1.33 21.48 21.48 0 0 0 -1.54 3.07c-.88 2.13-1.6 4.33-2.27 6.55-1.33 4.44-2.42 9-3.45 13.5-2 9.08-3.73 18.24-5.34 27.41s-3.19 18.39-3.85 27.58c-.08 1.14-.13 2.28-.14 3.4v1.65a7 7 0 0 0 .2 1.4 1.26 1.26 0 0 1 0 .12 1 1 0 0 0 -.31-.2.74.74 0 0 0 -.49.02l.45-.16 1-.34 1-.17a15.54 15.54 0 0 1 3.79 0 35.47 35.47 0 0 1 7 1.65 58.79 58.79 0 0 1 6.61 2.65l-.91.56c.31-6.33.49-12.66.49-19s-.18-12.68-.23-19 .11-12.67.37-19 .56-12.66 1-19v-.19a29.8 29.8 0 0 0 .35-3.67 33.07 33.07 0 0 0 -.1-3.72 36.26 36.26 0 0 0 -.49-3.73c-.12-.62-.25-1.24-.39-1.85l-.24-.92-.2-.43-.07-.23c-.01-.08-.08-.16 0-.14z"/></svg>