<svg viewBox="0 0 24.97 92.12" xmlns="http://www.w3.org/2000/svg"><path d="m21.85.16a32.21 32.21 0 0 1 2 15l-2 76s-13-6-19-3 9-87 19-88z" fill="#eace88"/><path d="m21.94 0a1.46 1.46 0 0 1 .18.3l.1.22.2.44.38.89c.24.6.45 1.21.65 1.82a30.2 30.2 0 0 1 1 3.77 28 28 0 0 1 .5 3.89 30.65 30.65 0 0 1 0 3.95v-.1q.11 9.51 0 19c-.08 6.34-.25 12.67-.63 19s-.88 12.65-1.23 19-.49 12.66-.52 19v.94l-.9-.38a49.84 49.84 0 0 0 -6.67-2.19 31.21 31.21 0 0 0 -6.7-1.09 12.9 12.9 0 0 0 -3.2.27l-.73.18-.66.29-.37.15a1.83 1.83 0 0 1 -1.46.07 2 2 0 0 1 -.88-.79 3.79 3.79 0 0 1 -.37-.63 8.74 8.74 0 0 1 -.44-2c-.08-.71-.12-1.32-.19-1.93-.06-1.22 0-2.41 0-3.6.17-4.76.67-9.47 1.21-14.12s1.2-9.33 2-13.95a267 267 0 0 1 6.22-27.49c1.29-4.52 2.72-9 4.46-13.41a56.16 56.16 0 0 1 3-6.45 23.51 23.51 0 0 1 2-3 7.87 7.87 0 0 1 1.23-1.31 3.82 3.82 0 0 1 .79-.51 3.34 3.34 0 0 1 .44-.17h.25a1.29 1.29 0 0 1 .34-.06zm-.18.3c-.05 0-.07.07-.1.07l-.17.07a2.43 2.43 0 0 0 -.35.2 2.86 2.86 0 0 0 -.63.53 10.33 10.33 0 0 0 -1 1.33 22.58 22.58 0 0 0 -1.51 3.08c-.87 2.13-1.59 4.33-2.26 6.55-1.33 4.44-2.42 9-3.45 13.5-2.08 9.08-3.77 18.24-5.39 27.37s-3.17 18.42-3.84 27.61c-.06 1.14-.12 2.28-.14 3.39v1.65a7 7 0 0 0 .2 1.4 1.26 1.26 0 0 1 0 .12 1.17 1.17 0 0 0 -.31-.2.73.73 0 0 0 -.61 0l.45-.16 1-.34 1-.17a15.54 15.54 0 0 1 3.79 0 35.47 35.47 0 0 1 7 1.65 57.89 57.89 0 0 1 6.6 2.65l-.9.56c.31-6.33.49-12.66.48-19s-.18-12.68-.23-19 .12-12.67.38-19 .56-12.66 1-19v-.16a26.36 26.36 0 0 0 .35-3.67 30.86 30.86 0 0 0 -.09-3.72c-.11-1.25-.27-2.49-.5-3.73-.11-.62-.25-1.24-.39-1.85l-.14-.89-.18-.46-.06-.23c-.02-.08-.08-.16 0-.14z"/></svg>