<svg viewBox="0 0 39 46.28" xmlns="http://www.w3.org/2000/svg"><path d="m20.52.49s-12-4-18 17 12 28 12 28 12 0 20-10-5-33-5-33z" fill="#fff"/><path d="m20.47.66a9.32 9.32 0 0 0 -7.14 1.16 14.71 14.71 0 0 0 -4.95 5.27l-.89 1.59-.75 1.67c-.55 1.07-.88 2.27-1.34 3.4s-.74 2.34-1.14 3.5-.59 2.35-.93 3.52a9.07 9.07 0 0 0 -.33 1.77l-.3 1.79a13.61 13.61 0 0 0 -.12 1.8c0 .6-.08 1.22-.06 1.82a19.38 19.38 0 0 0 1.62 7.05 19.65 19.65 0 0 0 10.66 9.76h-.28a26.23 26.23 0 0 0 6.75-1.65 30.94 30.94 0 0 0 6.09-3.19 24.14 24.14 0 0 0 5-4.54 10.91 10.91 0 0 0 1.76-2.59 12.42 12.42 0 0 0 .87-3 23.76 23.76 0 0 0 0-6.63 51.13 51.13 0 0 0 -1.4-6.81c-.6-2.28-1.28-4.55-2-6.82a68.72 68.72 0 0 0 -2.59-6.76l.37.28c-1.48-.45-3-.9-4.45-1.28s-2.92-.77-4.45-1.11zm.1-.34c1.5.32 3 .64 4.52.9s3 .5 4.55.72h.21l.16.25a63.22 63.22 0 0 1 6.79 13.12 39.35 39.35 0 0 1 1.86 7.29 23.73 23.73 0 0 1 0 7.8 16.07 16.07 0 0 1 -1.31 3.91 13.78 13.78 0 0 1 -2.35 3.29 26.18 26.18 0 0 1 -6 4.85 28.17 28.17 0 0 1 -14.48 3.83h-.18l-.1-.06a27 27 0 0 1 -11.24-10.6 24.75 24.75 0 0 1 -2.66-7.44c-.12-.66-.14-1.32-.22-2a12.19 12.19 0 0 1 -.1-2l.1-2a11.77 11.77 0 0 1 .24-2c.12-.65.25-1.31.39-2a12.15 12.15 0 0 1 .49-1.91l.62-1.87a13.57 13.57 0 0 1 .71-1.83 24.94 24.94 0 0 1 1.8-3.53c.35-.57.7-1.13 1.06-1.68l1.25-1.5a17.67 17.67 0 0 1 6.32-4.79 11.92 11.92 0 0 1 7.57-.75z"/></svg>