<svg viewBox="0 0 62.5 72.45" xmlns="http://www.w3.org/2000/svg"><path d="m26.76 47.9s3-50 9-45 7 40 7 40l-2 17-17-4z" fill="#eace88"/><path d="m26.59 47.87a149.33 149.33 0 0 1 .64-22.27 92.51 92.51 0 0 1 1.65-11.06c.41-1.83.88-3.66 1.45-5.46a27.16 27.16 0 0 1 2.21-5.34 5.48 5.48 0 0 1 1-1.26 2.16 2.16 0 0 1 .84-.5 1.6 1.6 0 0 1 1.1 0 3.46 3.46 0 0 1 1.3 1.1 10.66 10.66 0 0 1 .79 1.27 27.14 27.14 0 0 1 2 5.32c1 3.61 1.75 7.26 2.46 10.93a162.37 162.37 0 0 1 2.53 22.21v.09.17c-.53 5.69-1.23 11.35-2.06 17l-.29 2-1.83-.49c-2.81-.77-5.63-1.51-8.42-2.32s-5.6-1.62-8.39-2.48l-1.05-.33.4-.89c1.15-2.56 2.36-5.1 3.67-7.69zm.34.07c-.69 2.74-1.48 5.51-2.31 8.29l-.62-1.23c2.88.47 5.75 1 8.61 1.52s5.72 1.11 8.58 1.68l-2.19 1.5q.77-8.52 1.95-17v.3c-.12-7.34-.5-14.71-.92-22.07a66.4 66.4 0 0 0 -1.53-10.93 19.69 19.69 0 0 0 -1.89-5.06 7.35 7.35 0 0 0 -.73-1.06 2.58 2.58 0 0 0 -.82-.64c-.18-.06-.31 0-.56.26a3.73 3.73 0 0 0 -.61 1 22.94 22.94 0 0 0 -1.38 5.15c-.3 1.79-.55 3.6-.78 5.42-.46 3.63-1 7.27-1.5 10.92-1 7.28-1.94 14.57-3.3 21.95z"/><path d="m10.47 64.11c.64-4.22.53-13.11-7.41-26.11a10 10 0 0 1 -1.45-4.71c-.35-7.45-.94-28.11 3.15-31.39 5-4 9 27 9 27s11 24 18 21 11-2 16-21 7-25 7-25 9 9 5 20c0 0-2 23-6 36v11h-17s-9-9-18-9a28.81 28.81 0 0 0 -6.91 3.1.89.89 0 0 1 -1.38-.89z" fill="#eace88"/><path d="m10.3 64.09a28.11 28.11 0 0 0 -1.09-11.63 48.12 48.12 0 0 0 -4.75-10.73c-.48-.86-1-1.68-1.53-2.51a15.62 15.62 0 0 1 -1.51-2.72 11.1 11.1 0 0 1 -.75-3.13l-.23-3c-.27-3.94-.44-7.91-.44-11.9 0-2 .07-4 .23-6a46.11 46.11 0 0 1 .81-6.08 18.5 18.5 0 0 1 .96-3.11 8.79 8.79 0 0 1 .88-1.6 4.69 4.69 0 0 1 .71-.8 3.23 3.23 0 0 1 1.11-.71 2.88 2.88 0 0 1 1.67-.08 3.49 3.49 0 0 1 1.22.65 6 6 0 0 1 1.26 1.52 17 17 0 0 1 1.37 3 71.1 71.1 0 0 1 2.78 11.74c.66 3.93 1.19 7.86 1.62 11.82l-.08-.26a94.52 94.52 0 0 0 4.61 9.23 48.28 48.28 0 0 0 5.87 8.43 12.28 12.28 0 0 0 3.88 3.06 3.52 3.52 0 0 0 2.19.28c.18-.07.32-.09.53-.18l.61-.25c.4-.17.81-.33 1.22-.48a28.26 28.26 0 0 0 4.62-2.11 10.76 10.76 0 0 0 3.45-3.54 36.8 36.8 0 0 0 3.87-9.36c1-3.29 1.69-6.67 2.52-10s1.66-6.75 2.54-10.11 1.76-6.7 2.8-10.1l.75-2.58 1.85 1.93a25.19 25.19 0 0 1 3.5 4.67 24.45 24.45 0 0 1 2.32 5.34 18.9 18.9 0 0 1 .8 5.86 19.29 19.29 0 0 1 -1 5.87l.1-.46c-.49 6.13-1.25 12.19-2.17 18.27q-.71 4.55-1.66 9.07c-.65 3-1.36 6-2.3 9l.08-.52c-.08 3.67-.11 7.34-.23 11l-.05 1.55h-1.46c-5.67-.13-11.33-.41-17-.61h-.4l-.24-.25a37.46 37.46 0 0 0 -3.72-3.36 38.53 38.53 0 0 0 -4.15-2.9 27.12 27.12 0 0 0 -4.55-2.17 18.53 18.53 0 0 0 -4.94-.94h.07a30.09 30.09 0 0 0 -4.48 1.65 20.15 20.15 0 0 0 -2.1 1.13 4 4 0 0 1 -.56.31 1.06 1.06 0 0 1 -1.39-1.16zm.34 0a.68.68 0 0 0 .46.75c.33.13.58 0 .94-.28a20.16 20.16 0 0 1 2.13-1.18 36 36 0 0 1 4.52-1.78h.07a18.78 18.78 0 0 1 5.16.76 31.25 31.25 0 0 1 4.85 1.94 38.23 38.23 0 0 1 4.48 2.7 39.55 39.55 0 0 1 4.14 3.24l-.63-.24c5.67-.2 11.33-.48 17-.61l-1.51 1.5c-.12-3.66-.16-7.33-.23-11v-.22l.08-.29c.82-2.84 1.48-5.77 2.06-8.72s1-5.93 1.52-8.92.87-6 1.25-9 .74-6 1-9v-.2l.08-.26a15.57 15.57 0 0 0 .37-9.58 20.39 20.39 0 0 0 -1.91-4.62 22.12 22.12 0 0 0 -2.83-4.08l2.63-.62c-2.15 6.48-4.05 13.2-6 19.83-1 3.31-1.9 6.67-3.06 10a38.4 38.4 0 0 1 -4.5 9.61 12.92 12.92 0 0 1 -4 3.73 28.58 28.58 0 0 1 -4.87 2.09c-.41.15-.81.31-1.2.47a10.16 10.16 0 0 1 -1.3.46 4.61 4.61 0 0 1 -2.88-.35 14.21 14.21 0 0 1 -4.24-3.33 56.81 56.81 0 0 1 -6.18-8.49c-1.82-3-3.56-6-5.14-9.14v-.1-.16c-.63-3.87-1.38-7.75-2.24-11.57a82.25 82.25 0 0 0 -3.23-11.14 14 14 0 0 0 -1.18-2.39 3.5 3.5 0 0 0 -.62-.75c-.07 0-.12-.08-.06 0a.38.38 0 0 0 .21 0 2 2 0 0 0 -.37.41 5.36 5.36 0 0 0 -.53 1 16.08 16.08 0 0 0 -.76 2.57 74.13 74.13 0 0 0 -1.27 11.42c-.18 3.9-.3 7.84-.3 11.77v3a9.24 9.24 0 0 0 .45 2.6 14.3 14.3 0 0 0 1.21 2.55c.47.88 1 1.75 1.37 2.66a57.9 57.9 0 0 1 4.19 11.18 31.06 31.06 0 0 1 .87 11.83z"/></svg>