<svg viewBox="0 0 62.38 44.96" xmlns="http://www.w3.org/2000/svg"><path d="m18.31 1.45s-21.69 14.75-15.69 36.75c0 0 13 7 19 6s14-7 14-7l12 5s11 0 12-6 3-21-5-27h-16s-18.62-12.51-20.31-7.75z" fill="#fff"/><path d="m18.45 1.56a55.12 55.12 0 0 0 -7.22 7.71 43.1 43.1 0 0 0 -5.35 8.81 29.08 29.08 0 0 0 -1.7 4.79 26.29 26.29 0 0 0 -.91 4.95 31.24 31.24 0 0 0 .78 10l-.73-.92c2.54 1.42 5.19 2.8 7.86 4 1.35.61 2.71 1.15 4.1 1.62a21 21 0 0 0 4.2 1c.35 0 .71.07 1.06.07l1-.06 1.05-.19 1.05-.29a28.61 28.61 0 0 0 4.08-1.66 48.5 48.5 0 0 0 7.48-4.75l.28-.22.36.14c4.06 1.52 8.12 3 12.2 4.52l-.42-.08a25 25 0 0 0 5-.86 10.48 10.48 0 0 0 4.17-2.07 4.19 4.19 0 0 0 .67-.74 2.32 2.32 0 0 0 .22-.41c.05-.14.17-.25.19-.41a17.25 17.25 0 0 0 .4-2.32c.22-1.75.4-3.5.48-5.24a39.3 39.3 0 0 0 -.7-10.22 18.53 18.53 0 0 0 -1.64-4.57 12 12 0 0 0 -2.88-3.55l1.08.36c-2.67 0-5.33-.07-8-.15s-5.33-.13-8-.23h-.48l-.31-.23c-1.52-1.08-3.1-2.15-4.68-3.19s-3.18-2-4.81-3a49.4 49.4 0 0 0 -5-2.58 11.36 11.36 0 0 0 -2.62-.8c-.88-.11-1.82-.15-2.26.77zm-.28-.22a1.83 1.83 0 0 1 1.06-1.11 4 4 0 0 1 1.55-.23 13 13 0 0 1 2.93.5 37.69 37.69 0 0 1 5.47 2c1.78.79 3.5 1.67 5.2 2.59s3.37 1.91 5.03 2.91l-.79-.25c2.67-.1 5.33-.17 8-.23s5.33-.12 8-.15h.61l.48.37a15.5 15.5 0 0 1 4 4.65 21.89 21.89 0 0 1 2 5.56 28.73 28.73 0 0 1 .65 5.66 47.26 47.26 0 0 1 -.16 5.59c-.14 1.85-.39 3.67-.68 5.48a17.47 17.47 0 0 1 -.66 3 6.9 6.9 0 0 1 -.86 1.53 6.78 6.78 0 0 1 -1.18 1.21 12.46 12.46 0 0 1 -5.52 2.44 25 25 0 0 1 -5.67.51h-.27l-.18-.08q-5.88-2.78-11.8-5.48l.64-.08c-1.25.89-2.52 1.68-3.82 2.46s-2.61 1.53-4 2.2a30.73 30.73 0 0 1 -4.2 1.8l-1.11.34-1.14.28c-.39.06-.8.09-1.2.14s-.79 0-1.19 0a34.69 34.69 0 0 1 -9-2 68.1 68.1 0 0 1 -8.47-3.46l-.55-.28-.17-.64a26.82 26.82 0 0 1 -1.03-5.46c-.14-.93-.14-1.87-.14-2.8s.06-1.87.2-2.8a29.74 29.74 0 0 1 3.25-10.59 38.29 38.29 0 0 1 6.38-8.86 38.94 38.94 0 0 1 8.34-6.72z"/></svg>