<svg viewBox="0 0 55.63 101.87" xmlns="http://www.w3.org/2000/svg"><path d="m18.57 46s9-31 9-43c0 0 4-7 6 3s3 33 3 33l-2 19-19-4z" fill="#eace88"/><path d="m18.41 46a102.67 102.67 0 0 0 2.44-10.72c.64-3.64 1.15-7.28 1.83-10.87s1.4-7.17 2.18-10.71a84.26 84.26 0 0 0 1.87-10.7v-.29l.09-.13a7.24 7.24 0 0 1 2.18-2.15 2.63 2.63 0 0 1 1.76-.43 2.48 2.48 0 0 1 1.5.94 8.27 8.27 0 0 1 1.26 2.66 26.64 26.64 0 0 1 .65 2.71c.67 3.61 1.22 7.22 1.77 10.84s1.06 7.26 1.45 10.85.66 7.26.92 10.92v.25c-.28 3.18-.53 6.35-.86 9.52s-.69 6.33-1.1 9.49l-.26 2-1.87-.42c-3.16-.73-6.29-1.57-9.4-2.49s-6.21-1.9-9.34-2.77l-.57-.16.22-.49c1.18-2.58 2.27-5.21 3.28-7.85zm.33.11c-1 2.67-1.9 5.37-2.71 8.11l-.36-.64c3.21.46 6.45.8 9.67 1.23s6.42.9 9.6 1.51l-2.13 1.55c.25-3.18.56-6.35.89-9.51s.76-6.33 1.15-9.49v.26l-.33-10.87c-.11-3.63-.15-7.27-.31-10.89a79.18 79.18 0 0 0 -1.08-10.8 18.12 18.12 0 0 0 -.63-2.57 6.42 6.42 0 0 0 -1.14-2.21 1.06 1.06 0 0 0 -1.6-.15 5.68 5.68 0 0 0 -1.45 1.85l.11-.49a61.08 61.08 0 0 1 -.65 11.18 84.46 84.46 0 0 1 -2.27 10.87c-1 3.56-2.21 7-3.42 10.52s-2.34 6.97-3.34 10.52z"/><path d="m47.57 6s-5 38-22 43-12-43-12-43-4-3-6 1-8 42 2 58c0 0 23-1 23 2s15 0 15 0-2-19 3-27 3-29-3-34z" fill="#eace88"/><path d="m47.64 6.2a.09.09 0 0 0 .1 0s0 .06 0 .08v.2.39l-.08.79-.17 1.56c-.13 1.05-.29 2.09-.45 3.12q-.49 3.12-1.14 6.22a87.51 87.51 0 0 1 -3.5 12.18 49.45 49.45 0 0 1 -5.81 11.46 26.42 26.42 0 0 1 -4.42 4.93 17 17 0 0 1 -6 3.37 9.47 9.47 0 0 1 -3.68.46 7.61 7.61 0 0 1 -3.66-1.32 12.63 12.63 0 0 1 -4.2-5.68 41.48 41.48 0 0 1 -2.49-12.7 152 152 0 0 1 .86-25.26l.22.52a4.29 4.29 0 0 0 -3.4-.88 3.53 3.53 0 0 0 -2.15 2.66 63.08 63.08 0 0 0 -1.57 8.06 129.12 129.12 0 0 0 -1.1 16.44 105.6 105.6 0 0 0 1.1 16.33c.82 5.33 2.19 10.67 4.9 15l-1.5-.73c3.31-.16 6.58-.25 9.89-.25a74.73 74.73 0 0 1 10.05.52 13.76 13.76 0 0 1 2.77.66 5 5 0 0 1 .86.44 2.86 2.86 0 0 1 1.09 1.13 3.63 3.63 0 0 1 .21.58 3.06 3.06 0 0 1 .05.32v.2a1 1 0 0 0 -.08-.39 1.23 1.23 0 0 0 -.18-.29c-.06-.06-.13-.1-.11-.1a2.18 2.18 0 0 0 .48.13 6.81 6.81 0 0 0 1 .11 18.66 18.66 0 0 0 2.24 0c1.55-.08 3.13-.26 4.71-.48s3.19-.46 4.73-.74l-1.46 2a83 83 0 0 1 .13-16.15 37.62 37.62 0 0 1 1.7-8.09l.81-2 1-1.87a14.61 14.61 0 0 0 1.47-3.28 40.75 40.75 0 0 0 1.3-15.22 44.21 44.21 0 0 0 -1.24-7.63 23.63 23.63 0 0 0 -1.32-3.65 12 12 0 0 0 -.92-1.69 7.43 7.43 0 0 0 -.57-.78c-.1-.14-.2-.24-.26-.33s-.12-.22-.21-.35zm-.13-.33a3.72 3.72 0 0 1 .94.7 8.09 8.09 0 0 1 .67.76 11.25 11.25 0 0 1 1.15 1.67 22.81 22.81 0 0 1 1.73 3.66 39.59 39.59 0 0 1 1.95 7.8 50.15 50.15 0 0 1 .56 8 33.74 33.74 0 0 1 -1 8.13 17.15 17.15 0 0 1 -1.6 4l-.81 1.61-.66 1.8a37 37 0 0 0 -1.28 7.44 90.5 90.5 0 0 0 .23 15.44l.17 1.66-1.63.33a68.53 68.53 0 0 1 -10 1.36 23.53 23.53 0 0 1 -2.66 0 9.88 9.88 0 0 1 -1.42-.23 4.76 4.76 0 0 1 -1.85-.65 2.57 2.57 0 0 1 -.58-.48 2.64 2.64 0 0 1 -.73-1.77v.06.17a.86.86 0 0 0 .11.28.9.9 0 0 0 .22.29l-.24-.11a10.1 10.1 0 0 0 -2-.49 71.64 71.64 0 0 0 -9.51-.69c-3.22-.06-6.48 0-9.71 0h-1l-.48-.79a31.31 31.31 0 0 1 -3.31-8.05 57.6 57.6 0 0 1 -1.53-8.36 99.78 99.78 0 0 1 -.14-16.67 163.79 163.79 0 0 1 1.9-16.56 72.9 72.9 0 0 1 1.65-8.18 6.85 6.85 0 0 1 1-2 3.7 3.7 0 0 1 1.87-1.44 4.17 4.17 0 0 1 2.35 0 6.79 6.79 0 0 1 2.05 1l.25.17v.34c-.33 4.14-.46 8.33-.38 12.49a113.74 113.74 0 0 0 .79 12.44 57.29 57.29 0 0 0 1.06 6 29.73 29.73 0 0 0 1.79 5.69 10.09 10.09 0 0 0 3.14 4.31 5.27 5.27 0 0 0 4.68.49c3.6-1 6.57-3.86 9-7a38.58 38.58 0 0 0 3.25-5.12 60.25 60.25 0 0 0 2.69-5.54 111.21 111.21 0 0 0 4.17-11.7q.9-3 1.66-6l.73-3 .35-1.53.16-.76.08-.39v-.19-.11a.43.43 0 0 1 .17-.28z"/><path d="m9.57 67s-10 7-8 17v12s3 6 11 4 15-9 15-9 12 8 16 7 9-1 10-5 0-18 0-18 0-9-4-9-13.15 4-16.07 2-22.93-5-23.93-1z" fill="#fff"/><path d="m9.72 67.13a22.63 22.63 0 0 0 -1.72 1.79c-.55.6-1.06 1.23-1.55 1.88a22.46 22.46 0 0 0 -2.45 4.08 15.71 15.71 0 0 0 -1.33 4.42 14 14 0 0 0 .22 4.47v.14.09c.11 2 .11 4 .18 6l.07 6-.14-.67a6.87 6.87 0 0 0 .86 1.16 7.2 7.2 0 0 0 1.17 1 8.22 8.22 0 0 0 2.84 1.28 11.15 11.15 0 0 0 3.28.14c.56-.1 1.13-.15 1.71-.31a15.22 15.22 0 0 0 1.73-.46 30.41 30.41 0 0 0 6.67-3.07 30.35 30.35 0 0 0 3.07-2.07 28.6 28.6 0 0 0 2.85-2.39l.33-.31.37.24a56 56 0 0 0 10.35 5.6l1.37.48c.46.13.92.27 1.37.37a5.55 5.55 0 0 0 2.51.09c2-.57 4-.9 5.67-1.53a6.34 6.34 0 0 0 2.13-1.22 3.16 3.16 0 0 0 .93-1.83 36.25 36.25 0 0 0 .22-5.61c-.07-3.9-.32-7.86-.65-11.76v-.13a19.1 19.1 0 0 0 -1-5.69c-.94-1.8-.64-1.52-3.15-1.21-2 .35-4.11.94-6.28 1.41-1.08.23-2.2.43-3.36.58a11.47 11.47 0 0 1 -3.85-.09l-.54-.16a6.19 6.19 0 0 1 -.58-.28l-.45-.26a1.4 1.4 0 0 0 -.2-.13 10 10 0 0 0 -1.29-.54 30.54 30.54 0 0 0 -3-.88c-2.05-.52-4.15-1-6.26-1.29a56.93 56.93 0 0 0 -6.37-.71 19.57 19.57 0 0 0 -3.16.09 7.2 7.2 0 0 0 -1.49.35 1.66 1.66 0 0 0 -1.08.94zm-.29-.2a2.84 2.84 0 0 1 .13-.38c.08-.13.17-.26.26-.38l.34-.31.37-.24a6 6 0 0 1 1.59-.62 18.79 18.79 0 0 1 3.31-.57 44.47 44.47 0 0 1 6.63-.06 61.51 61.51 0 0 1 6.59.74 33.86 33.86 0 0 1 3.31.72 12.66 12.66 0 0 1 1.76.6 3.61 3.61 0 0 1 .5.27 1 1 0 0 0 .27.12l.15.07h.25a8.57 8.57 0 0 0 2.63-.1c1-.18 2-.41 3-.68 2.06-.51 4.12-1.16 6.38-1.63.57-.12 1.17-.22 1.8-.29a8.54 8.54 0 0 1 1.06 0 4.34 4.34 0 0 1 1.4.3 4.84 4.84 0 0 1 2 1.62 8.14 8.14 0 0 1 1 1.86 19.44 19.44 0 0 1 1.21 7.03v-.1c.19 4 .31 8 .23 12a32.84 32.84 0 0 1 -.6 6.27 6 6 0 0 1 -2 3.21 8.56 8.56 0 0 1 -3.13 1.47c-2.08.56-4.08.67-5.95 1.05a7.24 7.24 0 0 1 -3.36-.33c-.5-.16-1-.35-1.46-.53l-1.4-.62a99.81 99.81 0 0 1 -10.43-5.93l.69-.07a56.68 56.68 0 0 1 -5.86 5 33.83 33.83 0 0 1 -6.72 4 14.48 14.48 0 0 1 -8.09 1.36 9.87 9.87 0 0 1 -4.08-1.64 10.6 10.6 0 0 1 -1.67-1.46 8.52 8.52 0 0 1 -1.37-1.95l-.17-.32v-.41l.08-6c0-2 .1-4 .15-6v.27a15.24 15.24 0 0 1 .12-5.39 16.05 16.05 0 0 1 1.97-4.88 21.17 21.17 0 0 1 3.18-4 20.5 20.5 0 0 1 3.93-3.07z"/></svg>