<svg viewBox="0 0 63.36 106.66" xmlns="http://www.w3.org/2000/svg"><path d="m27.62 47.9s3-50 9-45 7 40 7 40l-2 17-17-4z" fill="#eace88"/><path d="m27.45 47.87a149.33 149.33 0 0 1 .65-22.27 92.48 92.48 0 0 1 1.64-11.06c.42-1.83.88-3.66 1.45-5.46a27.16 27.16 0 0 1 2.21-5.34 5.48 5.48 0 0 1 1-1.26 2.16 2.16 0 0 1 .84-.5 1.6 1.6 0 0 1 1.1 0 3.46 3.46 0 0 1 1.3 1.1 9.51 9.51 0 0 1 .79 1.27 27.14 27.14 0 0 1 2 5.32c1 3.61 1.76 7.26 2.46 10.93a159.3 159.3 0 0 1 2.53 22.21v.09.17q-.8 8.53-2 17l-.3 2-1.83-.49c-2.81-.77-5.62-1.51-8.42-2.32s-5.6-1.62-8.39-2.48l-1.05-.33.4-.89c1.1-2.56 2.32-5.1 3.62-7.69zm.34.07c-.69 2.74-1.48 5.51-2.31 8.29l-.65-1.23c2.88.47 5.75 1 8.62 1.52s5.71 1.11 8.57 1.68l-2.12 1.5q.75-8.52 1.94-17v.3c-.12-7.34-.5-14.71-.92-22.07a64.32 64.32 0 0 0 -1.56-10.93 19.67 19.67 0 0 0 -1.88-5.06 6.68 6.68 0 0 0 -.74-1.06c-.28-.27-.6-.6-.81-.64s-.32 0-.57.26a4 4 0 0 0 -.61 1 22.41 22.41 0 0 0 -1.37 5.15c-.31 1.79-.56 3.6-.79 5.42-.46 3.63-1 7.27-1.49 10.92-1.01 7.28-1.95 14.57-3.31 21.95z"/><path d="m11.33 64.11c.67-4.22.49-13.11-7.41-26.11a10.06 10.06 0 0 1 -1.44-4.71c-.35-7.45-.95-28.11 3.14-31.39 5-4 9 27 9 27s11 24 18 21 11-2 16-21 7-25 7-25 9 9 5 20c0 0-2 23-6 36v11h-17s-9-9-18-9a28.81 28.81 0 0 0 -6.91 3.1.89.89 0 0 1 -1.38-.89z" fill="#eace88"/><path d="m11.16 64.09a28.11 28.11 0 0 0 -1.09-11.63 47.67 47.67 0 0 0 -4.75-10.73c-.48-.86-1-1.68-1.53-2.51a15 15 0 0 1 -1.5-2.72 10.78 10.78 0 0 1 -.76-3.13l-.22-3c-.31-3.94-.48-7.91-.44-11.9 0-2 .07-4 .23-6a47.85 47.85 0 0 1 .81-6.08 18.5 18.5 0 0 1 .94-3.1 8.29 8.29 0 0 1 .89-1.6 4.22 4.22 0 0 1 .7-.8 3.18 3.18 0 0 1 1.13-.72 2.84 2.84 0 0 1 1.66-.08 3.55 3.55 0 0 1 1.23.65 6.22 6.22 0 0 1 1.26 1.52 16.89 16.89 0 0 1 1.36 3 70.11 70.11 0 0 1 2.81 11.74c.66 3.93 1.2 7.86 1.62 11.82l-.07-.26a94.44 94.44 0 0 0 4.56 9.2 47.8 47.8 0 0 0 5.88 8.43 12.25 12.25 0 0 0 3.87 3.06 3.53 3.53 0 0 0 2.19.28c.18-.07.33-.09.53-.18l.61-.25c.41-.17.81-.33 1.22-.48a28.26 28.26 0 0 0 4.7-2.11 10.57 10.57 0 0 0 3.38-3.51 37.19 37.19 0 0 0 3.88-9.36c1-3.29 1.69-6.67 2.51-10s1.67-6.75 2.55-10.11 1.75-6.7 2.79-10.1l.79-2.58 1.84 1.93a25.19 25.19 0 0 1 3.5 4.67 24.45 24.45 0 0 1 2.32 5.34 18.9 18.9 0 0 1 .8 5.86 19.29 19.29 0 0 1 -1 5.87l.1-.46c-.49 6.13-1.24 12.19-2.17 18.27-.47 3-1 6.05-1.66 9.07s-1.35 6-2.3 9l.08-.52c-.07 3.67-.11 7.34-.23 11l-.05 1.55h-1.46c-5.67-.13-11.33-.41-17-.61h-.4l-.27-.28a38.74 38.74 0 0 0 -3.73-3.36 39.42 39.42 0 0 0 -4.14-2.9 27.6 27.6 0 0 0 -4.56-2.17 18.53 18.53 0 0 0 -4.94-.94h.08a29.69 29.69 0 0 0 -4.48 1.65 20.31 20.31 0 0 0 -2.11 1.13 3.11 3.11 0 0 1 -.56.31 1 1 0 0 1 -.71 0 1 1 0 0 1 -.69-1.17zm.34 0a.68.68 0 0 0 .46.75c.33.13.59 0 .95-.28a19.08 19.08 0 0 1 2.09-1.13 36 36 0 0 1 4.52-1.78h.07a18.86 18.86 0 0 1 5.17.76 31.14 31.14 0 0 1 4.84 1.94 38.23 38.23 0 0 1 4.51 2.65 40.73 40.73 0 0 1 4.15 3.24l-.64-.24c5.67-.2 11.33-.48 17-.61l-1.51 1.5c-.12-3.66-.15-7.33-.23-11v-.22l.08-.29c.82-2.84 1.48-5.77 2.06-8.72s1-5.93 1.52-8.92.88-6 1.25-9 .74-6 1-9v-.2l.08-.26a15.72 15.72 0 0 0 .94-4.74 15.36 15.36 0 0 0 -.57-4.84 20.39 20.39 0 0 0 -1.91-4.62 22.12 22.12 0 0 0 -2.83-4.08l2.63-.62c-2.15 6.48-4 13.2-6 19.83-1 3.31-1.9 6.67-3.06 10a38.36 38.36 0 0 1 -4.49 9.61 13.15 13.15 0 0 1 -4 3.73 29 29 0 0 1 -4.88 2.09c-.41.15-.81.31-1.2.47a10.16 10.16 0 0 1 -1.3.46 4.58 4.58 0 0 1 -2.87-.35 14 14 0 0 1 -4.24-3.33 56.87 56.87 0 0 1 -6.19-8.49c-1.82-3-3.55-6-5.13-9.14l-.05-.1v-.16c-.63-3.87-1.38-7.75-2.24-11.57a82.25 82.25 0 0 0 -3.19-11.14 14 14 0 0 0 -1.17-2.39 3.8 3.8 0 0 0 -.63-.75c-.06 0-.12-.08-.06 0a.37.37 0 0 0 .21 0 2 2 0 0 0 -.37.41 6 6 0 0 0 -.53 1 16.08 16.08 0 0 0 -.74 2.5 75.37 75.37 0 0 0 -1.29 11.49c-.18 3.9-.29 7.84-.3 11.77v3a8.92 8.92 0 0 0 .44 2.65 13.58 13.58 0 0 0 1.2 2.55c.47.88.95 1.75 1.37 2.66a56.62 56.62 0 0 1 4.19 11.18 31.06 31.06 0 0 1 .89 11.78z"/><path d="m18.31 63.15s-21.69 14.75-15.69 36.75c0 0 13 7 19 6s14-7 14-7l12 5s11 0 12-6 3-21-5-27h-16s-18.62-12.51-20.31-7.75z" fill="#fff"/><path d="m18.45 63.26a55.12 55.12 0 0 0 -7.22 7.74 43.1 43.1 0 0 0 -5.35 8.81 29.08 29.08 0 0 0 -1.7 4.79 26.29 26.29 0 0 0 -.91 5 31.24 31.24 0 0 0 .78 10l-.73-.92c2.54 1.42 5.19 2.8 7.86 4 1.35.61 2.71 1.15 4.1 1.62a21 21 0 0 0 4.2 1c.35 0 .71.07 1.06.07l1-.06 1.05-.19 1.05-.28a29.88 29.88 0 0 0 4.08-1.67 48.5 48.5 0 0 0 7.48-4.75l.28-.22.36.14c4.06 1.52 8.12 3 12.2 4.52l-.45-.09a25 25 0 0 0 5-.86 10.48 10.48 0 0 0 4.17-2.07 4.19 4.19 0 0 0 .67-.74 2.32 2.32 0 0 0 .22-.41c.05-.14.17-.25.19-.41a17.25 17.25 0 0 0 .4-2.32c.22-1.75.4-3.5.48-5.24a39.3 39.3 0 0 0 -.7-10.22 18.53 18.53 0 0 0 -1.64-4.57 12 12 0 0 0 -2.88-3.55l1.08.36c-2.67 0-5.33-.07-8-.15s-5.33-.13-8-.23h-.48l-.31-.23c-1.52-1.08-3.1-2.15-4.68-3.19s-3.18-2-4.81-3a47.53 47.53 0 0 0 -5-2.59 11.36 11.36 0 0 0 -2.62-.82c-.85-.15-1.79-.19-2.23.73zm-.28-.26a1.83 1.83 0 0 1 1.06-1.11 4 4 0 0 1 1.55-.23 13 13 0 0 1 2.93.5 37.69 37.69 0 0 1 5.47 2c1.78.79 3.5 1.67 5.2 2.59s3.37 1.87 5 2.9l-.79-.25c2.67-.1 5.33-.17 8-.23s5.33-.12 8-.15h.61l.48.37a15.5 15.5 0 0 1 4 4.65 21.89 21.89 0 0 1 2 5.56 28.73 28.73 0 0 1 .65 5.66 47.26 47.26 0 0 1 -.16 5.59c-.14 1.85-.39 3.67-.68 5.48a17.47 17.47 0 0 1 -.66 3 6.9 6.9 0 0 1 -.86 1.55 6.78 6.78 0 0 1 -1.18 1.21 12.46 12.46 0 0 1 -5.52 2.44 25 25 0 0 1 -5.67.51h-.27l-.18-.08q-5.88-2.78-11.8-5.48l.64-.08c-1.25.89-2.52 1.68-3.82 2.46s-2.61 1.53-4 2.2a30.73 30.73 0 0 1 -4.2 1.81l-1.11.34-1.14.28c-.39.06-.8.09-1.2.14s-.79 0-1.19 0a34.69 34.69 0 0 1 -9-2 68.1 68.1 0 0 1 -8.47-3.46l-.55-.28-.17-.64a26.82 26.82 0 0 1 -1-5.44c-.14-.93-.14-1.87-.14-2.81s.06-1.87.2-2.8a29.74 29.74 0 0 1 3.25-10.58 38.29 38.29 0 0 1 6.38-8.86 38.94 38.94 0 0 1 8.34-6.76z"/></svg>