<svg viewBox="0 0 51.6 70.23" xmlns="http://www.w3.org/2000/svg"><path d="m15.71 46s9-31 9-43c0 0 4-7 6 3s3 33 3 33l-2 19-19-4z" fill="#eace88"/><path d="m15.54 46a102.71 102.71 0 0 0 2.46-10.74c.63-3.62 1.16-7.26 1.82-10.85s1.39-7.17 2.18-10.71a82.52 82.52 0 0 0 1.86-10.7v-.29l.14-.1a7.16 7.16 0 0 1 2.14-2.18 2.59 2.59 0 0 1 1.75-.43 2.48 2.48 0 0 1 1.5.94 8.27 8.27 0 0 1 1.26 2.66 26.71 26.71 0 0 1 .66 2.71c.69 3.69 1.21 7.25 1.76 10.87s1.07 7.23 1.46 10.82.65 7.26.91 10.92v.09.16c-.28 3.18-.53 6.35-.85 9.52s-.7 6.33-1.11 9.49l-.26 2-1.87-.42c-3.15-.73-6.28-1.57-9.4-2.49s-6.21-1.9-9.33-2.77l-.62-.15.22-.49c1.22-2.59 2.31-5.22 3.32-7.86zm.33.11c-1 2.67-1.9 5.37-2.71 8.11l-.35-.64c3.21.46 6.44.8 9.66 1.23s6.42.9 9.6 1.51l-2.13 1.55q.39-4.77.9-9.51c.34-3.17.75-6.33 1.14-9.49v.26l-.33-10.87c-.11-3.63-.14-7.27-.31-10.89a80.79 80.79 0 0 0 -1.07-10.8 18.13 18.13 0 0 0 -.64-2.57 6.42 6.42 0 0 0 -1.14-2.21 1.06 1.06 0 0 0 -1.6-.15 5.82 5.82 0 0 0 -1.45 1.85l.11-.49a60.21 60.21 0 0 1 -.65 11.18 84.46 84.46 0 0 1 -2.27 10.84c-1 3.56-2.21 7-3.42 10.52s-2.34 7-3.34 10.55z"/><path d="m44.71 6s-5 38-22 43-12-43-12-43-4-3-6 1-8 42 2 58c0 0 23-1 23 2s15 0 15 0-2-19 3-27 3-29-3-34z" fill="#eace88"/><path d="m44.77 6.2a.09.09 0 0 0 .1 0 .28.28 0 0 1 0 .08v.2.39l-.07.79-.18 1.56c-.12 1.05-.28 2.09-.44 3.12q-.49 3.12-1.14 6.22a90.34 90.34 0 0 1 -3.5 12.18 49.1 49.1 0 0 1 -5.82 11.46 26.07 26.07 0 0 1 -4.42 4.93 16.91 16.91 0 0 1 -5.95 3.37 9.54 9.54 0 0 1 -3.69.46 7.61 7.61 0 0 1 -3.66-1.32 12.61 12.61 0 0 1 -4.19-5.68 41.5 41.5 0 0 1 -2.5-12.7 153.09 153.09 0 0 1 .83-25.26l.22.52a4.29 4.29 0 0 0 -3.36-.91 3.55 3.55 0 0 0 -2.2 2.69 61.38 61.38 0 0 0 -1.56 8.06 127.32 127.32 0 0 0 -1.14 16.44 105.6 105.6 0 0 0 1.09 16.33c.82 5.33 2.2 10.67 4.9 15l-1.45-.73c3.3-.16 6.58-.25 9.88-.25a74.65 74.65 0 0 1 10.05.52 13.84 13.84 0 0 1 2.78.66 5.42 5.42 0 0 1 .86.44 2.92 2.92 0 0 1 1.08 1.13 2.86 2.86 0 0 1 .21.58 3.06 3.06 0 0 1 .05.32v.2a.85.85 0 0 0 -.08-.39 1.23 1.23 0 0 0 -.18-.29c0-.06-.12-.1-.11-.1a2.18 2.18 0 0 0 .49.13 6.5 6.5 0 0 0 1 .11 18.65 18.65 0 0 0 2.24 0c1.55-.08 3.13-.26 4.71-.48s3.19-.46 4.74-.74l-1.47 2a83.8 83.8 0 0 1 .11-16.17 37.62 37.62 0 0 1 1.71-8.07l.81-2 1-1.87a14.18 14.18 0 0 0 1.48-3.25 40.75 40.75 0 0 0 1.3-15.22 44.21 44.21 0 0 0 -1.25-7.66 22.58 22.58 0 0 0 -1.31-3.64 13.19 13.19 0 0 0 -.93-1.69 6.23 6.23 0 0 0 -.57-.78c-.1-.14-.2-.24-.25-.33s-.13-.23-.22-.36zm-.13-.33a3.55 3.55 0 0 1 .94.7 8.19 8.19 0 0 1 .68.76 11.19 11.19 0 0 1 1.14 1.67 23.76 23.76 0 0 1 1.69 3.66 39.59 39.59 0 0 1 1.91 7.8 51.33 51.33 0 0 1 .55 8 33.25 33.25 0 0 1 -1 8.13 17.15 17.15 0 0 1 -1.6 4l-.81 1.61-.56 1.8a37 37 0 0 0 -1.29 7.44 90.5 90.5 0 0 0 .24 15.44l.16 1.66-1.62.33a68.66 68.66 0 0 1 -10 1.36 23.37 23.37 0 0 1 -2.65 0 9.85 9.85 0 0 1 -1.42-.23 4.88 4.88 0 0 1 -1.82-.67 2.94 2.94 0 0 1 -1.09-1.27 2.74 2.74 0 0 1 -.22-1v.06a.51.51 0 0 0 0 .17 1.16 1.16 0 0 0 .1.28.9.9 0 0 0 .22.29l-.19-.07a10.21 10.21 0 0 0 -2-.49 71.62 71.62 0 0 0 -9.5-.69c-3.23-.06-6.49 0-9.71 0h-1l-.48-.79a30.93 30.93 0 0 1 -3.31-7.97 57.64 57.64 0 0 1 -1.52-8.36 99.78 99.78 0 0 1 -.25-16.75 163.79 163.79 0 0 1 1.85-16.56 70.78 70.78 0 0 1 1.71-8.18 6.58 6.58 0 0 1 1-2 3.76 3.76 0 0 1 1.87-1.44 4.17 4.17 0 0 1 2.34.04 6.73 6.73 0 0 1 2 1l.25.17v.34c-.33 4.14-.45 8.33-.37 12.49a113.74 113.74 0 0 0 .83 12.4 60 60 0 0 0 1.06 6 30.45 30.45 0 0 0 1.79 5.69 10.09 10.09 0 0 0 3.14 4.31 5.27 5.27 0 0 0 4.68.49c3.6-1 6.57-3.86 9-7a39.63 39.63 0 0 0 3.25-5.12 60.17 60.17 0 0 0 2.68-5.54 109 109 0 0 0 4.17-11.7c.6-2 1.16-4 1.66-6l.73-3 .35-1.53.17-.76.08-.39v-.19-.11a.36.36 0 0 1 .17-.28z"/></svg>