<svg viewBox="0 0 55.63 37.7" xmlns="http://www.w3.org/2000/svg"><path d="m9.57 2.87s-10 7-8 17v12s3 6 11 4 15-9 15-9 12 8 16 7 9-1 10-5 0-18 0-18 0-9-4-9-13.15 4-16.07 2-22.93-5-23.93-1z" fill="#fff"/><path d="m9.72 3a21 21 0 0 0 -1.72 1.76c-.59.6-1.1 1.24-1.59 1.88a22.46 22.46 0 0 0 -2.41 4.08 15.71 15.71 0 0 0 -1.28 4.42 14 14 0 0 0 .22 4.47v.13.13c.05 2 .12 4 .15 6l.07 6-.16-.7a6.87 6.87 0 0 0 .86 1.16 7.7 7.7 0 0 0 1.17 1 8 8 0 0 0 2.84 1.27 10.51 10.51 0 0 0 3.28.14 15.35 15.35 0 0 0 1.71-.3 17.65 17.65 0 0 0 1.71-.44 31.37 31.37 0 0 0 6.67-3 32.09 32.09 0 0 0 3.09-2.08 28.6 28.6 0 0 0 2.85-2.39l.33-.32.37.25a57.24 57.24 0 0 0 10.35 5.54l1.37.48c.46.12.92.27 1.37.37a5.55 5.55 0 0 0 2.51.09c2-.57 4-.9 5.67-1.53a6.7 6.7 0 0 0 2.13-1.22 3.22 3.22 0 0 0 .93-1.83 36.38 36.38 0 0 0 .22-5.62c-.07-3.89-.32-7.85-.65-11.75v-.13a19.1 19.1 0 0 0 -1-5.69c-.94-1.8-.64-1.52-3.15-1.22-2 .36-4.11 1-6.28 1.42-1.08.23-2.2.43-3.36.57a11 11 0 0 1 -3.84-.13l-.54-.15c-.2-.09-.39-.19-.58-.29l-.45-.25a1.4 1.4 0 0 0 -.2-.13 10 10 0 0 0 -1.29-.55c-.95-.33-2-.62-3-.88-2.05-.51-4.15-.95-6.26-1.28a54.67 54.67 0 0 0 -6.37-.71 18.49 18.49 0 0 0 -3.16.09 6.61 6.61 0 0 0 -1.49.34 1.63 1.63 0 0 0 -1.09 1zm-.29-.2a2.43 2.43 0 0 1 .13-.38c.08-.13.17-.26.26-.38l.34-.31.37-.25a6.79 6.79 0 0 1 1.59-.67 19.74 19.74 0 0 1 3.31-.56 44.47 44.47 0 0 1 6.63-.07 61.54 61.54 0 0 1 6.59.75c1.1.19 2.19.41 3.31.71a12.78 12.78 0 0 1 1.76.61 4.88 4.88 0 0 1 .5.26.89.89 0 0 0 .27.13.41.41 0 0 1 .15.07h.25a8.57 8.57 0 0 0 2.63-.1c1-.18 2-.42 3-.68 2.08-.47 4.14-1.12 6.4-1.59a16.12 16.12 0 0 1 1.8-.29 8.54 8.54 0 0 1 1.06 0 4.09 4.09 0 0 1 1.4.3 4.84 4.84 0 0 1 2 1.62 7.94 7.94 0 0 1 1 1.86 19.41 19.41 0 0 1 1.14 7.08v-.13c.19 4 .31 8 .23 12a32.84 32.84 0 0 1 -.55 6.22 5.93 5.93 0 0 1 -2 3.21 8.59 8.59 0 0 1 -3.13 1.48c-2.08.55-4.08.66-5.95 1a7 7 0 0 1 -3.36-.33c-.5-.15-1-.34-1.46-.52l-1.4-.62a99.81 99.81 0 0 1 -10.43-5.93l.69-.07a57.94 57.94 0 0 1 -5.86 5 33.32 33.32 0 0 1 -6.72 3.95 14.4 14.4 0 0 1 -8.09 1.37 9.89 9.89 0 0 1 -4.08-1.65 10.11 10.11 0 0 1 -1.67-1.46 8.45 8.45 0 0 1 -1.37-1.86l-.17-.32v-.38l.08-6c0-2 .1-4 .15-6v.26a15.19 15.19 0 0 1 .12-5.38 16.05 16.05 0 0 1 1.97-4.89 21.17 21.17 0 0 1 3.18-4 20.5 20.5 0 0 1 3.93-3.09z"/></svg>