<svg viewBox="0 0 36.94 112.86" xmlns="http://www.w3.org/2000/svg"><path d="m30.26 45.58 6 66s-15-11-26-66c0 0 19 5 20 0z" fill="#eace88"/><path d="m30.27 45.41c.54 4.94 1.21 10.15 1.92 15.51l1.1 8.15c.35 2.78.73 5.55 1.05 8.39.66 5.65 1.06 11.54 1.32 17.25s.57 11.29 1.14 16.83l.14 1.32-1-.84a24.53 24.53 0 0 1 -3.22-3.32c-.49-.58-1-1.17-1.42-1.78s-.94-1.19-1.35-1.83l-1.29-1.87c-.42-.63-.8-1.29-1.21-1.93-.82-1.27-1.56-2.59-2.3-3.91a112.31 112.31 0 0 1 -7.37-16.56c-1-2.83-2-5.7-2.91-8.57l-1.23-4.34c-.4-1.46-.87-2.89-1.17-4.37-.66-2.94-1.41-5.85-2-8.81s-1.11-5.91-1.62-8.87l-.39-2.29 2.15.64c1.63.48 3.33.92 5 1.34s3.38.77 5.08 1.07a34.13 34.13 0 0 0 5.11.56 9.75 9.75 0 0 0 2.49-.24 3.82 3.82 0 0 0 1.09-.47 2 2 0 0 0 .42-.4 1.21 1.21 0 0 0 .19-.31 3.1 3.1 0 0 1 .28-.35zm0 .35c0 .27.14.28 0 .55a2.58 2.58 0 0 1 -.44.6 3.87 3.87 0 0 1 -1.2.78 10.62 10.62 0 0 1 -2.68.66 28.71 28.71 0 0 1 -5.4.12c-1.79-.1-3.56-.31-5.32-.56s-3.51-.56-5.28-.95l1.76-1.65c.75 2.88 1.45 5.78 2.15 8.67l2.25 8.63 2.36 8.59c.84 2.84 1.65 5.7 2.57 8.52l1.42 4.21c.47 1.4 1 2.77 1.53 4.16s1.05 2.77 1.61 4.14 1.09 2.76 1.71 4.1 1.19 2.71 1.88 4c.34.65.66 1.32 1 2l1.1 1.92c.35.65.77 1.25 1.16 1.88s.83 1.23 1.27 1.81a18.7 18.7 0 0 0 2.9 3.21l-.87.49c-.42-5.46-1.09-10.91-1.85-16.17s-1.38-10.4-1.69-15.75c-.18-2.66-.29-5.39-.45-8.11l-.4-8.35c-.36-5.65-.66-11.44-1.11-17.5z"/><path d="m2.26 1.58s-6.26 37.73 12.88 44.87 16.12-12.87 16.12-12.87v-25s0-7-7-7h-22z" fill="#fff"/><path d="m2.37 1.72c.09 0 0 .09 0 .19v.91 1.2 2.4 4.77c.06 3.18.22 6.34.54 9.47a62.79 62.79 0 0 0 1.55 9.21 35.23 35.23 0 0 0 3.09 8.61 16.05 16.05 0 0 0 6.15 6.62 20.21 20.21 0 0 0 4.3 1.71 16.08 16.08 0 0 0 4.6.61 7.87 7.87 0 0 0 4.2-1.31 7.12 7.12 0 0 0 2.51-3.46 18.28 18.28 0 0 0 .47-8.85v-.22c-.16-4.84-.27-9.68-.36-14.52-.05-2.42-.08-4.84-.07-7.26v-3.18a1.51 1.51 0 0 0 0-.29 6.8 6.8 0 0 0 -.76-2.71 4.4 4.4 0 0 0 -1.75-1.82 6.76 6.76 0 0 0 -2.84-.63l-7.26-.32q-3.63-.19-7.26-.45l-3.59-.29c-1.18-.11-2.5-.18-3.52-.39zm-.23-.27c1.4-.21 2.51-.27 3.75-.39l3.63-.29c2.42-.18 4.84-.32 7.26-.45l7.22-.32a10.12 10.12 0 0 1 4.27.74 7.6 7.6 0 0 1 3.42 3.09 9.94 9.94 0 0 1 1.39 4.17v.61 3.19q0 3.63-.08 7.26c-.09 4.84-.19 9.68-.36 14.52v-.21a21.82 21.82 0 0 1 -.15 5.12 15.74 15.74 0 0 1 -1.46 4.92 9.21 9.21 0 0 1 -3.43 3.89 9.88 9.88 0 0 1 -4.94 1.24 19.51 19.51 0 0 1 -4.89-.7 31.32 31.32 0 0 1 -4.67-1.58 19.7 19.7 0 0 1 -7.6-6.5 27.39 27.39 0 0 1 -4.09-9.13 50 50 0 0 1 -1.35-9.77 67.47 67.47 0 0 1 .3-9.75c.17-1.61.38-3.22.64-4.81.13-.8.3-1.59.47-2.39.08-.39.17-.79.27-1.18l.15-.59.11-.29a1.72 1.72 0 0 1 .14-.4z"/></svg>