<svg viewBox="0 0 28.47 69.28" xmlns="http://www.w3.org/2000/svg"><path d="m21.79 2 6 66s-15-11-26-66c0 0 19 5 20 0z" fill="#eace88"/><path d="m21.8 1.83c.54 5 1.21 10.16 1.92 15.51l1.1 8.16c.35 2.78.73 5.54 1.05 8.38.69 5.65 1.06 11.54 1.32 17.25s.57 11.29 1.14 16.87l.14 1.32-1-.83a24.53 24.53 0 0 1 -3.22-3.32c-.49-.58-1-1.18-1.41-1.79s-.95-1.19-1.36-1.82l-1.29-1.88c-.42-.63-.8-1.28-1.21-1.92-.82-1.27-1.56-2.59-2.3-3.92a111.11 111.11 0 0 1 -7.37-16.59c-1.05-2.84-2-5.71-2.92-8.57l-1.23-4.35c-.39-1.45-.87-2.89-1.16-4.33-.67-3-1.42-5.89-2-8.84s-1.1-5.91-1.61-8.87l-.39-2.29 2.15.63c1.63.49 3.33.93 5 1.35s3.38.76 5.08 1.07a35.49 35.49 0 0 0 5.11.56 9.32 9.32 0 0 0 2.49-.25 3.34 3.34 0 0 0 1.09-.47 1.77 1.77 0 0 0 .42-.4 1.51 1.51 0 0 0 .2-.31 4 4 0 0 1 .26-.35zm0 .35c0 .27.14.29 0 .56a2.12 2.12 0 0 1 -.44.59 3.87 3.87 0 0 1 -1.2.78 10.64 10.64 0 0 1 -2.68.67 28.7 28.7 0 0 1 -5.4.11c-1.79-.09-3.56-.3-5.32-.56s-3.5-.56-5.27-.94l1.69-1.66c.75 2.89 1.45 5.78 2.15 8.68l2.25 8.59 2.42 8.62c.83 2.85 1.64 5.71 2.56 8.52l1.42 4.21c.47 1.41 1 2.78 1.53 4.17s1.05 2.77 1.61 4.14 1.09 2.75 1.71 4.09 1.19 2.71 1.88 4c.34.66.66 1.33 1 2l1.1 1.93c.35.65.77 1.25 1.17 1.88a20.69 20.69 0 0 0 1.26 1.8 19.15 19.15 0 0 0 2.9 3.22l-.87.49c-.42-5.46-1.09-10.91-1.85-16.17s-1.42-10.41-1.72-15.76c-.18-2.66-.29-5.4-.44-8.12l-.41-8.35c-.29-5.67-.62-11.43-1.07-17.49z"/></svg>