<svg viewBox="0 0 33.14 48.54" xmlns="http://www.w3.org/2000/svg"><path d="m2.26 1.58s-6.26 37.73 12.88 44.87 16.12-12.87 16.12-12.87v-25s0-7-7-7h-22z" fill="#fff"/><path d="m2.37 1.72c.09 0 0 .09 0 .19v.91 1.2 2.4 4.77c.06 3.18.22 6.34.54 9.47a62.79 62.79 0 0 0 1.55 9.21 35.23 35.23 0 0 0 3.09 8.61 16.05 16.05 0 0 0 6.15 6.62 20.21 20.21 0 0 0 4.3 1.71 16.08 16.08 0 0 0 4.6.61 7.87 7.87 0 0 0 4.2-1.31 7.12 7.12 0 0 0 2.51-3.46 18.28 18.28 0 0 0 .47-8.85v-.22c-.16-4.84-.27-9.68-.36-14.52-.05-2.42-.08-4.84-.07-7.26v-3.18a1.51 1.51 0 0 0 0-.29 6.8 6.8 0 0 0 -.76-2.71 4.4 4.4 0 0 0 -1.75-1.82 6.76 6.76 0 0 0 -2.84-.63l-7.26-.32q-3.63-.19-7.26-.45l-3.59-.29c-1.18-.11-2.5-.18-3.52-.39zm-.23-.27c1.4-.21 2.51-.27 3.75-.39l3.63-.29c2.42-.18 4.84-.32 7.26-.45l7.22-.32a10.12 10.12 0 0 1 4.27.74 7.6 7.6 0 0 1 3.42 3.09 9.94 9.94 0 0 1 1.39 4.17v.61 3.19q0 3.63-.08 7.26c-.09 4.84-.19 9.68-.36 14.52v-.21a21.82 21.82 0 0 1 -.15 5.12 15.74 15.74 0 0 1 -1.46 4.92 9.21 9.21 0 0 1 -3.43 3.89 9.88 9.88 0 0 1 -4.94 1.24 19.51 19.51 0 0 1 -4.89-.7 31.32 31.32 0 0 1 -4.67-1.58 19.7 19.7 0 0 1 -7.6-6.5 27.39 27.39 0 0 1 -4.09-9.13 50 50 0 0 1 -1.35-9.77 67.47 67.47 0 0 1 .3-9.75c.17-1.61.38-3.22.64-4.81.13-.8.3-1.59.47-2.39.08-.39.17-.79.27-1.18l.15-.59.11-.29a1.72 1.72 0 0 1 .14-.4z"/></svg>