<svg viewBox="0 0 35.53 110.07" xmlns="http://www.w3.org/2000/svg"><path d="m31.9 10-1 28s-2 9-8 7-16 0-20-23 4-20 4-20h18s6 0 7 8z" fill="#fff"/><path d="m32.07 10c-.07 2.3-.07 4.63-.07 7s.2 4.66.33 7a124.44 124.44 0 0 1 .13 14v.19.09a15.33 15.33 0 0 1 -1.88 4.35 11.51 11.51 0 0 1 -1.58 1.93 6.8 6.8 0 0 1 -2.22 1.44c-.22.07-.42.16-.64.21l-.67.1a4.78 4.78 0 0 1 -1.31 0 6.13 6.13 0 0 1 -1.23-.31c-.43-.13-.67-.24-1-.35-1.29-.45-2.69-.78-4.09-1.16a18 18 0 0 1 -7.75-4.1 24.58 24.58 0 0 1 -5.09-7.24 55.91 55.91 0 0 1 -4.57-16.82 36.61 36.61 0 0 1 -.26-9 7.07 7.07 0 0 1 .18-1.14l.26-1.19.44-1.23a8.94 8.94 0 0 1 .64-1.22 7.34 7.34 0 0 1 1-1.18 6.65 6.65 0 0 1 .6-.51 2.68 2.68 0 0 1 .71-.42 4.49 4.49 0 0 1 1.71-.44 5.06 5.06 0 0 1 .87 0 4 4 0 0 1 .42.1 4.7 4.7 0 0 1 .52.15l-.62-.12c2.46 0 4.93.09 7.4.22s4.93.32 7.39.55l1.85.17c.64.08 1.18.07 1.95.22a7.9 7.9 0 0 1 3.51 1.85 9.1 9.1 0 0 1 2.15 3.17 15.31 15.31 0 0 1 .92 3.69zm-.35 0a11.86 11.86 0 0 0 -1-3.46 7.23 7.23 0 0 0 -2.26-2.69 6.12 6.12 0 0 0 -3.17-1.08c-.45 0-1.15.09-1.75.13l-1.85.17c-2.46.23-4.93.42-7.39.56s-4.94.16-7.4.21l-.65-.14h-.08a1.41 1.41 0 0 0 -.2 0 .94.94 0 0 0 -.37.11.47.47 0 0 0 -.18.19 1.15 1.15 0 0 0 -.19.14c-.11.19-.27.25-.38.5a4.18 4.18 0 0 0 -.34.67l-.3.69c-.11.61-.31 1.17-.37 1.83a36 36 0 0 0 -.09 8.17c.09 1.38.27 2.77.44 4.17s.41 2.77.61 4.15a50.14 50.14 0 0 0 1.91 8.14 18.51 18.51 0 0 0 4.15 7.09 13.26 13.26 0 0 0 7.27 3.65c1.37.29 2.79.42 4.25.74a9.43 9.43 0 0 0 1.92.29 2.69 2.69 0 0 0 .81-.11l.39-.12c.12 0 .23-.13.35-.18a5.9 5.9 0 0 0 2.24-2.6 16.37 16.37 0 0 0 .76-1.76c.2-.6.39-1.27.52-1.82v.28a121.35 121.35 0 0 1 1.07-13.92c.29-2.33.58-4.66.82-7s.39-4.68.46-7z"/><path d="m29.9 42 5 67s-6.26-3.73-12-16c-4.77-10.2-8.83-26.14-12-52 0 0 18 9 19 1z" fill="#eace88"/><path d="m29.9 41.8c.45 5 1 10.32 1.66 15.76l1 8.27.95 8.51c.62 5.74.91 11.71 1.09 17.51s.39 11.46.87 17.09l.09 1.13-.91-.63a32.89 32.89 0 0 1 -6.77-6.55 57.26 57.26 0 0 1 -5.21-7.8 78.46 78.46 0 0 1 -6.86-17.4c-.86-3-1.62-6-2.31-9s-1.24-6.07-1.74-9.12q-1.48-9.16-2.24-18.39l-.25-2.68 2.26 1.21c1.51.8 3.12 1.56 4.71 2.26a46.69 46.69 0 0 0 4.9 1.83 16.26 16.26 0 0 0 5 .84 4.28 4.28 0 0 0 2.31-.64 5.32 5.32 0 0 0 .45-.38c.13-.15.25-.31.37-.48s.18-.35.28-.58a4.43 4.43 0 0 1 .35-.76zm0 .35c0 .25.1.42.09.56s-.12.45-.19.68-.22.44-.34.65a4.44 4.44 0 0 1 -.5.56 5.27 5.27 0 0 1 -2.65 1.21 16.1 16.1 0 0 1 -5.59-.2 41.56 41.56 0 0 1 -5.32-1.39 53.54 53.54 0 0 1 -5.13-2l2.05-1.45c1 6.06 2 12.1 3.08 18.11.56 3 1.08 6 1.71 9s1.21 6 1.95 8.92a106.81 106.81 0 0 0 5.66 17.2 48.94 48.94 0 0 0 4.35 8 31 31 0 0 0 2.79 3.56 18.9 18.9 0 0 0 3.32 3l-.82.51c-.36-5.6-.96-11.07-1.63-16.47s-1.2-10.56-1.41-16l-.58-16.7c-.2-5.73-.46-11.61-.85-17.75z"/></svg>