<svg viewBox="0 0 26.27 71.57" xmlns="http://www.w3.org/2000/svg"><path d="m20.63 3.48 5 67s-6.25-3.73-12-16c-4.77-10.19-8.82-26.14-12-52 0 0 18 9 19 1z" fill="#eace88"/><path d="m20.64 3.3c.44 5 1 10.32 1.65 15.76l1 8.27.94 8.51c.62 5.74.92 11.71 1.09 17.52s.39 11.46.87 17.08l.1 1.13-.92-.63a33.4 33.4 0 0 1 -6.77-6.55 56.64 56.64 0 0 1 -5.21-7.8 79 79 0 0 1 -6.86-17.4c-.86-3-1.61-6-2.3-9s-1.23-6.09-1.77-9.19q-1.46-9.12-2.24-18.35l-.22-2.65 2.27 1.21c1.5.79 3.11 1.56 4.73 2.27a51.45 51.45 0 0 0 4.89 1.83 16.93 16.93 0 0 0 5 .84 4.35 4.35 0 0 0 2.29-.66 3.94 3.94 0 0 0 .45-.38c.13-.15.25-.31.37-.48s.19-.35.28-.57a3.61 3.61 0 0 1 .36-.76zm0 .35c0 .26.1.42.09.56s-.13.45-.2.68a5.75 5.75 0 0 1 -.34.65 4.46 4.46 0 0 1 -.49.57 5.42 5.42 0 0 1 -2.7 1.2 16.1 16.1 0 0 1 -5.59-.2 39.83 39.83 0 0 1 -5.28-1.39 51.58 51.58 0 0 1 -5.13-1.97l2-1.44c1 6 2 12.09 3.08 18.1.56 3 1.08 6 1.71 9s1.21 6 1.95 8.92a106.81 106.81 0 0 0 5.67 17.22 49 49 0 0 0 4.36 7.94 30 30 0 0 0 2.83 3.51 18.08 18.08 0 0 0 3.31 3l-.82.51c-.35-5.55-1-11.07-1.63-16.42s-1.2-10.55-1.41-16l-.58-16.69c-.2-5.73-.47-11.61-.84-17.75z"/></svg>