<svg viewBox="0 0 32.61 46.3" xmlns="http://www.w3.org/2000/svg"><path d="m31.9 10-1 28s-2 9-8 7-16 0-20-23 4-20 4-20h18s6 0 7 8z" fill="#fff"/><path d="m32.07 10c-.07 2.3-.07 4.63-.07 7s.2 4.66.33 7a124.44 124.44 0 0 1 .13 14v.19.09a15.33 15.33 0 0 1 -1.88 4.35 11.51 11.51 0 0 1 -1.58 1.93 6.8 6.8 0 0 1 -2.22 1.44c-.22.07-.42.16-.64.21l-.67.1a4.78 4.78 0 0 1 -1.31 0 6.13 6.13 0 0 1 -1.23-.31c-.43-.13-.67-.24-1-.35-1.29-.45-2.69-.78-4.09-1.16a18 18 0 0 1 -7.75-4.1 24.58 24.58 0 0 1 -5.09-7.24 55.91 55.91 0 0 1 -4.57-16.82 36.61 36.61 0 0 1 -.26-9 7.07 7.07 0 0 1 .18-1.14l.26-1.19.44-1.23a8.94 8.94 0 0 1 .64-1.22 7.34 7.34 0 0 1 1-1.18 6.65 6.65 0 0 1 .6-.51 2.68 2.68 0 0 1 .71-.42 4.49 4.49 0 0 1 1.71-.44 5.06 5.06 0 0 1 .87 0 4 4 0 0 1 .42.1 4.7 4.7 0 0 1 .52.15l-.62-.12c2.46 0 4.93.09 7.4.22s4.93.32 7.39.55l1.85.17c.64.08 1.18.07 1.95.22a7.9 7.9 0 0 1 3.51 1.85 9.1 9.1 0 0 1 2.15 3.17 15.31 15.31 0 0 1 .92 3.69zm-.35 0a11.86 11.86 0 0 0 -1-3.46 7.23 7.23 0 0 0 -2.26-2.69 6.12 6.12 0 0 0 -3.17-1.08c-.45 0-1.15.09-1.75.13l-1.85.17c-2.46.23-4.93.42-7.39.56s-4.94.16-7.4.21l-.65-.14h-.08a1.41 1.41 0 0 0 -.2 0 .94.94 0 0 0 -.37.11.47.47 0 0 0 -.18.19 1.15 1.15 0 0 0 -.19.14c-.11.19-.27.25-.38.5a4.18 4.18 0 0 0 -.34.67l-.3.69c-.11.61-.31 1.17-.37 1.83a36 36 0 0 0 -.09 8.17c.09 1.38.27 2.77.44 4.17s.41 2.77.61 4.15a50.14 50.14 0 0 0 1.91 8.14 18.51 18.51 0 0 0 4.15 7.09 13.26 13.26 0 0 0 7.27 3.65c1.37.29 2.79.42 4.25.74a9.43 9.43 0 0 0 1.92.29 2.69 2.69 0 0 0 .81-.11l.39-.12c.12 0 .23-.13.35-.18a5.9 5.9 0 0 0 2.24-2.6 16.37 16.37 0 0 0 .76-1.76c.2-.6.39-1.27.52-1.82v.28a121.35 121.35 0 0 1 1.07-13.92c.29-2.33.58-4.66.82-7s.39-4.68.46-7z"/></svg>