<svg viewBox="0 0 32.78 125.17" xmlns="http://www.w3.org/2000/svg"><path d="m31.56 18.62-.91 19s-3 17-13 16c-8.79-.88-13.72-11-14.78-13.48a3.09 3.09 0 0 1 -.24-1l-.9-20.72a4.66 4.66 0 0 1 1-3.13l10.36-12.75a2.3 2.3 0 0 1 3.37-.22l13.74 12.93a4.36 4.36 0 0 1 1.36 3.37z" fill="#fff"/><path d="m31.73 18.62c-.07 1.59-.13 3.17-.14 4.76s0 3.17.06 4.76c.09 3.18.26 6.36.32 9.54v.14a29.5 29.5 0 0 1 -1.83 7 20.35 20.35 0 0 1 -3.86 6.34 11.84 11.84 0 0 1 -3.07 2.39 8.86 8.86 0 0 1 -3.82 1 13.31 13.31 0 0 1 -7.07-2.11c-4.11-2.59-7-6.46-9.37-10.56-.3-.52-.56-1-.84-1.6a3.65 3.65 0 0 1 -.31-1.07l-.09-.9-.35-3.47c-.26-2.23-.49-4.55-.68-6.84l-.49-7-.12-1.7-.07-.88a5.9 5.9 0 0 1 0-1.19 6.27 6.27 0 0 1 .81-2.23 7.81 7.81 0 0 1 .65-1l.54-.67q4.26-5.5 8.79-10.8l.57-.66a8.71 8.71 0 0 1 .73-.81 4 4 0 0 1 2.77-1.06 3.92 3.92 0 0 1 2.69 1.13l1.2 1.28c1.6 1.68 3.14 3.43 4.69 5.17s3.1 3.48 4.69 5.18l2.43 2.52a4.68 4.68 0 0 1 1.17 3.34zm-.35 0a4 4 0 0 0 -1.17-3c-.83-.76-1.74-1.52-2.62-2.27q-2.7-2.24-5.45-4.35c-1.83-1.47-3.67-2.9-5.45-4.4l-1.34-1.11a.62.62 0 0 0 -.47-.1.55.55 0 0 0 -.38.2l-.93 1.2q-4.26 5.51-8.76 10.82l-.57.66a4.31 4.31 0 0 0 -.35.47 3.06 3.06 0 0 0 -.39 1 3.31 3.31 0 0 0 0 .55v.86 1.74l.11 7c0 2.32 0 4.65-.06 7v3.49.84a2.16 2.16 0 0 0 .1.61c.18.49.41 1 .64 1.55a24 24 0 0 0 1.59 3 22.56 22.56 0 0 0 2 2.79 16.17 16.17 0 0 0 5.14 4.3 11.71 11.71 0 0 0 3.1 1.1c.54.11 1.08.13 1.61.19a7.82 7.82 0 0 0 1.54-.1 8.1 8.1 0 0 0 4.91-3.28 24.27 24.27 0 0 0 3.13-5.64 52.4 52.4 0 0 0 2.15-6.29v.17c.36-3.16.83-6.31 1.22-9.47.19-1.58.38-3.16.51-4.74s.11-3.22.19-4.8z"/><path d="m27.72 53c.28 8.1 1.11 34.2 3.07 44.42a57.47 57.47 0 0 1 1.06 9.71c.14 7.1.12 17.49-1.2 17.49-2 0-10-21-10-21l-8.23-21.05a13.31 13.31 0 0 1 -.9-4l-1.87-27.95s4.46 6.24 15.91 1a1.54 1.54 0 0 1 2.16 1.38z" fill="#eace88"/><path d="m27.89 53c.15 6.25.77 12.49 1.53 18.71s1.4 12.44 2 18.61c.09.77.17 1.54.23 2.31l.26 2.3.3 2.27c.11.79.22 1.59.31 2.38a63.51 63.51 0 0 1 .23 9.54l-.37 9.42a43.1 43.1 0 0 1 -.46 4.75 4.61 4.61 0 0 1 -.4 1.29 1.32 1.32 0 0 1 -.35.4.74.74 0 0 1 -.38.15.83.83 0 0 1 -.36 0 1.25 1.25 0 0 1 -.44-.24 1.69 1.69 0 0 1 -.27-.25 11.84 11.84 0 0 1 -1.44-2c-6.12-11.11-10.72-22.78-15.47-34.34l-1.81-4.38a17.89 17.89 0 0 1 -.86-2.42 15.55 15.55 0 0 1 -.45-2.63c-.23-3.17-.43-6.26-.58-9.39q-.57-9.38-.51-18.79v-3.62l1.93 2.93a5.87 5.87 0 0 0 1.47 1.47 8.54 8.54 0 0 0 2 1.07 11.49 11.49 0 0 0 4.72.64 19.21 19.21 0 0 0 4.83-1l1.16-.45.59-.23a1.94 1.94 0 0 1 .67-.19 1.75 1.75 0 0 1 1.92 1.69zm-.35 0a1.36 1.36 0 0 0 -1.48-1.3 5.9 5.9 0 0 0 -1.11.41l-1.16.51a22.27 22.27 0 0 1 -4.91 1.4 13.62 13.62 0 0 1 -5.24-.1 10.12 10.12 0 0 1 -2.56-.92 7.81 7.81 0 0 1 -2.3-1.78l2-.69q1.32 9.31 2 18.68l.37 4.68.3 4.66a11.28 11.28 0 0 0 .33 2 17 17 0 0 0 .67 2l1.55 4.45c2.17 5.87 4.41 11.72 6.45 17.64 1 2.94 2 5.9 3.15 8.81a81.32 81.32 0 0 0 3.7 8.55 10.68 10.68 0 0 0 1.18 1.85.7.7 0 0 0 .15.15h.06s0 0-.07 0-.11 0-.12 0 0 0 0 0a3.43 3.43 0 0 0 .3-1 27.68 27.68 0 0 0 .43-4.59c.06-1.55.06-3.11 0-4.67s-.11-3.12-.21-4.68a57 57 0 0 0 -1.09-9.06c-.14-.75-.31-1.5-.48-2.25s-.34-1.57-.48-2.36c-.26-1.57-.52-3.13-.68-4.71-1.57-12.54-.23-25.14-.75-37.68z"/></svg>