<svg viewBox="0 0 24.21 78.1" xmlns="http://www.w3.org/2000/svg"><path d="m19.15 6c.23 8.07 1.11 34.18 3.07 44.4a56.45 56.45 0 0 1 1.05 9.7c.14 7.11.13 17.49-1.19 17.49-2 0-10-21-10-21l-8.24-21a13.62 13.62 0 0 1 -.9-4l-1.86-28.04s4.46 6.25 15.92 1.04a1.54 1.54 0 0 1 2.15 1.41z" fill="#eace88"/><path d="m19.32 6c.15 6.26.77 12.5 1.52 18.72s1.41 12.43 2 18.61c.09.77.17 1.53.23 2.31l.25 2.29.3 2.28c.12.79.23 1.58.31 2.37a63.54 63.54 0 0 1 .23 9.54l-.36 9.42a43.27 43.27 0 0 1 -.46 4.76 4.91 4.91 0 0 1 -.4 1.28 1.21 1.21 0 0 1 -.35.4.78.78 0 0 1 -.39.15.67.67 0 0 1 -.35 0 1.11 1.11 0 0 1 -.44-.23 1.79 1.79 0 0 1 -.28-.26 11.77 11.77 0 0 1 -1.43-2c-6.15-11.22-10.7-22.88-15.51-34.45l-1.78-4.34a18.23 18.23 0 0 1 -.86-2.41 14.92 14.92 0 0 1 -.45-2.63c-.24-3.18-.43-6.26-.58-9.4-.38-6.25-.52-12.51-.52-18.79v-3.62l2 2.93a6 6 0 0 0 1.46 1.47 8.2 8.2 0 0 0 2 1.07 11.46 11.46 0 0 0 4.72.64 18.78 18.78 0 0 0 4.83-1l1.16-.45.58-.23a2.07 2.07 0 0 1 .67-.18 1.75 1.75 0 0 1 1.9 1.75zm-.32 0a1.36 1.36 0 0 0 -1.48-1.3 5.74 5.74 0 0 0 -1.11.42l-1.17.5a22.14 22.14 0 0 1 -4.94 1.38 13.77 13.77 0 0 1 -5.23-.11 9.63 9.63 0 0 1 -2.56-.89 7.64 7.64 0 0 1 -2.3-1.82l1.94-.7c.89 6.21 1.54 12.44 2 18.69l.37 4.68.31 4.66a11.17 11.17 0 0 0 .33 2 18.81 18.81 0 0 0 .66 2l1.64 4.4c2.18 5.87 4.42 11.73 6.46 17.64 1 2.95 2 5.9 3.15 8.82a79.12 79.12 0 0 0 3.67 8.55 9.88 9.88 0 0 0 1.18 1.86c.05 0 .11.13.15.14h.06s0 0-.07 0-.12.05-.12 0 0 0 0 0a3.67 3.67 0 0 0 .3-.95 27.56 27.56 0 0 0 .42-4.58c.06-1.56.06-3.12 0-4.68s-.11-3.12-.21-4.68a58.17 58.17 0 0 0 -1.12-9.17q-.22-1.12-.48-2.25c-.17-.77-.34-1.57-.48-2.35-.26-1.57-.52-3.14-.68-4.71-1.54-12.48-.2-25.08-.69-37.55z"/></svg>