<svg viewBox="0 0 31.97 54.64" xmlns="http://www.w3.org/2000/svg"><path d="m31.56 18.62-.91 19s-3 17-13 16c-8.79-.88-13.72-11-14.78-13.48a3.09 3.09 0 0 1 -.24-1l-.9-20.72a4.66 4.66 0 0 1 1-3.13l10.36-12.75a2.3 2.3 0 0 1 3.37-.22l13.74 12.93a4.36 4.36 0 0 1 1.36 3.37z" fill="#fff"/><path d="m31.73 18.62c-.07 1.59-.13 3.17-.14 4.76s0 3.17.06 4.76c.09 3.18.26 6.36.32 9.54v.14a29.5 29.5 0 0 1 -1.83 7 20.35 20.35 0 0 1 -3.86 6.34 11.84 11.84 0 0 1 -3.07 2.39 8.86 8.86 0 0 1 -3.82 1 13.31 13.31 0 0 1 -7.07-2.11c-4.11-2.59-7-6.46-9.37-10.56-.3-.52-.56-1-.84-1.6a3.65 3.65 0 0 1 -.31-1.07l-.09-.9-.35-3.47c-.26-2.23-.49-4.55-.68-6.84l-.49-7-.12-1.7-.07-.88a5.9 5.9 0 0 1 0-1.19 6.27 6.27 0 0 1 .81-2.23 7.81 7.81 0 0 1 .65-1l.54-.67q4.26-5.5 8.79-10.8l.57-.66a8.71 8.71 0 0 1 .73-.81 4 4 0 0 1 2.77-1.06 3.92 3.92 0 0 1 2.69 1.13l1.2 1.28c1.6 1.68 3.14 3.43 4.69 5.17s3.1 3.48 4.69 5.18l2.43 2.52a4.68 4.68 0 0 1 1.17 3.34zm-.35 0a4 4 0 0 0 -1.17-3c-.83-.76-1.74-1.52-2.62-2.27q-2.7-2.24-5.45-4.35c-1.83-1.47-3.67-2.9-5.45-4.4l-1.34-1.11a.62.62 0 0 0 -.47-.1.55.55 0 0 0 -.38.2l-.93 1.2q-4.26 5.51-8.76 10.82l-.57.66a4.31 4.31 0 0 0 -.35.47 3.06 3.06 0 0 0 -.39 1 3.31 3.31 0 0 0 0 .55v.86 1.74l.11 7c0 2.32 0 4.65-.06 7v3.49.84a2.16 2.16 0 0 0 .1.61c.18.49.41 1 .64 1.55a24 24 0 0 0 1.59 3 22.56 22.56 0 0 0 2 2.79 16.17 16.17 0 0 0 5.14 4.3 11.71 11.71 0 0 0 3.1 1.1c.54.11 1.08.13 1.61.19a7.82 7.82 0 0 0 1.54-.1 8.1 8.1 0 0 0 4.91-3.28 24.27 24.27 0 0 0 3.13-5.64 52.4 52.4 0 0 0 2.15-6.29v.17c.36-3.16.83-6.31 1.22-9.47.19-1.58.38-3.16.51-4.74s.11-3.22.19-4.8z"/></svg>