<svg viewBox="0 0 54.16 82.7" xmlns="http://www.w3.org/2000/svg"><path d="m12.63 75.68s-3-48 14-53 23 44 23 44 4 2 4-11-6-54-6-54h-18l-27 8s-4 65 4 71 6-5 6-5z" fill="#eace88"/><path d="m12.46 75.7c-.27-4.67-.29-9.31-.25-14s.21-9.33.72-14a67.7 67.7 0 0 1 2.77-13.86 26.83 26.83 0 0 1 3.06-6.6 14.72 14.72 0 0 1 5.55-5.24c.6-.29 1.24-.51 1.86-.76s1.33-.31 2-.4a9.22 9.22 0 0 1 4.1.55 14.33 14.33 0 0 1 6.07 4.79 43.22 43.22 0 0 1 6.29 12.92 149 149 0 0 1 5.62 27.53l-.35-.49a1 1 0 0 0 .57 0 1.46 1.46 0 0 0 .63-.4 4.29 4.29 0 0 0 .9-1.6 17.19 17.19 0 0 0 .84-4 49.15 49.15 0 0 0 .16-8.29c-.14-2.79-.42-5.58-.72-8.36s-.64-5.57-1-8.34q-1.17-8.34-2.48-16.65l-2.62-16.61 1.45 1.26-9 .13-9 .08.48-.07-13.46 4.13c-4.49 1.39-9 2.72-13.48 4.05l1.33-1.67c-.36 7-.75 14-1 21s-.44 14-.54 21a138.63 138.63 0 0 0 1.04 20.82 26.91 26.91 0 0 0 1.16 5 8.29 8.29 0 0 0 1.14 2.27 7.83 7.83 0 0 0 2 1.54 4.53 4.53 0 0 0 2.33.8 1.84 1.84 0 0 0 1.69-1.41 7.85 7.85 0 0 0 .37-2.52 15.18 15.18 0 0 0 -.23-2.6zm.35 0a16.51 16.51 0 0 1 .24 2.64 8.16 8.16 0 0 1 -.36 2.66 2.87 2.87 0 0 1 -.74 1.2 2.07 2.07 0 0 1 -1.34.53 5.39 5.39 0 0 1 -2.61-.82c-.39-.22-.78-.45-1.14-.7a4.75 4.75 0 0 1 -1.06-.91 8.78 8.78 0 0 1 -1.36-2.37 31.86 31.86 0 0 1 -1.52-5.11 98.37 98.37 0 0 1 -1.6-10.49c-.38-3.51-.65-7-.86-10.54-.46-7.04-.46-14.08-.46-21.12s.3-14.06.74-21.1l.11-1.31 1.25-.37c4.5-1.33 9-2.67 13.52-3.89l13.54-3.93.25-.07h.22l9 .08 9 .13h1.3l.16 1.24c.72 5.58 1.39 11.15 2 16.74s1.13 11.19 1.65 16.81 1 11.19 1.31 16.82a60.2 60.2 0 0 1 -.05 8.47 18.2 18.2 0 0 1 -.85 4.25 5.88 5.88 0 0 1 -1.15 2 2.31 2.31 0 0 1 -2.61.68l-.28-.12-.11-.34c-.66-4.57-1.64-9.12-2.75-13.61a115.78 115.78 0 0 0 -4.07-13.15c-.82-2.14-1.74-4.23-2.75-6.25a32.09 32.09 0 0 0 -3.52-5.62 11.29 11.29 0 0 0 -4.71-3.77 6.77 6.77 0 0 0 -2.75-.41c-.46.06-.93.17-1.41.25s-.93.34-1.38.54a13 13 0 0 0 -4.59 4.11 29.32 29.32 0 0 0 -3.07 5.83 65.38 65.38 0 0 0 -3.57 13.25 128 128 0 0 0 -1.62 27.73z"/></svg>