<svg viewBox="0 0 64.37 44" xmlns="http://www.w3.org/2000/svg"><path d="m56.89 33.91c2-1 8-5 6-16s-3-14-8-14-12 4-12 4a23.49 23.49 0 0 0 -11-7c-7-2-14 6-14 6h-8.55a7.3 7.3 0 0 0 -7.07 5.43c-.92 3.51-1.3 8.89.62 16.57 4 16 10 13 10 13l25-8z" fill="#fff"/><path d="m56.85 33.74a11.89 11.89 0 0 0 3.9-4.29 13.71 13.71 0 0 0 1.44-5.53 23.37 23.37 0 0 0 -.52-5.76c-.45-2-.85-4-1.35-5.9-.25-1-.52-1.91-.83-2.81a10.33 10.33 0 0 0 -1.1-2.45 3.07 3.07 0 0 0 -1.56-1.3 6.89 6.89 0 0 0 -2.4-.24 13.26 13.26 0 0 0 -2.71.43 27 27 0 0 0 -2.72.85 47.85 47.85 0 0 0 -5.48 2.26l-1 .5-.62-.81a21.93 21.93 0 0 0 -5.07-4.64 22.46 22.46 0 0 0 -3.07-1.71 13.48 13.48 0 0 0 -3.29-1.08 10.84 10.84 0 0 0 -6.64 1.56 21.69 21.69 0 0 0 -5.47 4.48l-.18.21h-.28c-2.21 0-4.41.14-6.62.22l-1.66.07a7.39 7.39 0 0 0 -1.47.2 6.27 6.27 0 0 0 -2.53 1.23 6.07 6.07 0 0 0 -1.68 2.19 6.37 6.37 0 0 0 -.42 1.3c-.11.51-.2 1-.27 1.53a29.15 29.15 0 0 0 -.14 6.27 47.72 47.72 0 0 0 2.83 12.39 21.19 21.19 0 0 0 2.8 5.33 6 6 0 0 0 1.84 1.69 1.7 1.7 0 0 0 .47.2 1.89 1.89 0 0 0 .44.11 1.27 1.27 0 0 0 .39 0h.16.06l.26-.11 6.28-1.92c2.09-.65 4.18-1.28 6.29-1.89s4.19-1.24 6.3-1.83l6.27-1.79.24-.06h.15c3.11.13 6.25.28 9.4.46l4.76.3c1.59.09 3.18.21 4.8.34zm.08.34c-1.56.13-3.13.24-4.7.34l-4.75.3c-3.18.18-6.38.32-9.59.45l.38-.06-6.18 2.22c-2.09.75-4.09 1.45-6.19 2.17s-4.14 1.43-6.22 2.12l-6.22 2.07.26-.11a4.18 4.18 0 0 1 -.43.18l-.35.09a3 3 0 0 1 -.65.11 4.75 4.75 0 0 1 -1.29.04 5.4 5.4 0 0 1 -1.17-.27 4.9 4.9 0 0 1 -1-.46 9.52 9.52 0 0 1 -3-2.7 23.13 23.13 0 0 1 -3.19-6.41 49.46 49.46 0 0 1 -2.64-13.47 28.83 28.83 0 0 1 .54-6.92c.12-.57.27-1.14.43-1.7a8.72 8.72 0 0 1 .75-1.78 8.36 8.36 0 0 1 2.59-2.81 8.46 8.46 0 0 1 3.48-1.38 9.55 9.55 0 0 1 1.83-.1l1.65.07c2.21.07 4.41.18 6.62.21l-.47.21a25.77 25.77 0 0 1 5.88-4.58 15.93 15.93 0 0 1 3.47-1.49 12 12 0 0 1 3.83-.42 17.68 17.68 0 0 1 3.71 1 23.07 23.07 0 0 1 3.45 1.53 24.84 24.84 0 0 1 3.24 2 21.77 21.77 0 0 1 2.92 2.58l-1.67-.31a38 38 0 0 1 5.66-2.8 20.13 20.13 0 0 1 6.37-1.58 8.68 8.68 0 0 1 3.63.45 6.24 6.24 0 0 1 3 2.56 19.27 19.27 0 0 1 2.14 6.25c.41 2 .75 4.06 1 6.09a22.2 22.2 0 0 1 0 6.41 14 14 0 0 1 -2.31 6 11.19 11.19 0 0 1 -4.81 3.9z"/></svg>