<svg viewBox="0 0 67.86 108.6" xmlns="http://www.w3.org/2000/svg"><path d="m15 108.44s2-54 21-50 28 45 28 45 11-34-10-63c0 0-14-3-20 0s-21 4-21 4-18 49 2 64z" fill="#eace88"/><path d="m14.91 108.28c-.09 0-.12.17-.1.1v-1.74-1.79c0-1.2.08-2.39.14-3.58q.18-3.58.49-7.16a120.85 120.85 0 0 1 2.16-14.24 58.93 58.93 0 0 1 4.58-13.87 22 22 0 0 1 4.42-6.2 12.2 12.2 0 0 1 3.4-2.26 10 10 0 0 1 4.1-.87 10.23 10.23 0 0 1 2.07.2c.65.15 1.27.34 1.91.52s1.21.47 1.82.71 1.15.6 1.72.9a25.38 25.38 0 0 1 5.81 4.82 51.84 51.84 0 0 1 7.94 12.27 104.61 104.61 0 0 1 5.27 13.42q1.14 3.4 2.1 6.86c.65 2.31 1.27 4.61 1.79 7h-1a70 70 0 0 0 2.58-16.11 79.61 79.61 0 0 0 -1-16.26 78 78 0 0 0 -1.86-8 74.92 74.92 0 0 0 -2.68-7.63 68.55 68.55 0 0 0 -7.91-14l1 .64a66.93 66.93 0 0 0 -10.07-1.15 32.27 32.27 0 0 0 -4.94.18c-.41 0-.78.13-1.17.19a6.43 6.43 0 0 0 -1.11.26l-.54.15-.49.2-.48.2-.65.3a28.33 28.33 0 0 1 -5.3 1.7q-2.62.61-5.25 1c-3.51.57-7 .93-10.54 1.16l1.6-1.19a158.74 158.74 0 0 0 -4.72 15.99 122.2 122.2 0 0 0 -2.9 16.45 69.79 69.79 0 0 0 -.4 8.3 46.25 46.25 0 0 0 .77 8.25 30.75 30.75 0 0 0 2.53 7.8 21.07 21.07 0 0 0 2.19 3.49c.45.51.89 1.1 1.34 1.57s.86.91 1.38 1.42zm.15.32c-.56-.4-1.23-.82-1.86-1.31s-1-1-1.56-1.51a21.86 21.86 0 0 1 -2.57-3.46 29.34 29.34 0 0 1 -3.26-8 48.07 48.07 0 0 1 -1.29-8.51 68.25 68.25 0 0 1 -.07-8.58 112 112 0 0 1 2.3-16.94 136 136 0 0 1 4.52-16.51l.37-1.09 1.22-.1c3.39-.29 6.83-.7 10.19-1.22a43.29 43.29 0 0 0 9.62-2.37l1.27-.52c.25-.09.49-.2.73-.28l.72-.19a10.72 10.72 0 0 1 1.43-.3c.47-.07.94-.17 1.41-.2a34.72 34.72 0 0 1 5.48-.1 70.4 70.4 0 0 1 10.62 1.43l.67.16.36.51a66.23 66.23 0 0 1 7.88 14.87 64.62 64.62 0 0 1 2.45 8 77.22 77.22 0 0 1 1.45 8.24 84.83 84.83 0 0 1 .25 16.63c-.2 2.77-.57 5.51-1 8.24a67.89 67.89 0 0 1 -1.83 8.12l-.56 1.91-.47-2a107.3 107.3 0 0 0 -10.16-26.41 52.46 52.46 0 0 0 -8.1-11.27 24.86 24.86 0 0 0 -5.27-4.15c-.48-.24-1-.53-1.45-.74s-1-.42-1.5-.59-1-.29-1.54-.4a8.46 8.46 0 0 0 -1.49-.15 7.75 7.75 0 0 0 -5.38 2.24 20.35 20.35 0 0 0 -3.91 5.32 60.67 60.67 0 0 0 -4.73 13.06c-1.19 4.56-2.12 9.21-2.89 13.89-.41 2.33-.76 4.68-1.07 7l-.43 3.54-.22 1.77-.09.89-.05.44v.23.16s-.1.21-.19.25z"/><path d="m12 43.44s-20-20-5-34c0 0 24-1 28-7s15 4 15 4l10-2s14.44 7.22-.39 31.08a7.31 7.31 0 0 1 -6.9 3.4 72.5 72.5 0 0 0 -18.71.52c-11 2-1 4-22 4z" fill="#fff"/><path d="m11.92 43.6a2.41 2.41 0 0 1 -.29-.24l-.23-.2-.4-.41-.88-.85c-.62-.58-1.12-1.17-1.72-1.78a45.4 45.4 0 0 1 -3-3.85 32.17 32.17 0 0 1 -4.46-8.89 19.1 19.1 0 0 1 -.43-10.24 18.24 18.24 0 0 1 5.41-8.84l.42-.39h.58c3.81-.2 7.69-.42 11.51-.8a55.58 55.58 0 0 0 11.3-2.11c1.75-.63 3.6-1.39 4.67-2.75l.48-.61a6.23 6.23 0 0 1 .57-.58 4.58 4.58 0 0 1 1.45-.78 6.31 6.31 0 0 1 3.16-.15 18 18 0 0 1 5.56 2.3 43 43 0 0 1 4.9 3.42l-.69-.19 9.92-2.39.39-.1.38.2a13 13 0 0 1 4.42 3.85 16 16 0 0 1 2.42 5.26 27.52 27.52 0 0 1 .46 2.84c0 .95.08 1.91 0 2.85s-.17 1.83-.29 2.83l-.61 2.71a44.84 44.84 0 0 1 -4.19 10.09l-1.34 2.35a8.74 8.74 0 0 1 -.86 1.29 9.24 9.24 0 0 1 -1.15 1.19 9 9 0 0 1 -6.07 2.18c-.27 0-.56 0-.81-.05l-.65-.06-1.28-.12c-.86-.07-1.71-.13-2.57-.17-1.72-.09-3.44-.16-5.15-.15a57.6 57.6 0 0 0 -10.19.84c-.82.17-1.64.33-2.4.57a9.67 9.67 0 0 0 -2.14 1 7.49 7.49 0 0 1 -1.36.67 7.82 7.82 0 0 1 -1.44.37 23.74 23.74 0 0 1 -2.74.27c-1.79.08-3.56 0-5.32 0s-3.63-.24-5.34-.38zm.13-.32 5.18-.44c1.75-.14 3.49-.35 5.19-.58a22.3 22.3 0 0 0 2.46-.49 6 6 0 0 0 2-1 11.36 11.36 0 0 1 2.49-1.44 19.77 19.77 0 0 1 2.67-.87 53.22 53.22 0 0 1 10.69-1.54c1.79-.09 3.59-.13 5.38-.08.89 0 1.79.06 2.68.11l1.34.09h.67.5a5.72 5.72 0 0 0 3.61-1.36 5.64 5.64 0 0 0 .68-.7 5.7 5.7 0 0 0 .59-.89l1.3-2.09a45 45 0 0 0 4.14-9.19l.62-2.4.35-2.42c.08-.81 0-1.61.06-2.41s-.17-1.58-.28-2.37a14.25 14.25 0 0 0 -1.73-4.35l-.69-1c-.23-.31-.51-.58-.77-.88a9.87 9.87 0 0 0 -1.73-1.46l.77.1-10.08 1.6-.42.06-.27-.28a30.18 30.18 0 0 0 -4.45-3.52 15 15 0 0 0 -5.12-2.29 4.7 4.7 0 0 0 -2.61.1 3.26 3.26 0 0 0 -1.08.63 4.78 4.78 0 0 0 -.44.46l-.42.55a11.85 11.85 0 0 1 -5.08 3.42 59.2 59.2 0 0 1 -11.46 3.21 88.57 88.57 0 0 1 -11.74 1.44l1-.42a16.46 16.46 0 0 0 -4.65 7.33 16.17 16.17 0 0 0 -.58 4.34 20 20 0 0 0 .56 4.47 34.22 34.22 0 0 0 3.45 8.65c.75 1.39 1.57 2.74 2.46 4.07.44.66.9 1.32 1.37 2l.71 1 .36.48.19.24c.08-.01.17.11.13.12z"/></svg>