<svg viewBox="0 0 63.29 71.25" xmlns="http://www.w3.org/2000/svg"><path d="m10.63 71.09s2-54 21-50 28 45 28 45 11-34-10-63c0 0-14-3-20 0s-21 4-21 4-18 49 2 64z" fill="#eace88"/><path d="m10.56 70.93c-.09 0-.12.17-.1.1v-1.74-1.79c0-1.2.08-2.39.14-3.58q.18-3.59.49-7.16a120.85 120.85 0 0 1 2.15-14.24 58.78 58.78 0 0 1 4.58-13.85 22.06 22.06 0 0 1 4.43-6.21 12.34 12.34 0 0 1 3.36-2.27 10.17 10.17 0 0 1 4.1-.88 11 11 0 0 1 2.07.21c.65.15 1.27.34 1.91.51s1.21.48 1.82.72 1.15.6 1.72.89a25.42 25.42 0 0 1 5.81 4.83 51.84 51.84 0 0 1 7.96 12.27 105.05 105.05 0 0 1 5.27 13.41c.76 2.28 1.46 4.56 2.1 6.87s1.27 4.6 1.79 6.95h-1a70.43 70.43 0 0 0 2.57-16.1 79.61 79.61 0 0 0 -1-16.26 78.77 78.77 0 0 0 -1.81-7.91 75.6 75.6 0 0 0 -2.7-7.7 68.29 68.29 0 0 0 -7.91-14l1 .64a66.93 66.93 0 0 0 -10.09-1.1 32.27 32.27 0 0 0 -4.94.18 11.41 11.41 0 0 0 -1.17.19 6.43 6.43 0 0 0 -1.11.26l-.54.15-.49.2-.48.2-.65.28a28.53 28.53 0 0 1 -5.29 1.71q-2.64.62-5.26 1c-3.51.57-7 .94-10.54 1.17l1.6-1.19a158.74 158.74 0 0 0 -4.74 16 122.2 122.2 0 0 0 -2.86 16.41 72 72 0 0 0 -.4 8.3 46.25 46.25 0 0 0 .77 8.23 30.75 30.75 0 0 0 2.55 7.82 21.07 21.07 0 0 0 2.19 3.49c.45.51.89 1.09 1.34 1.56s.8.92 1.36 1.43zm.15.32c-.56-.4-1.23-.82-1.86-1.31s-1-1-1.56-1.51a22.33 22.33 0 0 1 -2.57-3.43 29.47 29.47 0 0 1 -3.26-8 48.21 48.21 0 0 1 -1.29-8.51 68.25 68.25 0 0 1 -.07-8.58 112.14 112.14 0 0 1 2.3-16.91 136.3 136.3 0 0 1 4.52-16.54l.37-1.09 1.22-.1c3.39-.27 6.83-.7 10.19-1.22a44.66 44.66 0 0 0 9.63-2.4l1.26-.52c.25-.1.49-.2.73-.28l.68-.19a10.78 10.78 0 0 1 1.47-.31 14 14 0 0 1 1.41-.19 34.72 34.72 0 0 1 5.48-.1 69 69 0 0 1 10.64 1.43l.62.12.36.52a66.38 66.38 0 0 1 7.86 14.87 67.11 67.11 0 0 1 2.46 8 79.78 79.78 0 0 1 1.44 8.24 84.83 84.83 0 0 1 .26 16.66c-.2 2.76-.56 5.51-1 8.24a67.74 67.74 0 0 1 -1.83 8.11l-.56 1.92-.47-2a107.38 107.38 0 0 0 -10.14-26.41 52.22 52.22 0 0 0 -8.1-11.27 24.61 24.61 0 0 0 -5.24-4.15c-.48-.25-1-.53-1.45-.75s-1-.41-1.5-.58-1-.29-1.54-.4a9.55 9.55 0 0 0 -1.49-.16 7.76 7.76 0 0 0 -5.38 2.25 20.3 20.3 0 0 0 -3.89 5.3 61 61 0 0 0 -4.81 13.08c-1.19 4.56-2.12 9.2-2.89 13.88q-.6 3.51-1.07 7.05l-.43 3.54-.21 1.77-.1.89-.05.44v.22.13s-.05.21-.14.25z"/></svg>