<svg viewBox="0 0 67.86 44.01" xmlns="http://www.w3.org/2000/svg"><path d="m12 43.44s-20-20-5-34c0 0 24-1 28-7s15 4 15 4l10-2s14.44 7.22-.39 31.08a7.31 7.31 0 0 1 -6.9 3.4 72.5 72.5 0 0 0 -18.71.52c-11 2-1 4-22 4z" fill="#fff"/><path d="m11.92 43.6a2.41 2.41 0 0 1 -.29-.24l-.23-.2-.4-.41-.88-.85c-.62-.58-1.12-1.17-1.72-1.78a45.4 45.4 0 0 1 -3-3.85 32.17 32.17 0 0 1 -4.46-8.89 19.1 19.1 0 0 1 -.43-10.24 18.24 18.24 0 0 1 5.41-8.84l.42-.39h.58c3.81-.2 7.69-.42 11.51-.8a55.58 55.58 0 0 0 11.3-2.11c1.75-.63 3.6-1.39 4.67-2.75l.48-.61a6.23 6.23 0 0 1 .57-.58 4.58 4.58 0 0 1 1.45-.78 6.31 6.31 0 0 1 3.16-.15 18 18 0 0 1 5.56 2.3 43 43 0 0 1 4.9 3.42l-.69-.19 9.92-2.39.39-.1.38.2a13 13 0 0 1 4.42 3.85 16 16 0 0 1 2.42 5.26 27.52 27.52 0 0 1 .46 2.84c0 .95.08 1.91 0 2.85s-.17 1.83-.29 2.83l-.61 2.71a44.84 44.84 0 0 1 -4.19 10.09l-1.34 2.35a8.74 8.74 0 0 1 -.86 1.29 9.24 9.24 0 0 1 -1.15 1.19 9 9 0 0 1 -6.07 2.18c-.27 0-.56 0-.81-.05l-.65-.06-1.28-.12c-.86-.07-1.71-.13-2.57-.17-1.72-.09-3.44-.16-5.15-.15a57.6 57.6 0 0 0 -10.19.84c-.82.17-1.64.33-2.4.57a9.67 9.67 0 0 0 -2.14 1 7.49 7.49 0 0 1 -1.36.67 7.82 7.82 0 0 1 -1.44.37 23.74 23.74 0 0 1 -2.74.27c-1.79.08-3.56 0-5.32 0s-3.63-.24-5.34-.38zm.13-.32 5.18-.44c1.75-.14 3.49-.35 5.19-.58a22.3 22.3 0 0 0 2.46-.49 6 6 0 0 0 2-1 11.36 11.36 0 0 1 2.49-1.44 19.77 19.77 0 0 1 2.67-.87 53.22 53.22 0 0 1 10.69-1.54c1.79-.09 3.59-.13 5.38-.08.89 0 1.79.06 2.68.11l1.34.09h.67.5a5.72 5.72 0 0 0 3.61-1.36 5.64 5.64 0 0 0 .68-.7 5.7 5.7 0 0 0 .59-.89l1.3-2.09a45 45 0 0 0 4.14-9.19l.62-2.4.35-2.42c.08-.81 0-1.61.06-2.41s-.17-1.58-.28-2.37a14.25 14.25 0 0 0 -1.73-4.35l-.69-1c-.23-.31-.51-.58-.77-.88a9.87 9.87 0 0 0 -1.73-1.46l.77.1-10.08 1.6-.42.06-.27-.28a30.18 30.18 0 0 0 -4.45-3.52 15 15 0 0 0 -5.12-2.29 4.7 4.7 0 0 0 -2.61.1 3.26 3.26 0 0 0 -1.08.63 4.78 4.78 0 0 0 -.44.46l-.42.55a11.85 11.85 0 0 1 -5.08 3.42 59.2 59.2 0 0 1 -11.46 3.21 88.57 88.57 0 0 1 -11.74 1.44l1-.42a16.46 16.46 0 0 0 -4.65 7.33 16.17 16.17 0 0 0 -.58 4.34 20 20 0 0 0 .56 4.47 34.22 34.22 0 0 0 3.45 8.65c.75 1.39 1.57 2.74 2.46 4.07.44.66.9 1.32 1.37 2l.71 1 .36.48.19.24c.08-.01.17.11.13.12z"/></svg>