<svg viewBox="0 0 36.94 112.86" xmlns="http://www.w3.org/2000/svg"><path d="m6.68 45.58-6 66s15-11 26-66c0 0-19 5-20 0z" fill="#eace88"/><path d="m6.69 45.76c-.46 6.06-.79 11.85-1.07 17.49l-.41 8.35c-.15 2.72-.27 5.45-.44 8.11-.31 5.35-.95 10.47-1.69 15.75s-1.43 10.71-1.86 16.17l-.86-.49a18.65 18.65 0 0 0 2.89-3.21 19 19 0 0 0 1.27-1.81c.39-.63.82-1.23 1.17-1.88l1.1-1.92c.36-.65.68-1.32 1-2 .68-1.31 1.28-2.67 1.88-4s1.15-2.73 1.71-4.1 1.1-2.74 1.61-4.14 1.06-2.76 1.53-4.16l1.48-4.2c.92-2.82 1.72-5.68 2.56-8.52l2.37-8.59 2.21-8.61c.7-2.89 1.4-5.79 2.15-8.67l1.71 1.67c-1.77.39-3.5.7-5.27.95s-3.54.46-5.32.56a28.71 28.71 0 0 1 -5.4-.12 10.62 10.62 0 0 1 -2.68-.66 3.8 3.8 0 0 1 -1.21-.78 2.53 2.53 0 0 1 -.43-.6c-.15-.35-.01-.35 0-.59zm0-.35a2.27 2.27 0 0 1 .26.35 1.18 1.18 0 0 0 .2.31 1.73 1.73 0 0 0 .41.4 4 4 0 0 0 1.1.47 9.72 9.72 0 0 0 2.48.24 34.13 34.13 0 0 0 5.11-.56c1.7-.3 3.4-.66 5.08-1.07s3.38-.86 5-1.34l2.15-.64-.4 2.29c-.5 3-1.06 5.92-1.61 8.87s-1.33 5.87-2 8.81c-.3 1.48-.78 2.91-1.17 4.37l-1.23 4.34c-1 2.87-1.88 5.74-2.92 8.57a113.31 113.31 0 0 1 -7.35 16.56c-.74 1.32-1.48 2.64-2.31 3.91-.4.64-.78 1.3-1.2 1.93l-1.29 1.87c-.41.64-.91 1.22-1.36 1.83s-.92 1.2-1.42 1.78a23.94 23.94 0 0 1 -3.22 3.3l-1 .84.14-1.32c.57-5.54.9-11.1 1.14-16.83s.62-11.6 1.31-17.25c.33-2.84.71-5.61 1.06-8.39l1.09-8.15c.72-5.34 1.39-10.55 1.93-15.49z"/><path d="m34.68 1.58s6.23 37.73-12.88 44.87-16.12-12.87-16.12-12.87v-25s0-7 7-7h22z" fill="#fff"/><path d="m34.79 1.45a1.33 1.33 0 0 1 .14.4l.08.29.15.59c.11.39.19.79.28 1.18.17.8.33 1.59.47 2.39.29 1.59.49 3.2.66 4.81a64.73 64.73 0 0 1 .3 9.75 48.48 48.48 0 0 1 -1.35 9.77 27.19 27.19 0 0 1 -4.09 9.13 19.7 19.7 0 0 1 -7.6 6.5 30.93 30.93 0 0 1 -4.67 1.58 19.44 19.44 0 0 1 -4.89.7 9.93 9.93 0 0 1 -4.94-1.24 9.21 9.21 0 0 1 -3.48-3.89 16 16 0 0 1 -1.46-4.92 21.82 21.82 0 0 1 -.14-5.12v.21c-.18-4.84-.25-9.68-.37-14.52 0-2.42-.09-4.84-.08-7.26v-3.18a5.35 5.35 0 0 1 0-.61 9.8 9.8 0 0 1 1.41-4.18 7.5 7.5 0 0 1 3.42-3.09 10.08 10.08 0 0 1 4.26-.74l7.27.32c2.42.13 4.84.27 7.26.45l3.63.29c1.24.12 2.34.18 3.74.39zm-.22.27c-1 .21-2.34.27-3.52.39l-3.63.29q-3.63.25-7.26.45l-7.27.32a6.83 6.83 0 0 0 -2.8.63 4.46 4.46 0 0 0 -1.78 1.82 7.14 7.14 0 0 0 -.76 2.71v.29 3.18c0 2.42 0 4.84-.08 7.26-.09 4.84-.19 9.68-.35 14.52v.22a18.41 18.41 0 0 0 .48 8.85 7.12 7.12 0 0 0 2.51 3.46 7.84 7.84 0 0 0 4.2 1.31 16 16 0 0 0 4.59-.61 20.09 20.09 0 0 0 4.35-1.71 16.12 16.12 0 0 0 6.14-6.62 36.07 36.07 0 0 0 3.09-8.61 64.15 64.15 0 0 0 1.52-9.21c.31-3.13.48-6.29.54-9.47 0-1.58 0-3.18 0-4.77v-2.4-1.2-.91c-.01-.1-.06-.22.03-.19z"/></svg>