<svg viewBox="0 0 28.47 69.28" xmlns="http://www.w3.org/2000/svg"><path d="m6.68 2-6 66s15-11 26-66c0 0-19 5-20 0z" fill="#eace88"/><path d="m6.69 2.18c-.46 6.06-.79 11.82-1.07 17.49l-.41 8.33c-.15 2.72-.27 5.46-.44 8.12-.31 5.35-.95 10.46-1.69 15.75s-1.43 10.73-1.86 16.19l-.86-.49a19.1 19.1 0 0 0 2.89-3.22 18.82 18.82 0 0 0 1.27-1.8c.39-.63.82-1.23 1.17-1.88l1.1-1.93c.36-.64.68-1.31 1-2 .68-1.31 1.28-2.66 1.88-4s1.17-2.74 1.73-4.08 1.1-2.74 1.61-4.14 1.06-2.76 1.53-4.17l1.46-4.21c.92-2.81 1.72-5.67 2.56-8.52l2.33-8.62 2.25-8.63c.7-2.9 1.4-5.79 2.15-8.68l1.71 1.7c-1.77.38-3.5.69-5.27.94s-3.54.47-5.32.56a28.7 28.7 0 0 1 -5.4-.11 10.64 10.64 0 0 1 -2.68-.67 3.8 3.8 0 0 1 -1.21-.78 2.29 2.29 0 0 1 -.43-.59c-.15-.27-.01-.29 0-.56zm0-.35a4 4 0 0 1 .26.35 1.18 1.18 0 0 0 .2.31 1.56 1.56 0 0 0 .41.4 3.49 3.49 0 0 0 1.1.47 9.29 9.29 0 0 0 2.48.25 35.49 35.49 0 0 0 5.11-.56c1.7-.31 3.4-.67 5.08-1.07s3.38-.86 5-1.35l2.14-.63-.4 2.29c-.5 3-1.06 5.91-1.61 8.87s-1.33 5.84-1.98 8.84c-.3 1.47-.78 2.91-1.17 4.36l-1.23 4.35c-1 2.86-1.88 5.73-2.92 8.57a113.2 113.2 0 0 1 -7.36 16.52c-.74 1.33-1.48 2.65-2.31 3.92-.4.64-.78 1.29-1.2 1.92l-1.29 1.88c-.41.63-.91 1.22-1.36 1.82s-.92 1.21-1.42 1.79a23.94 23.94 0 0 1 -3.22 3.32l-1 .83.14-1.28c.57-5.54.9-11.09 1.14-16.83s.62-11.6 1.31-17.25c.33-2.84.71-5.6 1.06-8.38l1.09-8.16c.72-5.38 1.39-10.6 1.93-15.55z"/></svg>