<svg viewBox="0 0 33.14 48.54" xmlns="http://www.w3.org/2000/svg"><path d="m30.88 1.58s6.23 37.73-12.88 44.87-16.12-12.87-16.12-12.87v-25s0-7 7-7h22z" fill="#fff"/><path d="m31 1.45a1.09 1.09 0 0 1 .14.4l.08.29.15.59c.11.39.19.79.28 1.18.17.8.33 1.59.47 2.39.29 1.59.5 3.2.66 4.81a64.73 64.73 0 0 1 .3 9.75 48.48 48.48 0 0 1 -1.35 9.77 27.19 27.19 0 0 1 -4.09 9.13 19.63 19.63 0 0 1 -7.6 6.5 31.2 31.2 0 0 1 -4.66 1.58 19.59 19.59 0 0 1 -4.9.7 9.93 9.93 0 0 1 -4.95-1.24 9.21 9.21 0 0 1 -3.48-3.89 16 16 0 0 1 -1.46-4.92 21.82 21.82 0 0 1 -.14-5.12v.21c-.18-4.84-.28-9.68-.37-14.52-.08-2.42-.08-4.84-.08-7.26v-3.18a5.35 5.35 0 0 1 .06-.62 9.94 9.94 0 0 1 1.35-4.17 7.5 7.5 0 0 1 3.42-3.09 10.08 10.08 0 0 1 4.26-.74l7.27.32c2.42.13 4.84.27 7.26.45l3.63.29c1.24.12 2.34.18 3.75.39zm-.22.27c-1 .21-2.34.27-3.52.39l-3.63.29q-3.63.25-7.26.45l-7.27.32a6.75 6.75 0 0 0 -2.8.63 4.34 4.34 0 0 0 -1.78 1.82 7 7 0 0 0 -.77 2.71v.29 3.18c0 2.42 0 4.84-.08 7.26-.09 4.84-.19 9.68-.35 14.52v.22a18.41 18.41 0 0 0 .48 8.85 7.12 7.12 0 0 0 2.5 3.46 7.84 7.84 0 0 0 4.2 1.31 16 16 0 0 0 4.59-.61 20.09 20.09 0 0 0 4.35-1.71 16.05 16.05 0 0 0 6.14-6.62 36.07 36.07 0 0 0 3.09-8.61 64.15 64.15 0 0 0 1.55-9.21c.31-3.13.48-6.29.54-9.47 0-1.58 0-3.18 0-4.77v-2.4-1.2-.91c-.03-.1-.08-.22.01-.19z"/></svg>