<svg viewBox="0 0 35.53 110.07" xmlns="http://www.w3.org/2000/svg"><path d="m3.64 10 1 28s2 9 8 7 16 0 20-23-4-20-4-20h-18s-6 0-7 8z" fill="#fff"/><path d="m3.81 10c.08 2.34.23 4.67.46 7s.53 4.66.83 7a126 126 0 0 1 1.1 13.92v-.28c.13.55.32 1.22.53 1.82a13.15 13.15 0 0 0 .76 1.76 5.84 5.84 0 0 0 2.24 2.6c.11 0 .23.13.35.18l.38.11a2.69 2.69 0 0 0 .81.11 9.24 9.24 0 0 0 1.92-.29c1.47-.32 2.89-.45 4.26-.74a13.33 13.33 0 0 0 7.27-3.65 18.63 18.63 0 0 0 4.15-7.09 50.12 50.12 0 0 0 1.9-8.14c.21-1.38.48-2.75.61-4.15s.36-2.79.44-4.17a36 36 0 0 0 -.08-8.12 16.91 16.91 0 0 0 -.42-1.87l-.32-.74a4.18 4.18 0 0 0 -.34-.67c-.1-.25-.27-.31-.37-.5a1.86 1.86 0 0 0 -.2-.14.36.36 0 0 0 -.18-.12.89.89 0 0 0 -.36-.11 1.48 1.48 0 0 0 -.21 0h-.09s-.07 0 0 0l-.64.12c-2.47 0-4.94-.09-7.4-.21s-4.93-.33-7.4-.56l-1.81-.19c-.59 0-1.3-.15-1.75-.13a6.12 6.12 0 0 0 -3.18 1.08 7.21 7.21 0 0 0 -2.25 2.69 11.88 11.88 0 0 0 -1.01 3.48zm-.35 0a14.87 14.87 0 0 1 .91-3.66 9.1 9.1 0 0 1 2.15-3.2 7.86 7.86 0 0 1 3.48-1.85c.78-.15 1.31-.14 2-.22l1.84-.17c2.47-.23 4.93-.42 7.4-.55s4.93-.17 7.4-.22l-.64.12a4.21 4.21 0 0 1 .52-.15 3.35 3.35 0 0 1 .48-.1 4.94 4.94 0 0 1 .86 0 4.54 4.54 0 0 1 1.69.43 2.63 2.63 0 0 1 .73.42 5.63 5.63 0 0 1 .65.51 6.39 6.39 0 0 1 1 1.18 7.16 7.16 0 0 1 .64 1.22l.35 1.24.26 1.19a7.12 7.12 0 0 1 .19 1.17 37.1 37.1 0 0 1 -.27 9 55.91 55.91 0 0 1 -4.59 16.82 24.39 24.39 0 0 1 -5.06 7.19 17.92 17.92 0 0 1 -7.74 4.1c-1.4.38-2.8.71-4.09 1.16-.34.11-.58.22-1 .35a6 6 0 0 1 -1.22.29 4.86 4.86 0 0 1 -1.32 0l-.67-.1c-.21 0-.42-.14-.63-.21a6.7 6.7 0 0 1 -2.21-1.39 11.09 11.09 0 0 1 -1.57-1.91 15.92 15.92 0 0 1 -1.88-4.35v-.09-.22a122.14 122.14 0 0 1 .06-14c.12-2.34.25-4.67.32-7s.05-4.7-.04-7z"/><path d="m5.64 42-5 67s6.25-3.73 12-16c4.77-10.2 8.82-26.14 12-52 0 0-18 9-19 1z" fill="#eace88"/><path d="m5.64 42.15c-.39 6.14-.64 12-.84 17.75l-.58 16.71c-.22 5.39-.75 10.62-1.41 15.99s-1.28 10.87-1.63 16.4l-.82-.51a18.85 18.85 0 0 0 3.31-3 30 30 0 0 0 2.79-3.49 49.77 49.77 0 0 0 4.36-8 108.82 108.82 0 0 0 5.67-17.22c.73-2.95 1.37-5.93 2-8.92s1.15-6 1.71-9c1.12-6 2.09-12 3.08-18.11l2 1.45a51.58 51.58 0 0 1 -5.13 2 41.41 41.41 0 0 1 -5.31 1.39 16.1 16.1 0 0 1 -5.59.2 5.34 5.34 0 0 1 -2.67-1.19 4.37 4.37 0 0 1 -.49-.6c-.13-.21-.24-.43-.35-.65s-.15-.48-.19-.68.09-.27.09-.52zm0-.35a3.75 3.75 0 0 1 .36.75c.09.23.19.39.28.58s.24.33.37.48a4.11 4.11 0 0 0 .45.38 4.24 4.24 0 0 0 2.28.65 16.32 16.32 0 0 0 5-.84 46.52 46.52 0 0 0 4.91-1.8c1.6-.7 3.21-1.46 4.71-2.26l2.27-1.21-.22 2.65q-.78 9.23-2.24 18.39c-.5 3.05-1.09 6.09-1.75 9.12s-1.44 6-2.3 9a79 79 0 0 1 -6.86 17.4 57.26 57.26 0 0 1 -5.21 7.8 33.2 33.2 0 0 1 -6.78 6.55l-.91.63.1-1.13c.48-5.63.7-11.27.87-17.09s.47-11.77 1.09-17.51l.94-8.51 1-8.27c.61-5.44 1.19-10.73 1.63-15.76z"/></svg>