<svg viewBox="0 0 26.27 71.57" xmlns="http://www.w3.org/2000/svg"><path d="m5.64 3.48-5 67s6.25-3.73 12-16c4.77-10.19 8.82-26.14 12-52 0 0-18 9-19 1z" fill="#eace88"/><path d="m5.64 3.65c-.39 6.14-.64 12.02-.84 17.75l-.58 16.71c-.22 5.44-.75 10.63-1.41 16s-1.28 10.89-1.63 16.41l-.82-.52a18.08 18.08 0 0 0 3.31-3 30 30 0 0 0 2.79-3.56 49.77 49.77 0 0 0 4.36-7.94 108.82 108.82 0 0 0 5.67-17.22c.73-3 1.37-5.93 2-8.92s1.15-6 1.71-9c1.12-6 2.09-12 3.08-18.1l2 1.44a51.58 51.58 0 0 1 -5.13 2 39.83 39.83 0 0 1 -5.31 1.39 16.1 16.1 0 0 1 -5.59.2 5.42 5.42 0 0 1 -2.66-1.2 4.46 4.46 0 0 1 -.49-.57c-.13-.21-.24-.43-.35-.65s-.15-.48-.19-.68.08-.28.08-.54zm0-.35a3.61 3.61 0 0 1 .36.76c.09.22.19.38.28.57s.24.33.37.48a3.23 3.23 0 0 0 .45.38 4.34 4.34 0 0 0 2.28.66 16.94 16.94 0 0 0 5-.84 51.45 51.45 0 0 0 4.89-1.83c1.62-.71 3.23-1.48 4.73-2.27l2.27-1.21-.22 2.65q-.78 9.23-2.24 18.35c-.5 3.06-1.09 6.1-1.75 9.13s-1.44 6-2.3 9a79 79 0 0 1 -6.86 17.4 56.64 56.64 0 0 1 -5.21 7.8 33.2 33.2 0 0 1 -6.78 6.61l-.91.63.1-1.13c.48-5.62.7-11.27.9-17.08s.47-11.78 1.09-17.52l.91-8.51 1-8.27c.61-5.44 1.19-10.73 1.63-15.76z"/></svg>