<svg viewBox="0 0 32.61 46.3" xmlns="http://www.w3.org/2000/svg"><path d="m.72 10 1 28s2 9 8 7 16 0 20-23-4-20-4-20h-18s-6 0-7 8z" fill="#fff"/><path d="m.89 10c.08 2.34.23 4.67.46 7s.53 4.66.83 7a126 126 0 0 1 1.1 13.94v-.28c.13.55.32 1.22.53 1.82a13.15 13.15 0 0 0 .76 1.76 5.82 5.82 0 0 0 2.23 2.6c.12 0 .23.13.36.18l.38.11a2.69 2.69 0 0 0 .81.11 9.33 9.33 0 0 0 1.92-.29c1.46-.32 2.88-.45 4.26-.74a13.33 13.33 0 0 0 7.27-3.65 18.63 18.63 0 0 0 4.15-7.09 51.19 51.19 0 0 0 1.9-8.14c.2-1.38.47-2.75.61-4.15s.36-2.79.44-4.17a36 36 0 0 0 -.08-8.12 16.91 16.91 0 0 0 -.42-1.89l-.3-.78a4.18 4.18 0 0 0 -.34-.67c-.1-.25-.27-.31-.38-.5a1.15 1.15 0 0 0 -.19-.05.41.41 0 0 0 -.19-.17.94.94 0 0 0 -.37-.11 1.27 1.27 0 0 0 -.2 0h-.09s-.07 0 0 0l-.64.12c-2.47 0-4.94-.09-7.4-.21s-4.94-.33-7.4-.56l-1.83-.19c-.59 0-1.3-.15-1.75-.13a6.12 6.12 0 0 0 -3.17 1.08 7.21 7.21 0 0 0 -2.25 2.69 11.58 11.58 0 0 0 -1.01 3.48zm-.35 0a14.87 14.87 0 0 1 .91-3.66 9.1 9.1 0 0 1 2.15-3.2 7.86 7.86 0 0 1 3.52-1.85c.78-.15 1.31-.14 2-.22l1.8-.17c2.46-.23 4.93-.42 7.4-.55s4.93-.17 7.4-.22l-.65.12a4.21 4.21 0 0 1 .53-.15 3.35 3.35 0 0 1 .4-.1 4.92 4.92 0 0 1 .86 0 4.44 4.44 0 0 1 1.68.43 2.68 2.68 0 0 1 .74.42 5.63 5.63 0 0 1 .65.51 6.39 6.39 0 0 1 1 1.18 8 8 0 0 1 .64 1.22l.43 1.24.26 1.19a7.12 7.12 0 0 1 .19 1.17 37.1 37.1 0 0 1 -.27 9 55.91 55.91 0 0 1 -4.59 16.82 24.39 24.39 0 0 1 -5.06 7.19 17.92 17.92 0 0 1 -7.74 4.1c-1.41.38-2.8.71-4.09 1.16-.34.11-.58.22-1 .35a6 6 0 0 1 -1.22.29 4.86 4.86 0 0 1 -1.32 0l-.67-.1c-.22 0-.42-.14-.63-.21a6.59 6.59 0 0 1 -2.21-1.39 11.09 11.09 0 0 1 -1.56-1.9 15.33 15.33 0 0 1 -1.9-4.36v-.09-.22a124.44 124.44 0 0 1 .06-14c.13-2.34.26-4.67.33-7s.05-4.7-.04-7z"/></svg>