<svg viewBox="0 0 32.78 125.17" xmlns="http://www.w3.org/2000/svg"><path d="m1.23 18.62.9 19s3 17 13 16c8.8-.88 13.73-11 14.78-13.48a2.68 2.68 0 0 0 .24-1l.9-20.72a4.61 4.61 0 0 0 -1-3.13l-10.36-12.75a2.29 2.29 0 0 0 -3.36-.22l-13.74 12.93a4.29 4.29 0 0 0 -1.36 3.37z" fill="#fff"/><path d="m1.4 18.61c.08 1.58.17 3.16.31 4.74s.32 3.16.51 4.74c.4 3.16.86 6.31 1.23 9.47v-.17a52.4 52.4 0 0 0 2.15 6.29 24.61 24.61 0 0 0 3.1 5.64 8.1 8.1 0 0 0 4.91 3.28 7.82 7.82 0 0 0 1.54.1c.53-.06 1.08-.08 1.61-.19a11.71 11.71 0 0 0 3.1-1.1 16.1 16.1 0 0 0 5.14-4.3 23.68 23.68 0 0 0 2-2.79 24 24 0 0 0 1.59-3c.23-.51.46-1.06.64-1.55a2.15 2.15 0 0 0 .09-.61v-.84l-.05-3.49c0-2.32-.06-4.65-.05-7l.1-7v-1.74-.86a2.5 2.5 0 0 0 0-.55 3 3 0 0 0 -.38-1 3.49 3.49 0 0 0 -.36-.47l-.58-.6c-3-3.54-5.92-7.15-8.77-10.82l-.93-1.2a.54.54 0 0 0 -.37-.2.65.65 0 0 0 -.48.1l-1.35 1.11c-1.78 1.5-3.62 2.93-5.45 4.4s-3.65 2.85-5.45 4.33c-.89.75-1.79 1.51-2.63 2.27a4 4 0 0 0 -1.17 3.01zm-.35 0a4.65 4.65 0 0 1 1.18-3.34l2.43-2.52q2.34-2.54 4.68-5.17c1.55-1.74 3.09-3.49 4.66-5.17l1.2-1.28a4 4 0 0 1 2.72-1.13 4 4 0 0 1 2.78 1.06 10.52 10.52 0 0 1 .73.81l.56.66q4.52 5.31 8.8 10.8l.53.68a6.82 6.82 0 0 1 .68.99 6.48 6.48 0 0 1 .76 2.27 5.9 5.9 0 0 1 0 1.19l-.05.88-.11 1.66-.5 7c-.19 2.31-.41 4.63-.66 6.94l-.35 3.47-.09.9a4 4 0 0 1 -.3 1.07c-.29.57-.55 1.08-.85 1.6-2.33 4.1-5.25 8-9.37 10.56a13.31 13.31 0 0 1 -7.07 2.11 8.82 8.82 0 0 1 -3.81-1 11.89 11.89 0 0 1 -3.08-2.39 20.54 20.54 0 0 1 -3.86-6.34 29.5 29.5 0 0 1 -1.83-7v-.14c.07-3.18.23-6.36.32-9.54 0-1.59.08-3.18.06-4.76s-.09-3.27-.16-4.86z"/><path d="m5.07 53c-.24 8.1-1.07 34.2-3.07 44.42a56.45 56.45 0 0 0 -1 9.71c-.14 7.1-.13 17.49 1.19 17.49 2 0 10-21 10-21l8.24-21.05a13.61 13.61 0 0 0 .9-4l1.86-27.91s-4.46 6.24-15.91 1a1.53 1.53 0 0 0 -2.21 1.34z" fill="#eace88"/><path d="m5.24 53c-.51 12.5.83 25.1-.74 37.64-.17 1.58-.43 3.14-.69 4.71-.13.79-.31 1.58-.47 2.36s-.34 1.54-.49 2.29a59.37 59.37 0 0 0 -1.12 9.17c-.1 1.56-.18 3.12-.21 4.68s0 3.12 0 4.67a28.8 28.8 0 0 0 .48 4.59 4.26 4.26 0 0 0 .3 1s.06.09 0 0-.06 0-.12 0 0 0-.07 0h.06a.7.7 0 0 0 .15-.15 10.12 10.12 0 0 0 1.16-1.96 79.28 79.28 0 0 0 3.67-8.56c1.11-2.91 2.14-5.87 3.16-8.81 2-5.92 4.28-11.77 6.45-17.64l1.64-4.4a18.81 18.81 0 0 0 .66-2 12.29 12.29 0 0 0 .34-2l.3-4.66.37-4.68c.45-6.24 1.1-12.47 2-18.68l1.94.69a7.68 7.68 0 0 1 -2.31 1.74 10.06 10.06 0 0 1 -2.55.94 13.62 13.62 0 0 1 -5.24.1 22.12 22.12 0 0 1 -4.91-1.38l-1.17-.51a5.44 5.44 0 0 0 -1.11-.41 1.36 1.36 0 0 0 -1.48 1.26zm-.35 0a1.75 1.75 0 0 1 1.87-1.71 2.08 2.08 0 0 1 .67.19l.58.23 1.16.45a19.3 19.3 0 0 0 4.83 1 11.46 11.46 0 0 0 4.72-.64 8.54 8.54 0 0 0 2-1.07 6.09 6.09 0 0 0 1.54-1.45l1.91-2.92v3.62q.09 9.42-.51 18.79c-.15 3.13-.34 6.22-.58 9.39a14.61 14.61 0 0 1 -.45 2.63 16.62 16.62 0 0 1 -.86 2.42l-1.77 4.33c-4.75 11.56-9.36 23.23-15.48 34.34a11.77 11.77 0 0 1 -1.43 2 2.44 2.44 0 0 1 -.28.25 1.25 1.25 0 0 1 -.44.24.77.77 0 0 1 -.35 0 .78.78 0 0 1 -.39-.15 1.32 1.32 0 0 1 -.35-.4 5 5 0 0 1 -.4-1.29 43.1 43.1 0 0 1 -.46-4.75l-.36-9.42a63.51 63.51 0 0 1 .23-9.54c.11-.72.21-1.54.33-2.31l.3-2.23.25-2.3c.06-.77.14-1.54.23-2.31.6-6.21 1.2-12.39 1.97-18.65s1.38-12.46 1.52-18.74z"/></svg>