<svg viewBox="0 0 24.21 78.1" xmlns="http://www.w3.org/2000/svg"><path d="m5.07 6c-.24 8-1.07 34.14-3.07 44.36a56.45 56.45 0 0 0 -1 9.7c-.2 7.11-.19 17.49 1.13 17.49 2 0 10-21 10-21l8.24-21a13.62 13.62 0 0 0 .9-4l1.86-28s-4.46 6.25-15.91 1a1.53 1.53 0 0 0 -2.15 1.45z" fill="#eace88"/><path d="m5.24 6c-.51 12.5.83 25.1-.74 37.65-.17 1.57-.43 3.14-.69 4.71-.13.78-.31 1.58-.47 2.35s-.34 1.5-.49 2.25a59.37 59.37 0 0 0 -1.12 9.14c-.1 1.56-.18 3.12-.21 4.68s0 3.12 0 4.68a28.67 28.67 0 0 0 .48 4.54 4.1 4.1 0 0 0 .3.95s.06.09 0 0-.06 0-.12 0 0 0-.07 0h.06s.1-.09.15-.14a9.88 9.88 0 0 0 1.18-1.86 79.12 79.12 0 0 0 3.67-8.55c1.11-2.92 2.14-5.87 3.16-8.82 2-5.91 4.28-11.77 6.45-17.64l1.64-4.4a18.81 18.81 0 0 0 .66-2 12.17 12.17 0 0 0 .34-2l.3-4.66.37-4.68c.45-6.25 1.1-12.48 2-18.69l1.94.7a7.64 7.64 0 0 1 -2.33 1.79 9.69 9.69 0 0 1 -2.55.94 13.82 13.82 0 0 1 -5.24.06 22.14 22.14 0 0 1 -4.91-1.41l-1.17-.5a5.51 5.51 0 0 0 -1.11-.42 1.36 1.36 0 0 0 -1.48 1.33zm-.35 0a1.75 1.75 0 0 1 1.87-1.7 2.07 2.07 0 0 1 .67.18l.57.19 1.16.45a18.87 18.87 0 0 0 4.83 1 11.46 11.46 0 0 0 4.72-.64 8.2 8.2 0 0 0 2-1.07 6.24 6.24 0 0 0 1.51-1.47l1.95-2.94v3.62q.09 9.42-.51 18.79c-.15 3.14-.34 6.22-.58 9.4a14.92 14.92 0 0 1 -.45 2.63 16.91 16.91 0 0 1 -.86 2.41l-1.77 4.34c-4.73 11.57-9.34 23.23-15.46 34.34a11.77 11.77 0 0 1 -1.43 2 1.79 1.79 0 0 1 -.28.26 1.11 1.11 0 0 1 -.44.23.65.65 0 0 1 -.35 0 .78.78 0 0 1 -.39-.15 1.21 1.21 0 0 1 -.35-.4 4.91 4.91 0 0 1 -.4-1.28 43.27 43.27 0 0 1 -.46-4.69l-.36-9.42a63.54 63.54 0 0 1 .23-9.54c.09-.79.19-1.54.31-2.37l.3-2.28.25-2.29c.06-.78.14-1.54.23-2.31.57-6.18 1.2-12.4 2-18.61s1.35-12.46 1.49-18.68z"/></svg>