<svg viewBox="0 0 31.97 54.64" xmlns="http://www.w3.org/2000/svg"><path d="m.41 18.62.91 19s3 17 13 16c8.8-.88 13.72-11 14.78-13.48a3.09 3.09 0 0 0 .24-1l.9-20.72a4.66 4.66 0 0 0 -1-3.13l-10.36-12.75a2.3 2.3 0 0 0 -3.37-.22l-13.74 12.93a4.36 4.36 0 0 0 -1.36 3.37z" fill="#fff"/><path d="m.59 18.61c.08 1.58.17 3.16.31 4.74s.32 3.16.51 4.74c.39 3.16.86 6.31 1.22 9.47v-.17a50.65 50.65 0 0 0 2.14 6.29 24.27 24.27 0 0 0 3.13 5.64 8.1 8.1 0 0 0 4.9 3.28 7.82 7.82 0 0 0 1.54.1c.53-.06 1.08-.08 1.61-.19a11.71 11.71 0 0 0 3.1-1.1 16.21 16.21 0 0 0 5.15-4.3 24.92 24.92 0 0 0 2-2.79 23.94 23.94 0 0 0 1.58-3c.23-.51.46-1.06.64-1.55a1.86 1.86 0 0 0 .1-.61v-.84-3.49c0-2.32-.07-4.65-.06-7l.11-7v-1.74-.86a3.31 3.31 0 0 0 -.05-.55 3.06 3.06 0 0 0 -.39-1 4.31 4.31 0 0 0 -.35-.47l-.56-.66q-4.56-5.25-8.82-10.76l-.93-1.2a.55.55 0 0 0 -.38-.2.63.63 0 0 0 -.47.1l-1.34 1.11c-1.78 1.5-3.61 2.93-5.45 4.4s-3.65 2.88-5.45 4.36c-.88.75-1.78 1.51-2.62 2.27a4 4 0 0 0 -1.17 2.98zm-.35 0a4.68 4.68 0 0 1 1.17-3.34l2.43-2.52q2.38-2.55 4.69-5.18c1.55-1.74 3.09-3.49 4.69-5.17l1.2-1.28a3.94 3.94 0 0 1 2.69-1.12 4 4 0 0 1 2.78 1.06c.42.42.52.58.73.81l.56.66q4.52 5.31 8.82 10.8l.54.68a7.81 7.81 0 0 1 .65 1 6.48 6.48 0 0 1 .76 2.27 6.74 6.74 0 0 1 0 1.19l-.06.88-.1 1.65-.5 7c-.19 2.31-.42 4.63-.66 6.94l-.35 3.47-.09.9a3.65 3.65 0 0 1 -.31 1.07c-.28.57-.54 1.08-.84 1.6-2.34 4.1-5.25 8-9.37 10.56a13.31 13.31 0 0 1 -7.07 2.11 8.9 8.9 0 0 1 -3.82-1 12 12 0 0 1 -3.07-2.39 20.35 20.35 0 0 1 -3.86-6.34 29.5 29.5 0 0 1 -1.83-7v-.14c.06-3.18.23-6.36.32-9.54 0-1.59.08-3.18.06-4.76s-.09-3.27-.16-4.86z"/></svg>