<svg viewBox="0 0 54.16 82.7" xmlns="http://www.w3.org/2000/svg"><path d="m41.52 75.68s3-48-14-53-23 44-23 44-4 2-4-11 6-54 6-54h18l27 8s4 65-4 71-6-5-6-5z" fill="#eace88"/><path d="m41.35 75.66a128 128 0 0 0 -1.59-27.73 64.1 64.1 0 0 0 -3.57-13.25 28.82 28.82 0 0 0 -3.11-5.87 12.81 12.81 0 0 0 -4.59-4.11c-.45-.2-.92-.35-1.38-.54s-.94-.19-1.41-.25a6.75 6.75 0 0 0 -2.74.41 11.38 11.38 0 0 0 -4.72 3.77 32.69 32.69 0 0 0 -3.52 5.62 67.14 67.14 0 0 0 -2.72 6.29 113.81 113.81 0 0 0 -4.1 13.15c-1.11 4.49-2.1 9-2.76 13.61v.36l-.29.12a2.3 2.3 0 0 1 -2.6-.68 5.72 5.72 0 0 1 -1.15-2 18.23 18.23 0 0 1 -.86-4.25 60.19 60.19 0 0 1 -.13-8.51c.3-5.63.82-11.22 1.31-16.8s1.09-11.21 1.67-16.79 1.26-11.16 2-16.74l.14-1.24h1.29l9-.13 9-.08h.23l.25.05 13.54 3.93c4.51 1.27 9 2.61 13.51 3.94l1.25.37.09 1.31c.44 7 .6 14.06.74 21.1s0 14.08-.43 21.12c-.22 3.52-.49 7-.87 10.54a98.34 98.34 0 0 1 -1.58 10.49 30.9 30.9 0 0 1 -1.53 5.11 8.28 8.28 0 0 1 -1.36 2.37 4.34 4.34 0 0 1 -1.06.91c-.36.25-.75.48-1.14.7a5.33 5.33 0 0 1 -2.62.79 2.09 2.09 0 0 1 -1.34-.53 3 3 0 0 1 -.74-1.2 7.89 7.89 0 0 1 -.35-2.67 15.43 15.43 0 0 1 .24-2.69zm.34 0a16.25 16.25 0 0 0 -.19 2.6 7.33 7.33 0 0 0 .37 2.52 1.84 1.84 0 0 0 1.69 1.41 4.59 4.59 0 0 0 2.33-.8 8 8 0 0 0 2-1.54 8 8 0 0 0 1.11-2.19 27.75 27.75 0 0 0 1.17-5 140 140 0 0 0 1-20.89c-.09-7-.29-14-.53-21s-.59-14-1-20.95l1.36 1.65c-4.5-1.33-9-2.66-13.48-4.05l-13.52-4.13.48.07-9-.08-9-.13 1.52-1.26-2.64 16.61q-1.3 8.31-2.43 16.65c-.38 2.77-.73 5.55-1 8.34s-.57 5.57-.71 8.36a48.13 48.13 0 0 0 .08 8.32 17.18 17.18 0 0 0 .83 4 4.43 4.43 0 0 0 .87 1.56 1.46 1.46 0 0 0 .63.4 1 1 0 0 0 .57 0l-.34.49a148.93 148.93 0 0 1 5.65-27.54 43.49 43.49 0 0 1 6.3-12.92 14.27 14.27 0 0 1 6.07-4.79 9.18 9.18 0 0 1 4.1-.55c.68.09 1.35.25 2 .4s1.26.47 1.86.76a14.69 14.69 0 0 1 5.54 5.26 27.23 27.23 0 0 1 3.07 6.6 67.67 67.67 0 0 1 2.76 13.89c.51 4.66.65 9.33.73 14s.06 9.27-.25 13.97z"/></svg>