<svg viewBox="0 0 64.37 44" xmlns="http://www.w3.org/2000/svg"><path d="m7.48 33.91c-2-1-8-5-6-16s3-14 8-14 12 4 12 4a23.49 23.49 0 0 1 11-7c7-2 14 6 14 6h8.52a7.3 7.3 0 0 1 7.07 5.43c.92 3.51 1.3 8.89-.62 16.57-4 16-10 13-10 13l-25-8z" fill="#fff"/><path d="m7.44 34.08a11.19 11.19 0 0 1 -4.92-3.95 14 14 0 0 1 -2.31-6 22.2 22.2 0 0 1 .05-6.41c.28-2 .62-4 1-6.09a19.27 19.27 0 0 1 2.17-6.25 6.24 6.24 0 0 1 3-2.56 8.68 8.68 0 0 1 3.63-.45 20.13 20.13 0 0 1 6.4 1.63 38 38 0 0 1 5.66 2.8l-1.63.31a21.77 21.77 0 0 1 2.92-2.58 24.84 24.84 0 0 1 3.2-2.05 23.07 23.07 0 0 1 3.45-1.48 17.68 17.68 0 0 1 3.71-1 12 12 0 0 1 3.83.4 15.93 15.93 0 0 1 3.47 1.49 25.77 25.77 0 0 1 5.93 4.61l-.47-.21c2.21 0 4.41-.14 6.62-.21l1.6-.08a9.55 9.55 0 0 1 1.83.09 8.46 8.46 0 0 1 3.48 1.38 8.36 8.36 0 0 1 2.57 2.81 8.72 8.72 0 0 1 .75 1.78c.16.56.31 1.13.43 1.7a28.83 28.83 0 0 1 .54 6.92 49.46 49.46 0 0 1 -2.59 13.42 23.13 23.13 0 0 1 -3.19 6.41 9.52 9.52 0 0 1 -3 2.7 4.9 4.9 0 0 1 -1 .46 5.4 5.4 0 0 1 -1.17.27 4.75 4.75 0 0 1 -1.25 0 3 3 0 0 1 -.65-.11l-.35-.09a4.18 4.18 0 0 1 -.43-.18l.26.11-6.22-2.07c-2.08-.69-4.15-1.39-6.22-2.12s-4.13-1.42-6.19-2.17l-6.25-2.2.38.06c-3.21-.13-6.41-.27-9.59-.45l-4.75-.3c-1.57-.1-3.14-.21-4.7-.34zm.08-.34c1.62-.13 3.21-.25 4.8-.34l4.76-.3c3.15-.18 6.29-.33 9.4-.46h.15l.24.06 6.32 1.78c2.11.59 4.2 1.22 6.3 1.83s4.2 1.24 6.29 1.89l6.28 1.92.26.11h.06.16a1.27 1.27 0 0 0 .39 0 1.89 1.89 0 0 0 .44-.11 1.7 1.7 0 0 0 .47-.2 6 6 0 0 0 1.84-1.69 21.19 21.19 0 0 0 2.8-5.33 47.72 47.72 0 0 0 2.83-12.39 29.15 29.15 0 0 0 -.14-6.27c-.07-.52-.16-1-.27-1.53a6.37 6.37 0 0 0 -.42-1.3 6.07 6.07 0 0 0 -1.68-2.19 6.27 6.27 0 0 0 -2.58-1.22 7.39 7.39 0 0 0 -1.47-.18l-1.65-.08c-2.21-.08-4.41-.19-6.62-.22h-.28l-.2-.21a21.69 21.69 0 0 0 -5.47-4.48 10.84 10.84 0 0 0 -6.64-1.56 13.48 13.48 0 0 0 -3.29 1.08 22.46 22.46 0 0 0 -3.07 1.71 21.93 21.93 0 0 0 -5.05 4.64l-.62.81-1-.5a47.85 47.85 0 0 0 -5.43-2.27 27 27 0 0 0 -2.77-.81 13.26 13.26 0 0 0 -2.72-.43 6.89 6.89 0 0 0 -2.4.24 3.07 3.07 0 0 0 -1.54 1.26 10.33 10.33 0 0 0 -1.1 2.41c-.31.9-.58 1.85-.83 2.81-.5 1.93-.9 3.92-1.35 5.9a23.37 23.37 0 0 0 -.52 5.76 13.71 13.71 0 0 0 1.44 5.53 11.89 11.89 0 0 0 3.88 4.33z"/></svg>