<svg viewBox="0 0 63.29 71.25" xmlns="http://www.w3.org/2000/svg"><path d="m52.65 71.09s-2-54-21-50-28 45-28 45-11-34 10-63c0 0 14-3 20 0s21 4 21 4 18 49-2 64z" fill="#eace88"/><path d="m52.58 71.25c-.09 0-.12-.24-.11-.21v-.17-.22-.44l-.1-.89-.21-1.77-.51-3.55c-.32-2.35-.65-4.7-1.07-7-.77-4.68-1.7-9.32-2.89-13.88a62 62 0 0 0 -4.81-13.12 20.53 20.53 0 0 0 -3.88-5.3 7.76 7.76 0 0 0 -5.39-2.25 9.43 9.43 0 0 0 -1.48.16c-.51.11-1 .27-1.54.4s-1 .39-1.51.58-1 .5-1.45.75a24.56 24.56 0 0 0 -5.23 4.15 51.92 51.92 0 0 0 -8.11 11.27 107.78 107.78 0 0 0 -10.12 26.44l-.46 2-.56-1.92a67.74 67.74 0 0 1 -1.83-8.11c-.46-2.76-.82-5.51-1.03-8.27a84.07 84.07 0 0 1 .26-16.63 79.78 79.78 0 0 1 1.45-8.27 67.11 67.11 0 0 1 2.46-8 65.57 65.57 0 0 1 7.87-14.87l.36-.52.62-.12a69 69 0 0 1 10.62-1.43 34.74 34.74 0 0 1 5.48.1 14 14 0 0 1 1.41.19 11.13 11.13 0 0 1 1.43.31l.75.19c.25.08.49.18.73.28l1.27.52a44.51 44.51 0 0 0 9.63 2.4c3.36.52 6.8.93 10.18 1.22l1.22.1.38 1.09a138.11 138.11 0 0 1 4.47 16.54 112.14 112.14 0 0 1 2.3 16.95 68.25 68.25 0 0 1 -.06 8.58 48.23 48.23 0 0 1 -1.3 8.47 29.16 29.16 0 0 1 -3.26 8 21.7 21.7 0 0 1 -2.56 3.43c-.52.51-1 1-1.56 1.51s-1.31.91-1.86 1.31zm.15-.32c.51-.51.91-1 1.36-1.43s.88-1 1.33-1.56a20.48 20.48 0 0 0 2.2-3.49 30.72 30.72 0 0 0 2.54-7.82 45.34 45.34 0 0 0 .77-8.23 69.79 69.79 0 0 0 -.4-8.3 120.61 120.61 0 0 0 -2.85-16.41 161.39 161.39 0 0 0 -4.74-16l1.59 1.19c-3.53-.2-7.03-.57-10.53-1.14-1.75-.27-3.51-.61-5.26-1a28.53 28.53 0 0 1 -5.29-1.74l-.66-.29-.48-.2c-.16-.07-.31-.14-.48-.2l-.54-.15a6.54 6.54 0 0 0 -1.12-.26 11 11 0 0 0 -1.17-.18 32.14 32.14 0 0 0 -4.93-.18 66.78 66.78 0 0 0 -10.07 1.15l1-.64a68.8 68.8 0 0 0 -7.94 13.95 78.1 78.1 0 0 0 -2.67 7.62 76.11 76.11 0 0 0 -1.81 7.91 78.22 78.22 0 0 0 -1 16.26 70.43 70.43 0 0 0 2.57 16.1h-1c.52-2.35 1.15-4.65 1.8-6.95s1.32-4.51 2.05-6.79a106.61 106.61 0 0 1 5.3-13.41 51.49 51.49 0 0 1 7.93-12.27 25.26 25.26 0 0 1 5.82-4.83c.57-.29 1.12-.63 1.72-.89s1.2-.51 1.82-.72 1.25-.36 1.91-.51a10.82 10.82 0 0 1 2.06-.21 10.1 10.1 0 0 1 4.1.88 12.24 12.24 0 0 1 3.34 2.27 22.06 22.06 0 0 1 4.43 6.21 59.24 59.24 0 0 1 4.57 13.85 120.82 120.82 0 0 1 2.14 14.24q.33 3.57.49 7.16c.06 1.19.11 2.38.14 3.58v1.79 1.71c.07.1.05-.07-.04-.07z"/></svg>