<svg viewBox="0 0 67.86 44.01" xmlns="http://www.w3.org/2000/svg"><path d="m55.88 43.44s20-20 5-34c0 0-24-1-28-7s-15 4-15 4l-10-2s-14.43 7.22.4 31.08a7.3 7.3 0 0 0 6.89 3.4 72.5 72.5 0 0 1 18.71.52c11 2 1 4 22 4z" fill="#fff"/><path d="m55.81 43.28s.09-.13.13-.19l.19-.24.37-.48.71-1c.47-.64.93-1.3 1.36-2 .89-1.33 1.71-2.68 2.47-4.07a34.19 34.19 0 0 0 3.44-8.65 20.66 20.66 0 0 0 .57-4.47 16.57 16.57 0 0 0 -.58-4.34 16.48 16.48 0 0 0 -4.66-7.33l1 .42a88.72 88.72 0 0 1 -11.74-1.37 59.2 59.2 0 0 1 -11.44-3.21 11.91 11.91 0 0 1 -5.08-3.42l-.42-.55c-.13-.17-.29-.31-.43-.46a3.41 3.41 0 0 0 -1.09-.63 4.7 4.7 0 0 0 -2.61-.1 14.93 14.93 0 0 0 -5.11 2.29 30.26 30.26 0 0 0 -4.48 3.52l-.27.25-.42-.06-10.07-1.58.77-.1a10.29 10.29 0 0 0 -1.74 1.49c-.25.3-.53.57-.77.88l-.69 1a14.48 14.48 0 0 0 -1.72 4.28c-.12.79-.22 1.57-.28 2.37s0 1.6.06 2.41l.34 2.42.63 2.4a44.42 44.42 0 0 0 4.13 9.24l1.28 2.22a5.07 5.07 0 0 0 .59.89 4.5 4.5 0 0 0 .68.7 5.7 5.7 0 0 0 3.6 1.36h.5.67l1.3-.17c.9 0 1.79-.09 2.69-.11 1.79 0 3.58 0 5.37.08a53.42 53.42 0 0 1 10.7 1.54 20.11 20.11 0 0 1 2.66.87 11.67 11.67 0 0 1 2.58 1.41 5.84 5.84 0 0 0 2 1 23.27 23.27 0 0 0 2.46.49c1.71.23 3.44.44 5.19.58zm.14.32c-1.71.14-3.62.27-5.35.32s-3.53.13-5.32 0a24 24 0 0 1 -2.74-.27 7.29 7.29 0 0 1 -2.8-1 9.26 9.26 0 0 0 -2.14-1 24.55 24.55 0 0 0 -2.39-.57 57.71 57.71 0 0 0 -10.21-.85c-1.71 0-3.43.06-5.14.15-.86 0-1.72.1-2.58.17l-1.28.12-.64.06c-.26 0-.54.05-.81.05a9 9 0 0 1 -6.06-2.18 8.62 8.62 0 0 1 -1.15-1.19 8.87 8.87 0 0 1 -.87-1.29l-1.34-2.35a44.81 44.81 0 0 1 -4.13-10.09l-.67-2.68c-.12-1-.21-1.9-.33-2.83s0-1.9 0-2.85a27.49 27.49 0 0 1 .5-2.84 16.06 16.06 0 0 1 2.43-5.26 12.92 12.92 0 0 1 4.42-3.85l.37-.2.4.1 9.88 2.39-.69.19a42 42 0 0 1 4.89-3.42 18 18 0 0 1 5.61-2.3 6.27 6.27 0 0 1 3.19.15 4.48 4.48 0 0 1 1.45.8 7.93 7.93 0 0 1 .58.58l.47.61c1.03 1.36 2.88 2.12 4.63 2.73a55.58 55.58 0 0 0 11.3 2.06c3.83.38 7.71.6 11.52.8h.57l.48.44a18.39 18.39 0 0 1 5.41 8.84 19.1 19.1 0 0 1 -.44 10.24 31.89 31.89 0 0 1 -4.43 8.89 45.4 45.4 0 0 1 -3 3.85c-.54.61-1.1 1.2-1.67 1.78l-.88.85-.45.41-.22.2a3.65 3.65 0 0 1 -.32.24z"/></svg>