<svg viewBox="0 0 77.37 191.74" xmlns="http://www.w3.org/2000/svg" xmlns:xlink="http://www.w3.org/1999/xlink"><clipPath id="a"><path d="m60.57 29.37-9.44 157.44c-.17 2.74-3.87 4.89-8.34 4.85h-.94c-4.8-.05-8.72-2.36-9-5.3l-14.25-156.99z"/></clipPath><path d="m0 3.09h77.37v26.27h-77.37z" fill="#828d93"/><path d="m0 3.09 4.03-3.09h70.89l2.45 3.09z" fill="#beced3"/><path d="m0 3.09h21.52v26.27h-21.52z" fill="#939fa5"/><path d="m55.85 3.09h21.52v26.22h-21.52z" fill="#747d82"/><path d="m55.85 29.34h2.89a35.22 35.22 0 0 1 5.78-12.85 37.91 37.91 0 0 1 12.85-10.85v-2.52h-21.52z" fill="#6a7175"/><path d="m5 6.89a33.27 33.27 0 0 1 -5 4.28v18.2h21.52v-26.28h-14.11a14 14 0 0 1 -2.41 3.8z" fill="#99a5aa"/><path d="m0 3.09 4.03-3.09h20.69l-3.2 3.09z" fill="#d6e6ea"/><path d="m77.37 3.12-2.45-3.12h-21.44l2.37 3.12z" fill="#acb9bc"/><g clip-path="url(#a)"><path d="m18.6 30.88h42.08v51.57h-42.08z" fill="#828d93"/><path d="m18.6 29.37h42v22.43s-2.74-9.49-15.3-13.49a140.6 140.6 0 0 0 -26.7-5.21z" fill="#6a7175"/><path d="m50.64 36.64h9.93v41.74h-9.93z" fill="#6a7175"/><path d="m17.44 81.21h44.43v55.12h-44.43z" fill="#828d93"/><g fill="#6a7175"><path d="m50.64 78.38h11.22v57.95h-11.22z"/><path d="m61.22 80.44-42.84 4c-.93.09-1.79-.3-1.94-.87l-.1-.4c-.14-.57.5-1.1 1.43-1.19l42.83-3.98c.93-.08 1.8.31 1.94.88l.1.4c.14.54-.49 1.07-1.42 1.16z"/><path d="m61.28 86.09-42.83 4c-.93.08-1.8-.31-1.94-.88l-.1-.4c-.14-.56.49-1.1 1.42-1.18l42.84-4c.93-.09 1.79.3 1.94.87l.1.4c.14.57-.5 1.1-1.43 1.19z"/><path d="m61.34 91.74-42.83 4c-.93.09-1.8-.3-1.94-.87l-.1-.4c-.14-.57.5-1.1 1.43-1.19l42.83-4c.93-.09 1.8.3 1.94.87l.1.4c.14.57-.5 1.1-1.43 1.19z"/><path d="m61.41 97.39-42.84 4c-.93.09-1.79-.3-1.94-.87l-.09-.4c-.15-.57.49-1.1 1.42-1.19l42.83-4c.93-.08 1.8.31 1.94.88l.1.4c.17.56-.49 1.1-1.42 1.18z"/><path d="m61.47 103.05-42.83 4c-.93.08-1.8-.31-1.94-.88l-.1-.4c-.14-.57.5-1.1 1.42-1.19l42.84-4c.93-.08 1.8.31 1.94.88l.1.4c.1.57-.5 1.14-1.43 1.19z"/><path d="m61.54 108.7-42.84 4c-.93.08-1.8-.31-1.94-.88l-.1-.4c-.14-.56.5-1.1 1.43-1.18l42.83-4c.93-.09 1.8.3 1.94.87l.1.4c.14.57-.5 1.1-1.42 1.19z"/><path d="m61.6 114.35-42.84 4c-.92.09-1.79-.3-1.93-.87l-.1-.4c-.15-.57.49-1.1 1.42-1.19l42.84-4c.92-.09 1.79.3 1.93.87l.1.4c.15.57-.49 1.1-1.42 1.19z"/><path d="m61.66 120-42.83 4c-.93.09-1.8-.3-1.94-.87l-.1-.4c-.14-.57.5-1.1 1.43-1.19l42.83-4c.93-.08 1.8.31 1.94.88l.1.4c.14.56-.5 1.1-1.43 1.18z"/><path d="m61.73 125.66-42.84 4c-.93.08-1.79-.31-1.94-.88l-.1-.4c-.14-.57.5-1.1 1.43-1.19l42.83-4c.93-.09 1.8.3 1.94.87l.1.4c.14.54-.49 1.11-1.42 1.2z"/><path d="m61.79 131.31-42.83 4c-.93.08-1.8-.31-1.94-.88l-.1-.39c-.14-.57.49-1.11 1.42-1.19l42.84-4c.93-.09 1.79.3 1.94.87l.1.4c.14.57-.5 1.1-1.43 1.19z"/></g><path d="m62.61 79.26-45.5 4.26c-.95.09-1.85-.32-2-.9l-.11-.34c-.14-.59.51-1.14 1.47-1.23l45.53-4.25c1-.09 1.85.31 2 .9l.08.33c.14.59-.52 1.14-1.47 1.23z" fill="#99a5aa"/><path d="m62.59 84.92-45.49 4.26c-1 .09-1.85-.32-2-.9l-.1-.34c-.15-.59.51-1.14 1.46-1.23l45.54-4.25c1-.09 1.85.31 2 .9l.08.33c.13.59-.53 1.14-1.49 1.23z" fill="#99a5aa"/><path d="m62.58 90.58-45.5 4.26c-.95.09-1.85-.32-2-.9l-.08-.34c-.14-.59.51-1.14 1.47-1.23l45.53-4.25c1-.09 1.84.31 2 .9l.09.33c.1.59-.56 1.14-1.51 1.23z" fill="#99a5aa"/><path d="m62.56 96.24-45.49 4.26c-1 .09-1.85-.32-2-.9l-.07-.34c-.15-.59.51-1.14 1.46-1.23l45.54-4.25c1-.09 1.85.31 2 .9v.32c.18.6-.48 1.15-1.44 1.24z" fill="#99a5aa"/><path d="m62.55 101.9-45.5 4.26c-.95.08-1.85-.32-2-.9l-.09-.34c-.14-.59.51-1.14 1.47-1.23l45.5-4.25c1-.09 1.85.31 2 .9l.09.33c.14.59-.52 1.14-1.47 1.23z" fill="#99a5aa"/><path d="m62.53 107.56-45.53 4.26c-1 .08-1.85-.32-2-.9l-.08-.34c-.15-.59.51-1.14 1.47-1.23l45.49-4.25c1-.09 1.85.31 2 .9l.08.33c.19.59-.47 1.14-1.43 1.23z" fill="#99a5aa"/><path d="m62.52 113.22-45.52 4.26c-.95.08-1.85-.32-2-.9l-.09-.34c-.14-.59.51-1.14 1.47-1.23l45.5-4.25c1-.09 1.85.31 2 .9l.12.34c.13.58-.52 1.13-1.48 1.22z" fill="#99a5aa"/><path d="m62.5 118.88-45.5 4.26c-1 .08-1.85-.32-2-.9l-.08-.34c-.15-.59.51-1.14 1.47-1.23l45.49-4.25c1-.09 1.85.31 2 .9l.08.33c.16.59-.5 1.14-1.46 1.23z" fill="#99a5aa"/><path d="m62.49 124.54-45.49 4.26c-.95.08-1.85-.32-2-.9l-.09-.34c-.14-.59.51-1.14 1.47-1.23l45.5-4.25c.95-.09 1.85.31 2 .9l.09.33c.13.59-.52 1.14-1.48 1.23z" fill="#99a5aa"/><path d="m62.47 130.2-45.47 4.26c-1 .08-1.85-.32-2-.9l-.08-.34c-.15-.59.51-1.14 1.47-1.23l45.49-4.25c1-.09 1.85.31 2 .9l.08.33c.13.59-.53 1.14-1.49 1.23z" fill="#99a5aa"/><rect fill="#828d93" height="55.12" rx="6.2" width="44.43" x="17.63" y="136.61"/><path d="m50.83 133.79h11.22a0 0 0 0 1 0 0v51.15a6.8 6.8 0 0 1 -6.8 6.8h-4.42a0 0 0 0 1 0 0v-57.95a0 0 0 0 1 0 0z" fill="#6a7175"/><path d="m61.4 135.84-42.83 4c-.93.09-1.8-.3-1.94-.87l-.1-.4c-.14-.57.5-1.1 1.42-1.19l42.84-4c.93-.09 1.8.3 1.94.87l.1.4c.17.57-.5 1.1-1.43 1.19z" fill="#6a7175"/><path d="m61.47 141.49-42.84 4c-.93.09-1.8-.3-1.94-.87l-.1-.4c-.14-.57.5-1.1 1.43-1.19l42.83-4c.93-.08 1.8.31 1.94.88l.1.39c.11.57-.5 1.11-1.42 1.19z" fill="#6a7175"/><path d="m61.53 147.15-42.83 4c-.93.09-1.8-.3-1.94-.87l-.1-.4c-.14-.57.49-1.1 1.42-1.19l42.84-4c.93-.08 1.79.31 1.93.88l.1.4c.15.56-.49 1.09-1.42 1.18z" fill="#6a7175"/><path d="m61.59 152.8-42.83 4c-.93.08-1.8-.31-1.94-.88l-.1-.4c-.14-.56.5-1.1 1.43-1.18l42.83-4c.93-.09 1.8.3 1.94.87l.1.4c.14.57-.5 1.1-1.43 1.19z" fill="#6a7175"/><path d="m61.66 158.45-42.84 4c-.93.09-1.79-.3-1.94-.87l-.1-.4c-.14-.57.5-1.1 1.43-1.19l42.79-3.99c.93-.09 1.8.3 1.94.87l.1.4c.18.56-.45 1.09-1.38 1.18z" fill="#6a7175"/><path d="m61.72 164.1-42.83 4c-.93.09-1.8-.3-1.94-.87l-.1-.4c-.14-.57.49-1.1 1.42-1.19l42.84-4c.93-.08 1.79.31 1.94.88l.1.4c.14.56-.5 1.08-1.43 1.18z" fill="#6a7175"/><path d="m61.78 169.76-42.83 4c-.93.09-1.8-.3-1.94-.87l-.1-.4c-.14-.57.5-1.1 1.43-1.19l42.83-4c.93-.08 1.8.31 1.94.88l.1.4c.14.56-.5 1.09-1.43 1.18z" fill="#6a7175"/><path d="m61.85 175.41-42.84 4c-.93.08-1.79-.31-1.93-.88l-.1-.4c-.15-.56.49-1.1 1.42-1.18l42.84-4c.92-.09 1.79.3 1.93.87l.1.4c.15.57-.49 1.1-1.42 1.19z" fill="#6a7175"/><path d="m61.91 181.06-42.83 4c-.93.09-1.8-.3-1.94-.87l-.1-.4c-.14-.57.5-1.1 1.42-1.19l42.84-4c.93-.09 1.8.3 1.94.87l.1.4c.14.57-.5 1.13-1.43 1.19z" fill="#6a7175"/><path d="m62 186.71-42.84 4c-.93.09-1.8-.3-1.94-.87l-.1-.4c-.14-.57.5-1.1 1.43-1.19l42.83-4c.93-.08 1.8.31 1.94.88l.1.4c.12.56-.52 1.1-1.42 1.18z" fill="#6a7175"/><path d="m62.79 134.66-45.49 4.26c-1 .09-1.85-.31-2-.9l-.08-.34c-.15-.58.51-1.13 1.46-1.22l45.5-4.26c1-.09 1.85.31 2 .9l.08.34c.15.56-.51 1.13-1.47 1.22z" fill="#99a5aa"/><path d="m62.78 140.32-45.5 4.26c-1 .09-1.85-.31-2-.9l-.09-.34c-.14-.58.51-1.13 1.47-1.22l45.5-4.26c.95-.09 1.85.31 2 .9l.09.34c.14.59-.52 1.13-1.47 1.22z" fill="#99a5aa"/><path d="m62.76 146-45.49 4.26c-1 .09-1.85-.31-2-.9l-.08-.34c-.15-.58.51-1.13 1.47-1.22l45.49-4.26c1-.09 1.85.31 2 .9l.08.34c.15.57-.51 1.11-1.47 1.22z" fill="#99a5aa"/><path d="m62.75 151.64-45.5 4.26c-.95.09-1.85-.31-2-.9l-.09-.34c-.14-.58.51-1.13 1.47-1.22l45.5-4.26c1-.09 1.85.31 2 .9l.09.34c.14.58-.51 1.13-1.47 1.22z" fill="#99a5aa"/><path d="m62.73 157.3-45.49 4.26c-1 .09-1.85-.31-2-.9l-.08-.34c-.15-.58.51-1.13 1.47-1.22l45.49-4.26c1-.09 1.85.31 2 .9l.08.34c.15.59-.51 1.13-1.47 1.22z" fill="#99a5aa"/><path d="m62.72 163-45.5 4.26c-.95.09-1.85-.31-2-.9l-.09-.34c-.14-.58.51-1.13 1.47-1.22l45.5-4.26c1-.09 1.85.31 2 .9l.09.34c.14.54-.51 1.09-1.47 1.22z" fill="#99a5aa"/><path d="m62.7 168.62-45.49 4.26c-1 .09-1.85-.31-2-.9l-.08-.34c-.15-.58.51-1.13 1.47-1.22l45.49-4.26c1-.09 1.85.31 2 .9l.08.34c.15.6-.51 1.13-1.47 1.22z" fill="#99a5aa"/><path d="m62.69 174.28-45.5 4.26c-1 .09-1.85-.31-2-.9l-.09-.34c-.14-.58.52-1.13 1.47-1.22l45.5-4.26c1-.09 1.85.31 2 .9l.09.34c.14.58-.51 1.13-1.47 1.22z" fill="#99a5aa"/><path d="m62.68 179.94-45.5 4.26c-1 .09-1.85-.31-2-.9l-.08-.3c-.15-.58.51-1.13 1.47-1.22l45.49-4.26c1-.09 1.85.31 2 .9l.08.34c.15.54-.51 1.09-1.46 1.18z" fill="#99a5aa"/><path d="m62.66 185.6-45.5 4.26c-.95.09-1.84-.31-2-.9l-.09-.34c-.14-.58.52-1.13 1.47-1.22l45.5-4.26c1-.09 1.85.31 2 .9l.09.34c.14.62-.51 1.13-1.47 1.22z" fill="#99a5aa"/><path d="m22 37.3c-1 1.09-.74 2.4-.52 3.63a112.5 112.5 0 0 1 .85 33.27 1.8 1.8 0 0 0 .87 2.12 5.25 5.25 0 0 0 2 .35c6.64.22 13.99-1.82 15.8-5.67.83-1.73.48-3.57.13-5.36q-1.83-9.2-3.65-18.39a8.37 8.37 0 0 0 -1.68-4.25c-1.68-1.93-4.84-3-7.08-4.6-1.72-1.24-4.14-4.03-6.72-1.1z" fill="#fff" opacity=".16"/><path d="m26.09 45.47a111.68 111.68 0 0 1 .38 28.82 2.18 2.18 0 0 0 .25 1.63 2.29 2.29 0 0 0 2.19.67 1.85 1.85 0 0 0 1.19-1c1.15-2 .93-4.18.74-6.3a124.63 124.63 0 0 1 -.31-18c.1-1.84 1.88-6.23.12-7.82a2.61 2.61 0 0 0 -4.56 2z" fill="#fff" opacity=".33"/><path d="m21.66 85.45c4.94 25.25.76 50.81 2.31 76.23.41 6.8 1.23 13.69-.94 20.37-.53 1.63-1.12 3.55.74 4.77 2.29 1.49 6.74.57 8.38-1.21s1.34-4 1-6c-3.68-22.63-4.33-45.41-5-68.15q-.24-8.72-.49-17.42c-.08-2.92-.16-5.88.88-8.74.67-1.84.36-4.92-4.22-4.66-3.67.21-2.99 3.11-2.66 4.81z" fill="#fff" opacity=".16"/></g></svg>