<svg viewBox="0 0 79.41 213.48" xmlns="http://www.w3.org/2000/svg"><path d="m0 0v3.13s17.93.4 24.63 12.87c5.8 10.79 5.25 16 5.25 16l9.83-.41 9.82.41s-.15-6.06 5.26-16c6.77-12.45 24.62-12.87 24.62-12.87v-3.13z" fill="#828d93"/><path d="m15.51 7.25c8 .32 18.17 1.17 25.86 1.4 11.05.32 1 9.62 1.65 20.65l6.51 2.7s-.15-6.07 5.26-16c6.77-12.45 24.62-12.87 24.62-12.87h-79.41a38.78 38.78 0 0 1 15.51 4.12z" fill="#6a7175"/><g fill="#282a2b"><path d="m26.24 199.59 9.92-.6 5.92-5.64 11.32-2.09v-2.28l-7.47-.42-11.92 6.86-7.77 1.83z"/><path d="m26.26 150.85 9.93-.6 5.91-5.63 11.33-2.1v-2.28l-7.47-.42-11.92 6.87-7.78 1.82z"/><path d="m26.26 161.06 9.93-.6 5.91-5.63 11.33-2.1v-2.28l-7.47-.42-11.92 6.87-7.78 1.82z"/><path d="m26.26 185.15 9.93-.6 5.91-5.64 11.33-2.09v-2.28l-7.47-.43-11.92 6.87-7.78 1.83z"/><path d="m25.98 199.59 9.93-.6 5.92-5.64 11.32-2.09v-2.28l-7.47-.42-11.92 6.86-7.78 1.83z"/><path d="m26.26 172.66 9.93-.6 5.91-5.64 11.33-2.09v-2.28l-7.47-.42-11.92 6.86-7.78 1.83z"/><path d="m26.26 139.78 9.93-.6 5.91-5.64 11.33-2.09v-2.28l-7.47-.42-11.92 6.86-7.78 1.83z"/></g><path d="m50.06 199.82-9.19 13.66-10.73-13.66v-75.79h19.92z" fill="#828d93"/><path d="m50.06 199.82-6.9.6v-77.02h6.9z" fill="#6a7175"/><path d="m26.26 137.44 27.17-8.27v2.28l-27.17 8.33z" fill="#9ca9af"/><path d="m30.21 138.57 19.93-6.11v.99l-19.91 6.09z" fill="#282a2b"/><path d="m26.26 158.72 27.17-8.27v2.28l-27.17 8.33z" fill="#9ca9af"/><path d="m30.21 159.85 19.93-6.11v.99l-19.91 6.09z" fill="#282a2b"/><path d="m26.26 182.81 27.17-8.27v2.28l-27.17 8.33z" fill="#9ca9af"/><path d="m30.21 183.94 19.93-6.11v.99l-19.91 6.09z" fill="#282a2b"/><path d="m26.24 197.25 27.16-8.27v2.28l-27.16 8.33z" fill="#9ca9af"/><path d="m30.19 198.38 19.92-6.11v.99l-19.9 6.09z" fill="#282a2b"/><path d="m26.26 170.32 27.17-8.27v2.28l-27.17 8.33z" fill="#9ca9af"/><path d="m30.21 171.45 19.93-6.11v.99l-19.91 6.09z" fill="#282a2b"/><path d="m26.26 148.51 27.17-8.27v2.28l-27.17 8.33z" fill="#9ca9af"/><path d="m30.21 149.64 19.93-6.11v.99l-19.91 6.09z" fill="#282a2b"/><path d="m40.87 213.48c.09-.14 2.29-13.06 2.29-13.06l6.9-.6z" fill="#6a7175"/><path d="m26.1 128.19 9.93-.6 5.91-5.64 11.33-2.09v-2.28l-7.47-.43-11.92 6.87-7.78 1.83z" fill="#282a2b"/><path d="m26.12 79.45 9.93-.6 5.92-5.64 11.32-2.09v-2.28l-7.47-.43-11.92 6.87-7.78 1.83z" fill="#282a2b"/><path d="m26.12 89.66 9.93-.6 5.92-5.64 11.32-2.09v-2.28l-7.47-.43-11.92 6.87-7.78 1.83z" fill="#282a2b"/><path d="m26.12 113.75 9.93-.61 5.92-5.63 11.32-2.09v-2.28l-7.47-.43-11.92 6.87-7.78 1.83z" fill="#282a2b"/><path d="m25.84 128.19 9.93-.6 5.92-5.64 11.32-2.09v-2.28l-7.47-.43-11.92 6.87-7.78 1.83z" fill="#282a2b"/><path d="m26.12 101.26 9.93-.6 5.92-5.64 11.32-2.09v-2.28l-7.47-.43-11.92 6.87-7.78 1.83z" fill="#282a2b"/><path d="m26.12 68.38 9.93-.6 5.92-5.64 11.32-2.09v-2.28l-7.47-.43-11.92 6.87-7.78 1.83z" fill="#282a2b"/><path d="m30 25.53h19.93v102.89h-19.93z" fill="#828d93"/><path d="m49.92 128.41-6.9.61v-104.12h6.9z" fill="#6a7175"/><path d="m26.12 66.04 27.17-8.27v2.28l-27.17 8.33z" fill="#9ca9af"/><path d="m30.07 67.17 19.93-6.11v.99l-19.91 6.09z" fill="#282a2b"/><path d="m26.12 87.32 27.17-8.27v2.28l-27.17 8.33z" fill="#9ca9af"/><path d="m30.07 88.45 19.93-6.11v.99l-19.91 6.09z" fill="#282a2b"/><path d="m26.12 111.41 27.17-8.27v2.28l-27.17 8.33z" fill="#9ca9af"/><path d="m30.07 112.53 19.93-6.11v.99l-19.91 6.09z" fill="#282a2b"/><path d="m26.1 125.85 27.17-8.27v2.28l-27.17 8.33z" fill="#9ca9af"/><path d="m30.05 126.98 19.92-6.11v.99l-19.9 6.09z" fill="#282a2b"/><path d="m26.12 98.92 27.17-8.27v2.28l-27.17 8.33z" fill="#9ca9af"/><path d="m30.07 100.05 19.93-6.11v.99l-19.91 6.09z" fill="#282a2b"/><path d="m26.12 77.11 27.17-8.27v2.28l-27.17 8.33z" fill="#9ca9af"/><path d="m30.07 78.24 19.93-6.11v.99l-19.91 6.09z" fill="#282a2b"/><path d="m27.58 14.45c7.31 13.39 6.35 28.13 6.66 42.44a1.72 1.72 0 0 0 .41 1.29 1.47 1.47 0 0 0 1.66.19 1 1 0 0 0 .31-.6 30 30 0 0 0 .25-7.57q-.65-12.56-1.3-25.1a20.48 20.48 0 0 0 -1.09-6.69 10.5 10.5 0 0 0 -3.34-4.41c-1.49-1.16-5-2.17-3.56.45z" fill="#fff" opacity=".45"/></svg>