<svg viewBox="0 0 57.66 198.95" xmlns="http://www.w3.org/2000/svg"><path d="m.89 3.55h56.59v27.18h-56.59z" fill="#828d93" transform="matrix(.99990495 .01378766 -.01378766 .99990495 .24 -.4)"/><path d="m1.08 3.16 2.99-3.16 51.85.71 1.74 3.23z" fill="#beced3"/><path d="m.89 3.27h15.74v27.18h-15.74z" fill="#939fa5" transform="matrix(.99990495 .01378766 -.01378766 .99990495 .23 -.12)"/><path d="m41.74 3.83h15.74v27.13h-15.74z" fill="#747d82" transform="matrix(.99990495 .01378766 -.01378766 .99990495 .24 -.68)"/><path d="m41.55 30.88h2.12a44.8 44.8 0 0 1 4.41-13.24 32.77 32.77 0 0 1 9.55-11.1v-2.6l-15.71-.19z" fill="#6a7175"/><path d="m4.7 7.14a28.47 28.47 0 0 1 -3.7 4.37l-.3 18.83 15.74.22.38-27.18-10.32-.14a16.4 16.4 0 0 1 -1.8 3.9z" fill="#99a5aa"/><path d="m1.08 3.16 2.99-3.16 15.13.21-2.38 3.17z" fill="#d6e6ea"/><path d="m57.66 3.96-1.74-3.25-15.68-.21 1.68 3.25z" fill="#acb9bc"/><path d="m5.65 32.3h45.02v53.36h-45.02z" fill="#828d93" transform="matrix(.99990495 .01378766 -.01378766 .99990495 .81 -.38)"/><path d="m6 30.42 44.9.62-.32 23.21s-2.8-9.86-16.18-14.19a155.08 155.08 0 0 0 -28.4-5.78z" fill="#6a7175"/><path d="m39.92 38.49h10.62v43.18h-10.62z" fill="#6a7175" transform="matrix(.99990495 .01378766 -.01378766 .99990495 .83 -.62)"/><path d="m3.67 84.36h47.52v57.03h-47.52z" fill="#828d93" transform="matrix(.99990495 .01378766 -.01378766 .99990495 1.55 -.37)"/><g fill="#6a7175"><path d="m39.21 81.68h12v59.96h-12z" transform="matrix(.99990495 .01378766 -.01378766 .99990495 1.54 -.61)"/><path d="m50.9 83.88-45.9 3.52c-1 .08-1.92-.34-2.06-.93l-.11-.42c-.14-.59.55-1.13 1.55-1.2l45.87-3.52c1-.08 1.92.34 2.06.93l.1.41c.18.59-.51 1.14-1.51 1.21z"/><path d="m50.89 89.73-45.89 3.52c-1 .08-1.91-.34-2.06-.93l-.1-.42c-.14-.59.55-1.13 1.54-1.21l45.88-3.51c1-.08 1.92.34 2.06.93l.1.41c.15.59-.54 1.13-1.53 1.21z"/><path d="m50.88 95.58-45.88 3.52c-1 .07-1.92-.34-2.06-.93l-.1-.42c-.14-.59.55-1.13 1.54-1.21l45.88-3.54c1-.07 1.91.35 2.06.94l.1.41c.14.65-.55 1.15-1.54 1.23z"/><path d="m50.86 101.43-45.86 3.57c-1 .07-1.92-.34-2.06-.93l-.1-.42c-.15-.59.54-1.13 1.54-1.21l45.87-3.52c1-.07 1.92.34 2.06.94l.11.41c.13.54-.56 1.08-1.56 1.16z"/><path d="m50.85 107.28-45.85 3.52c-1 .07-1.92-.34-2.06-.94l-.1-.41c-.15-.59.54-1.13 1.54-1.21l45.87-3.52c1-.07 1.92.34 2.06.93l.1.42c.13.59-.56 1.13-1.56 1.21z"/><path d="m50.84 113.13-45.84 3.51c-1 .08-1.92-.34-2.07-.93l-.1-.41c-.14-.59.55-1.13 1.54-1.21l45.88-3.52c1-.07 1.92.34 2.06.93l.1.42c.11.59-.58 1.13-1.57 1.21z"/><path d="m50.83 119-45.83 3.49c-1 .08-1.91-.34-2.06-.93l-.1-.41c-.14-.59.55-1.14 1.54-1.21l45.88-3.52c1-.08 1.91.34 2.06.93l.1.42c.09.59-.6 1.13-1.59 1.23z"/><path d="m50.82 124.82-45.88 3.52c-1 .08-1.92-.34-2.06-.93l-.1-.41c-.14-.6.55-1.14 1.54-1.21l45.87-3.52c1-.08 1.92.34 2.07.93l.1.42c.14.59-.55 1.13-1.54 1.2z"/><path d="m50.8 130.67-45.87 3.52c-1 .08-1.92-.34-2.06-.93l-.1-.42c-.15-.59.54-1.13 1.54-1.2l45.87-3.52c1-.08 1.92.34 2.06.93l.1.41c.15.6-.54 1.14-1.54 1.21z"/><path d="m50.79 136.52-45.87 3.48c-1 .08-1.92-.34-2.06-.93l-.1-.42c-.15-.59.54-1.13 1.54-1.2l45.87-3.45c1-.08 1.92.34 2.06.93l.1.41c.15.56-.54 1.11-1.54 1.18z"/></g><path d="m52.41 82.68-48.73 3.74c-1 .08-2-.35-2.12-1l-.09-.35c-.14-.61.57-1.17 1.59-1.24l48.72-3.74c1-.08 2 .35 2.13 1l.08.35c.15.61-.56 1.17-1.58 1.24z" fill="#99a5aa"/><path d="m52.31 88.54-48.72 3.74c-1 .07-2-.36-2.13-1l-.08-.28c-.15-.6.56-1.16 1.58-1.24l48.73-3.76c1-.07 2 .36 2.12 1l.09.36c.1.54-.57 1.1-1.59 1.18z" fill="#99a5aa"/><path d="m52.21 94.39-48.72 3.74c-1 .08-2-.35-2.12-1l-.09-.35c-.15-.61.56-1.17 1.59-1.24l48.72-3.74c1-.08 2 .35 2.12 1l.09.35c.2.61-.56 1.17-1.59 1.24z" fill="#99a5aa"/><path d="m52.12 100.25-48.73 3.75c-1 .08-2-.35-2.12-1l-.08-.35c-.15-.61.56-1.17 1.58-1.25l48.73-3.71c1-.07 2 .36 2.12 1l.08.36c.15.56-.56 1.12-1.58 1.2z" fill="#99a5aa"/><path d="m52 106.11-48.7 3.73c-1 .08-2-.35-2.13-1l-.08-.35c-.15-.61.56-1.16 1.59-1.24l48.72-3.74c1-.08 2 .35 2.12 1l.09.35c.14.61-.61 1.14-1.61 1.25z" fill="#99a5aa"/><path d="m51.92 112-48.72 3.7c-1 .08-2-.35-2.12-1l-.08-.31c-.14-.61.57-1.17 1.59-1.25l48.72-3.73c1-.08 2 .35 2.13 1l.08.36c.14.56-.52 1.11-1.6 1.23z" fill="#99a5aa"/><path d="m51.83 117.82-48.73 3.73c-1 .08-2-.35-2.12-1l-.08-.35c-.15-.61.56-1.16 1.58-1.24l48.73-3.74c1-.08 2 .35 2.12 1l.08.35c.15.61-.56 1.17-1.58 1.25z" fill="#99a5aa"/><path d="m51.73 123.67-48.73 3.74c-1 .08-2-.35-2.12-1l-.08-.31c-.15-.61.56-1.17 1.59-1.25l48.72-3.73c1-.08 2 .35 2.12 1l.09.35c.15.53-.56 1.12-1.59 1.2z" fill="#99a5aa"/><path d="m51.64 129.53-48.73 3.73c-1 .08-2-.35-2.12-1l-.09-.26c-.14-.61.57-1.16 1.59-1.24l48.71-3.76c1-.08 2 .35 2.13 1l.08.35c.16.54-.55 1.1-1.57 1.18z" fill="#99a5aa"/><path d="m51.54 135.38-48.72 3.74c-1 .08-2-.35-2.13-1l-.08-.35c-.15-.61.56-1.17 1.58-1.25l48.73-3.73c1-.08 2 .35 2.12 1l.09.35c.14.61-.57 1.16-1.59 1.24z" fill="#99a5aa"/><rect fill="#828d93" height="57.03" rx="6.52" transform="matrix(.99990495 .01378766 -.01378766 .99990495 2.34 -.35)" width="47.52" x="3.08" y="141.69"/><path d="m38.62 139h12a0 0 0 0 1 0 0v52.8a7.15 7.15 0 0 1 -7.15 7.2h-4.85a0 0 0 0 1 0 0v-60a0 0 0 0 1 0 0z" fill="#6a7175" transform="matrix(.99990495 .01378766 -.01378766 .99990495 2.32 -.6)"/><path d="m50.31 141.2-45.87 3.52c-1 .08-1.92-.34-2.06-.93l-.1-.41c-.15-.59.54-1.14 1.54-1.21l45.87-3.52c1-.08 1.92.34 2.06.93l.1.42c.15.59-.54 1.13-1.54 1.2z" fill="#6a7175"/><path d="m50.3 147.05-45.87 3.52c-1 .08-1.92-.34-2.07-.93l-.1-.41c-.14-.6.55-1.14 1.54-1.21l45.88-3.52c1-.08 1.92.34 2.06.93l.1.42c.16.59-.55 1.15-1.54 1.2z" fill="#6a7175"/><path d="m50.29 152.9-45.88 3.52c-1 .08-1.91-.34-2.06-.93l-.1-.42c-.14-.59.55-1.13 1.54-1.2l45.88-3.52c1-.08 1.91.34 2.06.93l.1.41c.17.6-.55 1.14-1.54 1.21z" fill="#6a7175"/><path d="m50.28 158.75-45.88 3.52c-1 .08-1.92-.34-2.06-.93l-.1-.42c-.14-.59.55-1.13 1.54-1.21l45.87-3.51c1-.08 1.92.34 2.07.93l.1.41c.18.59-.55 1.14-1.54 1.21z" fill="#6a7175"/><path d="m50.26 164.6-45.87 3.52c-1 .07-1.92-.34-2.06-.93l-.1-.42c-.15-.59.54-1.13 1.54-1.21l45.87-3.51c1-.08 1.92.34 2.06.93l.1.41c.2.61-.54 1.13-1.54 1.21z" fill="#6a7175"/><path d="m50.25 170.45-45.87 3.55c-1 .07-1.92-.34-2.06-.93l-.11-.42c-.14-.59.55-1.13 1.55-1.21l45.87-3.52c1-.07 1.92.35 2.06.94l.1.41c.15.56-.54 1.1-1.54 1.18z" fill="#6a7175"/><path d="m50.24 176.3-45.88 3.52c-1 .07-1.91-.34-2.06-.94l-.1-.41c-.14-.59.55-1.13 1.54-1.21l45.88-3.52c1-.07 1.92.34 2.06.94l.1.41c.14.59-.55 1.13-1.54 1.21z" fill="#6a7175"/><path d="m50.23 182.15-45.88 3.52c-1 .07-1.92-.35-2.06-.94l-.1-.41c-.14-.59.55-1.13 1.54-1.21l45.88-3.52c1-.07 1.91.34 2.06.93l.1.42c.14.59-.55 1.13-1.54 1.21z" fill="#6a7175"/><path d="m50.21 188-45.87 3.51c-1 .08-1.92-.34-2.06-.93l-.1-.41c-.18-.59.54-1.17 1.54-1.17l45.87-3.52c1-.08 1.92.34 2.06.93l.11.42c.14.55-.55 1.09-1.55 1.17z" fill="#6a7175"/><path d="m50.2 193.84-45.87 3.52c-1 .08-1.92-.34-2.06-.93l-.1-.41c-.15-.59.54-1.14 1.54-1.21l45.87-3.52c1-.08 1.92.34 2.06.93l.1.42c.15.59-.54 1.13-1.54 1.2z" fill="#6a7175"/><path d="m51.82 140-48.73 3.74c-1 .08-2-.35-2.12-1l-.08-.35c-.15-.61.56-1.16 1.58-1.24l48.73-3.74c1-.08 2 .35 2.12 1l.08.35c.15.61-.56 1.17-1.58 1.24z" fill="#99a5aa"/><path d="m51.72 145.86-48.72 3.74c-1 .08-2-.35-2.13-1l-.08-.35c-.15-.61.56-1.17 1.59-1.25l48.72-3.73c1-.08 2 .35 2.12 1l.09.35c.14.61-.57 1.16-1.59 1.24z" fill="#99a5aa"/><path d="m51.62 151.72-48.72 3.73c-1 .08-2-.35-2.12-1l-.09-.35c-.14-.61.57-1.16 1.59-1.24l48.72-3.7c1-.08 2 .35 2.13 1l.08.35c.15.57-.56 1.13-1.59 1.21z" fill="#99a5aa"/><path d="m51.53 157.57-48.73 3.74c-1 .08-2-.35-2.12-1l-.08-.31c-.15-.61.56-1.17 1.58-1.25l48.73-3.75c1-.08 2 .35 2.12 1l.08.35c.15.59-.56 1.14-1.58 1.22z" fill="#99a5aa"/><path d="m51.43 163.43-48.72 3.73c-1 .08-2-.35-2.12-.95l-.09-.36c-.15-.6.56-1.16 1.59-1.24l48.72-3.74c1-.08 2 .35 2.12 1l.09.35c.15.57-.56 1.13-1.59 1.21z" fill="#99a5aa"/><path d="m51.34 169.28-48.73 3.72c-1 .08-2-.35-2.12-1l-.09-.35c-.14-.61.57-1.17 1.59-1.24l48.72-3.74c1-.08 2 .35 2.13 1l.08.35c.15.63-.56 1.18-1.58 1.26z" fill="#99a5aa"/><path d="m51.24 175.14-48.72 3.74c-1 .07-2-.36-2.13-1l-.08-.36c-.15-.6.56-1.16 1.58-1.24l48.73-3.74c1-.08 2 .35 2.12 1l.09.35c.17.61-.57 1.17-1.59 1.25z" fill="#99a5aa"/><path d="m51.14 181-48.72 3.73c-1 .08-2-.35-2.12-1l-.09-.35c-.15-.61.56-1.17 1.59-1.24l48.72-3.74c1-.08 2 .35 2.12 1l.09.35c.15.61-.56 1.17-1.59 1.25z" fill="#99a5aa"/><path d="m51.05 186.85-48.73 3.74c-1 .07-2-.35-2.12-1l-.08-.35c-.12-.57.56-1.13 1.58-1.24l48.73-3.74c1-.07 2 .36 2.12 1l.08.36c.15.59-.56 1.15-1.58 1.23z" fill="#99a5aa"/><path d="m51 192.7-48.77 3.74c-1 .08-2-.35-2.13-1l-.1-.31c-.15-.61.56-1.17 1.59-1.24l48.72-3.74c1-.08 2 .35 2.12 1l.09.35c.16.57-.52 1.13-1.52 1.2z" fill="#99a5aa"/><path d="m9.6 38.68c-1 1.11-.83 2.47-.61 3.74a112.7 112.7 0 0 1 .44 34.44 1.84 1.84 0 0 0 .9 2.21 5.69 5.69 0 0 0 2.16.39c7 .32 14.93-1.68 17-5.66.91-1.77.57-3.69.21-5.54l-3.7-19.08a8.61 8.61 0 0 0 -1.78-4.39c-1.77-2-5.14-3.15-7.51-4.86-1.8-1.33-4.34-4.24-7.11-1.25z" fill="#fff" opacity=".16"/><path d="m13.82 47.19a111.1 111.1 0 0 1 0 29.82 2.15 2.15 0 0 0 .25 1.69 2.49 2.49 0 0 0 2.33.73 2 2 0 0 0 1.28-1c1.27-2 1.06-4.31.88-6.5a127.72 127.72 0 0 1 -.07-18.66c.14-1.9 2.1-6.41.24-8.08-2.57-2.28-5.16.12-4.91 2z" fill="#fff" opacity=".33"/><path d="m8.52 88.49c4.93 26.19.09 52.58 1.38 78.89.35 7.05 1.13 14.19-1.29 21.06-.59 1.69-1.24 3.67.73 4.95 2.42 1.58 7.19.69 9-1.13s1.48-4.08 1.16-6.19c-3.63-23.48-4-47-4.36-70.59q-.15-9-.28-18c-.05-3-.09-6.09 1.06-9 .74-1.89.45-5.1-4.45-4.89-3.97.12-3.28 3.14-2.95 4.9z" fill="#fff" opacity=".16"/></svg>