<svg viewBox="0 0 63.16 190.92" xmlns="http://www.w3.org/2000/svg" xmlns:xlink="http://www.w3.org/1999/xlink"><clipPath id="a"><path d="m51.25 27.53h-38.03l17.36 159.77 6.34-.25z"/></clipPath><clipPath id="b"><path d="m51.25 27.53-8.56 158.47c-.15 2.75-3.5 4.92-7.55 4.87h-.85c-4.35 0-7.91-2.37-8.15-5.33l-12.92-158z"/></clipPath><g fill="#99a5aa"><ellipse cx="31.58" cy="80.39" rx="31.58" ry="2.37"/><ellipse cx="31.58" cy="91.28" rx="30.49" ry="2.37"/><ellipse cx="31.58" cy="102.17" rx="29.4" ry="2.37"/><ellipse cx="31.58" cy="110.89" rx="26.14" ry="2.37"/><ellipse cx="31.58" cy="121.78" rx="25.05" ry="2.37"/><ellipse cx="33.76" cy="132.67" rx="23.96" ry="2.37"/><ellipse cx="33.76" cy="143.55" rx="21.78" ry="2.37"/><ellipse cx="33.76" cy="154.44" rx="19.6" ry="2.37"/><ellipse cx="33.76" cy="165.33" rx="15.25" ry="2.37"/><ellipse cx="33.76" cy="176.22" rx="14.16" ry="2.37"/><ellipse cx="33.76" cy="184.94" rx="11.98" ry="2.37"/></g><path d="m6.1 3.09h52.27v26.27h-52.27z" fill="#828d93"/><path d="m6.1 3.09 2.72-3.09h47.9l1.65 3.09z" fill="#beced3"/><path d="m6.1 3.09h14.54v26.27h-14.54z" fill="#939fa5"/><path d="m43.83 3.09h14.54v26.22h-14.54z" fill="#747d82"/><path d="m43.83 29.34h2a44.69 44.69 0 0 1 3.9-12.85 31.59 31.59 0 0 1 8.64-10.85v-2.52h-14.54z" fill="#6a7175"/><path d="m9.5 6.89a28.06 28.06 0 0 1 -3.4 4.28v18.2h14.54v-26.28h-9.53a16.1 16.1 0 0 1 -1.61 3.8z" fill="#99a5aa"/><path d="m6.1 3.09 2.72-3.09h13.98l-2.16 3.09z" fill="#d6e6ea"/><path d="m58.37 3.12-1.65-3.12h-14.49l1.6 3.12z" fill="#acb9bc"/><g clip-path="url(#a)"><g clip-path="url(#b)"><path d="m13.22 29.06h38.13v51.9h-38.13z" fill="#828d93"/><path d="m13.22 27.53h38v22.57s-2.49-9.54-13.87-13.57a115.86 115.86 0 0 0 -24.16-5.25z" fill="#6a7175"/><path d="m42.25 34.85h8.99v42h-8.99z" fill="#6a7175"/><path d="m12.17 79.7h40.25v55.47h-40.25z" fill="#828d93"/><g fill="#6a7175"><path d="m42.25 76.85h10.17v58.31h-10.17z"/><path d="m51.83 78.92-38.83 4.08a1.55 1.55 0 0 1 -1.75-.87l-.09-.41c-.13-.57.45-1.1 1.29-1.19l38.81-4c.84-.08 1.63.31 1.75.88l.09.4c.15.49-.43 1.02-1.27 1.11z"/><path d="m51.89 84.61-38.81 4c-.84.09-1.63-.3-1.75-.88l-.09-.4c-.13-.57.45-1.11 1.29-1.19l38.81-4a1.56 1.56 0 0 1 1.75.88l.09.4c.13.58-.45 1.1-1.29 1.19z"/><path d="m52 90.3-38.81 4a1.57 1.57 0 0 1 -1.76-.88l-.09-.4c-.12-.57.45-1.11 1.29-1.2l38.81-4a1.57 1.57 0 0 1 1.76.88l.09.4c.08.57-.5 1.11-1.29 1.2z"/><path d="m52 96-38.8 4a1.57 1.57 0 0 1 -1.76-.88l-.09-.4c-.13-.57.45-1.11 1.29-1.2l38.81-4a1.56 1.56 0 0 1 1.76.88l.09.4c.13.56-.45 1.1-1.3 1.2z"/><path d="m52.06 101.67-38.8 4c-.85.08-1.63-.31-1.76-.88l-.09-.4c-.13-.58.45-1.11 1.29-1.2l38.81-4c.84-.09 1.63.3 1.75.88l.09.4c.13.58-.44 1.12-1.29 1.2z"/><path d="m52.12 107.36-38.81 4a1.57 1.57 0 0 1 -1.75-.88l-.09-.41c-.13-.57.45-1.1 1.29-1.19l38.81-4a1.57 1.57 0 0 1 1.75.88l.09.41c.13.57-.41 1.1-1.29 1.19z"/><path d="m52.18 113.05-38.81 4a1.56 1.56 0 0 1 -1.76-.88l-.09-.4c-.12-.57.45-1.11 1.3-1.19l38.8-4c.85-.08 1.63.31 1.76.88l.09.4c.13.57-.47 1.14-1.29 1.19z"/><path d="m52.24 118.74-38.81 4a1.56 1.56 0 0 1 -1.76-.88l-.09-.4c-.13-.57.45-1.11 1.29-1.2l38.81-4a1.57 1.57 0 0 1 1.76.88l.09.4c.13.57-.45 1.11-1.29 1.2z"/><path d="m52.29 124.43-38.8 4a1.57 1.57 0 0 1 -1.76-.88l-.09-.4c-.13-.57.45-1.11 1.29-1.2l38.81-4a1.56 1.56 0 0 1 1.76.88l.09.4c.12.57-.45 1.11-1.3 1.2z"/><path d="m52.35 130.11-38.81 4a1.57 1.57 0 0 1 -1.75-.88l-.09-.4c-.13-.58.45-1.11 1.29-1.2l38.81-4a1.55 1.55 0 0 1 1.75.88l.09.4c.13.58-.45 1.09-1.29 1.2z"/></g><path d="m53.09 77.74-41.22 4.26a1.61 1.61 0 0 1 -1.8-.9l-.07-.33c-.13-.59.46-1.14 1.33-1.23l41.22-4.28a1.62 1.62 0 0 1 1.81.9l.07.34c.12.59-.43 1.15-1.34 1.24z" fill="#99a5aa"/><path d="m53.08 83.43-41.22 4.29a1.62 1.62 0 0 1 -1.81-.91l-.05-.34c-.14-.59.46-1.14 1.33-1.23l41.19-4.24a1.61 1.61 0 0 1 1.81.91l.08.34c.13.54-.41 1.09-1.33 1.18z" fill="#99a5aa"/><path d="m53.07 89.13-41.22 4.28c-.87.09-1.68-.31-1.81-.9l-.04-.34c-.13-.59.47-1.15 1.33-1.24l41.22-4.28c.87-.09 1.68.31 1.81.9l.08.35c.09.58-.51 1.1-1.37 1.23z" fill="#99a5aa"/><path d="m53.05 94.82-41.22 4.29a1.61 1.61 0 0 1 -1.83-.91v-.34c-.13-.59.46-1.14 1.33-1.23l41.17-4.28a1.62 1.62 0 0 1 1.81.9l.07.34c.13.59-.46 1.14-1.33 1.23z" fill="#99a5aa"/><path d="m53 100.52-41.18 4.28a1.61 1.61 0 0 1 -1.81-.9l-.07-.34c-.14-.59.46-1.14 1.33-1.23l41.21-4.33a1.61 1.61 0 0 1 1.81.91l.08.34c.13.63-.46 1.18-1.37 1.27z" fill="#99a5aa"/><path d="m53 106.21-41.19 4.29a1.61 1.61 0 0 1 -1.81-.91l-.08-.34c-.13-.59.47-1.14 1.33-1.23l41.22-4.28c.87-.09 1.68.31 1.81.9l.08.34c.13.59-.47 1.14-1.36 1.23z" fill="#99a5aa"/><path d="m53 111.91-41.22 4.28c-.86.09-1.67-.31-1.8-.9l-.07-.29c-.13-.59.46-1.14 1.33-1.23l41.22-4.29a1.63 1.63 0 0 1 1.81.91l.07.34c.13.54-.46 1.09-1.34 1.18z" fill="#99a5aa"/><path d="m53 117.6-41.22 4.29a1.62 1.62 0 0 1 -1.78-.89l-.07-.34c-.14-.59.46-1.14 1.33-1.23l41.21-4.28c.87-.09 1.68.31 1.81.9l.08.34c.1.61-.49 1.12-1.36 1.21z" fill="#99a5aa"/><path d="m53 123.3-41.22 4.28c-.87.09-1.68-.31-1.81-.9l-.08-.34c-.13-.59.47-1.14 1.33-1.23l41.22-4.29a1.61 1.61 0 0 1 1.81.91l.08.34c.12.59-.48 1.14-1.33 1.23z" fill="#99a5aa"/><path d="m53 129-41.22 4.29a1.61 1.61 0 0 1 -1.8-.91l-.11-.38c-.13-.59.46-1.14 1.33-1.23l41.22-4.28a1.62 1.62 0 0 1 1.81.9l.07.34c.13.62-.46 1.17-1.3 1.27z" fill="#99a5aa"/><rect fill="#828d93" height="55.47" rx="5.92" width="40.25" x="12.34" y="135.45"/><path d="m42.42 132.61h10.17a0 0 0 0 1 0 0v51.82a6.49 6.49 0 0 1 -6.49 6.49h-3.68a0 0 0 0 1 0 0v-58.31a0 0 0 0 1 0 0z" fill="#6a7175"/><path d="m52 134.67-38.81 4a1.56 1.56 0 0 1 -1.75-.88l-.09-.4c-.13-.58.45-1.11 1.29-1.2l38.81-4a1.55 1.55 0 0 1 1.75.88l.09.4c.13.58-.45 1.12-1.29 1.2z" fill="#6a7175"/><path d="m52.06 140.36-38.81 4c-.84.08-1.63-.31-1.76-.88l-.09-.41c-.12-.57.45-1.1 1.3-1.19l38.8-4c.84-.09 1.63.3 1.76.87l.09.41c.13.58-.45 1.11-1.29 1.2z" fill="#6a7175"/><path d="m52.12 146.05-38.81 4a1.56 1.56 0 0 1 -1.76-.88l-.09-.4c-.13-.57.45-1.11 1.29-1.19l38.81-4c.84-.08 1.63.31 1.76.88l.09.4c.13.57-.41 1.14-1.29 1.19z" fill="#6a7175"/><path d="m52.17 151.74-38.8 4a1.55 1.55 0 0 1 -1.76-.88l-.09-.4c-.13-.57.45-1.11 1.29-1.19l38.81-4c.84-.09 1.63.31 1.75.88l.1.4c.12.57-.47 1.1-1.3 1.19z" fill="#6a7175"/><path d="m52.23 157.43-38.81 4a1.56 1.56 0 0 1 -1.75-.88l-.09-.4c-.13-.57.45-1.11 1.29-1.2l38.81-4a1.56 1.56 0 0 1 1.75.88l.09.4c.13.57-.45 1.11-1.29 1.2z" fill="#6a7175"/><path d="m52.29 163.11-38.81 4c-.84.09-1.63-.31-1.75-.88l-.1-.4c-.12-.58.45-1.11 1.3-1.2l38.8-4a1.55 1.55 0 0 1 1.76.88l.09.4c.13.58-.45 1.09-1.29 1.2z" fill="#6a7175"/><path d="m52.35 168.8-38.81 4c-.84.08-1.63-.31-1.76-.88l-.09-.4c-.13-.58.45-1.11 1.29-1.2l38.81-4c.84-.09 1.63.3 1.76.87l.09.41c.13.58-.45 1.11-1.29 1.2z" fill="#6a7175"/><path d="m52.41 174.49-38.81 4c-.84.09-1.63-.3-1.76-.87l-.09-.41c-.13-.57.45-1.1 1.29-1.19l38.81-4c.84-.08 1.63.31 1.76.88l.09.4c.12.57-.45 1.1-1.29 1.19z" fill="#6a7175"/><path d="m52.46 180.18-38.81 4a1.55 1.55 0 0 1 -1.75-.88l-.09-.4c-.13-.57.45-1.11 1.29-1.19l38.81-4c.84-.09 1.63.31 1.75.88l.09.4c.13.57-.45 1.1-1.29 1.19z" fill="#6a7175"/><path d="m52.52 185.87-38.81 4c-.84.09-1.63-.31-1.75-.88l-.09-.4c-.13-.57.45-1.11 1.29-1.2l38.8-4a1.57 1.57 0 0 1 1.76.88l.09.4c.13.57-.45 1.11-1.29 1.2z" fill="#6a7175"/><path d="m53.26 133.49-41.26 4.28a1.62 1.62 0 0 1 -1.81-.9l-.07-.34c-.13-.59.46-1.14 1.33-1.23l41.26-4.3a1.61 1.61 0 0 1 1.8.91l.08.34c.13.6-.46 1.15-1.33 1.24z" fill="#99a5aa"/><path d="m53.25 139.18-41.25 4.29a1.61 1.61 0 0 1 -1.81-.91l-.08-.34c-.13-.59.47-1.14 1.33-1.23l41.22-4.28c.87-.09 1.68.31 1.81.9l.08.34c.16.59-.44 1.14-1.3 1.23z" fill="#99a5aa"/><path d="m53.23 144.88-41.23 4.28c-.87.09-1.68-.31-1.81-.9l-.08-.34c-.13-.59.46-1.14 1.33-1.23l41.22-4.29a1.62 1.62 0 0 1 1.81.91l.07.34c.16.59-.44 1.14-1.31 1.23z" fill="#99a5aa"/><path d="m53.22 150.57-41.22 4.29a1.63 1.63 0 0 1 -1.81-.91l-.07-.34c-.13-.59.46-1.14 1.33-1.23l41.22-4.28c.86-.09 1.67.31 1.8.9l.08.34c.13.59-.46 1.14-1.33 1.23z" fill="#99a5aa"/><path d="m53.21 156.27-41.21 4.28c-.87.09-1.68-.31-1.81-.9l-.08-.34c-.13-.59.47-1.14 1.33-1.23l41.22-4.29a1.61 1.61 0 0 1 1.81.91l.08.34c.12.59-.48 1.14-1.34 1.23z" fill="#99a5aa"/><path d="m53.19 162-41.19 4.25c-.87.09-1.68-.31-1.81-.9l-.08-.35c-.13-.59.46-1.14 1.33-1.23l41.22-4.28a1.61 1.61 0 0 1 1.81.9l.07.34c.12.59-.48 1.15-1.35 1.27z" fill="#99a5aa"/><path d="m53.18 167.66-41.18 4.34a1.63 1.63 0 0 1 -1.81-.91l-.07-.34c-.13-.59.46-1.14 1.33-1.23l41.22-4.29a1.61 1.61 0 0 1 1.8.91l.08.34c.09.52-.5 1.09-1.37 1.18z" fill="#99a5aa"/><path d="m53.17 173.36-41.17 4.28c-.87.09-1.68-.31-1.81-.9l-.08-.34c-.13-.59.47-1.15 1.33-1.24l41.22-4.28c.87-.09 1.68.32 1.81.9l.08.35c.08.59-.55 1.14-1.38 1.23z" fill="#99a5aa"/><path d="m53.15 179.05-41.21 4.29a1.61 1.61 0 0 1 -1.81-.91l-.08-.34c-.13-.59.46-1.14 1.33-1.23l41.22-4.28a1.61 1.61 0 0 1 1.81.9l.07.34c.14.59-.48 1.18-1.33 1.23z" fill="#99a5aa"/><path d="m53.14 184.75-41.22 4.25a1.62 1.62 0 0 1 -1.81-.9l-.07-.34c-.13-.59.46-1.14 1.33-1.23l41.22-4.29a1.61 1.61 0 0 1 1.8.91l.08.34c.13.62-.47 1.17-1.33 1.26z" fill="#99a5aa"/><path d="m16.33 35.52c-.86 1.09-.67 2.41-.48 3.64a125.19 125.19 0 0 1 .78 33.48 1.89 1.89 0 0 0 .79 2.14 4.2 4.2 0 0 0 1.84.35c6 .22 12.61-1.83 14.29-5.73.75-1.74.44-3.59.12-5.39q-1.67-9.24-3.31-18.5a9 9 0 0 0 -1.55-4.25c-1.53-1.94-4.39-3-6.42-4.63-1.56-1.26-3.75-4.06-6.06-1.11z" fill="#fff" opacity=".16"/><path d="m20 43.74a123.86 123.86 0 0 1 .35 29 2.34 2.34 0 0 0 .23 1.64 1.94 1.94 0 0 0 2 .68 1.74 1.74 0 0 0 1.08-1c1.05-2 .84-4.21.67-6.34a140.82 140.82 0 0 1 -.33-18.11c.09-1.85 1.71-6.27.11-7.86-2.17-2.21-4.34.15-4.11 1.99z" fill="#fff" opacity=".33"/><path d="m16 84c4.48 25.4.69 51.13 2.1 76.7.37 6.85 1.11 13.78-.86 20.5-.48 1.64-1 3.58.68 4.8 2.07 1.5 6.1.57 7.59-1.22s1.21-4 .91-6c-3.34-22.78-3.93-45.69-4.51-68.58l-.46-17.6a25.35 25.35 0 0 1 .8-8.79c.6-1.85.32-5-3.83-4.69-3.34.21-2.73 3.14-2.42 4.88z" fill="#fff" opacity=".16"/></g></g></svg>