<svg viewBox="0 0 52.27 191.74" xmlns="http://www.w3.org/2000/svg" xmlns:xlink="http://www.w3.org/1999/xlink"><clipPath id="a"><path d="m47.12 29.37-9.45 157.44c-.16 2.74-3.86 4.89-8.33 4.85h-.94c-4.8-.05-8.72-2.36-9-5.3l-14.25-156.99z"/></clipPath><path d="m0 3.09h52.27v26.27h-52.27z" fill="#828d93"/><path d="m0 3.09 2.72-3.09h47.9l1.65 3.09z" fill="#beced3"/><path d="m0 3.09h14.54v26.27h-14.54z" fill="#939fa5"/><path d="m37.73 3.09h14.54v26.22h-14.54z" fill="#747d82"/><path d="m37.73 29.34h2a44.69 44.69 0 0 1 3.9-12.85 31.48 31.48 0 0 1 8.64-10.85v-2.52h-14.54z" fill="#6a7175"/><path d="m3.4 6.89a28.06 28.06 0 0 1 -3.4 4.28v18.2h14.54v-26.28h-9.54a16.1 16.1 0 0 1 -1.6 3.8z" fill="#99a5aa"/><path d="m0 3.09 2.72-3.09h13.98l-2.16 3.09z" fill="#d6e6ea"/><path d="m52.27 3.12-1.65-3.12h-14.49l1.6 3.12z" fill="#acb9bc"/><g clip-path="url(#a)"><path d="m5.15 30.88h42.08v51.57h-42.08z" fill="#828d93"/><path d="m5.15 29.37h42v22.43s-2.74-9.49-15.31-13.49a140.43 140.43 0 0 0 -26.69-5.21z" fill="#6a7175"/><path d="m37.19 36.64h9.93v41.74h-9.93z" fill="#6a7175"/><path d="m3.99 81.21h44.43v55.12h-44.43z" fill="#828d93"/><g fill="#6a7175"><path d="m37.19 78.38h11.22v57.95h-11.22z"/><path d="m47.77 80.44-42.84 4c-.93.09-1.8-.3-1.94-.87l-.1-.4c-.14-.57.5-1.1 1.43-1.19l42.83-4c.93-.08 1.8.31 1.94.88l.1.4c.14.56-.5 1.09-1.42 1.18z"/><path d="m47.83 86.09-42.83 4.01c-.92.08-1.79-.31-1.93-.88l-.1-.4c-.15-.56.49-1.1 1.42-1.18l42.84-4c.92-.09 1.79.3 1.93.87l.1.4c.14.56-.5 1.09-1.43 1.18z"/><path d="m47.89 91.74-42.83 4c-.93.09-1.8-.3-1.94-.87l-.1-.4c-.14-.57.5-1.1 1.43-1.19l42.83-4c.93-.09 1.8.3 1.94.87l.1.4c.14.57-.5 1.1-1.43 1.19z"/><path d="m48 97.39-42.84 4c-.93.09-1.8-.3-1.94-.87l-.1-.4c-.14-.57.5-1.1 1.43-1.19l42.83-4c.93-.08 1.8.31 1.94.88l.1.4c.1.56-.53 1.1-1.42 1.18z"/><path d="m48 103.05-42.83 4c-.93.08-1.8-.31-1.94-.88l-.1-.4c-.14-.57.49-1.1 1.42-1.19l42.84-4c.93-.08 1.79.31 1.94.88l.1.4c.16.57-.43 1.14-1.43 1.19z"/><path d="m48.08 108.7-42.83 4c-.93.08-1.8-.31-1.94-.88l-.1-.4c-.14-.56.5-1.1 1.43-1.18l42.83-4c.93-.09 1.8.3 1.94.87l.1.4c.14.57-.51 1.1-1.43 1.19z"/><path d="m48.15 114.35-42.84 4c-.93.09-1.79-.3-1.94-.87l-.1-.4c-.14-.57.5-1.1 1.43-1.19l42.83-4c.93-.09 1.8.3 1.94.87l.1.4c.14.57-.49 1.1-1.42 1.19z"/><path d="m48.21 120-42.83 4c-.93.09-1.8-.3-1.94-.87l-.1-.4c-.14-.57.49-1.1 1.42-1.19l42.84-4c.93-.08 1.79.31 1.94.88l.1.4c.14.56-.5 1.1-1.43 1.18z"/><path d="m48.27 125.66-42.83 4c-.93.08-1.8-.31-1.94-.88l-.1-.4c-.14-.57.5-1.1 1.43-1.19l42.83-4c.93-.09 1.8.3 1.94.87l.1.4c.14.54-.5 1.11-1.43 1.2z"/><path d="m48.34 131.31-42.84 4c-.92.08-1.79-.31-1.93-.88l-.1-.39c-.15-.57.49-1.11 1.42-1.19l42.84-4c.92-.09 1.79.3 1.93.87l.1.4c.15.57-.49 1.1-1.42 1.19z"/></g><path d="m49.16 79.26-45.5 4.26c-1 .09-1.85-.32-2-.9l-.09-.34c-.15-.59.51-1.14 1.47-1.23l45.5-4.25c1-.09 1.85.31 2 .9l.08.33c.15.59-.51 1.14-1.46 1.23z" fill="#99a5aa"/><path d="m49.14 84.92-45.49 4.26c-1 .09-1.85-.32-2-.9l-.08-.34c-.15-.59.51-1.14 1.46-1.23l45.5-4.25c.95-.09 1.85.31 2 .9l.09.33c.13.59-.52 1.14-1.48 1.23z" fill="#99a5aa"/><path d="m49.13 90.58-45.5 4.26c-.95.09-1.85-.32-2-.9l-.09-.34c-.13-.6.52-1.14 1.46-1.23l45.49-4.25c1-.09 1.85.31 2 .9l.08.33c.17.59-.49 1.14-1.44 1.23z" fill="#99a5aa"/><path d="m49.11 96.24-45.49 4.26c-1 .09-1.85-.32-2-.9l-.08-.34c-.15-.59.51-1.14 1.46-1.26l45.5-4.25c1-.09 1.85.31 2 .9l.09.33c.14.62-.52 1.17-1.48 1.26z" fill="#99a5aa"/><path d="m49.1 101.9-45.5 4.26c-1 .08-1.85-.32-2-.9l-.09-.34c-.14-.59.51-1.14 1.47-1.23l45.49-4.25c1-.09 1.85.31 2 .9l.08.33c.16.59-.5 1.14-1.45 1.23z" fill="#99a5aa"/><path d="m49.08 107.56-45.49 4.26c-1 .08-1.85-.32-2-.9l-.08-.34c-.15-.58.49-1.14 1.49-1.23l45.5-4.25c1-.09 1.85.31 2 .9l.08.33c.12.59-.58 1.14-1.5 1.23z" fill="#99a5aa"/><path d="m49.07 113.22-45.5 4.26c-.95.08-1.85-.32-2-.9l-.09-.34c-.13-.59.52-1.14 1.52-1.24l45.49-4.25c1-.09 1.85.31 2 .9l.08.33c.11.6-.57 1.15-1.5 1.24z" fill="#99a5aa"/><path d="m49.05 118.88-45.49 4.26c-1 .08-1.85-.32-2-.9l-.08-.34c-.15-.59.51-1.14 1.46-1.23l45.5-4.25c1-.09 1.85.31 2 .9l.08.33c.15.59-.52 1.14-1.47 1.23z" fill="#99a5aa"/><path d="m49 124.54-45.46 4.26c-1 .08-1.85-.32-2-.9l-.09-.34c-.14-.59.51-1.14 1.47-1.23l45.5-4.25c1-.09 1.84.31 2 .9l.09.33c.14.59-.51 1.14-1.51 1.23z" fill="#99a5aa"/><path d="m49 130.2-45.47 4.26c-1 .08-1.85-.32-2-.9l-.08-.34c-.15-.59.51-1.14 1.46-1.23l45.5-4.25c1-.09 1.85.31 2 .9l.08.33c.15.59-.49 1.14-1.49 1.23z" fill="#99a5aa"/><rect fill="#828d93" height="55.12" rx="6.2" width="44.43" x="4.17" y="136.61"/><path d="m37.38 133.79h11.22a0 0 0 0 1 0 0v51.15a6.8 6.8 0 0 1 -6.8 6.8h-4.42a0 0 0 0 1 0 0v-57.95a0 0 0 0 1 0 0z" fill="#6a7175"/><path d="m48 135.84-42.83 4c-.93.09-1.8-.3-1.94-.87l-.1-.4c-.14-.57.49-1.1 1.42-1.19l42.84-4c.93-.09 1.79.3 1.94.87l.1.4c.09.57-.55 1.1-1.43 1.19z" fill="#6a7175"/><path d="m48 141.49-42.83 4c-.93.09-1.8-.3-1.94-.87l-.1-.4c-.14-.57.5-1.1 1.43-1.19l42.83-4c.93-.08 1.8.31 1.94.88l.1.39c.15.57-.49 1.11-1.43 1.19z" fill="#6a7175"/><path d="m48.08 147.15-42.84 4c-.93.09-1.79-.3-1.94-.87l-.09-.4c-.15-.57.49-1.1 1.42-1.19l42.83-4c.93-.08 1.8.31 1.94.88l.1.4c.14.56-.5 1.09-1.42 1.18z" fill="#6a7175"/><path d="m48.14 152.8-42.83 4c-.93.08-1.8-.31-1.94-.88l-.1-.4c-.14-.56.5-1.1 1.42-1.18l42.84-4c.93-.09 1.8.3 1.94.87l.1.4c.14.57-.5 1.1-1.43 1.19z" fill="#6a7175"/><path d="m48.21 158.45-42.84 4c-.93.09-1.8-.3-1.94-.87l-.1-.4c-.14-.57.5-1.1 1.43-1.19l42.83-4c.93-.09 1.8.3 1.94.87l.1.4c.14.57-.5 1.1-1.42 1.19z" fill="#6a7175"/><path d="m48.27 164.1-42.84 4c-.92.09-1.79-.3-1.93-.87l-.1-.4c-.15-.57.49-1.1 1.42-1.19l42.84-4c.93-.08 1.79.31 1.93.88l.1.4c.15.56-.49 1.08-1.42 1.18z" fill="#6a7175"/><path d="m48.33 169.76-42.83 4c-.93.09-1.8-.3-1.94-.87l-.1-.4c-.14-.57.5-1.1 1.43-1.19l42.83-4c.93-.08 1.8.31 1.94.88l.1.4c.14.56-.5 1.09-1.43 1.18z" fill="#6a7175"/><path d="m48.4 175.41-42.84 4c-.93.08-1.79-.31-1.94-.88l-.1-.4c-.14-.55.48-1.13 1.48-1.13l42.83-4c.93-.09 1.8.3 1.94.87l.1.4c.13.52-.54 1.05-1.47 1.14z" fill="#6a7175"/><path d="m48.46 181.06-42.83 4c-.93.09-1.8-.3-1.94-.87l-.1-.4c-.14-.57.49-1.1 1.42-1.19l42.84-4c.93-.09 1.79.3 1.94.87l.1.4c.11.57-.5 1.13-1.43 1.19z" fill="#6a7175"/><path d="m48.52 186.71-42.83 4c-.93.09-1.8-.3-1.94-.87l-.1-.4c-.14-.57.5-1.1 1.43-1.19l42.83-4c.93-.08 1.8.31 1.94.88l.1.4c.14.56-.5 1.1-1.43 1.18z" fill="#6a7175"/><path d="m49.34 134.66-45.49 4.26c-1 .09-1.85-.31-2-.9l-.08-.34c-.15-.58.51-1.13 1.46-1.22l45.5-4.26c1-.09 1.85.31 2 .9l.09.34c.18.56-.52 1.13-1.48 1.22z" fill="#99a5aa"/><path d="m49.33 140.32-45.5 4.26c-1 .09-1.85-.31-2-.9l-.09-.34c-.14-.58.51-1.13 1.47-1.22l45.49-4.26c1-.09 1.85.31 2 .9l.08.34c.16.59-.5 1.13-1.45 1.22z" fill="#99a5aa"/><path d="m49.31 146-45.49 4.24c-1 .09-1.85-.31-2-.9l-.08-.34c-.15-.58.51-1.13 1.46-1.22l45.5-4.26c1-.09 1.85.31 2 .9l.09.34c.14.59-.52 1.13-1.48 1.24z" fill="#99a5aa"/><path d="m49.3 151.64-45.5 4.26c-.95.09-1.85-.31-2-.9l-.09-.34c-.14-.58.51-1.13 1.47-1.22l45.49-4.26c1-.09 1.85.31 2 .9l.08.34c.16.58-.5 1.13-1.45 1.22z" fill="#99a5aa"/><path d="m49.28 157.3-45.49 4.26c-1 .09-1.85-.31-2-.9l-.08-.34c-.15-.58.51-1.13 1.46-1.22l45.5-4.26c1-.09 1.85.31 2 .9l.08.34c.15.59-.51 1.13-1.47 1.22z" fill="#99a5aa"/><path d="m49.27 163-45.5 4.26c-1 .09-1.85-.31-2-.9l-.08-.36c-.14-.58.51-1.13 1.47-1.22l45.49-4.26c1-.09 1.85.31 2 .9l.08.34c.15.56-.51 1.11-1.46 1.24z" fill="#99a5aa"/><path d="m49.25 168.62-45.49 4.26c-1 .09-1.85-.31-2-.9l-.08-.34c-.15-.58.51-1.13 1.46-1.22l45.5-4.26c1-.09 1.85.31 2 .9l.08.34c.15.6-.51 1.13-1.47 1.22z" fill="#99a5aa"/><path d="m49.24 174.28-45.5 4.26c-1 .09-1.85-.31-2-.9l-.09-.34c-.14-.58.51-1.13 1.47-1.22l45.5-4.26c.95-.09 1.84.31 2 .9l.09.34c.14.58-.52 1.13-1.47 1.22z" fill="#99a5aa"/><path d="m49.22 179.94-45.49 4.26c-1 .09-1.85-.31-2-.9l-.08-.3c-.15-.58.51-1.13 1.47-1.22l45.49-4.26c1-.09 1.85.31 2 .9l.08.34c.15.54-.51 1.09-1.47 1.18z" fill="#99a5aa"/><path d="m49.21 185.6-45.5 4.26c-1 .09-1.85-.31-2-.9l-.09-.34c-.14-.58.51-1.13 1.47-1.22l45.5-4.26c.95-.09 1.85.31 2 .9l.09.34c.14.62-.51 1.13-1.47 1.22z" fill="#99a5aa"/><path d="m8.58 37.3c-1 1.09-.74 2.4-.53 3.63a112.17 112.17 0 0 1 .86 33.27 1.78 1.78 0 0 0 .87 2.12 5.25 5.25 0 0 0 2 .35c6.58.22 13.93-1.82 15.78-5.69.82-1.73.48-3.57.12-5.36q-1.82-9.2-3.64-18.39a8.46 8.46 0 0 0 -1.69-4.23c-1.68-1.93-4.84-3-7.08-4.6-1.73-1.24-4.14-4.03-6.69-1.1z" fill="#fff" opacity=".16"/><path d="m12.63 45.47a111.24 111.24 0 0 1 .37 28.82 2.09 2.09 0 0 0 .25 1.63 2.29 2.29 0 0 0 2.19.67 1.83 1.83 0 0 0 1.18-1c1.16-2 .93-4.18.75-6.3a124.63 124.63 0 0 1 -.31-18c.1-1.84 1.88-6.23.12-7.82a2.62 2.62 0 0 0 -4.55 2z" fill="#fff" opacity=".33"/><path d="m8.21 85.45c4.94 25.25.76 50.81 2.31 76.23.41 6.8 1.23 13.69-.94 20.37-.53 1.63-1.12 3.55.74 4.77 2.29 1.49 6.74.57 8.38-1.21s1.33-4 1-6c-3.68-22.63-4.33-45.41-5-68.15q-.24-8.72-.49-17.42c-.09-2.92-.16-5.88.88-8.74.67-1.84.36-4.92-4.23-4.66-3.66.21-2.98 3.11-2.65 4.81z" fill="#fff" opacity=".16"/></g></svg>